<svg width="222" height="50" viewBox="0 0 222 50" fill="none" xmlns="http://www.w3.org/2000/svg">
<path fill-rule="evenodd" clip-rule="evenodd" d="M62.84 35.1625C63.0522 35.1625 63.2019 35.2053 63.2892 35.291C63.3764 35.3769 63.42 35.5117 63.42 35.6957V38.4684C63.42 38.5603 63.3723 38.6064 63.2766 38.6064H62.6655C62.5739 38.6064 62.5281 38.5603 62.5281 38.4684V36.0908C62.5281 36.003 62.4845 35.9592 62.3972 35.9592H59.815C59.7275 35.9592 59.6839 36.003 59.6839 36.0908V38.4684C59.6839 38.5603 59.6384 38.6064 59.5468 38.6064H58.9355C58.8399 38.6064 58.792 38.5603 58.792 38.4684V35.6957C58.792 35.5116 58.8357 35.3769 58.9232 35.291C59.0104 35.2053 59.1601 35.1625 59.3722 35.1625H62.84ZM67.9858 35.1625C68.1729 35.1625 68.307 35.2064 68.3881 35.2942C68.4693 35.382 68.5098 35.5054 68.5098 35.6644V38.4558C68.5098 38.5563 68.4681 38.6064 68.385 38.6064H67.755C67.6677 38.6064 67.6239 38.5584 67.6239 38.4622V36.0595C67.6239 35.9926 67.5846 35.9592 67.5056 35.9592H66.1521C66.0856 35.9592 66.0438 35.9727 66.0272 35.9999C66.0106 36.027 65.9983 36.0595 65.9899 36.0971C65.9773 36.1893 65.9598 36.3147 65.9369 36.4736C65.9139 36.6324 65.886 36.8029 65.8526 36.9846C65.8194 37.1667 65.7799 37.3496 65.7341 37.5336C65.6885 37.7176 65.6386 37.8788 65.5844 38.0168C65.5429 38.1129 65.4971 38.1976 65.4472 38.2708C65.3974 38.344 65.3361 38.4057 65.2633 38.4558C65.1905 38.506 65.1063 38.5436 65.0107 38.5687C64.915 38.5937 64.8007 38.6063 64.6677 38.6063H64.0752C63.992 38.6063 63.9503 38.5603 63.9503 38.4683V38.0104C63.9503 37.9141 63.992 37.8661 64.0752 37.8661H64.518C64.5968 37.8661 64.675 37.844 64.7518 37.8002C64.8287 37.7562 64.8983 37.655 64.9608 37.4959C65.0314 37.3245 65.0928 37.083 65.1447 36.7714C65.1967 36.4597 65.2561 36.0657 65.3226 35.5888C65.3392 35.459 65.3817 35.3556 65.4504 35.2783C65.519 35.2009 65.6446 35.1624 65.8276 35.1624H67.9858V35.1625ZM72.065 35.1625C72.3435 35.1625 72.5785 35.1865 72.7697 35.2346C72.9611 35.2828 73.1139 35.358 73.2282 35.4605C73.3427 35.5628 73.4246 35.6947 73.4745 35.8557C73.5244 36.0166 73.5495 36.2102 73.5495 36.4359V38.1046C73.5495 38.205 73.5423 38.2877 73.5276 38.3524C73.5132 38.4172 73.488 38.4685 73.4529 38.5061C73.4175 38.5437 73.3707 38.5699 73.3125 38.5844C73.2543 38.5992 73.1795 38.6064 73.0879 38.6064H70.119C69.9361 38.6064 69.7832 38.5887 69.6605 38.5531C69.5379 38.5175 69.439 38.4643 69.3643 38.3931C69.2894 38.322 69.2363 38.2301 69.2052 38.1171C69.1741 38.0042 69.1585 37.8703 69.1585 37.7156V37.4145C69.1585 37.2847 69.1741 37.1687 69.2052 37.0664C69.2363 36.9638 69.2894 36.877 69.3643 36.806C69.439 36.7349 69.5378 36.6816 69.6605 36.646C69.7832 36.6104 69.9361 36.5926 70.119 36.5926H72.6576V36.4736C72.6576 36.3732 72.6472 36.2874 72.6263 36.2164C72.6055 36.1452 72.5701 36.0877 72.5202 36.0437C72.4702 35.9999 72.4019 35.9674 72.3146 35.9466C72.2271 35.9256 72.115 35.9153 71.9776 35.9153H69.3705C69.2956 35.9153 69.2583 35.8775 69.2583 35.8023V35.2753C69.2583 35.2001 69.2957 35.1625 69.3705 35.1625H72.065V35.1625ZM72.4766 37.9164C72.5432 37.9164 72.5899 37.9006 72.617 37.8694C72.6441 37.8379 72.6576 37.7826 72.6576 37.703V37.151H70.3746C70.2458 37.151 70.1555 37.1771 70.1033 37.2293C70.0513 37.2816 70.0253 37.358 70.0253 37.4584V37.59C70.0253 37.7029 70.0513 37.7856 70.1033 37.8378C70.1555 37.8902 70.2459 37.9164 70.3746 37.9164H72.4766V37.9164ZM78.5891 35.1625C78.6641 35.1625 78.7015 35.2001 78.7015 35.2753V35.8023C78.7015 35.8775 78.6641 35.9154 78.5891 35.9154H76.7492V38.4685C76.7492 38.5604 76.7034 38.6064 76.612 38.6064H76.0007C75.905 38.6064 75.8572 38.5604 75.8572 38.4685V35.9154H74.0173C73.9424 35.9154 73.905 35.8775 73.905 35.8023V35.2753C73.905 35.2001 73.9424 35.1625 74.0173 35.1625H78.5891ZM82.1631 33.9015C82.2546 33.9015 82.3003 33.9477 82.3003 34.0396V35.1625H83.1048C83.3835 35.1625 83.6185 35.1865 83.8097 35.2346C84.001 35.2828 84.1538 35.358 84.2681 35.4605C84.3824 35.5628 84.4646 35.6947 84.5145 35.8557C84.5644 36.0166 84.5894 36.2102 84.5894 36.4359V37.3392C84.5894 37.5652 84.5644 37.7586 84.5145 37.9196C84.4646 38.0806 84.3824 38.2122 84.2681 38.3149C84.1538 38.4172 84.001 38.4916 83.8097 38.5374C83.6185 38.5834 83.3835 38.6064 83.1048 38.6064H82.3003V39.8548C82.3003 39.947 82.2546 39.9928 82.1631 39.9928H81.5457C81.4541 39.9928 81.4084 39.947 81.4084 39.8548V38.6064H80.6037C80.321 38.6064 80.0851 38.5834 79.8959 38.5374C79.7066 38.4916 79.5548 38.4172 79.4406 38.3149C79.3261 38.2122 79.2441 38.0806 79.1942 37.9196C79.1442 37.7586 79.1192 37.5652 79.1192 37.3392V36.4359C79.1192 36.2102 79.1442 36.0166 79.1942 35.8557C79.2441 35.6947 79.3261 35.5628 79.4406 35.4605C79.5548 35.358 79.7066 35.2828 79.8959 35.2346C80.0851 35.1865 80.3209 35.1625 80.6037 35.1625H81.4084V34.0396C81.4084 33.9477 81.4541 33.9015 81.5457 33.9015H82.1631ZM82.3003 35.9027V37.8725H83.0176C83.1547 37.8725 83.267 37.8609 83.3543 37.8379C83.4418 37.8149 83.5104 37.7772 83.5602 37.7252C83.6101 37.6727 83.6455 37.6027 83.6662 37.5149C83.687 37.4272 83.6974 37.3162 83.6974 37.1823V36.5864C83.6974 36.457 83.687 36.3481 83.6662 36.2603C83.6455 36.1725 83.6101 36.1013 83.5602 36.047C83.5103 35.9926 83.4418 35.9551 83.3543 35.9341C83.267 35.9132 83.1548 35.9028 83.0176 35.9028H82.3003V35.9027ZM80.0112 37.1823C80.0112 37.3162 80.0216 37.4272 80.0424 37.5149C80.0632 37.6027 80.0996 37.6727 80.1516 37.7252C80.2035 37.7772 80.2732 37.8149 80.3605 37.8379C80.448 37.8609 80.5581 37.8725 80.6911 37.8725H81.4083V35.9027H80.6911C80.5581 35.9027 80.448 35.9132 80.3605 35.934C80.2732 35.955 80.2035 35.9926 80.1516 36.047C80.0996 36.1013 80.0632 36.1725 80.0424 36.2603C80.0216 36.3481 80.0112 36.4569 80.0112 36.5864V37.1823ZM88.5126 35.1625C88.7912 35.1625 89.026 35.1865 89.2174 35.2346C89.4086 35.2828 89.5614 35.358 89.6759 35.4605C89.7902 35.5628 89.8724 35.6947 89.9222 35.8557C89.9721 36.0166 89.997 36.2102 89.997 36.4359V37.3392C89.997 37.5652 89.9721 37.7586 89.9222 37.9196C89.8724 38.0806 89.7902 38.2122 89.6759 38.3149C89.5614 38.4172 89.4086 38.4916 89.2174 38.5374C89.026 38.5834 88.7912 38.6064 88.5126 38.6064H86.7473C86.4646 38.6064 86.2289 38.5834 86.0396 38.5374C85.8504 38.4916 85.6985 38.4172 85.5842 38.3149C85.4698 38.2122 85.3877 38.0806 85.3378 37.9196C85.288 37.7586 85.2629 37.5652 85.2629 37.3392V36.4359C85.2629 36.2102 85.288 36.0166 85.3378 35.8557C85.3877 35.6947 85.4698 35.5628 85.5842 35.4605C85.6985 35.358 85.8504 35.2828 86.0396 35.2346C86.2288 35.1865 86.4646 35.1625 86.7473 35.1625H88.5126ZM86.1549 37.1823C86.1549 37.3162 86.1653 37.4272 86.1863 37.5149C86.2069 37.6027 86.2433 37.6727 86.2954 37.7252C86.3472 37.7772 86.4169 37.8149 86.5042 37.8379C86.5917 37.8609 86.7018 37.8725 86.8349 37.8725H88.4254C88.5625 37.8725 88.6748 37.8609 88.7621 37.8379C88.8494 37.8149 88.9191 37.7772 88.9711 37.7252C89.0232 37.6727 89.0594 37.6027 89.0803 37.5149C89.1011 37.4272 89.1114 37.3162 89.1114 37.1823V36.5864C89.1114 36.457 89.1011 36.3481 89.0803 36.2603C89.0594 36.1725 89.0232 36.1013 88.9711 36.047C88.9191 35.9926 88.8494 35.9551 88.7621 35.9341C88.6748 35.9132 88.5626 35.9028 88.4254 35.9028H86.8349C86.7018 35.9028 86.5917 35.9132 86.5042 35.9341C86.4169 35.9551 86.3472 35.9926 86.2954 36.047C86.2433 36.1013 86.2069 36.1725 86.1863 36.2603C86.1653 36.3481 86.1549 36.457 86.1549 36.5864V37.1823ZM93.9452 35.1625C94.2236 35.1625 94.4586 35.1865 94.65 35.2346C94.8412 35.2828 94.994 35.358 95.1083 35.4605C95.2227 35.5628 95.3048 35.6947 95.3547 35.8557C95.4046 36.0166 95.4296 36.2102 95.4296 36.4359V37.3392C95.4296 37.5652 95.4045 37.7586 95.3547 37.9196C95.3048 38.0806 95.2227 38.2122 95.1083 38.3149C94.994 38.4172 94.8412 38.4916 94.65 38.5374C94.4586 38.5834 94.2236 38.6064 93.9452 38.6064H91.6062V39.8548C91.6062 39.947 91.5605 39.9928 91.4689 39.9928H90.8577C90.7621 39.9928 90.7141 39.947 90.7141 39.8548V36.4359C90.7141 36.2102 90.7393 36.0166 90.7892 35.8557C90.839 35.6947 90.9212 35.5628 91.0355 35.4605C91.1498 35.358 91.3016 35.2828 91.4908 35.2346C91.6801 35.1865 91.916 35.1625 92.1987 35.1625H93.9452ZM91.6062 37.8537H93.8577C93.9951 37.8537 94.1073 37.8432 94.1946 37.8224C94.2819 37.8013 94.3516 37.7637 94.4037 37.7094C94.4555 37.6551 94.4919 37.5838 94.5127 37.496C94.5336 37.4082 94.5439 37.2975 94.5439 37.1636V36.6053C94.5439 36.4756 94.5336 36.3658 94.5127 36.2758C94.4919 36.1861 94.4555 36.1149 94.4037 36.0627C94.3516 36.0103 94.2819 35.9727 94.1946 35.9497C94.1073 35.9267 93.9951 35.9153 93.8577 35.9153H92.286C92.1529 35.9153 92.0428 35.9267 91.9555 35.9497C91.868 35.9727 91.7983 36.0103 91.7465 36.0627C91.6944 36.1148 91.6581 36.1861 91.6373 36.2758C91.6166 36.3658 91.6062 36.4756 91.6062 36.6053V37.8537H91.6062ZM97.332 35.1625C97.4235 35.1625 97.5004 35.1697 97.5627 35.1844C97.6251 35.1991 97.6801 35.2241 97.7281 35.2597C97.7758 35.2951 97.8194 35.3433 97.859 35.404C97.8985 35.4646 97.9432 35.543 97.993 35.6392L99.0286 37.703C99.0494 37.7406 99.0785 37.7596 99.1159 37.7596H99.2156C99.2572 37.7596 99.2864 37.7406 99.303 37.703L100.338 35.6392C100.388 35.543 100.433 35.4646 100.472 35.404C100.512 35.3433 100.556 35.2951 100.603 35.2597C100.651 35.2241 100.706 35.1991 100.769 35.1844C100.831 35.1697 100.908 35.1625 100.999 35.1625H101.623C101.731 35.1625 101.821 35.1739 101.891 35.197C101.962 35.22 102.018 35.2575 102.06 35.31C102.101 35.362 102.131 35.4302 102.147 35.5138C102.164 35.5975 102.172 35.6998 102.172 35.8212V38.4685C102.172 38.5604 102.126 38.6064 102.035 38.6064H101.417C101.326 38.6064 101.28 38.5604 101.28 38.4685V35.9719C101.28 35.9299 101.264 35.909 101.23 35.909H101.174C101.149 35.909 101.132 35.9121 101.121 35.9185C101.111 35.9246 101.101 35.9383 101.093 35.9592L100.07 37.9916C100.012 38.1045 99.9589 38.1997 99.9111 38.2772C99.8633 38.3545 99.8113 38.4183 99.7551 38.4685C99.699 38.5187 99.6345 38.5541 99.5618 38.5752C99.4891 38.5961 99.4027 38.6064 99.3029 38.6064H99.0285C98.9288 38.6064 98.8424 38.596 98.7697 38.5752C98.6969 38.5541 98.6324 38.5187 98.5763 38.4685C98.5201 38.4183 98.4671 38.3545 98.4173 38.2772C98.3674 38.1997 98.3152 38.1045 98.2613 37.9916L97.2384 35.9592C97.2301 35.9383 97.2207 35.9246 97.2103 35.9185C97.1999 35.9121 97.1822 35.909 97.1572 35.909H97.1011C97.0678 35.909 97.0512 35.9299 97.0512 35.9719V38.4685C97.0512 38.5604 97.0056 38.6064 96.914 38.6064H96.3026C96.2071 38.6064 96.1592 38.5604 96.1592 38.4685V35.8212C96.1592 35.6998 96.1677 35.5975 96.1843 35.5138C96.2009 35.4302 96.2299 35.3621 96.2716 35.31C96.3131 35.2575 96.3692 35.2199 96.4401 35.197C96.5107 35.1739 96.6021 35.1625 96.7144 35.1625H97.332ZM105.721 35.1625C106 35.1625 106.235 35.1865 106.426 35.2346C106.617 35.2828 106.77 35.358 106.884 35.4605C106.999 35.5628 107.081 35.6947 107.131 35.8557C107.181 36.0166 107.206 36.2102 107.206 36.4359V38.1046C107.206 38.205 107.198 38.2877 107.184 38.3524C107.169 38.4172 107.144 38.4685 107.109 38.5061C107.073 38.5437 107.027 38.5699 106.969 38.5844C106.91 38.5992 106.836 38.6064 106.744 38.6064H103.775C103.592 38.6064 103.439 38.5887 103.317 38.5531C103.194 38.5175 103.095 38.4643 103.02 38.3931C102.945 38.322 102.892 38.2301 102.861 38.1171C102.83 38.0042 102.814 37.8703 102.814 37.7156V37.4145C102.814 37.2847 102.83 37.1687 102.861 37.0664C102.892 36.9638 102.945 36.877 103.02 36.806C103.095 36.7349 103.194 36.6816 103.317 36.646C103.439 36.6104 103.592 36.5926 103.775 36.5926H106.314V36.4736C106.314 36.3732 106.303 36.2874 106.282 36.2164C106.262 36.1452 106.226 36.0877 106.176 36.0437C106.126 35.9999 106.058 35.9674 105.971 35.9466C105.883 35.9256 105.771 35.9153 105.634 35.9153H103.027C102.952 35.9153 102.914 35.8775 102.914 35.8023V35.2753C102.914 35.2001 102.952 35.1625 103.027 35.1625H105.721V35.1625ZM106.133 37.9164C106.199 37.9164 106.246 37.9006 106.273 37.8694C106.3 37.8379 106.314 37.7826 106.314 37.703V37.151H104.031C103.902 37.151 103.812 37.1771 103.759 37.2293C103.707 37.2816 103.681 37.358 103.681 37.4584V37.59C103.681 37.7029 103.707 37.7856 103.759 37.8378C103.812 37.8902 103.902 37.9164 104.031 37.9164H106.133V37.9164ZM111.129 35.1625C111.22 35.1625 111.297 35.1697 111.359 35.1844C111.422 35.1991 111.477 35.2241 111.525 35.2597C111.572 35.2951 111.616 35.3433 111.656 35.404C111.695 35.4646 111.74 35.543 111.79 35.6392L112.825 37.703C112.846 37.7406 112.875 37.7596 112.912 37.7596H113.012C113.054 37.7596 113.083 37.7406 113.1 37.703L114.135 35.6392C114.185 35.543 114.23 35.4646 114.269 35.404C114.309 35.3433 114.352 35.2951 114.4 35.2597C114.448 35.2241 114.503 35.1991 114.565 35.1844C114.628 35.1697 114.705 35.1625 114.796 35.1625H115.42C115.528 35.1625 115.617 35.1739 115.688 35.197C115.759 35.22 115.815 35.2575 115.856 35.31C115.898 35.362 115.927 35.4302 115.944 35.5138C115.96 35.5975 115.969 35.6998 115.969 35.8212V38.4685C115.969 38.5604 115.923 38.6064 115.831 38.6064H115.214C115.122 38.6064 115.077 38.5604 115.077 38.4685V35.9719C115.077 35.9299 115.06 35.909 115.027 35.909H114.971C114.946 35.909 114.928 35.9121 114.918 35.9185C114.907 35.9246 114.898 35.9383 114.89 35.9592L113.867 37.9916C113.808 38.1045 113.755 38.1997 113.708 38.2772C113.66 38.3545 113.608 38.4183 113.552 38.4685C113.496 38.5187 113.431 38.5541 113.358 38.5752C113.286 38.5961 113.199 38.6064 113.099 38.6064H112.825C112.725 38.6064 112.639 38.596 112.566 38.5752C112.493 38.5541 112.429 38.5187 112.373 38.4685C112.317 38.4183 112.264 38.3545 112.214 38.2772C112.164 38.1997 112.112 38.1045 112.058 37.9916L111.035 35.9592C111.027 35.9383 111.017 35.9246 111.007 35.9185C110.996 35.9121 110.979 35.909 110.954 35.909H110.898C110.864 35.909 110.848 35.9299 110.848 35.9719V38.4685C110.848 38.5604 110.802 38.6064 110.711 38.6064H110.099C110.004 38.6064 109.956 38.5604 109.956 38.4685V35.8212C109.956 35.6998 109.964 35.5975 109.981 35.5138C109.998 35.4302 110.026 35.3621 110.068 35.31C110.11 35.2575 110.166 35.2199 110.237 35.197C110.307 35.1739 110.399 35.1625 110.511 35.1625H111.129ZM119.942 35.1625C120.22 35.1625 120.455 35.1865 120.647 35.2346C120.838 35.2828 120.991 35.358 121.105 35.4605C121.219 35.5628 121.302 35.6947 121.352 35.8557C121.401 36.0166 121.426 36.2102 121.426 36.4359V37.3392C121.426 37.5652 121.401 37.7586 121.352 37.9196C121.302 38.0806 121.219 38.2122 121.105 38.3149C120.991 38.4172 120.838 38.4916 120.647 38.5374C120.455 38.5834 120.22 38.6064 119.942 38.6064H118.177C117.894 38.6064 117.658 38.5834 117.469 38.5374C117.28 38.4916 117.128 38.4172 117.013 38.3149C116.899 38.2122 116.817 38.0806 116.767 37.9196C116.717 37.7586 116.692 37.5652 116.692 37.3392V36.4359C116.692 36.2102 116.717 36.0166 116.767 35.8557C116.817 35.6947 116.899 35.5628 117.013 35.4605C117.128 35.358 117.28 35.2828 117.469 35.2346C117.658 35.1865 117.894 35.1625 118.177 35.1625H119.942ZM117.584 37.1823C117.584 37.3162 117.594 37.4272 117.615 37.5149C117.636 37.6027 117.673 37.6727 117.725 37.7252C117.776 37.7772 117.846 37.8149 117.933 37.8379C118.021 37.8609 118.131 37.8725 118.264 37.8725H119.855C119.992 37.8725 120.104 37.8609 120.191 37.8379C120.279 37.8149 120.348 37.7772 120.4 37.7252C120.452 37.6727 120.489 37.6027 120.51 37.5149C120.53 37.4272 120.541 37.3162 120.541 37.1823V36.5864C120.541 36.457 120.53 36.3481 120.51 36.2603C120.489 36.1725 120.452 36.1013 120.4 36.047C120.348 35.9926 120.279 35.9551 120.191 35.9341C120.104 35.9132 119.992 35.9028 119.855 35.9028H118.264C118.131 35.9028 118.021 35.9132 117.933 35.9341C117.846 35.9551 117.776 35.9926 117.725 36.047C117.672 36.1013 117.636 36.1725 117.615 36.2603C117.594 36.3481 117.584 36.457 117.584 36.5864V37.1823ZM125.624 33.9015C125.732 33.9015 125.806 33.8786 125.845 33.8325C125.885 33.7864 125.905 33.7176 125.905 33.6254V33.4247C125.905 33.3287 125.95 33.2805 126.042 33.2805H126.653C126.749 33.2805 126.796 33.3287 126.796 33.4247V33.638C126.796 33.8179 126.781 33.9726 126.75 34.1023C126.718 34.232 126.663 34.3375 126.584 34.4189C126.505 34.5006 126.4 34.5603 126.269 34.5978C126.138 34.6354 125.973 34.6543 125.774 34.6543H123.715C123.582 34.6543 123.472 34.6647 123.385 34.6856C123.297 34.7065 123.228 34.7399 123.176 34.786C123.124 34.832 123.087 34.8917 123.067 34.9649C123.046 35.0378 123.035 35.1269 123.035 35.2313V35.4258H125.374C125.653 35.4258 125.888 35.45 126.079 35.4981C126.27 35.5461 126.423 35.6214 126.538 35.7238C126.652 35.8263 126.734 35.9579 126.784 36.1192C126.834 36.2802 126.859 36.4736 126.859 36.6993V37.3391C126.859 37.5651 126.834 37.7585 126.784 37.9195C126.734 38.0805 126.652 38.2121 126.538 38.3148C126.423 38.4171 126.27 38.4915 126.079 38.5373C125.888 38.5833 125.653 38.6063 125.374 38.6063H123.628C123.345 38.6063 123.109 38.5833 122.92 38.5373C122.731 38.4915 122.579 38.4171 122.465 38.3148C122.35 38.2121 122.268 38.0805 122.218 37.9195C122.168 37.7585 122.143 37.5651 122.143 37.3391V35.1748C122.143 34.9491 122.168 34.7557 122.218 34.5947C122.268 34.4337 122.35 34.3019 122.465 34.1995C122.579 34.0969 122.731 34.0218 122.92 33.9736C123.109 33.9255 123.345 33.9015 123.628 33.9015H125.624V33.9015ZM123.035 36.0782V37.1636C123.035 37.2974 123.046 37.4082 123.067 37.496C123.087 37.5838 123.124 37.6539 123.176 37.7063C123.228 37.7586 123.297 37.7962 123.385 37.8193C123.472 37.8422 123.582 37.8537 123.715 37.8537H125.287C125.424 37.8537 125.537 37.8422 125.624 37.8193C125.711 37.7962 125.781 37.7586 125.833 37.7063C125.885 37.6539 125.921 37.5838 125.942 37.496C125.963 37.4082 125.973 37.2975 125.973 37.1636V36.7685C125.973 36.6387 125.963 36.5289 125.942 36.439C125.921 36.349 125.885 36.278 125.833 36.2256C125.781 36.1735 125.711 36.1359 125.624 36.1129C125.537 36.0899 125.424 36.0782 125.287 36.0782H123.035ZM128.343 35.1625C128.435 35.1625 128.48 35.2106 128.48 35.3068V37.7157C128.48 37.7574 128.497 37.7785 128.53 37.7785H128.587C128.624 37.7785 128.651 37.7637 128.668 37.7344L130.539 35.5325C130.593 35.4656 130.644 35.4091 130.692 35.3633C130.739 35.3172 130.79 35.2796 130.844 35.2502C130.899 35.221 130.962 35.1991 131.035 35.1844C131.107 35.1697 131.198 35.1625 131.306 35.1625H131.655C131.846 35.1625 131.988 35.2084 132.079 35.3005C132.171 35.3923 132.217 35.566 132.217 35.8212V38.4685C132.217 38.5604 132.169 38.6064 132.073 38.6064H131.462C131.37 38.6064 131.325 38.5604 131.325 38.4685V36.0533C131.325 36.0113 131.308 35.9906 131.275 35.9906H131.219C131.19 35.9906 131.163 36.0053 131.138 36.0344L129.26 38.2362C129.202 38.3031 129.15 38.3609 129.104 38.4089C129.058 38.4569 129.008 38.4956 128.955 38.525C128.901 38.5541 128.838 38.5752 128.767 38.5875C128.697 38.6001 128.607 38.6064 128.499 38.6064H128.162C127.971 38.6064 127.829 38.5616 127.735 38.4716C127.642 38.3817 127.595 38.209 127.595 37.954V35.3068C127.595 35.2105 127.643 35.1625 127.738 35.1625H128.343V35.1625ZM136.782 35.1625C136.969 35.1625 137.104 35.2064 137.185 35.2942C137.266 35.382 137.306 35.5054 137.306 35.6644V38.4558C137.306 38.5563 137.265 38.6064 137.181 38.6064H136.552C136.464 38.6064 136.42 38.5584 136.42 38.4622V36.0595C136.42 35.9926 136.381 35.9592 136.302 35.9592H134.949C134.882 35.9592 134.84 35.9727 134.824 35.9999C134.807 36.027 134.795 36.0595 134.786 36.0971C134.774 36.1893 134.756 36.3147 134.733 36.4736C134.71 36.6324 134.682 36.8029 134.649 36.9846C134.616 37.1667 134.576 37.3496 134.531 37.5336C134.485 37.7176 134.435 37.8788 134.381 38.0168C134.339 38.1129 134.294 38.1976 134.244 38.2708C134.194 38.344 134.133 38.4057 134.06 38.4558C133.987 38.506 133.903 38.5436 133.807 38.5687C133.711 38.5937 133.597 38.6063 133.464 38.6063H132.872C132.788 38.6063 132.747 38.5603 132.747 38.4683V38.0104C132.747 37.9141 132.788 37.8661 132.872 37.8661H133.314C133.393 37.8661 133.471 37.844 133.548 37.8002C133.625 37.7562 133.695 37.655 133.757 37.4959C133.828 37.3245 133.889 37.083 133.941 36.7714C133.993 36.4597 134.053 36.0657 134.119 35.5888C134.136 35.459 134.178 35.3556 134.247 35.2783C134.316 35.2009 134.441 35.1624 134.624 35.1624H136.782V35.1625ZM138.847 35.1625C138.934 35.1625 138.978 35.2127 138.978 35.3131V36.2101H141.342C141.778 36.2101 142.09 36.2947 142.277 36.4641C142.464 36.6333 142.558 36.8771 142.558 37.1949V37.6153C142.558 37.9413 142.464 38.1881 142.277 38.3555C142.09 38.5227 141.778 38.6063 141.342 38.6063H138.261C138.144 38.6063 138.086 38.5458 138.086 38.4246V35.313C138.086 35.2126 138.13 35.1625 138.217 35.1625H138.847V35.1625ZM138.978 36.8752V37.8286C138.978 37.8788 138.999 37.9038 139.04 37.9038H141.167C141.354 37.9038 141.485 37.8713 141.56 37.8066C141.635 37.7419 141.672 37.6425 141.672 37.5087V37.2703C141.672 37.1365 141.635 37.0371 141.56 36.9724C141.485 36.9075 141.354 36.8752 141.167 36.8752H138.978V36.8752ZM143.993 35.1625C144.084 35.1625 144.13 35.2106 144.13 35.3068V36.4798H146.974V35.3068C146.974 35.2106 147.02 35.1625 147.111 35.1625H147.722C147.818 35.1625 147.866 35.2106 147.866 35.3068V38.4685C147.866 38.5604 147.818 38.6064 147.722 38.6064H147.111C147.02 38.6064 146.974 38.5604 146.974 38.4685V37.2201H144.13V38.4685C144.13 38.5604 144.084 38.6064 143.993 38.6064H143.381C143.286 38.6064 143.238 38.5604 143.238 38.4685V35.3068C143.238 35.2106 143.286 35.1625 143.381 35.1625H143.993ZM151.839 35.1625C152.118 35.1625 152.353 35.1865 152.544 35.2346C152.735 35.2828 152.888 35.358 153.002 35.4605C153.117 35.5628 153.199 35.6947 153.249 35.8557C153.299 36.0166 153.324 36.2102 153.324 36.4359V37.3392C153.324 37.5652 153.299 37.7586 153.249 37.9196C153.199 38.0806 153.117 38.2122 153.002 38.3149C152.888 38.4172 152.735 38.4916 152.544 38.5374C152.353 38.5834 152.118 38.6064 151.839 38.6064H150.074C149.791 38.6064 149.555 38.5834 149.366 38.5374C149.177 38.4916 149.025 38.4172 148.911 38.3149C148.796 38.2122 148.714 38.0806 148.664 37.9196C148.615 37.7586 148.589 37.5652 148.589 37.3392V36.4359C148.589 36.2102 148.615 36.0166 148.664 35.8557C148.714 35.6947 148.796 35.5628 148.911 35.4605C149.025 35.358 149.177 35.2828 149.366 35.2346C149.555 35.1865 149.791 35.1625 150.074 35.1625H151.839ZM149.481 37.1823C149.481 37.3162 149.492 37.4272 149.513 37.5149C149.533 37.6027 149.57 37.6727 149.622 37.7252C149.674 37.7772 149.743 37.8149 149.831 37.8379C149.918 37.8609 150.028 37.8725 150.161 37.8725H151.752C151.889 37.8725 152.001 37.8609 152.089 37.8379C152.176 37.8149 152.246 37.7772 152.298 37.7252C152.35 37.6727 152.386 37.6027 152.407 37.5149C152.428 37.4272 152.438 37.3162 152.438 37.1823V36.5864C152.438 36.457 152.428 36.3481 152.407 36.2603C152.386 36.1725 152.35 36.1013 152.298 36.047C152.246 35.9926 152.176 35.9551 152.089 35.9341C152.001 35.9132 151.889 35.9028 151.752 35.9028H150.161C150.028 35.9028 149.918 35.9132 149.831 35.9341C149.743 35.9551 149.674 35.9926 149.622 36.047C149.57 36.1013 149.533 36.1725 149.513 36.2603C149.492 36.3481 149.481 36.457 149.481 36.5864V37.1823ZM154.864 33.7447C154.864 33.7072 154.874 33.6736 154.895 33.6443C154.916 33.6149 154.945 33.6004 154.983 33.6004C155.028 33.6004 155.08 33.6235 155.138 33.6694C155.172 33.6986 155.225 33.7406 155.298 33.7949C155.37 33.8492 155.459 33.9035 155.563 33.958C155.667 34.0124 155.785 34.0593 155.918 34.0991C156.051 34.1389 156.199 34.1587 156.361 34.1587C156.523 34.1587 156.671 34.1389 156.804 34.0991C156.937 34.0594 157.057 34.0124 157.163 33.958C157.269 33.9035 157.357 33.8492 157.428 33.7949C157.498 33.7406 157.552 33.6986 157.59 33.6694C157.619 33.6443 157.646 33.6266 157.671 33.616C157.696 33.6056 157.719 33.6004 157.74 33.6004C157.777 33.6004 157.806 33.6149 157.827 33.6443C157.848 33.6736 157.858 33.7072 157.858 33.7447V34.0708C157.858 34.1169 157.852 34.1598 157.839 34.1995C157.827 34.2392 157.794 34.2821 157.74 34.328C157.681 34.3741 157.605 34.4233 157.512 34.4754C157.418 34.5278 157.31 34.5758 157.187 34.6196C157.065 34.6638 156.934 34.6992 156.795 34.7263C156.655 34.7535 156.511 34.7672 156.361 34.7672C156.211 34.7672 156.066 34.7535 155.925 34.7263C155.783 34.6992 155.653 34.6638 155.535 34.6196C155.416 34.5758 155.309 34.5278 155.213 34.4754C155.118 34.4233 155.043 34.3741 154.989 34.328C154.931 34.2821 154.895 34.2392 154.883 34.1995C154.87 34.1598 154.864 34.1169 154.864 34.0708V33.7447H154.864ZM154.808 35.1625C154.9 35.1625 154.945 35.2106 154.945 35.3068V37.7157C154.945 37.7574 154.962 37.7785 154.995 37.7785H155.051C155.089 37.7785 155.116 37.7637 155.132 37.7344L157.003 35.5325C157.057 35.4656 157.109 35.4091 157.156 35.3633C157.204 35.3172 157.255 35.2796 157.309 35.2502C157.363 35.221 157.427 35.1991 157.499 35.1844C157.572 35.1697 157.663 35.1625 157.771 35.1625H158.12C158.311 35.1625 158.453 35.2084 158.544 35.3005C158.636 35.3923 158.681 35.566 158.681 35.8212V38.4685C158.681 38.5604 158.634 38.6064 158.538 38.6064H157.927C157.835 38.6064 157.789 38.5604 157.789 38.4685V36.0533C157.789 36.0113 157.773 35.9906 157.74 35.9906H157.683C157.654 35.9906 157.627 36.0053 157.602 36.0344L155.725 38.2362C155.667 38.3031 155.615 38.3609 155.569 38.4089C155.523 38.4569 155.473 38.4956 155.419 38.525C155.365 38.5541 155.303 38.5752 155.232 38.5875C155.162 38.6001 155.072 38.6064 154.964 38.6064H154.627C154.436 38.6064 154.293 38.5616 154.2 38.4716C154.106 38.3817 154.06 38.209 154.06 37.954V35.3068C154.06 35.2105 154.107 35.1625 154.203 35.1625H154.808V35.1625Z" fill="white"/>
<path fill-rule="evenodd" clip-rule="evenodd" d="M165.449 35.1625C165.636 35.1625 165.77 35.2064 165.851 35.2942C165.932 35.382 165.972 35.5053 165.972 35.6644V37.8662H166.802C166.894 37.8662 166.939 37.9123 166.939 38.0042V39.6415C166.939 39.7336 166.894 39.7796 166.802 39.7796H166.303C166.207 39.7796 166.16 39.7336 166.16 39.6415V38.6064H162.08V39.6415C162.08 39.7336 162.035 39.7796 161.943 39.7796H161.444C161.349 39.7796 161.301 39.7336 161.301 39.6415V38.0042C161.301 37.9124 161.349 37.8662 161.444 37.8662H161.981C162.06 37.8662 162.138 37.8442 162.215 37.8003C162.291 37.7564 162.361 37.6551 162.424 37.496C162.494 37.3246 162.555 37.0831 162.608 36.7716C162.66 36.4599 162.719 36.0659 162.785 35.5889C162.802 35.4592 162.845 35.3557 162.913 35.2784C162.982 35.201 163.107 35.1625 163.29 35.1625H165.449ZM165.087 37.8661V36.0595C165.087 35.9925 165.047 35.9591 164.968 35.9591H163.615C163.548 35.9591 163.507 35.9727 163.49 35.9998C163.473 36.0269 163.461 36.0594 163.453 36.097C163.44 36.1807 163.424 36.2925 163.403 36.4327C163.382 36.5728 163.357 36.7255 163.328 36.8906C163.299 37.0559 163.266 37.2242 163.228 37.3956C163.191 37.567 163.149 37.7238 163.103 37.8661H165.087ZM168.23 35.1625C168.322 35.1625 168.368 35.2106 168.368 35.3068V37.7157C168.368 37.7574 168.384 37.7785 168.417 37.7785H168.474C168.511 37.7785 168.538 37.7637 168.555 37.7343L170.426 35.5325C170.48 35.4656 170.531 35.4091 170.579 35.3633C170.626 35.3172 170.678 35.2796 170.732 35.2502C170.786 35.2209 170.849 35.1991 170.922 35.1843C170.995 35.1697 171.085 35.1625 171.193 35.1625H171.543C171.734 35.1625 171.875 35.2084 171.967 35.3005C172.058 35.3923 172.104 35.566 172.104 35.8212V38.4685C172.104 38.5603 172.056 38.6064 171.96 38.6064H171.349C171.258 38.6064 171.212 38.5604 171.212 38.4685V36.0533C171.212 36.0113 171.195 35.9905 171.162 35.9905H171.106C171.077 35.9905 171.05 36.0053 171.025 36.0344L169.147 38.2362C169.089 38.3031 169.037 38.3609 168.991 38.4089C168.946 38.4569 168.896 38.4956 168.842 38.525C168.788 38.5541 168.725 38.5751 168.655 38.5875C168.584 38.6001 168.494 38.6064 168.386 38.6064H168.05C167.858 38.6064 167.716 38.5615 167.622 38.4716C167.529 38.3817 167.482 38.209 167.482 37.9539V35.3068C167.482 35.2105 167.53 35.1625 167.625 35.1625H168.23V35.1625ZM176.726 35.1625C176.8 35.1625 176.838 35.2001 176.838 35.2753V35.8023C176.838 35.8775 176.8 35.9154 176.726 35.9154H174.306C174.168 35.9154 174.056 35.9267 173.969 35.9497C173.881 35.9728 173.813 36.0104 173.763 36.0628C173.713 36.1149 173.678 36.1862 173.657 36.2759C173.636 36.3659 173.626 36.4757 173.626 36.6054V37.1637C173.626 37.2975 173.636 37.4083 173.657 37.4961C173.678 37.5839 173.713 37.6539 173.763 37.7064C173.813 37.7587 173.881 37.7963 173.969 37.8193C174.056 37.8423 174.168 37.8538 174.306 37.8538H176.726C176.8 37.8538 176.838 37.8914 176.838 37.9667V38.4935C176.838 38.5689 176.8 38.6065 176.726 38.6065H174.218C173.935 38.6065 173.699 38.5835 173.51 38.5374C173.321 38.4916 173.169 38.4172 173.055 38.3149C172.941 38.2123 172.858 38.0806 172.809 37.9196C172.759 37.7586 172.734 37.5652 172.734 37.3393V36.4359C172.734 36.2102 172.759 36.0167 172.809 35.8557C172.858 35.6947 172.941 35.5629 173.055 35.4605C173.169 35.358 173.321 35.2828 173.51 35.2346C173.699 35.1866 173.935 35.1626 174.218 35.1626H176.726V35.1625ZM181.927 35.1625C182.002 35.1625 182.04 35.2001 182.04 35.2753V35.8023C182.04 35.8775 182.002 35.9154 181.927 35.9154H180.087V38.4685C180.087 38.5603 180.042 38.6064 179.95 38.6064H179.339C179.243 38.6064 179.196 38.5604 179.196 38.4685V35.9154H177.356C177.281 35.9154 177.243 35.8775 177.243 35.8023V35.2753C177.243 35.2001 177.281 35.1625 177.356 35.1625H181.927ZM185.726 35.1625C186.004 35.1625 186.239 35.1865 186.431 35.2346C186.622 35.2828 186.775 35.358 186.889 35.4605C187.004 35.5628 187.086 35.6947 187.135 35.8556C187.185 36.0166 187.21 36.2101 187.21 36.4359V37.3392C187.21 37.5652 187.185 37.7586 187.135 37.9196C187.086 38.0806 187.004 38.2122 186.889 38.3148C186.775 38.4172 186.622 38.4916 186.431 38.5374C186.239 38.5834 186.004 38.6064 185.726 38.6064H183.387V39.8548C183.387 39.947 183.341 39.9928 183.25 39.9928H182.639C182.543 39.9928 182.495 39.947 182.495 39.8548V36.4359C182.495 36.2101 182.52 36.0166 182.57 35.8556C182.62 35.6947 182.702 35.5628 182.816 35.4605C182.931 35.358 183.082 35.2828 183.272 35.2346C183.461 35.1865 183.697 35.1625 183.98 35.1625H185.726ZM183.387 37.8537H185.638C185.776 37.8537 185.888 37.8432 185.975 37.8223C186.063 37.8012 186.132 37.7637 186.184 37.7094C186.236 37.6551 186.273 37.5838 186.293 37.496C186.314 37.4082 186.325 37.2975 186.325 37.1636V36.6053C186.325 36.4756 186.314 36.3658 186.293 36.2758C186.273 36.1861 186.236 36.1148 186.184 36.0627C186.132 36.0103 186.063 35.9727 185.975 35.9496C185.888 35.9266 185.776 35.9153 185.638 35.9153H184.067C183.934 35.9153 183.824 35.9266 183.736 35.9496C183.649 35.9727 183.579 36.0103 183.527 36.0627C183.475 36.1148 183.439 36.1861 183.418 36.2758C183.397 36.3658 183.387 36.4756 183.387 36.6053V37.8537ZM188.695 35.1625C188.786 35.1625 188.832 35.2106 188.832 35.3068V37.7157C188.832 37.7574 188.849 37.7785 188.882 37.7785H188.938C188.975 37.7785 189.003 37.7637 189.019 37.7343L190.89 35.5325C190.944 35.4656 190.995 35.4091 191.043 35.3633C191.091 35.3172 191.142 35.2796 191.196 35.2502C191.25 35.2209 191.313 35.1991 191.386 35.1843C191.459 35.1697 191.549 35.1625 191.658 35.1625H192.007C192.198 35.1625 192.34 35.2084 192.431 35.3005C192.523 35.3923 192.568 35.566 192.568 35.8212V38.4685C192.568 38.5603 192.52 38.6064 192.425 38.6064H191.814C191.722 38.6064 191.676 38.5604 191.676 38.4685V36.0533C191.676 36.0113 191.66 35.9905 191.626 35.9905H191.57C191.541 35.9905 191.514 36.0053 191.489 36.0344L189.612 38.2362C189.554 38.3031 189.502 38.3609 189.456 38.4089C189.41 38.4569 189.36 38.4956 189.306 38.525C189.252 38.5541 189.19 38.5751 189.119 38.5875C189.048 38.6001 188.959 38.6064 188.851 38.6064H188.514C188.323 38.6064 188.18 38.5615 188.087 38.4716C187.993 38.3817 187.946 38.209 187.946 37.9539V35.3068C187.946 35.2105 187.994 35.1625 188.09 35.1625H188.695V35.1625ZM196.81 33.9015C196.918 33.9015 196.991 33.8785 197.031 33.8325C197.07 33.7864 197.09 33.7176 197.09 33.6254V33.4247C197.09 33.3287 197.136 33.2805 197.227 33.2805H197.839C197.934 33.2805 197.982 33.3287 197.982 33.4247V33.638C197.982 33.8179 197.967 33.9726 197.935 34.1023C197.904 34.232 197.849 34.3375 197.77 34.4189C197.691 34.5006 197.586 34.5602 197.455 34.5978C197.324 34.6354 197.159 34.6543 196.959 34.6543H194.901C194.768 34.6543 194.658 34.6647 194.57 34.6856C194.483 34.7065 194.413 34.7399 194.361 34.7859C194.309 34.832 194.273 34.8917 194.252 34.9649C194.231 35.0378 194.221 35.1268 194.221 35.2313V35.4258H196.56C196.838 35.4258 197.073 35.45 197.265 35.498C197.456 35.5461 197.609 35.6214 197.723 35.7237C197.838 35.8263 197.92 35.9579 197.97 36.1192C198.019 36.2802 198.044 36.4736 198.044 36.6993V37.3391C198.044 37.5651 198.019 37.7585 197.97 37.9195C197.92 38.0805 197.838 38.2121 197.723 38.3147C197.609 38.4171 197.456 38.4915 197.265 38.5373C197.073 38.5833 196.838 38.6063 196.56 38.6063H194.814C194.531 38.6063 194.295 38.5833 194.106 38.5373C193.916 38.4915 193.765 38.4171 193.65 38.3147C193.536 38.2121 193.454 38.0805 193.404 37.9195C193.354 37.7585 193.329 37.5651 193.329 37.3391V35.1748C193.329 34.9491 193.354 34.7556 193.404 34.5947C193.454 34.4337 193.536 34.3019 193.65 34.1994C193.765 34.0969 193.916 34.0218 194.106 33.9736C194.295 33.9255 194.531 33.9015 194.814 33.9015H196.81V33.9015ZM194.221 36.0782V37.1636C194.221 37.2974 194.231 37.4082 194.252 37.496C194.273 37.5838 194.309 37.6539 194.361 37.7063C194.413 37.7586 194.483 37.7962 194.57 37.8192C194.658 37.8422 194.768 37.8537 194.901 37.8537H196.473C196.61 37.8537 196.722 37.8422 196.81 37.8192C196.897 37.7962 196.966 37.7586 197.019 37.7063C197.07 37.6539 197.107 37.5838 197.128 37.496C197.148 37.4082 197.159 37.2975 197.159 37.1636V36.7685C197.159 36.6387 197.148 36.5289 197.128 36.439C197.107 36.349 197.07 36.278 197.019 36.2256C196.966 36.1735 196.897 36.1359 196.81 36.1129C196.722 36.0899 196.61 36.0782 196.473 36.0782H194.221ZM203.115 35.1625C203.161 35.1625 203.191 35.1781 203.206 35.2095C203.22 35.2409 203.217 35.2775 203.197 35.3193L200.801 39.5663C200.718 39.7127 200.601 39.8203 200.449 39.8892C200.297 39.9583 200.086 39.9928 199.816 39.9928H199.379C199.304 39.9928 199.267 39.9552 199.267 39.88V39.3655C199.267 39.2902 199.304 39.2524 199.379 39.2524H199.747C199.905 39.2524 200.011 39.2045 200.065 39.1083L200.402 38.5123C200.298 38.5039 200.218 38.4789 200.162 38.437C200.106 38.3953 200.053 38.3305 200.003 38.2426L198.319 35.3193C198.298 35.2775 198.295 35.2408 198.31 35.2095C198.324 35.1781 198.354 35.1625 198.4 35.1625H199.117C199.188 35.1625 199.238 35.1917 199.267 35.2503L200.652 37.6655C200.685 37.7239 200.711 37.7628 200.73 37.7814C200.748 37.8003 200.772 37.8098 200.801 37.8098L202.267 35.2503C202.296 35.1917 202.346 35.1625 202.417 35.1625H203.115ZM204.394 35.1625C204.486 35.1625 204.531 35.2106 204.531 35.3068V37.7343C204.531 37.8223 204.575 37.8662 204.662 37.8662H207.375V35.3068C207.375 35.2106 207.421 35.1625 207.513 35.1625H208.124C208.22 35.1625 208.267 35.2106 208.267 35.3068V37.8662H209.091C209.182 37.8662 209.228 37.9123 209.228 38.0042V39.6415C209.228 39.7336 209.182 39.7796 209.091 39.7796H208.592C208.496 39.7796 208.448 39.7336 208.448 39.6415V38.6064H204.219C204.007 38.6064 203.858 38.5635 203.77 38.478C203.683 38.3922 203.639 38.2573 203.639 38.0734V35.3069C203.639 35.2106 203.687 35.1626 203.783 35.1626H204.394V35.1625ZM210.519 35.1625C210.61 35.1625 210.656 35.2106 210.656 35.3068V37.7157C210.656 37.7574 210.673 37.7785 210.706 37.7785H210.762C210.8 37.7785 210.827 37.7637 210.843 37.7343L212.715 35.5325C212.769 35.4656 212.82 35.4091 212.867 35.3633C212.915 35.3172 212.966 35.2796 213.02 35.2502C213.074 35.2209 213.138 35.1991 213.21 35.1843C213.283 35.1697 213.374 35.1625 213.482 35.1625H213.831C214.022 35.1625 214.164 35.2084 214.255 35.3005C214.347 35.3923 214.392 35.566 214.392 35.8212V38.4685C214.392 38.5603 214.345 38.6064 214.249 38.6064H213.638C213.546 38.6064 213.5 38.5604 213.5 38.4685V36.0533C213.5 36.0113 213.484 35.9905 213.45 35.9905H213.394C213.365 35.9905 213.338 36.0053 213.313 36.0344L211.436 38.2362C211.378 38.3031 211.326 38.3609 211.28 38.4089C211.234 38.4569 211.184 38.4956 211.13 38.525C211.076 38.5541 211.014 38.5751 210.943 38.5875C210.872 38.6001 210.783 38.6064 210.675 38.6064H210.338C210.147 38.6064 210.004 38.5615 209.911 38.4716C209.817 38.3817 209.77 38.209 209.77 37.9539V35.3068C209.77 35.2105 209.818 35.1625 209.914 35.1625H210.519V35.1625ZM215.92 35.1625C216.012 35.1625 216.058 35.2106 216.058 35.3068V37.7157C216.058 37.7574 216.074 37.7785 216.108 37.7785H216.164C216.201 37.7785 216.228 37.7637 216.245 37.7343L218.116 35.5325C218.17 35.4656 218.221 35.4091 218.269 35.3633C218.317 35.3172 218.368 35.2796 218.422 35.2502C218.476 35.2209 218.539 35.1991 218.612 35.1843C218.685 35.1697 218.775 35.1625 218.883 35.1625H219.233C219.424 35.1625 219.565 35.2084 219.657 35.3005C219.748 35.3923 219.794 35.566 219.794 35.8212V38.4685C219.794 38.5603 219.746 38.6064 219.65 38.6064H219.039C218.948 38.6064 218.902 38.5604 218.902 38.4685V36.0533C218.902 36.0113 218.885 35.9905 218.852 35.9905H218.796C218.767 35.9905 218.74 36.0053 218.715 36.0344L216.838 38.2362C216.779 38.3031 216.727 38.3609 216.682 38.4089C216.636 38.4569 216.586 38.4956 216.532 38.525C216.478 38.5541 216.415 38.5751 216.345 38.5875C216.274 38.6001 216.185 38.6064 216.077 38.6064H215.74C215.548 38.6064 215.406 38.5615 215.312 38.4716C215.219 38.3817 215.172 38.209 215.172 37.9539V35.3068C215.172 35.2105 215.22 35.1625 215.316 35.1625H215.92V35.1625Z" fill="white"/>
<path fill-rule="evenodd" clip-rule="evenodd" d="M18.4327 31.4301C21.9086 35.8223 28.2669 36.5487 32.6339 33.0527L33.4866 34.1299C38.4453 30.1602 39.2654 22.8991 35.3185 17.9118C31.3715 12.9244 24.152 12.0996 19.1933 16.0693L20.0459 17.1467C15.6788 20.6428 14.9564 27.0376 18.4327 31.4301ZM16.7314 32.7919C12.5073 27.4548 13.3851 19.684 18.6918 15.4358C23.9984 11.1874 31.7246 12.07 35.9485 17.4073C40.1725 22.7447 39.2948 30.5152 33.9881 34.7636C28.6815 39.0119 20.9554 38.1292 16.7314 32.7919Z" fill="#2E9FBF"/>
<path fill-rule="evenodd" clip-rule="evenodd" d="M11.2189 24.6211C10.9563 33.0205 17.5132 40.0435 25.8645 40.3078L25.8001 42.3679C35.2825 42.6678 43.2112 35.1797 43.5094 25.6426C43.8077 16.1055 36.3623 8.131 26.88 7.83114L26.8155 9.89126C18.4645 9.62698 11.4815 16.2218 11.2189 24.6211ZM7.96581 24.5183C8.28488 14.3119 16.7701 6.29828 26.918 6.61919C37.0656 6.9402 45.0335 15.4744 44.7142 25.6806C44.3952 35.8869 35.91 43.9006 25.7622 43.5796C15.6144 43.2587 7.64655 34.7247 7.96581 24.5183Z" fill="white"/>
<path fill-rule="evenodd" clip-rule="evenodd" d="M10.1944 37.1618C16.8179 46.1303 29.416 48.0005 38.3332 41.3389L39.9577 43.5387C50.0828 35.9747 52.1942 21.5876 44.6735 11.404C37.1529 1.22054 22.8483 -0.902987 12.723 6.66095L14.3476 8.86071C5.43043 15.5223 3.57096 28.1932 10.1944 37.1618ZM6.72071 39.7567C-1.32766 28.8588 0.931966 13.4618 11.7676 5.36705C22.603 -2.72772 37.9117 -0.455166 45.9601 10.4428C54.0085 21.341 51.749 36.7378 40.9135 44.8327C30.0778 52.9274 14.7691 50.6548 6.72071 39.7567Z" fill="#2E9FBF"/>
<path fill-rule="evenodd" clip-rule="evenodd" d="M7.12468 16.1288C7.9033 14.4373 8.90922 12.8359 10.1349 11.3743L8.50857 9.90015C7.15601 11.5029 6.04408 13.2592 5.18066 15.1151L7.12468 16.1288Z" fill="#69D4CE"/>
<path fill-rule="evenodd" clip-rule="evenodd" d="M34.0046 44.9668C30.4715 46.3477 26.6865 46.7205 23.0482 46.1445L22.6191 48.3033C26.6553 48.9581 30.8584 48.5539 34.781 47.0244L34.0046 44.9668Z" fill="#69D4CE"/>
<path fill-rule="evenodd" clip-rule="evenodd" d="M10.1943 37.1616C12.3055 40.0202 15.0243 42.1564 18.0368 43.5262L15.8745 47.316C12.3637 45.6467 9.19796 43.1109 6.72066 39.7564C3.55777 35.4737 1.98774 30.4961 1.90356 25.5401H6.23094C6.31506 29.5929 7.60804 33.6595 10.1943 37.1616Z" fill="white"/>
<path fill-rule="evenodd" clip-rule="evenodd" d="M196.142 10.5453C196.536 10.5453 196.734 10.7439 196.734 11.1408V13.7936C196.734 14.2085 196.536 14.416 196.142 14.416H184.165C183.465 14.416 182.887 14.475 182.429 14.5923C181.971 14.7096 181.608 14.9082 181.339 15.1874C181.07 15.4671 180.877 15.8418 180.76 16.311C180.644 16.7806 180.585 17.3757 180.585 18.0977V21.9414C180.585 22.6633 180.644 23.2632 180.76 23.7415C180.877 24.2197 181.07 24.5986 181.339 24.8784C181.608 25.1581 181.971 25.3567 182.429 25.4738C182.887 25.5913 183.465 25.65 184.165 25.65H196.142C196.536 25.65 196.734 25.8483 196.734 26.2455V28.8981C196.734 29.2952 196.536 29.4936 196.142 29.4936H184.003C182.64 29.4936 181.483 29.3675 180.531 29.115C179.581 28.8618 178.805 28.4515 178.204 27.8831C177.603 27.3146 177.163 26.5748 176.885 25.6638C176.607 24.752 176.468 23.6469 176.468 22.3476V17.6916C176.468 16.3922 176.607 15.2916 176.885 14.3895C177.163 13.4873 177.603 12.7515 178.204 12.1829C178.805 11.6146 179.581 11.1997 180.531 10.938C181.483 10.6762 182.64 10.5455 184.003 10.5455H196.142V10.5453Z" fill="white"/>
<path fill-rule="evenodd" clip-rule="evenodd" d="M158.248 22.5099H167.506L163.227 14.5785C163.155 14.4522 163.056 14.3893 162.931 14.3893H162.769C162.643 14.3893 162.545 14.4522 162.473 14.5785L158.248 22.5099ZM163.469 10.5453C164.151 10.5453 164.725 10.6855 165.191 10.9648C165.658 11.2446 166.116 11.7906 166.564 12.6026L175.472 28.8712C175.562 29.0515 175.584 29.2007 175.539 29.3177C175.495 29.4351 175.365 29.4935 175.15 29.4935H171.731C171.426 29.4935 171.22 29.3762 171.113 29.1416L169.201 25.6499H156.552L154.695 29.1416C154.57 29.3762 154.363 29.4935 154.076 29.4935H150.577C150.344 29.4935 150.205 29.4351 150.16 29.3177C150.115 29.2007 150.138 29.0515 150.227 28.8712L159.055 12.6026C159.503 11.7906 159.943 11.2446 160.374 10.9648C160.804 10.6855 161.307 10.5453 161.881 10.5453H163.469Z" fill="white"/>
<path fill-rule="evenodd" clip-rule="evenodd" d="M130.66 10.5453C131.055 10.5453 131.253 10.7439 131.253 11.1408V18.1787H143.848V11.1408C143.848 10.7439 144.046 10.5453 144.44 10.5453H147.347C147.76 10.5453 147.966 10.7439 147.966 11.1408V28.8979C147.966 29.2951 147.76 29.4935 147.347 29.4935H144.44C144.046 29.4935 143.848 29.2951 143.848 28.8979V21.6976H131.253V28.8979C131.253 29.2951 131.055 29.4935 130.66 29.4935H127.754C127.341 29.4935 127.135 29.2951 127.135 28.8979V11.1408C127.135 10.7439 127.341 10.5453 127.754 10.5453H130.66Z" fill="white"/>
<path fill-rule="evenodd" clip-rule="evenodd" d="M104.528 22.0496C104.528 22.7534 104.586 23.3443 104.703 23.8226C104.82 24.3009 105.013 24.6797 105.282 24.9594C105.551 25.2391 105.914 25.4379 106.372 25.555C106.83 25.6722 107.408 25.7309 108.108 25.7309H116.101C116.801 25.7309 117.38 25.6722 117.837 25.555C118.295 25.4379 118.658 25.2391 118.927 24.9594C119.196 24.6797 119.389 24.3009 119.506 23.8226C119.623 23.3442 119.681 22.7534 119.681 22.0496V17.9893C119.681 17.2854 119.623 16.6947 119.506 16.2163C119.389 15.7381 119.196 15.359 118.927 15.0794C118.658 14.7995 118.295 14.6013 117.837 14.4836C117.38 14.3664 116.801 14.3079 116.101 14.3079H108.108C107.408 14.3079 106.83 14.3664 106.372 14.4836C105.914 14.6013 105.551 14.7995 105.282 15.0794C105.013 15.359 104.82 15.7381 104.703 16.2163C104.586 16.6948 104.528 17.2854 104.528 17.9893V22.0496ZM116.263 10.5453C117.626 10.5453 118.788 10.676 119.748 10.9378C120.708 11.1995 121.489 11.6144 122.09 12.1828C122.691 12.7514 123.126 13.4871 123.395 14.3894C123.664 15.2914 123.798 16.392 123.798 17.6914V22.3475C123.798 23.6468 123.664 24.7518 123.395 25.6636C123.126 26.5747 122.691 27.3144 122.09 27.883C121.489 28.4514 120.708 28.8617 119.748 29.1148C118.788 29.3674 117.626 29.4935 116.263 29.4935H107.946C106.583 29.4935 105.426 29.3674 104.474 29.1148C103.524 28.8617 102.748 28.4514 102.146 27.883C101.546 27.3144 101.106 26.5747 100.828 25.6636C100.55 24.7518 100.411 23.6468 100.411 22.3475V17.6914C100.411 16.392 100.55 15.2914 100.828 14.3894C101.106 13.4871 101.546 12.7514 102.146 12.1828C102.748 11.6144 103.524 11.1995 104.474 10.9378C105.426 10.676 106.583 10.5453 107.946 10.5453H116.263Z" fill="white"/>
<path fill-rule="evenodd" clip-rule="evenodd" d="M94.5698 10.5453C95.4668 10.5453 96.1039 10.7303 96.4806 11.1003C96.8576 11.4701 97.0458 12.0521 97.0458 12.8463V28.898C97.0458 29.2951 96.8481 29.4935 96.4536 29.4935H93.5202C93.1253 29.4935 92.9281 29.2951 92.9281 28.898V14.9577C92.9281 14.5966 92.7397 14.416 92.3628 14.416H86.0113C85.6882 14.416 85.4865 14.5022 85.4058 14.6736C85.3249 14.8448 85.2664 15.0391 85.2305 15.2553C85.1409 16.1575 85.0378 17.1006 84.9213 18.0842C84.8047 19.0676 84.6652 20.042 84.5035 21.0074C84.3424 21.9731 84.1674 22.8933 83.9792 23.7686C83.791 24.6436 83.58 25.4333 83.3469 26.137C82.9877 27.2558 82.4854 28.0951 81.8395 28.6545C81.1935 29.2137 80.2697 29.4935 79.0677 29.4935H76.3225C75.9092 29.4935 75.7031 29.2951 75.7031 28.8979V26.2453C75.7031 25.8482 75.9092 25.6498 76.3225 25.6498H78.3677C78.7624 25.6498 79.1344 25.5099 79.4845 25.2304C79.8346 24.9504 80.1533 24.3774 80.4402 23.5113C80.6016 23.0059 80.7494 22.4284 80.8841 21.7788C81.0188 21.1291 81.1488 20.3803 81.2744 19.5323C81.4002 18.6842 81.5301 17.7185 81.6647 16.6357C81.7991 15.5528 81.9471 14.3079 82.1088 12.9003C82.1806 12.1782 82.3779 11.6055 82.7009 11.1816C83.024 10.7572 83.6159 10.5453 84.4772 10.5453H94.5698Z" fill="white"/>
<path fill-rule="evenodd" clip-rule="evenodd" d="M219.076 14.3886C219.468 14.3886 219.664 14.1901 219.664 13.7972V11.163C219.664 10.7525 219.466 10.545 219.076 10.545H206.934C205.571 10.545 204.412 10.671 203.462 10.9236C202.511 11.1764 201.735 11.5871 201.134 12.1555C200.533 12.7241 200.093 13.4638 199.815 14.3749C199.537 15.2866 199.398 16.3917 199.398 17.691V22.3471C199.398 23.6464 199.537 24.7471 199.815 25.6491C200.093 26.5514 200.533 27.2872 201.134 27.8557C201.735 28.4241 202.511 28.839 203.462 29.1007C204.413 29.3624 205.57 29.4932 206.934 29.4932H219.072C219.467 29.4932 219.664 29.2946 219.664 28.8976V26.2449C219.664 25.83 219.467 25.6225 219.072 25.6225H207.095C206.395 25.6225 205.817 25.5635 205.359 25.4462C204.902 25.3288 204.538 25.1303 204.269 24.8511C204 24.5714 203.807 24.1967 203.691 23.7275C203.574 23.2579 203.516 22.6628 203.516 21.9408V18.097C203.516 17.3751 203.574 16.7752 203.691 16.297C203.807 15.8188 204 15.4399 204.269 15.1601C204.538 14.8805 204.902 14.6816 205.359 14.5648C205.817 14.4476 206.395 14.3886 207.095 14.3886H219.076V14.3886Z" fill="white"/>
<path fill-rule="evenodd" clip-rule="evenodd" d="M66.7136 14.4165C66.0142 14.4165 65.4352 14.4756 64.9777 14.5929C64.5204 14.7102 64.1568 14.9088 63.8877 15.188C63.6187 15.4677 63.426 15.8424 63.3091 16.3116C63.1926 16.7812 63.1342 17.3763 63.1342 18.0983V28.8986C63.1342 29.2957 62.9372 29.4941 62.5422 29.4941H59.6357C59.223 29.4941 59.0166 29.2957 59.0166 28.8986V17.692C59.0166 16.3926 59.1557 15.292 59.4335 14.39C59.7118 13.4877 60.1515 12.752 60.7524 12.1834C61.3536 11.615 62.1296 11.1999 63.08 10.9384C64.0313 10.6766 65.1887 10.5459 66.5521 10.5459H77.6139C78.0084 10.5459 78.2057 10.7465 78.2057 11.1414V13.7942C78.2057 14.2072 78.0063 14.4165 77.6139 14.4165H66.7136Z" fill="white"/>
</svg>
