<?xml version="1.0" encoding="utf-8"?><svg viewBox="0 0 620 620" xmlns="http://www.w3.org/2000/svg" xmlns:xlink="http://www.w3.org/1999/xlink"><style>:root>svg{display:none}:root>svg:target{display:block}</style><svg fill="none" viewBox="0 0 17 17" id="arrow" xmlns="http://www.w3.org/2000/svg"><path fill="#00FBEE" d="M8.813 3.937l4.027 4.032H2.125V9.03H12.84l-4.027 4.032.75.75L14.875 8.5 9.562 3.187l-.749.75z"/></svg><svg fill="none" viewBox="0 0 53 42" id="arrow-slider" xmlns="http://www.w3.org/2000/svg"><path stroke="url(#ba)" stroke-linecap="round" stroke-width="2" d="M1 21h50m0 0L32.633 1M51 21L32.633 41"/><defs><linearGradient id="ba" x1="1" x2="51" y1="21" y2="21" gradientUnits="userSpaceOnUse"><stop stop-color="#69D4CE" stop-opacity="0"/><stop offset="1" stop-color="#69D4CE"/></linearGradient></defs></svg><svg fill="none" viewBox="0 0 43 43" id="bank" xmlns="http://www.w3.org/2000/svg"><path fill="#252F37" fill-rule="evenodd" d="M40.132 12.713H2.745a1.87 1.87 0 01-.767-3.575L20.673.727a1.874 1.874 0 011.534 0l18.55 8.347a1.87 1.87 0 01-.607 3.639h-.018zM5.083 33.088a1.87 1.87 0 100 3.74h32.714a1.87 1.87 0 000-3.74h-.467V16.262h.467a.933.933 0 100-1.868H5.083a.934.934 0 100 1.868h.468v16.825h-.468zm28.508-16.826v16.825h-5.608V16.262h5.608zm-9.348 0v16.825h-5.608V16.262h5.608zm-14.954 0h5.607v16.825H9.29V16.262zm30.844 21.686H2.745a1.87 1.87 0 100 3.74h37.387a1.87 1.87 0 100-3.74z" clip-rule="evenodd"/><path fill="url(#ca)" fill-rule="evenodd" d="M40.132 12.713H2.745a1.87 1.87 0 01-.767-3.575L20.673.727a1.874 1.874 0 011.534 0l18.55 8.347a1.87 1.87 0 01-.607 3.639h-.018zM5.083 33.088a1.87 1.87 0 100 3.74h32.714a1.87 1.87 0 000-3.74h-.467V16.262h.467a.933.933 0 100-1.868H5.083a.934.934 0 100 1.868h.468v16.825h-.468zm28.508-16.826v16.825h-5.608V16.262h5.608zm-9.348 0v16.825h-5.608V16.262h5.608zm-14.954 0h5.607v16.825H9.29V16.262zm30.844 21.686H2.745a1.87 1.87 0 100 3.74h37.387a1.87 1.87 0 100-3.74z" clip-rule="evenodd"/><path fill="url(#cb)" fill-rule="evenodd" d="M40.132 12.713H2.745a1.87 1.87 0 01-.767-3.575L20.673.727a1.874 1.874 0 011.534 0l18.55 8.347a1.87 1.87 0 01-.607 3.639h-.018zM5.083 33.088a1.87 1.87 0 100 3.74h32.714a1.87 1.87 0 000-3.74h-.467V16.262h.467a.933.933 0 100-1.868H5.083a.934.934 0 100 1.868h.468v16.825h-.468zm28.508-16.826v16.825h-5.608V16.262h5.608zm-9.348 0v16.825h-5.608V16.262h5.608zm-14.954 0h5.607v16.825H9.29V16.262zm30.844 21.686H2.745a1.87 1.87 0 100 3.74h37.387a1.87 1.87 0 100-3.74z" clip-rule="evenodd"/><defs><linearGradient id="ca" x1="6.587" x2="6.587" y1="-109.104" y2="86.24" gradientUnits="userSpaceOnUse"><stop stop-color="#fff"/><stop offset="1" stop-color="#252F37"/></linearGradient><linearGradient id="cb" x1="21.448" x2="21.448" y1=".563" y2="41.688" gradientUnits="userSpaceOnUse"><stop stop-color="#fff"/><stop offset="1" stop-color="#fff" stop-opacity=".4"/></linearGradient></defs></svg><svg fill="none" viewBox="0 0 42 42" id="branching" xmlns="http://www.w3.org/2000/svg"><g clip-path="url(#da)"><path fill="url(#db)" d="M22.35 10.71v8.49h3.16a1.64 1.64 0 110 3.28h-3.16v8.73c0 1.83 1.49 3.33 3.33 3.33a1.64 1.64 0 110 3.28 6.62 6.62 0 01-6.61-6.61V10.7a6.62 6.62 0 016.6-6.6 1.64 1.64 0 110 3.27 3.33 3.33 0 00-3.32 3.33zM42 20.84a5.91 5.91 0 11-11.83-.02 5.91 5.91 0 0111.83.02zm-3.28 0a2.63 2.63 0 10-5.26 0 2.63 2.63 0 005.26 0zM30.19 5.9A5.91 5.91 0 1142 5.92a5.91 5.91 0 01-11.82-.01zm3.28 0a2.63 2.63 0 105.25-.01 2.63 2.63 0 00-5.25 0zM15.59 20.97v6.92c0 .39-.13.74-.37 1.04-.1.13-2.59 3.42-2.59 9.5A3.65 3.65 0 018.9 42H6.69a3.65 3.65 0 01-3.73-3.56c0-6.18-2.56-9.48-2.59-9.51-.24-.3-.37-.66-.37-1.04v-6.92c0-4 3.26-7.27 7.27-7.27h1.04a7.28 7.28 0 017.28 7.27zm-3.29 0a4 4 0 00-3.99-3.99H7.27a4 4 0 00-3.99 4v6.39c.87 1.3 2.96 5.06 2.96 11.07 0 .1.2.28.45.28h2.2c.25 0 .46-.17.46-.28 0-6.01 2.08-9.77 2.95-11.07v-6.4zM2.13 5.57a5.58 5.58 0 1111.17.02 5.58 5.58 0 01-11.17-.01zm3.28 0a2.3 2.3 0 104.6 0 2.3 2.3 0 00-4.6 0zM42 36.1a5.91 5.91 0 11-11.83-.01A5.91 5.91 0 0142 36.1zm-3.28 0a2.63 2.63 0 10-5.26.01 2.63 2.63 0 005.26 0z"/></g><defs><linearGradient id="db" x1="21" x2="21" y1="0" y2="42" gradientUnits="userSpaceOnUse"><stop stop-color="#00E0FF"/><stop offset="1" stop-color="#00E0FF" stop-opacity=".4"/></linearGradient><clipPath id="da"><path fill="#fff" d="M0 0h42v42H0z"/></clipPath></defs></svg><svg fill="none" viewBox="0 0 620 620" id="distributors" xmlns="http://www.w3.org/2000/svg"><circle cx="310" cy="310" r="310" fill="url(#ea)" opacity=".3" transform="rotate(-180 310 310)"/><circle cx="310" cy="310" r="265" fill="url(#eb)" transform="rotate(-180 310 310)"/><path stroke="url(#ec)" stroke-width="4" d="M394.47 563.6c80.17-27.42 138.96-89.08 165.65-163.1m1.45-177.84A267.64 267.64 0 00422.65 66.85m-358.1 356a268.19 268.19 0 00149.74 138.36m-148.3-368.1a270.1 270.1 0 019.8-18.53A267.25 267.25 0 01192.77 66.85"/><rect width="36" height="36.04" x="477.39" y="100.45" fill="#00E9E8" rx="18"/><path fill="#000" d="M500.51 106h-11.52c-1.1 0-1.99.87-1.99 1.94v22.76c0 1.07.89 1.94 2 1.94h11.51c1.1 0 2-.87 2-1.94v-22.76c0-1.07-.9-1.94-2-1.94zm-8.6 1.18h5.69c.14 0 .26.2.26.46s-.12.47-.26.47h-5.7c-.14 0-.25-.2-.25-.47 0-.25.11-.46.26-.46zm2.84 23.54c-.7 0-1.27-.56-1.27-1.24 0-.68.57-1.23 1.27-1.23.7 0 1.27.55 1.27 1.23 0 .69-.57 1.24-1.27 1.24zm6.26-4.24h-12.52v-17.2h12.52v17.2z"/><path fill="#252F37" d="M500.51 106h-11.52c-1.1 0-1.99.87-1.99 1.94v22.76c0 1.07.89 1.94 2 1.94h11.51c1.1 0 2-.87 2-1.94v-22.76c0-1.07-.9-1.94-2-1.94zm-8.6 1.18h5.69c.14 0 .26.2.26.46s-.12.47-.26.47h-5.7c-.14 0-.25-.2-.25-.47 0-.25.11-.46.26-.46zm2.84 23.54c-.7 0-1.27-.56-1.27-1.24 0-.68.57-1.23 1.27-1.23.7 0 1.27.55 1.27 1.23 0 .69-.57 1.24-1.27 1.24zm6.26-4.24h-12.52v-17.2h12.52v17.2z"/><g fill="#252F37" clip-path="url(#ed)"><path d="M494.75 122.07c.6 0 1.09-.47 1.09-1.05 0-.58-.49-1.05-1.08-1.05-.6 0-1.08.47-1.08 1.05 0 .58.48 1.05 1.07 1.05z"/><path d="M497.34 118.48a1 1 0 00-.05-.04l-.05-.05-.03-.02a3.6 3.6 0 00-4.87.11l-.15.16-.22.2a.65.65 0 000 .94c.27.26.7.26.96 0l.37-.36a2.22 2.22 0 013.08 0l.27.25a.7.7 0 00.95 0 .64.64 0 000-.92l-.26-.27z"/><path d="M499.18 117.18l-.23-.22-.18-.17a6 6 0 00-8.05.1l-.03.03-.4.39a.59.59 0 000 .85c.24.23.63.24.87 0l.41-.4a4.74 4.74 0 016.42-.04l.31.31c.25.24.64.24.88 0a.59.59 0 000-.85z"/></g><rect width="36" height="36.04" x="101.05" y="100.45" fill="#00E0FF" rx="18"/><path fill="#000" d="M123.4 107.66h-9.08c-.87 0-1.57.7-1.57 1.58v18.47c0 .87.7 1.57 1.57 1.57h9.09c.87 0 1.57-.7 1.57-1.57v-18.47c0-.87-.7-1.58-1.57-1.58zm-6.78.96h4.49c.11 0 .2.17.2.38 0 .2-.09.38-.2.38h-4.49c-.11 0-.2-.17-.2-.38s.09-.38.2-.38zm2.24 19.1a1 1 0 010-2 1 1 0 010 2zm4.94-3.44h-9.87v-13.96h9.87v13.97z"/><path fill="#252F37" d="M123.4 107.66h-9.08c-.87 0-1.57.7-1.57 1.58v18.47c0 .87.7 1.57 1.57 1.57h9.09c.87 0 1.57-.7 1.57-1.57v-18.47c0-.87-.7-1.58-1.57-1.58zm-6.78.96h4.49c.11 0 .2.17.2.38 0 .2-.09.38-.2.38h-4.49c-.11 0-.2-.17-.2-.38s.09-.38.2-.38zm2.24 19.1a1 1 0 010-2 1 1 0 010 2zm4.94-3.44h-9.87v-13.96h9.87v13.97z"/><path fill="#E3E3E3" d="M306.9 394.45l4.62 8.03h-9.26l4.63-8.03zm-.03 140.9l10.27 17.81h-20.55l10.28-17.81zm-41.42-98.31v-1.06h.63c.23 0 .4-.06.52-.17.12-.12.25-.3.38-.53l.36-.79-4.14-7.43h1.38l3.33 6.15 2.8-6.15h1.33l-4.1 8.82c-.2.42-.42.72-.66.9a1.5 1.5 0 01-.93.26h-.9zm10.68.1a3.6 3.6 0 01-3.25-1.92 3.87 3.87 0 01-.47-1.89c0-.69.15-1.32.46-1.89a3.64 3.64 0 013.25-1.88c.72 0 1.34.17 1.87.5.55.31.95.74 1.2 1.28l-1.2.38a2.18 2.18 0 00-1.9-1.1 2.39 2.39 0 00-2.1 1.33c-.21.4-.32.86-.32 1.38a2.72 2.72 0 001.2 2.38 2.23 2.23 0 002.06.21c.27-.1.5-.24.7-.4.2-.18.35-.37.42-.58l1.2.37c-.21.53-.6.97-1.17 1.31a3.6 3.6 0 01-1.95.52zm3.88-.08v-1.11c.31 0 .6-.13.84-.35.24-.22.43-.64.57-1.23.15-.6.24-1.45.28-2.56l.08-2.12h4.97V437h-1.23v-6.22h-2.64l-.03 1.14a12.85 12.85 0 01-.4 3.1 2.83 2.83 0 01-.95 1.57c-.4.3-.9.46-1.5.47zm9.64 3c-.3 0-.63-.09-.98-.27l.42-.84c.16.09.32.14.48.14.46 0 .86-.43 1.2-1.28l.35-.88-3.2-7.24h1.3l2.46 6.06 2.23-6.06h1.22l-3.42 8.5a3.6 3.6 0 01-.9 1.4 1.7 1.7 0 01-1.16.48zm6.7-3.06v-7.3h4.52v1.08h-3.28V437h-1.23zm5.76 0v-7.3h1.24v5.65l4.08-5.66h1.13V437h-1.24v-5.53L303.3 437h-1.18zm15.19.14a3.6 3.6 0 01-3.25-1.92 3.87 3.87 0 01-.48-1.89c0-.69.16-1.32.47-1.89a3.64 3.64 0 013.25-1.88c.71 0 1.34.17 1.87.5.54.31.94.74 1.2 1.28l-1.2.38a2.18 2.18 0 00-1.9-1.1c-.45.01-.86.13-1.24.36a2.82 2.82 0 00-1.19 2.35c0 .52.11.98.33 1.4.22.41.51.74.88.98a2.23 2.23 0 002.06.21c.27-.1.5-.24.7-.4.2-.18.34-.37.42-.58l1.2.37c-.21.53-.6.97-1.18 1.31-.56.35-1.2.52-1.94.52zm4.5-.14v-7.3h3.78c.44 0 .8.08 1.1.26a1.76 1.76 0 01.87 1.53c0 .39-.1.74-.29 1.06-.18.3-.45.54-.81.7.42.12.76.34 1.02.66.26.3.4.69.4 1.14 0 .62-.23 1.1-.66 1.45-.43.33-1 .5-1.7.5h-3.7zm1.18-4.09h2.28a1 1 0 00.8-.36c.21-.25.32-.54.32-.86 0-.3-.1-.57-.3-.8a.97.97 0 00-.78-.33h-2.32v2.35zm0 3.22h2.5c.34 0 .62-.12.84-.36.24-.25.35-.52.35-.84 0-.33-.1-.6-.33-.84a1.04 1.04 0 00-.81-.37h-2.55v2.41zm5.9.87l2.08-2.94a1.9 1.9 0 01-1.15-.67 2.27 2.27 0 01-.43-1.46 2.18 2.18 0 011.16-1.96c.37-.2.8-.3 1.3-.3h3V437h-1.24v-2.74h-1.42l-1.94 2.74h-1.35zm3.04-3.65h1.68v-2.7h-1.54c-.44 0-.79.12-1.05.37s-.39.56-.39.94c0 .38.1.7.32.98.23.27.55.4.98.4zm7.19 3.75c-.7 0-1.31-.13-1.8-.4a2.81 2.81 0 01-1.13-1.11l1.01-.45c.17.3.4.53.72.7.31.17.7.25 1.14.25.54 0 .96-.12 1.26-.35.31-.23.47-.55.47-.94 0-.35-.13-.64-.38-.85a1.52 1.52 0 00-1.04-.35h-.74v-.81h.78c.3 0 .55-.1.73-.31.2-.22.3-.48.3-.8a.97.97 0 00-.35-.78 1.6 1.6 0 00-1.05-.31c-.74 0-1.27.3-1.59.9l-.93-.51a2.4 2.4 0 011-1.02 3.2 3.2 0 011.57-.38c.72 0 1.3.17 1.77.52.45.33.68.81.68 1.43 0 .34-.08.66-.25.96-.16.3-.4.51-.71.66a1.83 1.83 0 011.35 1.82c0 .67-.26 1.2-.8 1.57a3.4 3.4 0 01-2.01.56zm4.28-.1v-7.3h1.23v5.65l4.09-5.66h1.12V437h-1.23v-5.53l-4.03 5.53h-1.18zm-83.26 17c0-.5.06-.96.17-1.37.12-.42.35-.82.67-1.2.34-.37.82-.73 1.44-1.08l1.13-.6c.38-.19.7-.4.95-.64.26-.24.39-.52.39-.85 0-.33-.14-.63-.44-.9-.27-.27-.69-.4-1.23-.4a2.77 2.77 0 00-1.72.64c-.2.17-.35.32-.48.46l-.76-.86a4.6 4.6 0 011.65-1.06 4.06 4.06 0 013 .03c.43.2.75.47.97.82a2 2 0 01.34 1.13c0 .36-.08.68-.24.95-.15.27-.34.51-.59.72-.23.2-.48.38-.74.53l-.69.36c-.56.28-1 .53-1.35.74a2.2 2.2 0 00-1.18 1.46h4.94V454h-6.23zm12.07.07a4.1 4.1 0 01-1.83-.42 5 5 0 01-2.45-2.77 5.2 5.2 0 010-3.78c.23-.6.56-1.15.96-1.61a4.54 4.54 0 015.7-.9c.63.4 1.1.93 1.42 1.57l-.97.67a2.9 2.9 0 00-1.19-1.29 3.37 3.37 0 00-3.04-.1c-.4.22-.76.51-1.06.89a4.12 4.12 0 00-.9 2.7c0 .7.15 1.36.45 1.96.3.59.72 1.06 1.25 1.41a3 3 0 001.76.54c.53 0 1.04-.13 1.53-.38.5-.26.96-.66 1.4-1.2V450h-2.15v-.96h3.21V454h-1.06v-1.34a3.97 3.97 0 01-3.03 1.41zm13.29-10.01l-6.72 9.94h-1.37l6.7-9.94h1.39zm5 6.64c.6.1 1.07.37 1.42.82.35.45.53 1 .53 1.67a2.68 2.68 0 01-1.58 2.5c-.5.25-1.1.37-1.77.37-.7 0-1.33-.14-1.87-.4a2.96 2.96 0 01-1.25-1.13l.83-.82c.21.37.5.67.86.9.38.22.85.33 1.43.33.65 0 1.15-.15 1.51-.45.38-.29.56-.72.56-1.3 0-.59-.2-1.06-.6-1.4-.39-.36-.96-.53-1.72-.53h-.36v-1.04h.39c.67 0 1.18-.16 1.54-.49.36-.33.54-.73.54-1.22 0-.5-.17-.86-.51-1.1a2.2 2.2 0 00-1.3-.37c-.52 0-.97.11-1.36.34a2.3 2.3 0 00-.9.9l-.76-.78c.25-.46.65-.84 1.22-1.13a4.23 4.23 0 013.47-.13 2.3 2.3 0 011.44 2.18 2.5 2.5 0 01-.47 1.5c-.3.42-.74.68-1.29.78zm7.73 3.37a4.1 4.1 0 01-1.83-.42 5 5 0 01-2.45-2.77 5.2 5.2 0 010-3.78c.23-.6.55-1.15.96-1.61a4.54 4.54 0 015.7-.9c.63.4 1.1.93 1.41 1.57l-.96.67a2.9 2.9 0 00-1.2-1.29 3.37 3.37 0 00-3.03-.1c-.41.22-.76.51-1.06.89a4.12 4.12 0 00-.9 2.7c0 .7.15 1.36.45 1.96.3.59.72 1.06 1.25 1.41a3 3 0 001.76.54c.53 0 1.04-.13 1.53-.38.49-.26.96-.66 1.4-1.2V450h-2.15v-.96h3.2V454h-1.06v-1.34a3.97 3.97 0 01-3.02 1.41zm13.28-10.01l-6.7 9.94h-1.38l6.7-9.94h1.4zm4 11.72v-2.37H311v-1.09l4.89-6.31h.84v6.28h1.23v1.12h-1.23v2.37h-1.24zm-3.23-3.49h3.35v-4.38l-3.35 4.38zm11.38 1.78a4.1 4.1 0 01-1.83-.42 5 5 0 01-2.45-2.77 5.17 5.17 0 010-3.78c.23-.6.55-1.15.96-1.61a4.54 4.54 0 015.7-.9c.63.4 1.1.93 1.42 1.57l-.97.67a3 3 0 00-1.2-1.29 3.37 3.37 0 00-3.03-.1 3.93 3.93 0 00-1.74 2.13 4.73 4.73 0 00.23 3.42c.3.59.72 1.06 1.25 1.41a3 3 0 001.76.54c.53 0 1.04-.13 1.52-.38.5-.26.97-.66 1.4-1.2V450h-2.14v-.96h3.2V454h-1.06v-1.34a3.97 3.97 0 01-3.02 1.41zm13.29-10.01L330.2 454h-1.37l6.7-9.94h1.4zm3.53 12.03a3.7 3.7 0 01-1.92-.5 3.3 3.3 0 01-1.28-1.35l.77-.67c.26.43.6.77 1.03 1.03.44.26.91.4 1.42.4.43 0 .8-.1 1.14-.29a2.1 2.1 0 001.1-1.91 2.06 2.06 0 00-1.07-1.85 2.18 2.18 0 00-1.08-.27 2.36 2.36 0 00-1.98 1.02h-1.1l1.11-5.7h4.83v1.14h-3.92l-.6 3.16c.2-.21.46-.38.77-.5a3.33 3.33 0 012.7.21 3.12 3.12 0 011.6 2.77c0 .66-.16 1.23-.48 1.72-.3.5-.73.9-1.26 1.17-.53.28-1.12.42-1.78.42zm9.18-2.02a4.1 4.1 0 01-1.83-.42 5 5 0 01-2.45-2.77 5.17 5.17 0 010-3.78c.23-.6.56-1.15.97-1.61a4.54 4.54 0 015.7-.9c.62.4 1.1.93 1.4 1.57l-.96.67c-.29-.58-.68-1-1.19-1.29a3.37 3.37 0 00-3.04-.1c-.4.22-.76.51-1.06.89-.29.36-.51.78-.67 1.24a4.73 4.73 0 00.22 3.42 3.8 3.8 0 001.25 1.41 3 3 0 001.76.54 3.3 3.3 0 001.53-.38c.5-.26.96-.66 1.4-1.2V450h-2.14v-.96h3.2V454h-1.06v-1.34a3.97 3.97 0 01-3.03 1.41z"/><rect width="36" height="36.04" x="289.97" y="477.14" fill="#E3E3E3" rx="18"/><path fill="#000" fill-rule="evenodd" d="M313.1 485.07h3.24c.22 0 .4.18.4.4v18.65a.4.4 0 01-.4.4h-3.24a.4.4 0 01-.4-.4v-18.65c0-.22.18-.4.4-.4zm-1.62 4.05h-3.24a.4.4 0 00-.4.4v14.6c0 .22.18.4.4.4h3.24a.4.4 0 00.4-.4v-14.6a.4.4 0 00-.4-.4zm-8.1 4.05h3.24c.22 0 .4.19.4.41v10.54a.4.4 0 01-.4.4h-3.24a.4.4 0 01-.4-.4v-10.54c0-.22.18-.4.4-.4zm-4.86 4.06h3.24c.22 0 .4.18.4.4v6.49a.4.4 0 01-.4.4h-3.24a.4.4 0 01-.4-.4v-6.49c0-.22.18-.4.4-.4z" clip-rule="evenodd"/><path fill="#252F37" fill-rule="evenodd" d="M313.1 485.07h3.24c.22 0 .4.18.4.4v18.65a.4.4 0 01-.4.4h-3.24a.4.4 0 01-.4-.4v-18.65c0-.22.18-.4.4-.4zm-1.62 4.05h-3.24a.4.4 0 00-.4.4v14.6c0 .22.18.4.4.4h3.24a.4.4 0 00.4-.4v-14.6a.4.4 0 00-.4-.4zm-8.1 4.05h3.24c.22 0 .4.19.4.41v10.54a.4.4 0 01-.4.4h-3.24a.4.4 0 01-.4-.4v-10.54c0-.22.18-.4.4-.4zm-4.86 4.06h3.24c.22 0 .4.18.4.4v6.49a.4.4 0 01-.4.4h-3.24a.4.4 0 01-.4-.4v-6.49c0-.22.18-.4.4-.4z" clip-rule="evenodd"/><path fill="#E3E3E3" d="M244.9 575.78a7.9 7.9 0 01-3.58-1.52 6.86 6.86 0 01-2.53-6.68 6.9 6.9 0 014.58-5.46 7.75 7.75 0 013.89-.27 7.7 7.7 0 013.57 1.54 6.71 6.71 0 012.54 6.66 6.84 6.84 0 01-4.59 5.47c-1.2.4-2.5.5-3.88.26zm.37-2.2c.9.15 1.75.09 2.54-.2.8-.28 1.45-.75 1.99-1.4a5 5 0 001.03-2.36c.16-.9.09-1.75-.2-2.54a4.38 4.38 0 00-1.41-2 4.9 4.9 0 00-2.34-1.03 4.88 4.88 0 00-2.54.21c-.79.28-1.45.75-1.99 1.41a4.91 4.91 0 00-1.03 2.34 5 5 0 00.2 2.56c.3.8.77 1.46 1.42 2a5 5 0 002.33 1zm24.24-8.43l-1.68 13.63-2.49-.3 1.42-11.5-7.06-.87-1.42 11.5-2.5-.32 1.7-13.63 12.03 1.49zm13.24 12.77l-.18 2.13-10.25-.85 1.13-13.7 9.98.83-.18 2.14-7.44-.62-.3 3.56 6.61.55-.17 2.09-6.6-.55-.32 3.78 7.72.64zm9.83-11.13c1.2.05 2.21.3 3.07.72a4.51 4.51 0 011.96 1.78c.44.75.64 1.63.6 2.64a4.8 4.8 0 01-.83 2.58c-.5.7-1.2 1.24-2.1 1.6-.9.34-1.94.5-3.13.44l-3.1-.14-.17 3.97-2.55-.12.61-13.72 5.64.25zm-.45 7.6a3.9 3.9 0 002.56-.6c.6-.44.9-1.1.95-1.97a2.47 2.47 0 00-.77-2.06c-.56-.5-1.39-.77-2.5-.82l-2.98-.13-.24 5.45 2.98.13zm18.34 3.29l-6.86-.03-1.37 3.18-2.62-.01 6.22-13.72 2.51.01 6.15 13.76h-2.67l-1.36-3.2zm-.84-2l-2.56-6.02-2.6 6 5.16.01zm17.28-6.86l-4.54.16.4 11.57-2.53.1-.4-11.58-4.53.16-.07-2.16 11.6-.4.07 2.15zm9.89 11.12c-1.4.1-2.68-.1-3.84-.62a6.85 6.85 0 01-4.06-5.87 6.92 6.92 0 013.14-6.4 7.76 7.76 0 013.7-1.2c1.4-.1 2.68.1 3.84.63a6.7 6.7 0 014.06 5.86 6.85 6.85 0 01-3.14 6.41 7.88 7.88 0 01-3.7 1.19zm-.17-2.23a5.01 5.01 0 002.42-.8 4.56 4.56 0 001.59-1.85c.36-.77.5-1.62.44-2.53a4.9 4.9 0 00-.81-2.42 4.38 4.38 0 00-1.85-1.6 4.89 4.89 0 00-2.51-.43c-.91.07-1.72.34-2.42.8a4.38 4.38 0 00-1.59 1.86 4.9 4.9 0 00-.44 2.51c.07.92.34 1.73.81 2.44.47.7 1.09 1.23 1.85 1.6a5 5 0 002.5.42zm15.07-13.24a7.53 7.53 0 013.14.22c.93.29 1.67.77 2.23 1.44.55.67.88 1.5 1 2.5a4.8 4.8 0 01-.4 2.68 4.5 4.5 0 01-1.82 1.92c-.82.5-1.83.8-3 .95l-3.08.36.46 3.94-2.53.3-1.6-13.65 5.6-.66zm.77 7.58a3.94 3.94 0 002.43-1c.52-.54.73-1.24.62-2.11-.1-.87-.46-1.5-1.1-1.9-.62-.4-1.48-.54-2.59-.41l-2.95.35.63 5.42 2.96-.35zm14.94-5.11c1.63-.27 2.93-.1 3.92.49 1 .57 1.6 1.58 1.85 3.01.24 1.5-.04 2.73-.87 3.69-.82.94-2.1 1.56-3.82 1.84l-5.83.97-2.24-13.56 2.48-.4.76 4.58 3.75-.62zm.64 7.12c.98-.17 1.7-.52 2.15-1.06.45-.54.61-1.24.47-2.1-.27-1.64-1.43-2.3-3.47-1.96l-3.22.54.84 5.11 3.23-.53zm5.6-12.87l2.48-.4 2.24 13.55-2.48.4-2.24-13.55zm63.93-265.13h1.06l4.06 9.94h-1.34l-1.18-2.91h-4.17l-1.16 2.91h-1.35l4.08-9.94zm2.32 6.05l-1.79-4.6-1.85 4.6h3.64zm3.92 3.89v-7.3h1.23v3h.81l2.3-3h1.4l-2.73 3.53 3.05 3.77h-1.43l-2.59-3.16h-.8V306h-1.24zm9.05 0v-6.22h-2.52v-1.09h6.27v1.1h-2.52V306h-1.23zm4.98 0v-7.3h1.23v5.65l4.09-5.66h1.12V306h-1.24v-5.53l-4.03 5.53h-1.17zm8.4 0v-7.3h3.77c.44 0 .8.08 1.1.26a1.77 1.77 0 01.87 1.53 1.85 1.85 0 01-1.1 1.76c.42.12.76.34 1.02.66.26.3.4.69.4 1.14 0 .62-.23 1.1-.67 1.45-.43.33-.99.5-1.69.5h-3.7zm1.17-4.09h2.28a1 1 0 00.8-.36c.21-.25.32-.54.32-.86 0-.3-.1-.57-.3-.8a.97.97 0 00-.78-.33h-2.32v2.35zm0 3.22h2.5c.34 0 .62-.12.84-.36.24-.25.35-.52.35-.84 0-.33-.1-.6-.33-.84a1.04 1.04 0 00-.81-.37h-2.55v2.41zm5.88-1.24c0-.47.13-.87.39-1.2a2.6 2.6 0 011.1-.8c.47-.2 1.01-.29 1.63-.29a6.82 6.82 0 012 .31v-.53c0-.56-.17-1-.5-1.32a2.01 2.01 0 00-1.43-.49c-.4 0-.8.08-1.16.23a6.3 6.3 0 00-1.17.61l-.44-.86c.47-.33.95-.57 1.42-.73.48-.17.98-.25 1.49-.25.93 0 1.67.26 2.21.78.54.51.81 1.23.81 2.16v3.09c0 .29.13.44.4.45v.95a5.56 5.56 0 01-.54.06.88.88 0 01-.66-.24.9.9 0 01-.23-.5l-.03-.47c-.32.41-.73.73-1.25.95a3.8 3.8 0 01-1.52.34c-.49 0-.92-.1-1.3-.3a2.13 2.13 0 01-1.22-1.96zm4.76.51c.1-.13.2-.26.26-.39.07-.14.1-.25.1-.35v-.9a5.04 5.04 0 00-1.85-.36c-.62 0-1.13.13-1.52.38-.39.24-.58.58-.58 1 0 .24.06.47.18.7.14.2.32.39.56.53.26.14.56.2.93.2.38 0 .75-.07 1.09-.22.34-.16.62-.35.83-.59zm9.32 3.32V306h-5.77v-7.3h1.23v6.22h3.39v-6.23h1.23v6.23h1v2.8h-1.08zm2.44-1.72v-7.3h1.24v5.65l4.08-5.66h1.13V306h-1.24v-5.53L491 306h-1.18zm7.87 0l2.07-2.94a1.9 1.9 0 01-1.15-.67 2.27 2.27 0 01-.43-1.46c0-.44.1-.82.3-1.16.21-.34.5-.6.86-.8.37-.2.8-.3 1.3-.3h3V306h-1.24v-2.74h-1.42l-1.94 2.74h-1.35zm3.04-3.65h1.67v-2.7h-1.53c-.44 0-.8.12-1.06.37s-.39.56-.39.94c0 .38.11.7.32.98.23.27.56.4.99.4zm-43.8 20.79a3.6 3.6 0 01-3.25-1.9 3.87 3.87 0 01-.48-1.9 3.82 3.82 0 011.8-3.26 3.68 3.68 0 011.94-.51 3.52 3.52 0 013.2 1.9 3.72 3.72 0 01.42 2.3h-6.06a2.66 2.66 0 001.29 2.14 2.5 2.5 0 002.44-.03c.4-.22.67-.52.82-.88l1.07.3c-.24.53-.64.98-1.22 1.32-.58.35-1.24.52-1.98.52zm-2.47-4.23h4.98c-.03-.47-.17-.9-.4-1.26a2.41 2.41 0 00-2.1-1.16c-.43 0-.83.1-1.2.3a2.53 2.53 0 00-1.28 2.12zm13.47-3.76c-.24-.26-.6-.5-1.08-.72a3.96 3.96 0 00-1.63-.32c-.76 0-1.33.14-1.69.43-.36.3-.54.69-.54 1.2 0 .35.09.63.27.83.2.2.48.38.86.5.4.14.89.27 1.48.41.7.15 1.3.33 1.8.55.5.22.89.5 1.16.87.27.35.4.83.4 1.43a2.45 2.45 0 01-1.77 2.47 6.22 6.22 0 01-5.88-1.1l.6-1.07c.2.2.48.42.82.62a5.22 5.22 0 002.65.71c.7 0 1.26-.12 1.65-.37.4-.26.59-.64.59-1.14 0-.37-.11-.67-.34-.9a2.4 2.4 0 00-.96-.55c-.43-.15-.95-.3-1.57-.45-.67-.17-1.24-.35-1.7-.55-.45-.2-.8-.47-1.03-.8a2.2 2.2 0 01-.34-1.27c0-.63.16-1.17.46-1.61.31-.44.74-.77 1.28-1a4.76 4.76 0 011.83-.33 5.06 5.06 0 013.26 1.13l-.58 1.03zm2.7 7.85v-9.94h1.25V323h-1.26zm12.22 0v-7.59l-3.27 5.84h-.77l-3.3-5.84V323h-1.25v-9.94h1.33l3.6 6.45 3.6-6.45h1.32V323h-1.26zm68.54-13.59l-12.86 8.98v-17.96l12.86 8.98zm-150.99.47l-8.02 4.63v-9.26l8.02 4.63zm158.67-59.85l3.52-2.35-1.49-8.27-4.12-.93-.57-3.17 17.87 4.45.55 3.02-15.18 10.46-.58-3.21zm4.63-10.01l1.12 6.2 6.66-4.42-7.78-1.78zm-4.2 17.28l16.66-2.18 1.7 12.97-2.56.33-1.29-9.92-4.1.53.65 4.93c.26 2 .04 3.57-.67 4.7-.69 1.16-1.82 1.84-3.39 2.05-1.65.22-3-.19-4.05-1.21-1.04-1.03-1.7-2.6-1.97-4.7l-.98-7.5zm2.78 2.73l.56 4.29c.31 2.42 1.37 3.52 3.16 3.29 1.72-.23 2.41-1.56 2.1-3.98l-.56-4.29-5.26.7zm2.3 29.57a9.02 9.02 0 01-2.95-6.27c-.2-2.6.44-4.82 1.93-6.65a8.24 8.24 0 015.97-3.05c2.47-.2 4.59.5 6.35 2.08a8.96 8.96 0 012.97 6.26c.2 2.6-.44 4.82-1.93 6.65a8.2 8.2 0 01-5.97 3.05c-2.49.2-4.61-.5-6.38-2.07zm1.1-10.83a5.77 5.77 0 00-1.33 4.35 5.8 5.8 0 001.99 4.08 5.76 5.76 0 004.36 1.34 5.73 5.73 0 005.42-6.35 5.73 5.73 0 00-6.34-5.43c-1.71.14-3.08.8-4.1 2.01zm13.48 27.47l.08 3.12-16.8.43-.08-3.12 7.2-.19-.22-8.68-7.2.18-.07-3.12 16.8-.42.07 3.12-6.93.17.21 8.69 6.94-.18zm-13.67 10l-.23 9.47-2.61-.06.3-12.6 16.8.41-.3 12.26-2.62-.06.22-9.14-4.36-.1-.2 8.1-2.56-.06.2-8.11-4.64-.11zm12.29 26.47l-.23 3.12-16.75-1.24.23-3.1 7.18.52.63-8.67-7.18-.52.23-3.12 16.75 1.24-.22 3.1-6.92-.5-.64 8.66 6.92.51zm-2.68 20.69l-2.62-.3.67-5.54-14.06-1.7.37-3.07 14.06 1.7.66-5.5 2.63.31-1.71 14.1zm-6.55 12.52c-.34 1.98-1.05 3.43-2.14 4.33-1.07.91-2.48 1.22-4.23.91-1.82-.32-3.13-1.14-3.9-2.48-.76-1.33-.95-3.06-.58-5.17l1.24-7.12 16.54 2.9-.52 3.02-5.6-.98-.8 4.59zm-12.43 6.64l16.55 2.9-.53 3.02-16.55-2.89.53-3.02zm3.96-8.78a4.2 4.2 0 00.35 2.91c.44.74 1.19 1.2 2.24 1.4 2 .34 3.22-.73 3.66-3.22l.68-3.95-6.24-1.09-.69 3.95zM64.17 309.45l12.86-8.98v17.96l-12.86-8.98zm38.88-3.48c-.72 0-1.36-.15-1.94-.45a3.47 3.47 0 01-1.35-1.27l.97-.59a2.47 2.47 0 002.29 1.25c.69 0 1.21-.17 1.59-.5.38-.34.57-.79.57-1.35 0-.53-.18-.97-.53-1.3-.35-.35-.84-.52-1.49-.52h-1.02v-1h1.04a1.58 1.58 0 001.65-1.63c0-.49-.16-.88-.49-1.2a1.9 1.9 0 00-1.36-.45 2.42 2.42 0 00-2.13 1.17l-.92-.63a3.5 3.5 0 013.1-1.7c.91 0 1.64.25 2.2.72.54.48.82 1.12.82 1.92 0 .49-.12.93-.37 1.34-.23.4-.58.7-1.05.91.58.16 1.03.47 1.35.91.31.45.47.97.47 1.57 0 .59-.14 1.1-.44 1.51-.3.42-.7.75-1.2.97-.51.22-1.1.32-1.76.32zm4.4-2.22c0-.47.13-.87.4-1.2a2.6 2.6 0 011.1-.8c.47-.2 1.01-.29 1.63-.29a6.82 6.82 0 012 .31v-.53c0-.56-.17-1-.5-1.32a2.01 2.01 0 00-1.43-.49c-.4 0-.8.08-1.17.23-.36.14-.75.34-1.16.61l-.45-.86c.48-.33.96-.57 1.43-.73a4.4 4.4 0 011.49-.25c.93 0 1.67.26 2.2.78.55.51.82 1.23.82 2.16v3.09c0 .29.13.44.4.45v.95a5.45 5.45 0 01-.54.06.88.88 0 01-.66-.24.9.9 0 01-.24-.5l-.02-.47a3.1 3.1 0 01-1.25.95 3.8 3.8 0 01-1.53.34c-.48 0-.91-.1-1.3-.3-.38-.2-.68-.47-.9-.8a2.14 2.14 0 01-.32-1.15zm4.76.51c.12-.13.2-.26.27-.39.07-.14.1-.25.1-.35v-.9a5.04 5.04 0 00-1.85-.36c-.63 0-1.13.13-1.53.38-.38.24-.57.58-.57 1 0 .24.06.47.18.7.13.2.32.39.56.53.25.14.56.2.93.2.38 0 .74-.07 1.09-.22.34-.16.62-.35.82-.59zm3.56 1.6v-7.3h4.5v1.08H117v6.22h-1.23zm9.7.14a2.9 2.9 0 01-1.6-.45c-.46-.3-.83-.68-1.1-1.13v4.42h-1.23v-10.29h1.09v1.37a3.3 3.3 0 012.66-1.5c.5 0 .96.1 1.38.31.42.2.79.49 1.1.84.3.36.54.76.71 1.22a4.31 4.31 0 01-.15 3.32 3.41 3.41 0 01-1.15 1.39c-.5.33-1.07.5-1.71.5zm-.38-1.06c.49 0 .9-.13 1.26-.4a2.97 2.97 0 00.8-3.7 2.52 2.52 0 00-2.17-1.35c-.29 0-.6.07-.92.22-.32.15-.6.35-.84.6s-.39.52-.45.82v2.08c.2.49.52.9.94 1.24.43.32.89.49 1.38.49zm5.83 3.99c-.3 0-.63-.1-.98-.28l.42-.84c.16.09.32.14.48.14.46 0 .86-.43 1.2-1.28l.35-.88-3.2-7.24h1.3l2.46 6.06 2.23-6.06h1.22l-3.42 8.5c-.25.63-.55 1.1-.9 1.4a1.7 1.7 0 01-1.16.48zm9-2.97c-.7 0-1.3-.13-1.8-.4a2.82 2.82 0 01-1.12-1.11l1-.45c.17.3.41.53.72.7.32.17.7.25 1.15.25.53 0 .95-.12 1.26-.35.3-.23.46-.55.46-.94 0-.35-.13-.64-.38-.85a1.52 1.52 0 00-1.03-.35h-.75v-.81h.79c.3 0 .54-.1.72-.31.2-.22.3-.48.3-.8a.97.97 0 00-.35-.78c-.23-.2-.58-.31-1.05-.31-.74 0-1.27.3-1.58.9l-.94-.51c.23-.44.57-.78 1-1.02.46-.25.98-.38 1.58-.38.71 0 1.3.17 1.76.52.46.33.69.81.69 1.43 0 .34-.09.66-.26.96-.16.3-.4.51-.71.66a1.83 1.83 0 011.36 1.82c0 .67-.27 1.2-.8 1.57-.52.37-1.2.56-2.02.56zm4.28-.1v-7.3h1.24v3h.8l2.3-3h1.4l-2.73 3.53 3.06 3.77h-1.43l-2.6-3.16h-.8v3.16h-1.24zm6.7-2.11c0-.47.13-.87.4-1.2a2.6 2.6 0 011.1-.8c.47-.2 1-.29 1.63-.29a6.82 6.82 0 012 .31v-.53c0-.56-.17-1-.5-1.32a2.02 2.02 0 00-1.44-.49c-.4 0-.78.08-1.16.23-.36.14-.75.34-1.16.61l-.45-.86c.48-.33.96-.57 1.43-.73a4.4 4.4 0 011.49-.25c.93 0 1.67.26 2.2.78.55.51.82 1.23.82 2.16v3.09c0 .29.13.44.4.45v.95a5.45 5.45 0 01-.54.06.88.88 0 01-.66-.24.9.9 0 01-.24-.5l-.03-.47a3.1 3.1 0 01-1.24.95 3.8 3.8 0 01-1.53.34c-.48 0-.92-.1-1.3-.3-.38-.2-.68-.47-.9-.8a2.14 2.14 0 01-.32-1.15zm4.76.51c.12-.13.2-.26.27-.39.06-.14.1-.25.1-.35v-.9a5.04 5.04 0 00-1.85-.36 2.8 2.8 0 00-1.53.38c-.38.24-.57.58-.57 1 0 .24.06.47.18.7.13.2.32.39.56.53.25.14.56.2.93.2.38 0 .74-.07 1.09-.22.34-.16.62-.35.82-.59zM166 306a3.6 3.6 0 01-3.24-1.9 3.87 3.87 0 01-.48-1.9 3.82 3.82 0 011.8-3.26 3.68 3.68 0 011.94-.51 3.52 3.52 0 013.2 1.9 3.72 3.72 0 01.42 2.3h-6.06a2.66 2.66 0 001.29 2.14 2.5 2.5 0 002.44-.03c.4-.22.67-.52.82-.88l1.07.3c-.24.53-.64.98-1.22 1.32-.58.35-1.24.52-1.98.52zm-2.46-4.23h4.98c-.03-.47-.17-.9-.4-1.26a2.41 2.41 0 00-2.1-1.16c-.43 0-.83.1-1.2.3a2.53 2.53 0 00-1.28 2.12zm13.47-3.76c-.24-.26-.6-.5-1.08-.72a3.96 3.96 0 00-1.63-.32c-.76 0-1.33.14-1.69.43-.36.3-.55.69-.55 1.2 0 .35.1.63.28.83.2.2.48.38.86.5.4.14.89.27 1.48.41.7.15 1.3.34 1.8.55.5.22.89.5 1.16.87.27.35.4.83.4 1.43 0 .63-.16 1.15-.47 1.56-.32.42-.75.72-1.3.91a6.22 6.22 0 01-5.88-1.1l.6-1.07c.2.2.48.41.82.62a5.22 5.22 0 002.65.71c.7 0 1.26-.12 1.65-.37.4-.26.59-.64.59-1.14 0-.37-.11-.67-.34-.9a2.4 2.4 0 00-.96-.55c-.43-.15-.96-.3-1.57-.45-.67-.17-1.24-.35-1.7-.55-.45-.2-.8-.47-1.03-.8a2.2 2.2 0 01-.34-1.27 2.71 2.71 0 011.74-2.61 4.76 4.76 0 011.83-.33 5.06 5.06 0 013.26 1.13l-.58 1.03zm2.7 7.85v-9.94h1.25v9.94h-1.26zm12.22 0v-7.59l-3.27 5.84h-.77l-3.3-5.84v7.59h-1.25v-9.94h1.33l3.6 6.45 3.6-6.45h1.32v9.94h-1.26zm-73.7 17v-7.3h6.07v7.3h-1.24v-6.22h-3.6v6.22h-1.23zm12 .14a2.9 2.9 0 01-1.6-.45c-.47-.3-.84-.68-1.11-1.13v4.42h-1.23v-10.29h1.09v1.37a3.3 3.3 0 012.66-1.5c.5 0 .97.1 1.39.31a3.54 3.54 0 011.8 2.06 4.31 4.31 0 01-.15 3.32 3.41 3.41 0 01-1.15 1.39 3 3 0 01-1.7.5zm-.39-1.06c.49 0 .9-.13 1.26-.4a2.97 2.97 0 00.8-3.7 2.52 2.52 0 00-2.17-1.35c-.29 0-.6.07-.92.22-.32.15-.6.35-.84.6s-.39.52-.45.82v2.08c.2.49.52.9.94 1.24.43.32.89.49 1.38.49zm8.36 1.06a3.6 3.6 0 01-1.93-.52 3.75 3.75 0 01-1.75-3.26 3.7 3.7 0 011.76-3.26 3.5 3.5 0 011.92-.53 3.57 3.57 0 013.22 1.92 3.84 3.84 0 01-1.29 5.14c-.55.34-1.2.51-1.93.51zm-2.42-3.77a2.72 2.72 0 001.2 2.35c.37.24.77.36 1.22.36.45 0 .86-.13 1.22-.37a2.82 2.82 0 001.22-2.36 2.82 2.82 0 00-1.22-2.36 2.15 2.15 0 00-1.22-.36c-.45 0-.85.13-1.22.38a2.72 2.72 0 00-1.2 2.36zm10.98 6.61v-2.98h-.28a3.6 3.6 0 01-1.91-.5 3.45 3.45 0 01-1.24-1.33 3.83 3.83 0 01-.43-1.81 3.55 3.55 0 011.68-3.15 3.5 3.5 0 011.9-.5h.28v-2.93H148v2.93h.29a3.46 3.46 0 013.14 1.83c.3.55.44 1.16.44 1.82a3.8 3.8 0 01-.43 1.8 3.4 3.4 0 01-3.15 1.84h-.3v2.98h-1.23zm-.28-3.99h.34v-5.28h-.34c-.45 0-.86.13-1.23.37a2.5 2.5 0 00-.84.95c-.2.4-.3.85-.3 1.34 0 .5.1.95.29 1.35.2.39.48.7.84.94.35.22.77.33 1.24.33zm1.46 0h.35a2.26 2.26 0 002.07-1.27c.2-.4.31-.85.31-1.35 0-.5-.1-.94-.3-1.34-.21-.4-.5-.72-.85-.95a2.12 2.12 0 00-1.23-.37h-.35v5.28zm5.42 1.01v-7.3h1.23v5.65l4.09-5.66h1.12v7.31h-1.24v-5.53l-4.03 5.53h-1.17zm7.76.06v-1.11c.32 0 .6-.13.84-.35.24-.22.44-.63.57-1.23.16-.6.25-1.45.28-2.56l.09-2.12h4.97v7.31h-1.23v-6.22h-2.65l-.03 1.14a12.85 12.85 0 01-.4 3.1 2.83 2.83 0 01-.94 1.57c-.4.3-.9.46-1.5.47zm8.2-.06l2.06-2.94a1.9 1.9 0 01-1.14-.67 2.27 2.27 0 01-.44-1.46 2.14 2.14 0 011.16-1.96c.38-.2.81-.3 1.3-.3h3v7.33h-1.23v-2.74h-1.43l-1.93 2.74h-1.36zm3.03-3.65h1.68v-2.7h-1.54c-.44 0-.79.12-1.05.37s-.4.56-.4.94c0 .38.12.7.33.98.22.27.55.4.98.4zm44.32-9.41l8.02-4.63v9.27l-8.02-4.64zM50.92 404.67l14.53-4.9.93 2.56-12.25 4.12 2.65 7.23 12.25-4.13.93 2.55-14.53 4.9-4.51-12.33z"/><path fill="#E3E3E3" fill-rule="evenodd" d="M47.55 393.67a7.79 7.79 0 01-.33-3.38 4.76 4.76 0 013.77-4.12 5.08 5.08 0 015.48 1.56 8 8 0 011.6 3.03l.97 3.2 4.27-1.18.8 2.63-14.8 4.1-1.76-5.84zm8.24-2.15a4.22 4.22 0 00-1.55-2.4 2.86 2.86 0 00-2.45-.3c-.94.27-1.58.77-1.9 1.5-.34.74-.33 1.68.02 2.83l.93 3.08 5.87-1.63-.92-3.08zm2.41-14.24c.38-1.32.4-2.72.05-4.19a8.37 8.37 0 00-1.93-3.75 7.72 7.72 0 00-3.43-2.18 8.1 8.1 0 00-4.2-.15 7.9 7.9 0 00-3.74 1.88 7.16 7.16 0 00-2.09 3.38 8.02 8.02 0 00-.06 4.19c.34 1.47 1 2.72 1.94 3.75a7.5 7.5 0 003.43 2.18c1.33.41 2.73.46 4.19.14a7.98 7.98 0 003.73-1.87 7.32 7.32 0 002.1-3.38zm-3.68-6.1a5.32 5.32 0 011.28 2.44 4.89 4.89 0 01-1.51 4.96 5.7 5.7 0 01-2.57 1.26c-1 .22-1.96.2-2.86-.07a5.2 5.2 0 01-3.62-3.84c-.23-.97-.2-1.88.07-2.75a4.7 4.7 0 011.46-2.22 5.57 5.57 0 012.55-1.25c1-.22 1.96-.2 2.88.07.9.26 1.68.73 2.32 1.4z" clip-rule="evenodd"/><path fill="#E3E3E3" d="M40.4 364.26l-.45-2.67 10.8-1.7-12.14-6.13-.43-2.52 15.2-2.4.45 2.67-10.77 1.7 12.12 6.13.43 2.52-15.2 2.4zm4.8-28.92c-.6.56-1 1.3-1.19 2.2a3.86 3.86 0 00-1.5-1.47 3.46 3.46 0 00-2.05-.38c-.88.1-1.6.44-2.18 1.06-.6.61-1.02 1.4-1.26 2.36a8.3 8.3 0 00-.19 3.05 10.3 10.3 0 001.83 4.8l2.2-1.1c-.45-.58-.8-1.2-1.08-1.88a7.33 7.33 0 01-.53-2c-.11-.97 0-1.78.32-2.44.32-.67.84-1.04 1.55-1.12.6-.06 1.1.12 1.5.55.4.42.65 1.04.75 1.85l.36 3.21 2.23-.23-.39-3.42c-.1-.94-.01-1.7.28-2.26.29-.57.77-.89 1.44-.96a2.1 2.1 0 011.98.92 5.2 5.2 0 011 2.68 7.76 7.76 0 01-.9 4.62l2.18.66a9.8 9.8 0 001.06-5.87 8.77 8.77 0 00-.9-3.07 5.65 5.65 0 00-1.82-2.14c-.75-.5-1.58-.7-2.5-.61-.88.09-1.6.42-2.19 1z"/><path fill="#E3E3E3" fill-rule="evenodd" d="M42.81 320.44c.2-.96.62-1.7 1.24-2.23.6-.52 1.37-.81 2.33-.86a3.78 3.78 0 013.22 1.26c.8.91 1.26 2.27 1.37 4.09l.41 7-15.38.83-.39-6.6a6.4 6.4 0 01.8-3.93 3.41 3.41 0 012.85-1.55c.8-.04 1.5.11 2.12.46.6.33 1.08.84 1.43 1.53zm-.4 7.04l-.21-3.67a3.23 3.23 0 00-.67-2c-.4-.44-.95-.64-1.67-.6-.72.04-1.25.3-1.59.78-.35.49-.5 1.17-.45 2.06l.22 3.66 4.37-.23zm6.37-4.58c-.12-1.94-.94-2.86-2.46-2.78-1.5.08-2.18 1.09-2.07 3.03l.25 4.21 4.53-.24-.25-4.22zm1.05-12.13a8.22 8.22 0 001.01-4.07c0-1.5-.33-2.86-1-4.07a7.51 7.51 0 00-2.84-2.86 8.04 8.04 0 00-4.07-1.03c-1.5 0-2.87.34-4.07 1.03a7.35 7.35 0 00-2.82 2.84 8.08 8.08 0 00-1.04 4.07c0 1.5.34 2.87 1.03 4.08a7.31 7.31 0 002.83 2.85 7.9 7.9 0 004.05 1.04c1.5 0 2.86-.34 4.07-1.03a7.51 7.51 0 002.85-2.85zm-2.17-6.73c.45.79.68 1.67.68 2.66a5 5 0 01-2.62 4.51 5.8 5.8 0 01-2.8.67 5.67 5.67 0 01-2.78-.67 5.1 5.1 0 01-2.64-4.52 5.1 5.1 0 012.66-4.52 5.68 5.68 0 012.77-.67 5.8 5.8 0 012.8.68 5.02 5.02 0 011.93 1.86zm1.74-23.59l5.69.33-.17 2.53-3.27-.2-.72 11.32 3.27.2-.16 2.54-5.7-.36.05-.63c.01-.93-.65-1.62-2-2.06a27.3 27.3 0 00-5.92-1.05l-4.86-.45.7-10.81 12.95.76.14-2.12zm-8.5 10.24c1.98.18 3.63.44 4.95.75 1.3.32 2.22.75 2.76 1.3l.48-7.47-10.54-.62-.37 5.77 2.71.27z" clip-rule="evenodd"/><path fill="#E3E3E3" d="M37.29 273.16l-.34 2.68 15.3 1.78.31-2.54-9.84-9.13 10.84 1.25.33-2.68-15.29-1.77-.32 2.53 9.86 9.14-10.85-1.26zm6.55-25.73l-.88 4.83 12.79 2.15-.5 2.68-12.78-2.15-.88 4.8-2.38-.4 2.25-12.3 2.38.4zm16.13-11.93l-2.34-.51-1.92 8.13-4.15-.9 1.65-6.96-2.3-.5-1.64 6.96-3.9-.85 1.85-7.84-2.34-.51-2.49 10.51 15.02 3.28 2.56-10.81zm-10-20.46l14.8 4.07-.77 2.6-12.48-3.43-1.67 5.6 3.67 1.14c2.05.63 3.69 1.26 4.9 1.87a6.67 6.67 0 012.58 2.05 3 3 0 01.3 2.63c-.11.35-.33.8-.65 1.38l-2.34-.84c.11-.16.2-.36.27-.59.25-.82-.09-1.54-1-2.16-.93-.63-2.48-1.3-4.65-1.98l-6.08-1.89 3.12-10.45zm2.87-8.14l-.93 2.54 14.53 4.9.88-2.4-7.55-10.96 10.3 3.47.93-2.55-14.53-4.9-.89 2.4 7.58 10.97-10.32-3.47z"/><path fill="#00E0FF" d="M282.27 162.07c-.7 0-1.33-.14-1.9-.42a4.94 4.94 0 01-2.44-2.76 5.34 5.34 0 01.02-3.75 5.25 5.25 0 012.49-2.73 4.16 4.16 0 011.86-.42c.7 0 1.33.14 1.9.43a4.7 4.7 0 011.48 1.17 5.48 5.48 0 011.28 3.45 5.15 5.15 0 01-1.34 3.51l1.25 1.45h-1.24l-.7-.81a4.79 4.79 0 01-2.66.88zm.02-1.13a3.05 3.05 0 001.89-.63l-1.33-1.56h1.23l.75.88a4.45 4.45 0 00.6-4.06 3.78 3.78 0 00-1.77-2.12 2.91 2.91 0 00-1.37-.33c-.54 0-1.01.12-1.43.34-.42.22-.78.52-1.08.9a4.26 4.26 0 00-.9 2.67 4.16 4.16 0 00.94 2.72 3.2 3.2 0 002.47 1.19zm6.4 1.06v-9.94h4.25c.44 0 .84.1 1.2.28a3.28 3.28 0 011.54 4.2 2.74 2.74 0 01-1.82 1.65l2.41 3.81h-1.42l-2.27-3.57h-2.63V162h-1.26zm1.26-4.69h3c.35 0 .65-.1.9-.28a2.38 2.38 0 00.83-1.79c0-.38-.09-.72-.25-1.02a2.08 2.08 0 00-.66-.76 1.54 1.54 0 00-.9-.28h-2.92v4.13zm7.64 1.43v-1.12h4.13v1.12h-4.13zm6 3.26v-7.3h1.24v3h.81l2.3-3h1.4l-2.73 3.53 3.05 3.77h-1.43l-2.59-3.16h-.81V162h-1.23zm10.09.14a3.6 3.6 0 01-1.93-.52 3.75 3.75 0 01-1.75-3.26 3.7 3.7 0 011.76-3.26 3.5 3.5 0 011.92-.53 3.57 3.57 0 013.22 1.92 3.84 3.84 0 01-1.29 5.14c-.55.34-1.2.51-1.93.51zm-2.42-3.77a2.72 2.72 0 001.2 2.35 2.19 2.19 0 002.44-.01c.37-.24.67-.57.88-.98.22-.42.34-.88.34-1.38a2.82 2.82 0 00-1.22-2.36 2.15 2.15 0 00-1.22-.36c-.45 0-.85.13-1.22.38a2.72 2.72 0 00-1.2 2.36zm6.8 5.35v-2.81h.15c.27 0 .51-.11.73-.34.22-.23.4-.64.55-1.23.13-.6.22-1.44.25-2.53l.07-2.12h4.97v6.22h1v2.81h-1.1V162h-5.53v1.72h-1.1zm1.87-2.81h3.62v-5.13h-2.65l-.04 1.14c-.04 1.2-.14 2.1-.3 2.71-.15.62-.36 1.05-.63 1.28zm7.2 1.09v-7.3h1.23v2.48h1.48c.86 0 1.51.22 1.95.66.45.43.67 1 .67 1.7s-.21 1.28-.64 1.76c-.43.47-1.06.7-1.9.7h-2.8zm6.59 0v-7.3h1.23v7.3h-1.23zm-5.36-.97h1.4c.51 0 .88-.14 1.1-.43.24-.3.35-.64.35-1.04 0-.38-.1-.71-.32-.99-.21-.28-.6-.42-1.16-.42h-1.37v2.88zm-70.6 19.7v-2.82h.15c.27 0 .51-.11.73-.34.22-.23.4-.64.55-1.23.13-.6.22-1.44.25-2.53l.07-2.12h4.97v6.22h1v2.81h-1.1V179h-5.53v1.72h-1.1zm1.87-2.82h3.62v-5.13h-2.65l-.04 1.14c-.04 1.2-.14 2.1-.3 2.71-.15.62-.36 1.05-.63 1.28zm6.57 1.15v-1.11c.31 0 .6-.13.84-.35.24-.22.43-.63.57-1.23.15-.6.24-1.45.28-2.56l.09-2.12h4.96V179h-1.23v-6.22h-2.64l-.03 1.14a12.9 12.9 0 01-.4 3.1 2.84 2.84 0 01-.94 1.57c-.4.3-.9.46-1.5.47zm8.19-.06l2.07-2.94a1.9 1.9 0 01-1.15-.67 2.27 2.27 0 01-.43-1.46c0-.44.1-.82.3-1.16.21-.34.5-.6.86-.8.37-.2.8-.3 1.3-.3h3V179h-1.23v-2.74h-1.43l-1.93 2.74h-1.36zm3.04-3.65h1.68v-2.7h-1.54c-.44 0-.8.12-1.05.37-.26.24-.4.56-.4.94 0 .38.11.7.33.98.22.27.55.4.98.4zm7.87 1.54c0-.47.13-.87.39-1.2a2.6 2.6 0 011.1-.8c.47-.2 1.01-.29 1.63-.29a6.82 6.82 0 012 .31v-.53c0-.56-.17-1-.5-1.32a2 2 0 00-1.43-.49c-.4 0-.79.08-1.16.23-.37.14-.75.34-1.16.61l-.45-.86c.47-.33.95-.57 1.43-.73.47-.17.97-.25 1.48-.25.93 0 1.67.26 2.21.78.54.51.81 1.23.81 2.16v3.09c0 .29.14.44.4.45v.95a5.56 5.56 0 01-.54.06c-.28 0-.5-.08-.65-.24a.9.9 0 01-.24-.5l-.03-.47c-.32.41-.73.73-1.25.95a3.8 3.8 0 01-1.52.34c-.49 0-.92-.1-1.3-.3a2.13 2.13 0 01-1.22-1.96zm4.76.51c.11-.13.2-.26.26-.39.07-.14.1-.25.1-.35v-.9a5.04 5.04 0 00-1.85-.36c-.62 0-1.13.13-1.52.38-.38.24-.58.58-.58 1 0 .24.06.47.19.7.13.2.31.39.56.53.25.14.56.2.92.2.38 0 .75-.07 1.1-.22.34-.16.61-.35.82-.59zm3.55 1.6v-7.3h1.23v3h.81l2.3-3h1.4l-2.73 3.53 3.05 3.77h-1.43l-2.59-3.16h-.8V179h-1.24zm9.05 0v-6.22h-2.52v-1.09h6.27v1.1h-2.52V179h-1.23zm4.98 0v-7.3h1.23v5.65l4.09-5.66h1.12V179h-1.23v-5.53L308.8 179h-1.17zm8.4 0v-7.3h3.77c.44 0 .8.08 1.1.26a1.77 1.77 0 01.87 1.53 1.85 1.85 0 01-1.1 1.76c.42.12.76.34 1.02.66.26.3.4.69.4 1.14 0 .62-.23 1.1-.66 1.45-.43.33-1 .5-1.7.5h-3.7zm1.17-4.09h2.28a1 1 0 00.8-.36c.21-.25.32-.54.32-.86 0-.3-.1-.57-.3-.8a.97.97 0 00-.78-.33h-2.32v2.35zm0 3.22h2.5c.34 0 .62-.12.84-.36.24-.25.35-.53.35-.84 0-.33-.1-.6-.33-.84a1.04 1.04 0 00-.81-.37h-2.55v2.41zm5.88-1.24c0-.47.13-.87.39-1.2a2.6 2.6 0 011.1-.8c.47-.2 1.01-.29 1.63-.29a6.82 6.82 0 012 .31v-.53c0-.56-.17-1-.5-1.32a2 2 0 00-1.43-.49c-.4 0-.79.08-1.16.23a6.3 6.3 0 00-1.17.61l-.44-.86c.47-.33.95-.57 1.43-.73.47-.17.97-.25 1.48-.25.93 0 1.67.26 2.21.78.54.51.81 1.23.81 2.16v3.09c0 .29.13.44.4.45v.95a5.56 5.56 0 01-.54.06.88.88 0 01-.66-.24.9.9 0 01-.23-.5l-.03-.47c-.32.41-.73.73-1.25.95a3.8 3.8 0 01-1.52.34c-.49 0-.92-.1-1.3-.3a2.13 2.13 0 01-1.22-1.96zm4.76.51c.1-.13.2-.26.26-.39.07-.14.1-.25.1-.35v-.9a5.04 5.04 0 00-1.85-.36c-.62 0-1.13.13-1.52.38-.39.24-.58.58-.58 1 0 .24.06.47.19.7.13.2.31.39.56.53.25.14.56.2.92.2.38 0 .75-.07 1.1-.22.34-.16.61-.35.82-.59zm9.32 3.32V179h-5.77v-7.3h1.23v6.22h3.39v-6.23h1.23v6.23h1v2.8h-1.08zm2.45-1.72v-7.3h1.23v5.65l4.09-5.66h1.12V179h-1.24v-5.53L340.8 179h-1.17zm8.39 0v-7.3h1.23v5.65l4.09-5.66h1.12V179h-1.23v-5.53l-4.03 5.53H348zm-53.59 17.14a3.6 3.6 0 01-3.24-1.9 3.87 3.87 0 01-.48-1.9 3.82 3.82 0 011.8-3.26 3.68 3.68 0 011.94-.51 3.52 3.52 0 013.2 1.9 3.72 3.72 0 01.42 2.3H292a2.66 2.66 0 001.29 2.14 2.5 2.5 0 002.44-.03c.4-.22.67-.52.82-.88l1.07.3c-.24.53-.64.98-1.22 1.32-.58.35-1.24.52-1.98.52zm-2.46-4.23h4.98c-.03-.47-.17-.9-.4-1.26a2.41 2.41 0 00-2.1-1.16c-.43 0-.83.1-1.2.3a2.53 2.53 0 00-1.28 2.12zm13.47-3.76c-.24-.27-.6-.5-1.08-.72a3.96 3.96 0 00-1.63-.32c-.76 0-1.33.14-1.69.43-.36.3-.54.69-.54 1.2 0 .35.09.63.27.83.2.2.48.38.86.5.4.14.89.27 1.48.41.7.15 1.3.34 1.8.55.5.22.89.5 1.16.87.27.35.4.83.4 1.43a2.45 2.45 0 01-1.77 2.47 6.22 6.22 0 01-5.88-1.1l.6-1.07c.2.2.48.41.82.62a5.22 5.22 0 002.65.71c.7 0 1.26-.12 1.65-.37.4-.27.59-.64.59-1.14 0-.37-.11-.67-.34-.9a2.4 2.4 0 00-.96-.55c-.43-.15-.95-.3-1.57-.45-.67-.17-1.24-.35-1.7-.55-.45-.2-.8-.47-1.03-.8a2.2 2.2 0 01-.34-1.27c0-.64.16-1.17.46-1.61.31-.44.74-.77 1.28-1a4.76 4.76 0 011.83-.33 5.06 5.06 0 013.26 1.13l-.58 1.03zm2.7 7.85v-9.94h1.25V196h-1.26zm12.22 0v-7.59l-3.27 5.84h-.77l-3.3-5.84V196h-1.25v-9.94h1.33l3.6 6.45 3.6-6.45h1.32V196h-1.26z"/><path stroke="#00E0FF" d="M307.15 114.25v27.85"/><path fill="#00E0FF" d="M306.87 70.9l10.98 15.76h-21.97l10.99-15.77zm1.33 142.3l4.63 8.03h-9.26l4.63-8.03zM223.64 57.64l1.6 5.03-2.33.74-.92-2.9-10.43 3.33.93 2.9-2.35.75-1.59-5.04.59-.19c.84-.31 1.24-1.13 1.18-2.46a24.4 24.4 0 00-1.03-5.47l-1.22-4.36 9.96-3.18 3.65 11.47 1.96-.62zm-12.06-3.78c.5 1.78.82 3.3.97 4.55a5.23 5.23 0 01-.25 2.84l6.9-2.2-2.97-9.33-5.32 1.7.67 2.44zm10.76-8.27l2.53-.66 2.55 9.8L232.28 43l2.39-.62 3.6 13.82-2.53.66-2.55-9.8-4.86 11.73-2.39.62-3.6-13.81zM248 54.36c-1.4.3-2.75.25-4.02-.12a7.15 7.15 0 01-3.2-2.02 7.33 7.33 0 01-1.73-3.5 7.02 7.02 0 012.36-7.01 8.02 8.02 0 013.64-1.73 8.13 8.13 0 013.25-.06c1.03.2 1.95.62 2.76 1.24l-1.35 1.93a4.99 4.99 0 00-4.07-.86 5.3 5.3 0 00-2.44 1.17 4.57 4.57 0 00-1.42 2.1c-.27.84-.3 1.73-.11 2.68.2.94.58 1.74 1.16 2.4a4.7 4.7 0 002.14 1.4 5.4 5.4 0 002.7.08 4.96 4.96 0 003.4-2.44l2 1.25a6.5 6.5 0 01-2.06 2.24 8.14 8.14 0 01-3 1.25zm15.82-15.16l-4.67.76 1.92 11.88-2.6.42-1.91-11.88-4.65.75-.35-2.22 11.9-1.92.36 2.21zm8.1-3.2a7.82 7.82 0 013.27.24c.96.3 1.73.8 2.3 1.5.58.7.93 1.56 1.05 2.6a4.97 4.97 0 01-.42 2.78 4.69 4.69 0 01-1.9 2c-.86.5-1.9.83-3.13.97l-3.2.37.48 4.1-2.63.3-1.65-14.18 5.83-.68zm.8 7.88c1.14-.14 1.98-.48 2.52-1.04.53-.55.75-1.28.65-2.19-.1-.9-.49-1.56-1.14-1.98-.65-.42-1.55-.56-2.7-.43l-3.07.36.65 5.63 3.08-.35zm8.24-8.8l2.6-.17.66 10.12 7-10.62 2.45-.16.93 14.25-2.6.17-.66-10.1-6.99 10.6-2.46.16-.93-14.25zm16.81-.92l11.1-.16.03 2.19-8.5.12.05 3.5 4.22-.05c1.71-.03 3.02.31 3.91 1.02.9.7 1.37 1.72 1.39 3.06a3.95 3.95 0 01-1.42 3.3c-.97.78-2.36 1.18-4.17 1.21l-6.42.09-.2-14.28zm6.44 12.15a3.85 3.85 0 002.32-.62 2 2 0 00.77-1.73c-.02-1.47-1.07-2.19-3.15-2.16l-3.67.05.06 4.51 3.67-.05zm15.17-7.16c1.72.06 3.01.5 3.9 1.3.9.8 1.32 1.94 1.27 3.45-.06 1.58-.6 2.77-1.63 3.58-1.04.8-2.47 1.16-4.28 1.1l-6.13-.21.48-14.27 2.6.09-.16 4.83 3.95.13zm-.8 7.39a3.56 3.56 0 002.41-.64c.57-.45.88-1.14.9-2.05.06-1.72-.98-2.62-3.12-2.7l-3.4-.11-.19 5.38 3.4.12zm21.57-10.92c1.39.12 2.61.56 3.66 1.3a6.8 6.8 0 012.4 2.84 7.4 7.4 0 01.6 3.85 7.46 7.46 0 01-1.3 3.67 6.94 6.94 0 01-2.88 2.38 7.56 7.56 0 01-3.84.58 7.72 7.72 0 01-3.41-1.11 7.06 7.06 0 01-3.31-5.8l-2.24-.21-.56 6.03-2.6-.24L328 34.7l2.6.24-.54 5.83 2.27.21c.3-1.16.82-2.16 1.57-3a6.88 6.88 0 012.76-1.9 7.67 7.67 0 013.5-.45zM339 47.92a4.43 4.43 0 004.3-2.02c.47-.71.76-1.56.85-2.54a5.49 5.49 0 00-.37-2.65 4.43 4.43 0 00-1.52-1.93 4.68 4.68 0 00-2.34-.85 4.8 4.8 0 00-2.45.4 4.7 4.7 0 00-1.85 1.62 5.43 5.43 0 00-.85 2.54c-.09.98.03 1.86.37 2.66a4.6 4.6 0 003.86 2.78zm20.34-7.21l-4.67-.7-1.77 11.91-2.6-.38 1.77-11.91-4.66-.7.33-2.21 11.93 1.77-.33 2.22zm6.63 13.77a8.2 8.2 0 01-3.68-1.69 7.12 7.12 0 01-2.43-7.01 7.18 7.18 0 014.92-5.54 8.06 8.06 0 014.04-.17c1.43.28 2.65.85 3.68 1.7a6.98 6.98 0 012.43 7 7.12 7.12 0 01-4.92 5.55 8.2 8.2 0 01-4.04.16zm.45-2.28a4.74 4.74 0 004.75-1.53 5.2 5.2 0 001.14-2.42c.19-.94.14-1.82-.14-2.65a4.56 4.56 0 00-1.4-2.11 5.08 5.08 0 00-2.4-1.14 5.08 5.08 0 00-2.64.14c-.83.27-1.54.74-2.11 1.41a5.1 5.1 0 00-1.14 2.4 5.2 5.2 0 00.13 2.66 4.78 4.78 0 003.81 3.24zm18.35-8.27c1.2.3 2.2.77 2.98 1.39a4.7 4.7 0 011.63 2.22c.28.85.3 1.79.04 2.8-.25 1-.7 1.83-1.37 2.46a4.69 4.69 0 01-2.48 1.18 7.9 7.9 0 01-3.27-.2l-3.13-.78-1 4-2.57-.65 3.48-13.85 5.7 1.43zm-2.05 7.65c1.12.28 2.03.26 2.73-.07.7-.33 1.16-.93 1.38-1.82.23-.88.1-1.63-.35-2.25-.46-.63-1.25-1.08-2.37-1.36l-3-.76-1.39 5.5 3 .76zm15.72 1.26c1.63.51 2.77 1.27 3.4 2.28.66 1 .76 2.23.31 3.67-.47 1.5-1.3 2.51-2.52 3.02-1.2.49-2.68.46-4.41-.08l-5.86-1.83 4.25-13.63 2.5.78-1.45 4.61 3.78 1.18zm-2.73 6.9c.98.31 1.81.32 2.49.04.67-.3 1.14-.87 1.41-1.74.52-1.65-.25-2.8-2.3-3.44l-3.25-1.01-1.6 5.14 3.25 1.02zm11.2-9.31l2.5.77-4.25 13.64-2.5-.78 4.26-13.63z"/><path stroke="url(#ee)" stroke-dasharray="2.2 2.2" d="M313.18 344.8c-.75.07-1.51.12-2.28.15l-.01-.5a35.28 35.28 0 01-2.26 0l-.02.5a34.9 34.9 0 01-2.28-.15l.05-.5c-.75-.07-1.5-.17-2.23-.29l-.08.5c-.76-.13-1.5-.28-2.25-.45l.12-.49c-.74-.17-1.46-.36-2.18-.58l-.14.48c-.73-.22-1.45-.47-2.17-.74l.18-.46c-.7-.27-1.4-.56-2.08-.87l-.2.46c-.7-.32-1.38-.66-2.05-1.01l.23-.45c-.66-.35-1.31-.73-1.95-1.13l-.26.43c-.65-.4-1.28-.83-1.9-1.27l.3-.41c-.62-.44-1.21-.9-1.8-1.37l-.3.38c-.6-.48-1.17-.98-1.73-1.5l.35-.37a33.7 33.7 0 01-1.6-1.6l-.36.35a34.67 34.67 0 01-1.5-1.72l.38-.32c-.48-.58-.93-1.18-1.37-1.79l-.4.3c-.45-.62-.87-1.26-1.28-1.9l.43-.27c-.4-.63-.77-1.28-1.13-1.95l-.44.24c-.36-.67-.7-1.36-1.01-2.05l.46-.2a38.3 38.3 0 01-.87-2.09l-.47.18a50.2 50.2 0 01-.73-2.17l.48-.14c-.22-.72-.41-1.44-.58-2.18l-.49.11c-.17-.73-.32-1.48-.44-2.24l.5-.08c-.13-.74-.22-1.48-.3-2.23l-.5.05c-.07-.76-.12-1.52-.14-2.28l.5-.02a35.28 35.28 0 010-2.26l-.5-.01c.02-.77.07-1.53.14-2.28l.5.05c.08-.76.17-1.5.3-2.24l-.5-.08c.12-.75.27-1.5.44-2.24l.49.11c.17-.73.36-1.46.58-2.17l-.48-.15c.22-.73.47-1.45.73-2.16l.47.17c.27-.7.56-1.4.87-2.08l-.46-.2c.31-.7.65-1.38 1.01-2.05l.44.24c.36-.67.73-1.32 1.13-1.96l-.43-.26c.4-.65.83-1.28 1.27-1.9l.41.3c.44-.62.9-1.22 1.37-1.8l-.39-.31c.49-.6.99-1.17 1.51-1.72l.37.34c.5-.55 1.04-1.08 1.59-1.6l-.35-.36c.56-.52 1.13-1.02 1.72-1.5l.32.38c.58-.48 1.17-.94 1.78-1.38l-.29-.4c.62-.44 1.25-.87 1.9-1.27l.26.42c.64-.4 1.29-.77 1.95-1.13l-.23-.44c.67-.36 1.35-.7 2.04-1.01l.21.45c.68-.3 1.38-.6 2.08-.86l-.18-.47c.72-.27 1.44-.51 2.17-.73l.14.47c.72-.21 1.44-.4 2.18-.58l-.12-.49c.74-.17 1.5-.31 2.25-.44l.08.5c.73-.13 1.48-.23 2.23-.3l-.05-.5c.76-.07 1.52-.12 2.28-.14l.02.5a32.52 32.52 0 012.25 0l.02-.5c.77.02 1.53.07 2.28.14l-.05.5c.75.07 1.5.17 2.24.3l.08-.5c.75.13 1.5.27 2.24.44l-.12.5c.74.16 1.46.36 2.18.57l.14-.47c.74.22 1.46.46 2.17.73l-.18.47c.7.26 1.4.55 2.08.86l.2-.45c.7.31 1.39.65 2.06 1.01l-.24.44c.66.36 1.31.73 1.95 1.13l.26-.42c.65.4 1.28.82 1.9 1.27l-.29.4c.61.44 1.2.9 1.78 1.38l.32-.39c.6.49 1.16 1 1.72 1.51l-.34.37c.54.51 1.08 1.04 1.59 1.59l.36-.34a35.1 35.1 0 011.5 1.72l-.38.31c.48.58.94 1.18 1.37 1.8l.41-.3c.44.62.87 1.25 1.27 1.9l-.42.26c.4.64.77 1.3 1.12 1.95l.44-.23c.36.67.7 1.35 1.01 2.05l-.45.2c.3.69.6 1.38.86 2.08l.47-.17c.26.71.5 1.43.73 2.16l-.48.15c.22.71.41 1.44.58 2.17l.49-.1c.17.73.32 1.48.44 2.23l-.5.08c.13.74.23 1.48.3 2.24l.5-.05c.07.75.12 1.51.14 2.28l-.5.01a35.28 35.28 0 010 2.26l.5.02c-.02.76-.07 1.52-.14 2.28l-.5-.05c-.07.75-.17 1.5-.3 2.23l.5.08c-.12.76-.27 1.5-.44 2.24l-.49-.1c-.17.73-.36 1.45-.58 2.17l.48.14a35.3 35.3 0 01-.73 2.17l-.47-.18c-.27.7-.55 1.4-.86 2.08l.45.2c-.31.7-.65 1.39-1 2.06l-.45-.24c-.35.67-.73 1.31-1.13 1.95l.43.27c-.4.64-.83 1.28-1.27 1.9l-.4-.3c-.44.62-.9 1.21-1.38 1.8l.39.3c-.48.6-.99 1.17-1.5 1.73l-.37-.35a33.7 33.7 0 01-1.6 1.6l.35.36c-.56.53-1.13 1.03-1.72 1.51l-.31-.38c-.58.47-1.18.93-1.79 1.37l.3.4c-.63.45-1.26.88-1.9 1.28l-.27-.43c-.64.4-1.29.78-1.95 1.13l.24.45c-.67.35-1.36.7-2.05 1l-.2-.45c-.69.31-1.38.6-2.09.87l.18.47c-.71.26-1.43.5-2.17.73l-.14-.48c-.72.22-1.44.41-2.18.58l.12.5c-.74.16-1.49.31-2.24.44l-.08-.5c-.74.12-1.49.22-2.24.3l.05.5z" opacity=".3"/><path stroke="url(#ef)" d="M309.75 353.74a43.69 43.69 0 01-43.66-43.7 43.69 43.69 0 0143.67-43.72 43.69 43.69 0 0143.66 43.71 43.69 43.69 0 01-43.67 43.71z"/><path stroke="url(#eg)" d="M309.76 361.64a51.58 51.58 0 01-51.55-51.6 51.58 51.58 0 0151.55-51.61 51.58 51.58 0 0151.55 51.6c0 28.5-23.08 51.6-51.55 51.6z"/><path stroke="url(#eh)" stroke-dasharray="2.2 2.2" d="M313.1 378.24c-.73.04-1.48.06-2.22.07l-.01-.5a68.64 68.64 0 01-2.23 0v.5c-.75 0-1.5-.03-2.23-.07l.02-.5a55.1 55.1 0 01-2.22-.14l-.04.5a67.9 67.9 0 01-2.22-.22l.06-.5c-.74-.08-1.47-.18-2.2-.28l-.07.5-2.2-.37.08-.5c-.73-.13-1.45-.27-2.17-.42l-.1.48c-.74-.15-1.46-.32-2.18-.5l.12-.49c-.72-.18-1.44-.37-2.15-.57l-.13.48c-.72-.2-1.43-.42-2.14-.65l.15-.47-2.1-.72-.16.47-2.1-.78.19-.47c-.69-.27-1.37-.56-2.05-.85l-.2.46c-.68-.3-1.36-.6-2.03-.93l.22-.45c-.67-.31-1.34-.64-2-.98l-.22.44c-.66-.34-1.32-.7-1.97-1.05l.24-.44a68.8 68.8 0 01-1.91-1.11l-.26.43a68.3 68.3 0 01-1.9-1.19l.27-.42c-.62-.4-1.23-.8-1.84-1.23l-.28.41c-.62-.43-1.22-.86-1.82-1.3l.3-.4c-.6-.45-1.18-.9-1.75-1.36l-.32.4a76.6 76.6 0 01-1.72-1.43l.32-.38a45.6 45.6 0 01-1.66-1.46l-.34.37c-.55-.5-1.1-1.01-1.63-1.53l.35-.36a68.14 68.14 0 01-1.57-1.57l-.36.35a69.21 69.21 0 01-1.52-1.63l.37-.34c-.5-.54-.98-1.1-1.46-1.66l-.38.32a69.1 69.1 0 01-1.42-1.73l.4-.3c-.47-.59-.92-1.17-1.36-1.77l-.4.3c-.44-.6-.88-1.2-1.3-1.82l.41-.28c-.42-.6-.83-1.22-1.23-1.84l-.42.27c-.4-.63-.8-1.26-1.18-1.9l.43-.26a60 60 0 01-1.11-1.92l-.44.25c-.36-.65-.71-1.31-1.05-1.97l.44-.23c-.34-.66-.66-1.32-.98-1.99l-.45.21c-.32-.67-.63-1.35-.92-2.03l.46-.2c-.3-.68-.58-1.36-.85-2.05l-.47.19-.78-2.1.47-.16c-.25-.7-.49-1.4-.71-2.1l-.48.15a67.5 67.5 0 01-.65-2.14l.48-.13c-.2-.71-.39-1.43-.57-2.15l-.48.12a68 68 0 01-.5-2.17l.48-.1c-.15-.73-.3-1.45-.43-2.18l-.49.09c-.13-.74-.25-1.47-.36-2.21l.5-.07c-.11-.73-.2-1.46-.3-2.2l-.49.06a73.6 73.6 0 01-.22-2.22l.5-.05c-.06-.73-.1-1.47-.14-2.21l-.5.02c-.03-.74-.06-1.48-.07-2.23h.5a68.64 68.64 0 010-2.23h-.5c.01-.75.03-1.5.07-2.24l.5.02c.04-.74.08-1.47.14-2.21l-.5-.04c.06-.75.14-1.49.22-2.22l.5.05c.08-.73.18-1.46.28-2.2l-.5-.07.37-2.2.5.09c.12-.73.27-1.46.42-2.18l-.49-.1.5-2.18.5.12c.17-.72.36-1.43.56-2.14l-.48-.14c.2-.71.42-1.43.65-2.13l.48.15c.22-.7.46-1.4.7-2.1l-.46-.17.78-2.1.47.2c.27-.7.55-1.38.85-2.06l-.46-.2c.3-.68.6-1.36.92-2.03l.45.21c.32-.67.64-1.33.98-1.99l-.44-.22c.34-.67.69-1.32 1.05-1.97l.44.24c.36-.65.73-1.29 1.1-1.92l-.42-.26c.38-.64.77-1.27 1.18-1.9l.42.28c.4-.62.8-1.24 1.23-1.85l-.41-.28c.42-.61.86-1.22 1.3-1.82l.4.3c.44-.6.9-1.18 1.35-1.76l-.39-.3c.46-.6.94-1.17 1.42-1.74l.38.33c.48-.57.96-1.12 1.46-1.67l-.37-.33c.5-.56 1-1.1 1.52-1.64l.36.35 1.57-1.57-.35-.36c.54-.52 1.08-1.03 1.63-1.53l.34.37c.54-.5 1.1-.98 1.66-1.46l-.32-.38a76.1 76.1 0 011.72-1.42l.31.4c.58-.47 1.17-.92 1.76-1.36l-.3-.4c.6-.45 1.2-.88 1.82-1.3l.28.4c.6-.42 1.22-.83 1.84-1.23l-.27-.42c.63-.4 1.26-.8 1.9-1.18l.25.42a62.7 62.7 0 011.92-1.1l-.24-.44c.65-.37 1.3-.72 1.97-1.06l.23.44 1.99-.98-.22-.45c.67-.32 1.35-.63 2.03-.92l.2.45 2.05-.85-.18-.46c.69-.27 1.38-.54 2.09-.79l.17.47c.69-.25 1.39-.49 2.1-.71l-.16-.48c.7-.23 1.42-.44 2.14-.65l.13.48c.72-.2 1.43-.39 2.15-.57l-.12-.48a52.6 52.6 0 012.17-.51l.1.49c.73-.16 1.45-.3 2.18-.43l-.09-.5c.73-.13 1.47-.25 2.2-.36l.08.5c.73-.11 1.46-.2 2.2-.29l-.06-.5a67.9 67.9 0 012.22-.21l.04.5 2.22-.15-.02-.5c.74-.03 1.48-.06 2.22-.07l.01.5a68.64 68.64 0 012.23 0v-.5c.75.01 1.5.04 2.24.07l-.03.5 2.22.15.04-.5 2.22.21-.06.5c.74.08 1.47.18 2.2.29l.07-.5c.74.11 1.48.23 2.21.37l-.09.49c.73.13 1.46.27 2.18.43l.1-.5 2.18.52-.13.48c.72.18 1.44.37 2.15.57l.13-.48c.72.2 1.43.42 2.14.65l-.15.48c.7.22 1.4.46 2.1.71l.17-.47c.7.25 1.4.52 2.09.79l-.19.46 2.05.85.2-.45c.68.3 1.36.6 2.03.92l-.21.45c.67.32 1.33.65 1.98.98l.24-.44c.66.34 1.31.7 1.96 1.06l-.24.43 1.92 1.11.26-.42c.63.38 1.26.78 1.89 1.18l-.27.42c.62.4 1.23.81 1.84 1.23l.29-.4c.6.42 1.21.85 1.8 1.3l-.29.4c.6.44 1.18.9 1.76 1.35l.3-.39c.6.46 1.17.94 1.73 1.42l-.32.38 1.67 1.46.33-.37c.55.5 1.1 1.01 1.63 1.53l-.35.36c.53.52 1.06 1.04 1.57 1.57l.36-.35a77.2 77.2 0 011.52 1.63l-.37.34c.5.55.99 1.1 1.46 1.67l.39-.33c.48.57.95 1.15 1.41 1.73l-.39.31c.46.58.91 1.17 1.35 1.76l.4-.3c.45.6.88 1.2 1.3 1.82l-.4.28 1.23 1.85.42-.27c.4.62.8 1.25 1.18 1.9l-.43.25c.38.63.75 1.27 1.1 1.92l.44-.24c.36.65.72 1.3 1.06 1.97l-.45.23c.34.65.67 1.31.98 1.98l.45-.21c.32.67.63 1.35.93 2.04l-.46.2c.29.67.57 1.35.84 2.04l.47-.18a68 68 0 01.79 2.09l-.47.17c.24.7.48 1.4.7 2.1l.48-.16c.23.71.44 1.43.65 2.14l-.48.14c.2.7.4 1.42.57 2.14l.49-.12c.18.72.34 1.45.5 2.18l-.49.1c.16.72.3 1.45.43 2.18l.5-.1c.13.74.25 1.47.35 2.21l-.5.08c.12.73.21 1.46.3 2.2l.5-.06c.08.73.15 1.47.2 2.22l-.49.04c.06.74.1 1.47.14 2.21l.5-.02c.04.74.06 1.48.07 2.23h-.5a68.64 68.64 0 010 2.23l.5.01c0 .75-.03 1.5-.07 2.23l-.5-.02c-.03.74-.08 1.48-.14 2.21l.5.05a67.9 67.9 0 01-.22 2.22l-.5-.06a66.3 66.3 0 01-.28 2.2l.5.07-.37 2.2-.49-.08a52 52 0 01-.43 2.17l.49.1c-.16.74-.32 1.46-.5 2.18l-.49-.12a66.8 66.8 0 01-.57 2.14l.48.14c-.2.72-.42 1.43-.65 2.14l-.47-.15-.71 2.1.47.16c-.25.7-.52 1.4-.79 2.1l-.47-.19c-.27.69-.55 1.37-.84 2.05l.46.2c-.3.68-.6 1.36-.93 2.03l-.45-.21c-.31.67-.64 1.33-.98 1.99l.44.23c-.33.66-.69 1.32-1.05 1.97l-.44-.25c-.35.65-.72 1.29-1.1 1.92l.43.26a66.8 66.8 0 01-1.19 1.9l-.42-.27c-.4.62-.8 1.23-1.23 1.84l.41.28a68.8 68.8 0 01-1.3 1.82l-.4-.3c-.44.6-.89 1.18-1.35 1.76l.4.31c-.47.59-.94 1.16-1.42 1.73l-.39-.32a66.2 66.2 0 01-1.46 1.66l.37.34c-.5.55-1 1.1-1.52 1.63l-.36-.35a58.1 58.1 0 01-1.57 1.57l.35.36c-.53.52-1.08 1.03-1.63 1.53l-.33-.37c-.55.5-1.1.99-1.67 1.46l.32.38a67 67 0 01-1.72 1.42l-.31-.39-1.76 1.36.3.4c-.6.44-1.2.88-1.81 1.3l-.29-.41c-.6.42-1.22.83-1.84 1.23l.27.42-1.9 1.19-.25-.43c-.64.38-1.27.75-1.92 1.11l.24.44c-.65.36-1.3.71-1.97 1.05l-.23-.44c-.65.34-1.31.67-1.98.98l.21.45c-.67.32-1.35.63-2.03.93l-.2-.46c-.68.3-1.36.58-2.05.85l.19.47-2.1.78-.16-.47-2.1.72.15.47c-.7.23-1.42.45-2.13.65l-.14-.48c-.71.2-1.43.4-2.15.57l.13.49a66 66 0 01-2.18.5l-.1-.48c-.72.15-1.45.3-2.18.43l.1.49-2.22.36-.07-.5c-.73.11-1.46.2-2.2.3l.06.49c-.74.08-1.48.16-2.22.22l-.04-.5c-.74.06-1.48.1-2.22.14l.03.5z" opacity=".3"/><path fill="#00E0FF" fill-rule="evenodd" d="M288.46 327.02a27.08 27.08 0 0038.08 4.33l2.3 2.88a30.83 30.83 0 004.9-43.3 30.75 30.75 0 00-43.24-4.91l2.29 2.87a27.15 27.15 0 00-4.33 38.13zm-4.56 3.64a33 33 0 015.25-46.33 32.9 32.9 0 0146.28 5.26 33 33 0 01-5.25 46.33 32.91 32.91 0 01-46.28-5.26z" clip-rule="evenodd"/><path fill="url(#ei)" fill-rule="evenodd" d="M310.95 269.53a40.59 40.59 0 00-41.83 39.31l-5.5-.17a46.1 46.1 0 0044.6 47.54 46.09 46.09 0 0047.5-44.64l-5.5-.17a40.6 40.6 0 00-39.27-41.87zm.27-8.74a49.33 49.33 0 0147.73 50.88 49.32 49.32 0 01-50.83 47.78 49.33 49.33 0 01-47.72-50.88 49.32 49.32 0 0150.82-47.78z" clip-rule="evenodd"/><path fill="url(#ej)" fill-rule="evenodd" d="M256.31 302.24a53.99 53.99 0 0045.48 61.3l-1.06 7.23a61.25 61.25 0 0069.53-51.7 61.3 61.3 0 00-51.65-69.6l-1.06 7.23a53.95 53.95 0 00-61.24 45.54zm-11.48-1.7a65.55 65.55 0 0174.4-55.33 65.6 65.6 0 0155.28 74.5 65.55 65.55 0 01-74.41 55.32 65.6 65.6 0 01-55.27-74.49z" clip-rule="evenodd"/><path fill="#F0F0F0" fill-rule="evenodd" d="M293.68 307.86c-.28 0-.5.03-.68.07a.89.89 0 00-.42.23c-.1.1-.18.24-.23.42-.04.18-.07.4-.07.68v1.48c0 .27.03.5.07.68.05.19.12.33.23.44.1.1.24.18.42.22.18.05.4.07.68.07h3.45c.18 0 .32-.05.4-.14.08-.1.13-.26.13-.49v-.83c0-.09-.05-.13-.13-.13h-3.07c-.15 0-.23-.08-.23-.24v-.77c0-.16.08-.24.23-.24h4.37c.2 0 .31.1.31.31v2.4c0 .57-.11.98-.33 1.21-.23.24-.55.36-.97.36h-4.23c-.53 0-.98-.05-1.35-.15a1.83 1.83 0 01-1.41-1.31 4.13 4.13 0 01-.17-1.26v-1.76c0-.5.06-.91.17-1.26.1-.34.27-.62.5-.83.24-.22.54-.38.91-.48.37-.1.82-.15 1.35-.15h3.52c.16 0 .23.08.23.23v1c0 .16-.07.24-.23.24h-3.45zm32.79 3.53c-.14 0-.22-.08-.22-.22v-.93c0-.14.08-.2.22-.2h1.83c.35 0 .6-.08.75-.24.15-.15.22-.38.22-.68v-.4c0-.3-.07-.53-.22-.68-.15-.15-.4-.23-.75-.23h-3.88c-.09 0-.13.04-.13.13v5.42c0 .15-.08.23-.23.23h-1.13c-.16 0-.24-.08-.24-.23v-6.66c0-.2.1-.3.31-.3h5.62c.8 0 1.38.17 1.73.53.35.36.52.88.52 1.58v.76c0 .7-.17 1.23-.52 1.58-.35.36-.93.54-1.73.54h-2.15zm-23.94-5c.16 0 .29.01.4.04a.74.74 0 01.52.35c.07.1.13.23.2.4l2.18 4.93c.03.06.08.09.15.09h.12c.07 0 .12-.03.15-.1l2.18-4.93c.07-.16.14-.3.2-.39.07-.1.14-.18.23-.24.08-.05.18-.1.28-.11.11-.03.24-.04.4-.04h1.12c.36 0 .6.09.73.25s.19.43.19.82v5.9c0 .15-.08.23-.24.23h-1.07c-.15 0-.23-.08-.23-.23V308c0-.07-.03-.1-.08-.1h-.1c-.07 0-.11.02-.13.08l-2.12 4.6c-.08.18-.17.34-.25.47-.1.12-.19.23-.29.31a.9.9 0 01-.34.17c-.13.04-.28.06-.46.06h-.5c-.18 0-.33-.02-.46-.06a.9.9 0 01-.34-.17 1.5 1.5 0 01-.29-.31 2.96 2.96 0 01-.25-.47l-2.12-4.6c-.02-.06-.06-.09-.13-.09h-.1c-.05 0-.08.04-.08.1v5.37c0 .15-.08.23-.23.23h-1.07c-.16 0-.24-.08-.24-.23v-5.9c0-.39.06-.66.19-.82.13-.16.37-.25.74-.25h1.14zm15.64 0c.57 0 1.06.06 1.46.17.4.12.74.3 1 .53.25.23.44.54.56.9.13.37.19.8.19 1.3v1.4c0 .5-.06.93-.19 1.3a2.1 2.1 0 01-1.56 1.43c-.4.1-.89.17-1.46.17h-4.9c-.2 0-.3-.1-.3-.31v-6.58c0-.2.1-.3.3-.3h4.9zm-3.6 5.63c0 .1.04.14.13.14h3.43c.31 0 .57-.03.78-.08.2-.06.38-.15.5-.27.13-.13.23-.29.28-.5.06-.2.09-.45.09-.75v-1.13c0-.3-.03-.56-.09-.76a1.05 1.05 0 00-.27-.5c-.13-.12-.3-.21-.51-.27a3.1 3.1 0 00-.78-.08h-3.43c-.1 0-.14.05-.14.15v4.05z" clip-rule="evenodd"/><path fill="#69D4CE" fill-rule="evenodd" d="M298.92 306.4c.15 0 .23.07.23.22v1c0 .16-.08.24-.23.24h-1.04c-.15 0-.23-.08-.23-.23v-1.01c0-.15.08-.23.23-.23h1.04zm26.83 3.63c.14 0 .21.07.21.21v.93c0 .14-.07.22-.21.22h-.96c-.14 0-.2-.08-.2-.22v-.93c0-.14.06-.2.2-.2h.96z" clip-rule="evenodd"/><defs><radialGradient id="ea" cx="0" cy="0" r="1" gradientTransform="matrix(-291.49973 99.0019 -99.1971 -292.07449 310 310)" gradientUnits="userSpaceOnUse"><stop offset=".56" stop-color="#252F37"/><stop offset="1" stop-color="#00E0FF"/><stop offset="1" stop-color="#252F37"/></radialGradient><radialGradient id="eb" cx="0" cy="0" r="1" gradientTransform="rotate(90 0 310) scale(265)" gradientUnits="userSpaceOnUse"><stop offset=".1" stop-color="#252F37"/><stop offset="1" stop-color="#252F37" stop-opacity="0"/></radialGradient><radialGradient id="ec" cx="0" cy="0" r="1" gradientTransform="matrix(-117.64266 -244.2579 244.09303 -117.56325 307.74 309.5)" gradientUnits="userSpaceOnUse"><stop offset=".18" stop-color="#05D3B4"/><stop offset=".25" stop-color="#E3E3E3"/><stop offset=".63" stop-color="#E3E3E3"/><stop offset=".72" stop-color="#01EEDC"/><stop offset="1" stop-color="#00E0FF"/><stop offset="1" stop-color="#00E0FF"/></radialGradient><radialGradient id="ee" cx="0" cy="0" r="1" gradientTransform="scale(34.8969 34.9345) rotate(-90 8.88 0)" gradientUnits="userSpaceOnUse"><stop stop-color="#2E9FBF"/><stop offset="1" stop-color="#2E9FBF" stop-opacity="0"/></radialGradient><radialGradient id="ef" cx="0" cy="0" r="1" gradientTransform="matrix(44.1633 4.24346 -4.24795 44.21009 309.75 310.03)" gradientUnits="userSpaceOnUse"><stop stop-color="#2E9FBF"/><stop offset=".53" stop-color="#2E9FBF" stop-opacity="0"/><stop offset="1" stop-color="#2E9FBF" stop-opacity="0"/></radialGradient><radialGradient id="eg" cx="0" cy="0" r="1" gradientTransform="rotate(-176.64 159.43 150.47) scale(52.1394 52.1952)" gradientUnits="userSpaceOnUse"><stop stop-color="#005F87"/><stop offset="1" stop-color="#005F87" stop-opacity="0"/></radialGradient><radialGradient id="eh" cx="0" cy="0" r="1" gradientTransform="matrix(-68.2164 0 0 -68.2901 309.76 310.03)" gradientUnits="userSpaceOnUse"><stop stop-color="#68D3CD"/><stop offset="1" stop-color="#2E9FBF" stop-opacity="0"/></radialGradient><radialGradient id="ei" cx="0" cy="0" r="1" gradientTransform="matrix(-49.39712 -3.35024 3.3538 -49.4498 309.66 310.13)" gradientUnits="userSpaceOnUse"><stop stop-color="#00FFD1"/><stop offset=".98" stop-color="#005F87" stop-opacity="0"/><stop offset="1" stop-color="#005F87" stop-opacity="0"/></radialGradient><radialGradient id="ej" cx="0" cy="0" r="1" gradientTransform="matrix(-2.439 15.14253 -42.46489 -6.83979 302.49 360.16)" gradientUnits="userSpaceOnUse"><stop stop-color="#00FFF1"/><stop offset=".89" stop-color="#2E9FBF" stop-opacity="0"/><stop offset="1" stop-color="#2E9FBF" stop-opacity="0"/></radialGradient><clipPath id="ed"><path fill="#fff" d="M0 0h9.25v9H0z" transform="translate(490.1 114.18)"/></clipPath></defs></svg><svg fill="none" viewBox="0 0 81 81" id="equalizer" xmlns="http://www.w3.org/2000/svg"><path fill="url(#fa)" d="M0 11.25h7.734v19.5H0v-19.5z"/><path fill="url(#fb)" d="M58.266 50.25H66v19.5h-7.734v-19.5z"/><path fill="url(#fc)" d="M29.133 30.75h7.734v19.5h-7.734v-19.5z"/><path fill="url(#fd)" d="M5.8 46.35h19.466v-11.7H5.8c-3.198 0-5.8 2.624-5.8 5.85 0 3.226 2.602 5.85 5.8 5.85z"/><path fill="url(#fe)" d="M60.2 34.65H40.733v11.7H60.2c3.199 0 5.801-2.624 5.801-5.85 0-3.226-2.602-5.85-5.8-5.85z"/><path fill="url(#ff)" d="M60.2 15.15H11.601v11.7h48.597c3.2 0 5.802-2.624 5.802-5.85 0-3.226-2.602-5.85-5.8-5.85z"/><path fill="url(#fg)" d="M5.8 65.85h48.598v-11.7H5.801C2.602 54.15 0 56.774 0 60c0 3.226 2.602 5.85 5.8 5.85z"/><defs><linearGradient id="fa" x1="33" x2="33" y1="11.25" y2="69.75" gradientUnits="userSpaceOnUse"><stop stop-color="#00FBEE"/><stop offset="1" stop-color="#00FBEE" stop-opacity=".2"/></linearGradient><linearGradient id="fb" x1="33" x2="33" y1="11.25" y2="69.75" gradientUnits="userSpaceOnUse"><stop stop-color="#00FBEE"/><stop offset="1" stop-color="#00FBEE" stop-opacity=".2"/></linearGradient><linearGradient id="fc" x1="33" x2="33" y1="11.25" y2="69.75" gradientUnits="userSpaceOnUse"><stop stop-color="#00FBEE"/><stop offset="1" stop-color="#00FBEE" stop-opacity=".2"/></linearGradient><linearGradient id="fd" x1="33" x2="33" y1="11.25" y2="69.75" gradientUnits="userSpaceOnUse"><stop stop-color="#00FBEE"/><stop offset="1" stop-color="#00FBEE" stop-opacity=".2"/></linearGradient><linearGradient id="fe" x1="33" x2="33" y1="11.25" y2="69.75" gradientUnits="userSpaceOnUse"><stop stop-color="#00FBEE"/><stop offset="1" stop-color="#00FBEE" stop-opacity=".2"/></linearGradient><linearGradient id="ff" x1="33" x2="33" y1="11.25" y2="69.75" gradientUnits="userSpaceOnUse"><stop stop-color="#00FBEE"/><stop offset="1" stop-color="#00FBEE" stop-opacity=".2"/></linearGradient><linearGradient id="fg" x1="33" x2="33" y1="11.25" y2="69.75" gradientUnits="userSpaceOnUse"><stop stop-color="#00FBEE"/><stop offset="1" stop-color="#00FBEE" stop-opacity=".2"/></linearGradient></defs></svg><svg fill="none" viewBox="0 0 20 15" id="eye" xmlns="http://www.w3.org/2000/svg"><path fill="currentColor" d="M10 3C5.64 3 2.374 5.856 1.172 7.083a.592.592 0 000 .834C2.374 9.144 5.64 12 10 12c4.36 0 7.627-2.856 8.828-4.083a.592.592 0 000-.834C17.626 5.856 14.36 3 10 3zM5.979 5.138a4.712 4.712 0 00-.67 2.427c0 .806.202 1.575.567 2.249-1.472-.698-2.632-1.63-3.365-2.314.75-.7 1.946-1.66 3.468-2.362zm2.411 5.5c-1.127-.595-1.825-1.766-1.825-3.073 0-1.492.918-2.804 2.286-3.275a8.787 8.787 0 012.013-.033c1.408.433 2.39 1.79 2.39 3.308 0 1.33-.747 2.545-1.91 3.118a8.835 8.835 0 01-1.344.104 8.883 8.883 0 01-1.61-.149zm5.48-.708a4.7 4.7 0 00.639-2.365c0-.913-.256-1.785-.742-2.54 1.643.708 2.93 1.737 3.722 2.475-.774.723-2.025 1.723-3.619 2.43z"/><path fill="currentColor" d="M11 7.5A1.5 1.5 0 019.5 6 1.5 1.5 0 1011 7.5z"/></svg><svg fill="none" viewBox="0 0 42 42" id="gas" xmlns="http://www.w3.org/2000/svg"><path fill="#000" d="M35.68 23.509a2.51 2.51 0 000-5.018h-.867V5.018h.866a2.51 2.51 0 000-5.018H6.324a2.51 2.51 0 000 5.018l5.318-.004c.776 0 1.405.64 1.405 1.415 0 .776-.629 1.405-1.405 1.405H7.19v10.657h-.865a2.51 2.51 0 000 5.018l5.318-.003c.776 0 1.405.64 1.405 1.416 0 .776-.629 1.405-1.405 1.405H7.19v10.655h-.865a2.509 2.509 0 100 5.018H35.68a2.51 2.51 0 000-5.018h-.866V23.509h.866zM21 27.783a5.168 5.168 0 01-5.168-5.168c0-2.854 5.168-8.398 5.168-8.398s5.168 5.544 5.168 8.398A5.168 5.168 0 0121 27.783z"/><path fill="url(#ha)" d="M35.68 23.509a2.51 2.51 0 000-5.018h-.867V5.018h.866a2.51 2.51 0 000-5.018H6.324a2.51 2.51 0 000 5.018l5.318-.004c.776 0 1.405.64 1.405 1.415 0 .776-.629 1.405-1.405 1.405H7.19v10.657h-.865a2.51 2.51 0 000 5.018l5.318-.003c.776 0 1.405.64 1.405 1.416 0 .776-.629 1.405-1.405 1.405H7.19v10.655h-.865a2.509 2.509 0 100 5.018H35.68a2.51 2.51 0 000-5.018h-.866V23.509h.866zM21 27.783a5.168 5.168 0 01-5.168-5.168c0-2.854 5.168-8.398 5.168-8.398s5.168 5.544 5.168 8.398A5.168 5.168 0 0121 27.783z"/><path fill="url(#hb)" d="M35.68 23.509a2.51 2.51 0 000-5.018h-.867V5.018h.866a2.51 2.51 0 000-5.018H6.324a2.51 2.51 0 000 5.018l5.318-.004c.776 0 1.405.64 1.405 1.415 0 .776-.629 1.405-1.405 1.405H7.19v10.657h-.865a2.51 2.51 0 000 5.018l5.318-.003c.776 0 1.405.64 1.405 1.416 0 .776-.629 1.405-1.405 1.405H7.19v10.655h-.865a2.509 2.509 0 100 5.018H35.68a2.51 2.51 0 000-5.018h-.866V23.509h.866zM21 27.783a5.168 5.168 0 01-5.168-5.168c0-2.854 5.168-8.398 5.168-8.398s5.168 5.544 5.168 8.398A5.168 5.168 0 0121 27.783z"/><defs><linearGradient id="ha" x1="8.586" x2="8.586" y1="-112" y2="87.5" gradientUnits="userSpaceOnUse"><stop stop-color="#fff"/><stop offset="1" stop-color="#252F37"/></linearGradient><linearGradient id="hb" x1="21.001" x2="21.001" y1="0" y2="42" gradientUnits="userSpaceOnUse"><stop stop-color="#fff"/><stop offset="1" stop-color="#fff" stop-opacity=".4"/></linearGradient></defs></svg><svg fill="none" viewBox="0 0 42 42" id="iot" xmlns="http://www.w3.org/2000/svg"><path fill="url(#ia)" d="M33.75 12.6c0-1.909-1.303-3.507-3.07-4.015l-2.784-7.23a2.104 2.104 0 00-.78-.983A2.143 2.143 0 0025.912 0H13.964c-.43 0-.851.13-1.206.372a2.104 2.104 0 00-.779.982l-2.783 7.23a4.243 4.243 0 00-2.213 1.502 4.16 4.16 0 00-.858 2.514v16.8c0 1.909 1.303 3.507 3.07 4.015l2.784 7.23c.153.398.425.741.78.983.354.242.774.372 1.205.372H25.91c.882 0 1.672-.54 1.987-1.355l2.783-7.23a4.243 4.243 0 002.213-1.501 4.16 4.16 0 00.858-2.514v-4.2h2.125v-8.4H33.75v-4.2zm-4.246 16.8H10.375V12.6H29.5l.004 16.8z"/><defs><linearGradient id="ia" x1="21" x2="21" y1="0" y2="42" gradientUnits="userSpaceOnUse"><stop stop-color="#fff"/><stop offset="1" stop-color="#fff" stop-opacity="0"/></linearGradient></defs></svg><svg fill="none" viewBox="0 0 42 43" id="medicine" xmlns="http://www.w3.org/2000/svg"><path fill="#000" d="M23.407 19.473h3.98v2.463h-3.98c-.684 0-1.237.555-1.237 1.238v3.98h-2.464v-3.98c0-.683-.553-1.238-1.237-1.238h-3.98v-2.463h3.98c.684 0 1.237-.553 1.237-1.237v-3.981h2.464v3.98c0 .684.553 1.238 1.237 1.238z"/><path fill="url(#ja)" d="M23.407 19.473h3.98v2.463h-3.98c-.684 0-1.237.555-1.237 1.238v3.98h-2.464v-3.98c0-.683-.553-1.238-1.237-1.238h-3.98v-2.463h3.98c.684 0 1.237-.553 1.237-1.237v-3.981h2.464v3.98c0 .684.553 1.238 1.237 1.238z"/><path fill="url(#jb)" d="M23.407 19.473h3.98v2.463h-3.98c-.684 0-1.237.555-1.237 1.238v3.98h-2.464v-3.98c0-.683-.553-1.238-1.237-1.238h-3.98v-2.463h3.98c.684 0 1.237-.553 1.237-1.237v-3.981h2.464v3.98c0 .684.553 1.238 1.237 1.238z"/><path fill="#000" d="M38.833 11.454l-.001-.04c-.02-1.053-.039-2.047-.039-3.004 0-1.45-1.18-2.628-2.628-2.628-5.609 0-9.865-1.6-13.396-5.033a2.616 2.616 0 00-3.665 0c-3.53 3.433-7.786 5.033-13.394 5.033A2.631 2.631 0 003.082 8.41c0 .977-.019 1.981-.04 3.045-.094 4.965-.212 11.144 1.861 16.753 1.14 3.084 2.867 5.764 5.131 7.966 2.58 2.508 5.958 4.497 10.042 5.913a2.618 2.618 0 001.722 0c4.083-1.416 7.462-3.405 10.042-5.913 2.264-2.202 3.99-4.883 5.131-7.966 2.074-5.61 1.957-11.789 1.862-16.754zm-8.972 11.72c0 .682-.553 1.237-1.237 1.237h-3.98v3.98c0 .684-.554 1.238-1.237 1.238h-4.938a1.238 1.238 0 01-1.237-1.237V24.41h-3.981a1.237 1.237 0 01-1.237-1.237v-4.938c0-.683.553-1.237 1.237-1.237h3.981v-3.981c0-.683.554-1.237 1.237-1.237h4.938c.683 0 1.237.554 1.237 1.237v3.98h3.98c.684 0 1.237.555 1.237 1.238v4.938z"/><path fill="url(#jc)" d="M38.833 11.454l-.001-.04c-.02-1.053-.039-2.047-.039-3.004 0-1.45-1.18-2.628-2.628-2.628-5.609 0-9.865-1.6-13.396-5.033a2.616 2.616 0 00-3.665 0c-3.53 3.433-7.786 5.033-13.394 5.033A2.631 2.631 0 003.082 8.41c0 .977-.019 1.981-.04 3.045-.094 4.965-.212 11.144 1.861 16.753 1.14 3.084 2.867 5.764 5.131 7.966 2.58 2.508 5.958 4.497 10.042 5.913a2.618 2.618 0 001.722 0c4.083-1.416 7.462-3.405 10.042-5.913 2.264-2.202 3.99-4.883 5.131-7.966 2.074-5.61 1.957-11.789 1.862-16.754zm-8.972 11.72c0 .682-.553 1.237-1.237 1.237h-3.98v3.98c0 .684-.554 1.238-1.237 1.238h-4.938a1.238 1.238 0 01-1.237-1.237V24.41h-3.981a1.237 1.237 0 01-1.237-1.237v-4.938c0-.683.553-1.237 1.237-1.237h3.981v-3.981c0-.683.554-1.237 1.237-1.237h4.938c.683 0 1.237.554 1.237 1.237v3.98h3.98c.684 0 1.237.555 1.237 1.238v4.938z"/><path fill="url(#jd)" d="M38.833 11.454l-.001-.04c-.02-1.053-.039-2.047-.039-3.004 0-1.45-1.18-2.628-2.628-2.628-5.609 0-9.865-1.6-13.396-5.033a2.616 2.616 0 00-3.665 0c-3.53 3.433-7.786 5.033-13.394 5.033A2.631 2.631 0 003.082 8.41c0 .977-.019 1.981-.04 3.045-.094 4.965-.212 11.144 1.861 16.753 1.14 3.084 2.867 5.764 5.131 7.966 2.58 2.508 5.958 4.497 10.042 5.913a2.618 2.618 0 001.722 0c4.083-1.416 7.462-3.405 10.042-5.913 2.264-2.202 3.99-4.883 5.131-7.966 2.074-5.61 1.957-11.789 1.862-16.754zm-8.972 11.72c0 .682-.553 1.237-1.237 1.237h-3.98v3.98c0 .684-.554 1.238-1.237 1.238h-4.938a1.238 1.238 0 01-1.237-1.237V24.41h-3.981a1.237 1.237 0 01-1.237-1.237v-4.938c0-.683.553-1.237 1.237-1.237h3.981v-3.981c0-.683.554-1.237 1.237-1.237h4.938c.683 0 1.237.554 1.237 1.237v3.98h3.98c.684 0 1.237.555 1.237 1.238v4.938z"/><defs><linearGradient id="ja" x1="16.279" x2="16.279" y1="-20.144" y2="41.129" gradientUnits="userSpaceOnUse"><stop stop-color="#fff"/><stop offset="1" stop-color="#252F37"/></linearGradient><linearGradient id="jb" x1="20.938" x2="20.938" y1="14.255" y2="27.155" gradientUnits="userSpaceOnUse"><stop stop-color="#fff"/><stop offset="1" stop-color="#fff" stop-opacity=".4"/></linearGradient><linearGradient id="jc" x1="7.98" x2="7.98" y1="-112.618" y2="87.983" gradientUnits="userSpaceOnUse"><stop stop-color="#fff"/><stop offset="1" stop-color="#252F37"/></linearGradient><linearGradient id="jd" x1="20.938" x2="20.938" y1="0" y2="42.232" gradientUnits="userSpaceOnUse"><stop stop-color="#fff"/><stop offset="1" stop-color="#fff" stop-opacity=".4"/></linearGradient></defs></svg><svg fill="none" viewBox="0 0 42 42" id="money" xmlns="http://www.w3.org/2000/svg"><path fill="url(#ka)" d="M19.37 11.03a26.1 26.1 0 009.04 1.45c3.39 0 6.6-.51 9.04-1.45C41.4 9.51 42 7.4 42 6.26c0-1.13-.6-3.25-4.55-4.77A26.1 26.1 0 0028.4.04c-3.4 0-6.6.51-9.04 1.45-3.96 1.52-4.56 3.64-4.56 4.77 0 1.13.6 3.25 4.56 4.77zm1.17-6.48a23.13 23.13 0 017.87-1.24c2.95 0 5.82.45 7.86 1.24 1.86.7 2.45 1.46 2.45 1.71s-.6 1-2.45 1.71a23.13 23.13 0 01-7.86 1.24c-2.96 0-5.82-.45-7.87-1.24-1.85-.7-2.45-1.46-2.45-1.7 0-.26.6-1.01 2.45-1.72zm21.24 32.9c.37.82 0 1.8-.82 2.16-3.42 1.52-7.88 2.35-12.61 2.35h-.53a1.64 1.64 0 11.04-3.28c4.4.06 8.7-.7 11.76-2.06.83-.37 1.8 0 2.16.83zm0-7.3c.37.84 0 1.8-.82 2.17a29.03 29.03 0 01-9.12 2.2 1.64 1.64 0 01-.15-3.28c3.03-.28 5.77-.94 7.93-1.9.83-.38 1.8 0 2.16.82zm0-7.36c.37.83 0 1.8-.82 2.16a28.62 28.62 0 01-8.62 2.14 1.64 1.64 0 01-.17-3.26c2.83-.31 5.4-.96 7.45-1.87.83-.37 1.8 0 2.16.83zm-.82-5.29c-3 1.34-6.94 2.16-11.1 2.32h-.06a1.64 1.64 0 01-.06-3.27c3.75-.14 7.26-.87 9.88-2.04a1.64 1.64 0 111.34 3zm-27.04-3.38A13.94 13.94 0 000 28.04c0 7.68 6.24 13.92 13.92 13.92s13.92-6.24 13.92-13.92c0-7.67-6.24-13.92-13.92-13.92zm0 24.57a10.66 10.66 0 010-21.3 10.66 10.66 0 010 21.3zm4.59-8.2a4.1 4.1 0 01-2.7 3.85v.25a1.64 1.64 0 11-3.28 0v-.21c-.67-.14-1.41-.34-2.16-.64a1.64 1.64 0 011.2-3.04 8.7 8.7 0 002.8.62c.47 0 .86-.38.86-.82 0-.44-.52-.82-1.15-.82-2.66 0-4.66-1.76-4.66-4.1a4.1 4.1 0 013.1-3.97v-.12a1.64 1.64 0 113.28 0v.3c.42.11.9.26 1.42.47a1.64 1.64 0 11-1.2 3.05 6.46 6.46 0 00-2.5-.54.82.82 0 00-.83.82c0 .46.6.82 1.4.82 1.15 0 2.23.4 3.06 1.13a3.98 3.98 0 011.36 2.96z"/><path fill="url(#kb)" d="M19.37 11.03a26.1 26.1 0 009.04 1.45c3.39 0 6.6-.51 9.04-1.45C41.4 9.51 42 7.4 42 6.26c0-1.13-.6-3.25-4.55-4.77A26.1 26.1 0 0028.4.04c-3.4 0-6.6.51-9.04 1.45-3.96 1.52-4.56 3.64-4.56 4.77 0 1.13.6 3.25 4.56 4.77zm1.17-6.48a23.13 23.13 0 017.87-1.24c2.95 0 5.82.45 7.86 1.24 1.86.7 2.45 1.46 2.45 1.71s-.6 1-2.45 1.71a23.13 23.13 0 01-7.86 1.24c-2.96 0-5.82-.45-7.87-1.24-1.85-.7-2.45-1.46-2.45-1.7 0-.26.6-1.01 2.45-1.72zm21.24 32.9c.37.82 0 1.8-.82 2.16-3.42 1.52-7.88 2.35-12.61 2.35h-.53a1.64 1.64 0 11.04-3.28c4.4.06 8.7-.7 11.76-2.06.83-.37 1.8 0 2.16.83zm0-7.3c.37.84 0 1.8-.82 2.17a29.03 29.03 0 01-9.12 2.2 1.64 1.64 0 01-.15-3.28c3.03-.28 5.77-.94 7.93-1.9.83-.38 1.8 0 2.16.82zm0-7.36c.37.83 0 1.8-.82 2.16a28.62 28.62 0 01-8.62 2.14 1.64 1.64 0 01-.17-3.26c2.83-.31 5.4-.96 7.45-1.87.83-.37 1.8 0 2.16.83zm-.82-5.29c-3 1.34-6.94 2.16-11.1 2.32h-.06a1.64 1.64 0 01-.06-3.27c3.75-.14 7.26-.87 9.88-2.04a1.64 1.64 0 111.34 3zm-27.04-3.38A13.94 13.94 0 000 28.04c0 7.68 6.24 13.92 13.92 13.92s13.92-6.24 13.92-13.92c0-7.67-6.24-13.92-13.92-13.92zm0 24.57a10.66 10.66 0 010-21.3 10.66 10.66 0 010 21.3zm4.59-8.2a4.1 4.1 0 01-2.7 3.85v.25a1.64 1.64 0 11-3.28 0v-.21c-.67-.14-1.41-.34-2.16-.64a1.64 1.64 0 011.2-3.04 8.7 8.7 0 002.8.62c.47 0 .86-.38.86-.82 0-.44-.52-.82-1.15-.82-2.66 0-4.66-1.76-4.66-4.1a4.1 4.1 0 013.1-3.97v-.12a1.64 1.64 0 113.28 0v.3c.42.11.9.26 1.42.47a1.64 1.64 0 11-1.2 3.05 6.46 6.46 0 00-2.5-.54.82.82 0 00-.83.82c0 .46.6.82 1.4.82 1.15 0 2.23.4 3.06 1.13a3.98 3.98 0 011.36 2.96z"/><path fill="url(#kc)" d="M19.37 11.03a26.1 26.1 0 009.04 1.45c3.39 0 6.6-.51 9.04-1.45C41.4 9.51 42 7.4 42 6.26c0-1.13-.6-3.25-4.55-4.77A26.1 26.1 0 0028.4.04c-3.4 0-6.6.51-9.04 1.45-3.96 1.52-4.56 3.64-4.56 4.77 0 1.13.6 3.25 4.56 4.77zm1.17-6.48a23.13 23.13 0 017.87-1.24c2.95 0 5.82.45 7.86 1.24 1.86.7 2.45 1.46 2.45 1.71s-.6 1-2.45 1.71a23.13 23.13 0 01-7.86 1.24c-2.96 0-5.82-.45-7.87-1.24-1.85-.7-2.45-1.46-2.45-1.7 0-.26.6-1.01 2.45-1.72zm21.24 32.9c.37.82 0 1.8-.82 2.16-3.42 1.52-7.88 2.35-12.61 2.35h-.53a1.64 1.64 0 11.04-3.28c4.4.06 8.7-.7 11.76-2.06.83-.37 1.8 0 2.16.83zm0-7.3c.37.84 0 1.8-.82 2.17a29.03 29.03 0 01-9.12 2.2 1.64 1.64 0 01-.15-3.28c3.03-.28 5.77-.94 7.93-1.9.83-.38 1.8 0 2.16.82zm0-7.36c.37.83 0 1.8-.82 2.16a28.62 28.62 0 01-8.62 2.14 1.64 1.64 0 01-.17-3.26c2.83-.31 5.4-.96 7.45-1.87.83-.37 1.8 0 2.16.83zm-.82-5.29c-3 1.34-6.94 2.16-11.1 2.32h-.06a1.64 1.64 0 01-.06-3.27c3.75-.14 7.26-.87 9.88-2.04a1.64 1.64 0 111.34 3zm-27.04-3.38A13.94 13.94 0 000 28.04c0 7.68 6.24 13.92 13.92 13.92s13.92-6.24 13.92-13.92c0-7.67-6.24-13.92-13.92-13.92zm0 24.57a10.66 10.66 0 010-21.3 10.66 10.66 0 010 21.3zm4.59-8.2a4.1 4.1 0 01-2.7 3.85v.25a1.64 1.64 0 11-3.28 0v-.21c-.67-.14-1.41-.34-2.16-.64a1.64 1.64 0 011.2-3.04 8.7 8.7 0 002.8.62c.47 0 .86-.38.86-.82 0-.44-.52-.82-1.15-.82-2.66 0-4.66-1.76-4.66-4.1a4.1 4.1 0 013.1-3.97v-.12a1.64 1.64 0 113.28 0v.3c.42.11.9.26 1.42.47a1.64 1.64 0 11-1.2 3.05 6.46 6.46 0 00-2.5-.54.82.82 0 00-.83.82c0 .46.6.82 1.4.82 1.15 0 2.23.4 3.06 1.13a3.98 3.98 0 011.36 2.96z"/><defs><linearGradient id="ka" x1="5.83" x2="5.83" y1="-111.76" y2="87.38" gradientUnits="userSpaceOnUse"><stop stop-color="#6BCAE7"/><stop offset="1" stop-color="#004356"/></linearGradient><linearGradient id="kb" x1="21" x2="21" y1=".04" y2="41.96" gradientUnits="userSpaceOnUse"><stop stop-color="#69D4CE"/><stop offset="1" stop-color="#69D4CE" stop-opacity=".4"/></linearGradient><linearGradient id="kc" x1="21" x2="21" y1=".04" y2="41.96" gradientUnits="userSpaceOnUse"><stop stop-color="#00E0FF"/><stop offset="1" stop-color="#00E0FF" stop-opacity=".4"/></linearGradient></defs></svg><svg fill="none" viewBox="0 0 42 42" id="pie-chart" xmlns="http://www.w3.org/2000/svg"><g clip-path="url(#la)"><path fill="url(#lb)" d="M36.96 17.72h-7.64a5.04 5.04 0 01-5.04-5.04V5.04a5.01 5.01 0 016.54-4.8 16.65 16.65 0 0110.95 10.94 5.01 5.01 0 01-4.81 6.54zM29.32 3.28a1.76 1.76 0 00-1.76 1.76v7.64c0 .97.79 1.76 1.76 1.76h7.64a1.76 1.76 0 001.67-2.3 13.36 13.36 0 00-8.78-8.77 1.8 1.8 0 00-.53-.09zM19.36 42a19.24 19.24 0 01-13.7-5.66 19.4 19.4 0 019.32-32.56A4.9 4.9 0 0121 8.58v10.78c0 .9.73 1.64 1.64 1.64h10.78a4.9 4.9 0 014.8 6.02A19.41 19.41 0 0119.36 42zM16.09 6.94c-.13 0-.25.01-.37.04A16 16 0 003.28 22.64c0 4.31 1.67 8.35 4.7 11.38a15.98 15.98 0 0011.38 4.7 16 16 0 0015.66-12.44 1.64 1.64 0 00-1.6-2H22.64a4.93 4.93 0 01-4.92-4.92V8.58a1.64 1.64 0 00-1.63-1.64z"/></g><defs><linearGradient id="lb" x1="21" x2="21" y1="0" y2="42" gradientUnits="userSpaceOnUse"><stop stop-color="#00E0FF"/><stop offset="1" stop-color="#00E0FF" stop-opacity=".4"/></linearGradient><clipPath id="la"><path fill="#fff" d="M0 0h42v42H0z"/></clipPath></defs></svg><svg fill="none" viewBox="0 0 81 81" id="shield" xmlns="http://www.w3.org/2000/svg"><g clip-path="url(#ma)"><path fill="url(#mb)" d="M14.488 26.28c.32 3.83 1.056 9.078 2.72 14.587 3.533 11.7 9.776 20.02 18.563 24.747 8.787-4.727 15.03-13.047 18.563-24.747 1.664-5.509 2.4-10.756 2.72-14.587L35.77 15.639 14.488 26.28z"/><path fill="url(#mc)" d="M71.501 18.93a2.373 2.373 0 00-1.308-1.999L36.832.251a2.373 2.373 0 00-2.123 0L1.348 16.93a2.373 2.373 0 00-1.308 2c-.026.485-.574 12.05 3.365 25.475 2.331 7.944 5.76 14.883 10.19 20.623 5.584 7.233 12.761 12.554 21.331 15.816a2.377 2.377 0 001.688 0c8.57-3.261 15.747-8.583 21.331-15.816 4.431-5.74 7.86-12.679 10.19-20.623 3.94-13.426 3.391-24.99 3.366-25.476zM36.822 70.412a2.372 2.372 0 01-2.103 0c-10.567-5.225-17.987-14.703-22.055-28.173-2.035-6.736-2.77-13.084-3.027-17.223a2.373 2.373 0 011.307-2.27L34.71 10.863a2.374 2.374 0 012.123 0l23.765 11.883a2.373 2.373 0 011.307 2.27c-.258 4.14-.992 10.487-3.027 17.224C54.81 55.707 47.39 65.186 36.822 70.412z"/></g><defs><linearGradient id="mb" x1="35.771" x2="35.771" y1="15.639" y2="65.614" gradientUnits="userSpaceOnUse"><stop stop-color="#00FBEE"/><stop offset="1" stop-color="#00FBEE" stop-opacity=".2"/></linearGradient><linearGradient id="mc" x1="35.77" x2="35.77" y1="0" y2="81" gradientUnits="userSpaceOnUse"><stop stop-color="#00FBEE"/><stop offset="1" stop-color="#00FBEE" stop-opacity=".2"/></linearGradient><clipPath id="ma"><path fill="#fff" d="M0 0h81v81H0z"/></clipPath></defs></svg><svg fill="none" viewBox="0 0 43 43" id="ship" xmlns="http://www.w3.org/2000/svg"><path fill="#252F37" fill-rule="evenodd" d="M14.938.875H3.562c-.724 0-1.312.588-1.312 1.313v7.437h14V2.187c0-.724-.588-1.312-1.313-1.312zM8.375 6.563a1.313 1.313 0 01-2.625 0V3.938a1.313 1.313 0 012.625 0v2.624zm4.375 0a1.313 1.313 0 01-2.625 0V3.938a1.313 1.313 0 012.625 0v2.624zM2.25 20.124v-8.75h14v8.75h-14zm4.813-1.75c.724 0 1.312-.588 1.312-1.313v-2.625a1.313 1.313 0 00-2.625 0v2.626c0 .724.588 1.312 1.313 1.312zm4.375 0c.724 0 1.312-.588 1.312-1.313v-2.625a1.313 1.313 0 00-2.625 0v2.626c0 .724.588 1.312 1.313 1.312zM39 22.313v4.812h-2.625v-4.813c0-.717.595-1.312 1.313-1.312.717 0 1.312.595 1.312 1.313zM35.937 42H5.312a1.31 1.31 0 01-1.092-.584l-3.5-5.25a1.312 1.312 0 011.092-2.041h22.75a3.941 3.941 0 003.938-3.938c0-.724.588-1.312 1.312-1.312h11.375c.455 0 .877.236 1.117.621.238.387.26.872.058 1.278l-5.25 10.5a1.314 1.314 0 01-1.175.726zM2.25 32.375v-10.5h14v10.5h-14zm4.813-1.75c.724 0 1.312-.588 1.312-1.313v-4.375a1.313 1.313 0 00-2.625 0v4.375c0 .725.588 1.313 1.313 1.313zm4.375 0c.724 0 1.312-.588 1.312-1.313v-4.375a1.313 1.313 0 00-2.625 0v4.375c0 .725.588 1.313 1.313 1.313zM18 21.875v10.5h6.563a2.184 2.184 0 002.152-1.855 1.293 1.293 0 01-.84-1.207v-4.375c0-.718.595-1.313 1.313-1.313.717 0 1.312.595 1.312 1.313v2.502c.402-.21.84-.315 1.313-.315H32v-5.25H18zm6.125 7.438c0 .717-.595 1.312-1.313 1.312a1.322 1.322 0 01-1.312-1.313v-4.375c0-.717.595-1.312 1.313-1.312.717 0 1.312.595 1.312 1.313v4.375zM18 11.375h12.688c.724 0 1.312.588 1.312 1.313v7.437H18v-8.75zm4.813 7c.724 0 1.312-.588 1.312-1.313v-2.625a1.313 1.313 0 00-2.625 0v2.626c0 .724.588 1.312 1.313 1.312zm4.375 0c.724 0 1.312-.588 1.312-1.313v-2.625a1.313 1.313 0 00-2.625 0v2.626c0 .724.588 1.312 1.313 1.312z" clip-rule="evenodd"/><path fill="url(#na)" fill-rule="evenodd" d="M14.938.875H3.562c-.724 0-1.312.588-1.312 1.313v7.437h14V2.187c0-.724-.588-1.312-1.313-1.312zM8.375 6.563a1.313 1.313 0 01-2.625 0V3.938a1.313 1.313 0 012.625 0v2.624zm4.375 0a1.313 1.313 0 01-2.625 0V3.938a1.313 1.313 0 012.625 0v2.624zM2.25 20.124v-8.75h14v8.75h-14zm4.813-1.75c.724 0 1.312-.588 1.312-1.313v-2.625a1.313 1.313 0 00-2.625 0v2.626c0 .724.588 1.312 1.313 1.312zm4.375 0c.724 0 1.312-.588 1.312-1.313v-2.625a1.313 1.313 0 00-2.625 0v2.626c0 .724.588 1.312 1.313 1.312zM39 22.313v4.812h-2.625v-4.813c0-.717.595-1.312 1.313-1.312.717 0 1.312.595 1.312 1.313zM35.937 42H5.312a1.31 1.31 0 01-1.092-.584l-3.5-5.25a1.312 1.312 0 011.092-2.041h22.75a3.941 3.941 0 003.938-3.938c0-.724.588-1.312 1.312-1.312h11.375c.455 0 .877.236 1.117.621.238.387.26.872.058 1.278l-5.25 10.5a1.314 1.314 0 01-1.175.726zM2.25 32.375v-10.5h14v10.5h-14zm4.813-1.75c.724 0 1.312-.588 1.312-1.313v-4.375a1.313 1.313 0 00-2.625 0v4.375c0 .725.588 1.313 1.313 1.313zm4.375 0c.724 0 1.312-.588 1.312-1.313v-4.375a1.313 1.313 0 00-2.625 0v4.375c0 .725.588 1.313 1.313 1.313zM18 21.875v10.5h6.563a2.184 2.184 0 002.152-1.855 1.293 1.293 0 01-.84-1.207v-4.375c0-.718.595-1.313 1.313-1.313.717 0 1.312.595 1.312 1.313v2.502c.402-.21.84-.315 1.313-.315H32v-5.25H18zm6.125 7.438c0 .717-.595 1.312-1.313 1.312a1.322 1.322 0 01-1.312-1.313v-4.375c0-.717.595-1.312 1.313-1.312.717 0 1.312.595 1.312 1.313v4.375zM18 11.375h12.688c.724 0 1.312.588 1.312 1.313v7.437H18v-8.75zm4.813 7c.724 0 1.312-.588 1.312-1.313v-2.625a1.313 1.313 0 00-2.625 0v2.626c0 .724.588 1.312 1.313 1.312zm4.375 0c.724 0 1.312-.588 1.312-1.313v-2.625a1.313 1.313 0 00-2.625 0v2.626c0 .724.588 1.312 1.313 1.312z" clip-rule="evenodd"/><path fill="url(#nb)" fill-rule="evenodd" d="M14.938.875H3.562c-.724 0-1.312.588-1.312 1.313v7.437h14V2.187c0-.724-.588-1.312-1.313-1.312zM8.375 6.563a1.313 1.313 0 01-2.625 0V3.938a1.313 1.313 0 012.625 0v2.624zm4.375 0a1.313 1.313 0 01-2.625 0V3.938a1.313 1.313 0 012.625 0v2.624zM2.25 20.124v-8.75h14v8.75h-14zm4.813-1.75c.724 0 1.312-.588 1.312-1.313v-2.625a1.313 1.313 0 00-2.625 0v2.626c0 .724.588 1.312 1.313 1.312zm4.375 0c.724 0 1.312-.588 1.312-1.313v-2.625a1.313 1.313 0 00-2.625 0v2.626c0 .724.588 1.312 1.313 1.312zM39 22.313v4.812h-2.625v-4.813c0-.717.595-1.312 1.313-1.312.717 0 1.312.595 1.312 1.313zM35.937 42H5.312a1.31 1.31 0 01-1.092-.584l-3.5-5.25a1.312 1.312 0 011.092-2.041h22.75a3.941 3.941 0 003.938-3.938c0-.724.588-1.312 1.312-1.312h11.375c.455 0 .877.236 1.117.621.238.387.26.872.058 1.278l-5.25 10.5a1.314 1.314 0 01-1.175.726zM2.25 32.375v-10.5h14v10.5h-14zm4.813-1.75c.724 0 1.312-.588 1.312-1.313v-4.375a1.313 1.313 0 00-2.625 0v4.375c0 .725.588 1.313 1.313 1.313zm4.375 0c.724 0 1.312-.588 1.312-1.313v-4.375a1.313 1.313 0 00-2.625 0v4.375c0 .725.588 1.313 1.313 1.313zM18 21.875v10.5h6.563a2.184 2.184 0 002.152-1.855 1.293 1.293 0 01-.84-1.207v-4.375c0-.718.595-1.313 1.313-1.313.717 0 1.312.595 1.312 1.313v2.502c.402-.21.84-.315 1.313-.315H32v-5.25H18zm6.125 7.438c0 .717-.595 1.312-1.313 1.312a1.322 1.322 0 01-1.312-1.313v-4.375c0-.717.595-1.312 1.313-1.312.717 0 1.312.595 1.312 1.313v4.375zM18 11.375h12.688c.724 0 1.312.588 1.312 1.313v7.437H18v-8.75zm4.813 7c.724 0 1.312-.588 1.312-1.313v-2.625a1.313 1.313 0 00-2.625 0v2.626c0 .724.588 1.312 1.313 1.312zm4.375 0c.724 0 1.312-.588 1.312-1.313v-2.625a1.313 1.313 0 00-2.625 0v2.626c0 .724.588 1.312 1.313 1.312z" clip-rule="evenodd"/><defs><linearGradient id="na" x1="6.331" x2="6.331" y1="-108.792" y2="86.552" gradientUnits="userSpaceOnUse"><stop stop-color="#fff"/><stop offset="1" stop-color="#252F37"/></linearGradient><linearGradient id="nb" x1="21.5" x2="21.5" y1=".875" y2="42" gradientUnits="userSpaceOnUse"><stop stop-color="#fff"/><stop offset="1" stop-color="#fff" stop-opacity=".4"/></linearGradient></defs></svg><svg fill="none" viewBox="0 0 42 42" id="smart" xmlns="http://www.w3.org/2000/svg"><path fill="#000" d="M19.526 0H5.336C2.926 0 .876 1.967.876 4.378v33.249C.875 40.038 2.881 42 5.293 42l14.213-.015c2.412 0 4.385-1.963 4.385-4.374l.02-33.235A4.38 4.38 0 0019.526 0zm-9.144 2.625h4.116a.657.657 0 010 1.312h-4.116a.656.656 0 110-1.312zm-2.474.209a.68.68 0 01.929 0 .665.665 0 01.193.466.664.664 0 01-.656.656.672.672 0 01-.466-.193.662.662 0 010-.93zm4.4 37.865a1.966 1.966 0 01-1.964-1.964c0-1.082.88-1.963 1.963-1.963 1.083 0 1.964.88 1.964 1.963a1.966 1.966 0 01-1.964 1.964zm9.567-5.262H3.172V6.235h18.703v29.202z"/><path fill="url(#oa)" d="M19.526 0H5.336C2.926 0 .876 1.967.876 4.378v33.249C.875 40.038 2.881 42 5.293 42l14.213-.015c2.412 0 4.385-1.963 4.385-4.374l.02-33.235A4.38 4.38 0 0019.526 0zm-9.144 2.625h4.116a.657.657 0 010 1.312h-4.116a.656.656 0 110-1.312zm-2.474.209a.68.68 0 01.929 0 .665.665 0 01.193.466.664.664 0 01-.656.656.672.672 0 01-.466-.193.662.662 0 010-.93zm4.4 37.865a1.966 1.966 0 01-1.964-1.964c0-1.082.88-1.963 1.963-1.963 1.083 0 1.964.88 1.964 1.963a1.966 1.966 0 01-1.964 1.964zm9.567-5.262H3.172V6.235h18.703v29.202z"/><path fill="url(#ob)" d="M19.526 0H5.336C2.926 0 .876 1.967.876 4.378v33.249C.875 40.038 2.881 42 5.293 42l14.213-.015c2.412 0 4.385-1.963 4.385-4.374l.02-33.235A4.38 4.38 0 0019.526 0zm-9.144 2.625h4.116a.657.657 0 010 1.312h-4.116a.656.656 0 110-1.312zm-2.474.209a.68.68 0 01.929 0 .665.665 0 01.193.466.664.664 0 01-.656.656.672.672 0 01-.466-.193.662.662 0 010-.93zm4.4 37.865a1.966 1.966 0 01-1.964-1.964c0-1.082.88-1.963 1.963-1.963 1.083 0 1.964.88 1.964 1.963a1.966 1.966 0 01-1.964 1.964zm9.567-5.262H3.172V6.235h18.703v29.202z"/><g clip-path="url(#oc)"><path fill="#000" d="M38.522 6.732l-11.53-5.121c-1.961-.871-4.337-.013-5.207 1.947L9.783 30.578c-.87 1.959.052 4.277 2.012 5.148l11.555 5.118c1.96.87 4.272-.012 5.143-1.972l12.013-27a3.894 3.894 0 00-1.984-5.14zm-8.379-1.167l3.345 1.486a.584.584 0 01-.473 1.066l-3.346-1.486a.583.583 0 11.474-1.066zm-2.085-.723a.604.604 0 01.754.335.591.591 0 01-.01.449.59.59 0 01-.77.296.597.597 0 01-.31-.326.589.589 0 01.335-.754zM17.965 37.2a1.748 1.748 0 01-.887-2.305 1.748 1.748 0 012.304-.887c.88.39 1.278 1.425.887 2.305a1.748 1.748 0 01-2.304.887zm9.674-.823l-15.199-6.75L22.981 5.896l15.199 6.75-10.541 23.732z"/><path fill="url(#od)" d="M38.522 6.732l-11.53-5.121c-1.961-.871-4.337-.013-5.207 1.947L9.783 30.578c-.87 1.959.052 4.277 2.012 5.148l11.555 5.118c1.96.87 4.272-.012 5.143-1.972l12.013-27a3.894 3.894 0 00-1.984-5.14zm-8.379-1.167l3.345 1.486a.584.584 0 01-.473 1.066l-3.346-1.486a.583.583 0 11.474-1.066zm-2.085-.723a.604.604 0 01.754.335.591.591 0 01-.01.449.59.59 0 01-.77.296.597.597 0 01-.31-.326.589.589 0 01.335-.754zM17.965 37.2a1.748 1.748 0 01-.887-2.305 1.748 1.748 0 012.304-.887c.88.39 1.278 1.425.887 2.305a1.748 1.748 0 01-2.304.887zm9.674-.823l-15.199-6.75L22.981 5.896l15.199 6.75-10.541 23.732z"/><path fill="url(#oe)" d="M38.522 6.732l-11.53-5.121c-1.961-.871-4.337-.013-5.207 1.947L9.783 30.578c-.87 1.959.052 4.277 2.012 5.148l11.555 5.118c1.96.87 4.272-.012 5.143-1.972l12.013-27a3.894 3.894 0 00-1.984-5.14zm-8.379-1.167l3.345 1.486a.584.584 0 01-.473 1.066l-3.346-1.486a.583.583 0 11.474-1.066zm-2.085-.723a.604.604 0 01.754.335.591.591 0 01-.01.449.59.59 0 01-.77.296.597.597 0 01-.31-.326.589.589 0 01.335-.754zM17.965 37.2a1.748 1.748 0 01-.887-2.305 1.748 1.748 0 012.304-.887c.88.39 1.278 1.425.887 2.305a1.748 1.748 0 01-2.304.887zm9.674-.823l-15.199-6.75L22.981 5.896l15.199 6.75-10.541 23.732z"/></g><defs><linearGradient id="oa" x1="4.073" x2="4.073" y1="-112" y2="87.5" gradientUnits="userSpaceOnUse"><stop stop-color="#fff"/><stop offset="1" stop-color="#252F37"/></linearGradient><linearGradient id="ob" x1="12.393" x2="12.393" y1="0" y2="42" gradientUnits="userSpaceOnUse"><stop stop-color="#fff"/><stop offset="1" stop-color="#fff" stop-opacity=".4"/></linearGradient><linearGradient id="od" x1="66.392" x2="-5.62" y1="-89.862" y2="72.261" gradientUnits="userSpaceOnUse"><stop stop-color="#fff"/><stop offset="1" stop-color="#252F37"/></linearGradient><linearGradient id="oe" x1="32.725" x2="17.565" y1="4.158" y2="38.289" gradientUnits="userSpaceOnUse"><stop stop-color="#fff"/><stop offset="1" stop-color="#fff" stop-opacity=".4"/></linearGradient><clipPath id="oc"><path fill="#fff" d="M0 0h20v42H0z" transform="translate(22)"/></clipPath></defs></svg><svg fill="none" viewBox="0 0 81 81" id="soft" xmlns="http://www.w3.org/2000/svg"><g clip-path="url(#pa)"><g filter="url(#pb)"><path fill="url(#pc)" d="M0 0h48v81H0v-5h43V5H0V0z"/><path fill="url(#pd)" d="M38 71H0V53.12a14.91 14.91 0 004.106 2.446l.69 3.909c.052.293.187.562.389.773.2.21.458.351.738.404l.117.023a18.66 18.66 0 006.934 0l.118-.023c.279-.053.536-.194.738-.404.2-.21.336-.48.388-.773l.685-3.89a15.19 15.19 0 004.349-2.636l3.545 1.325c.268.099.557.11.831.033.274-.078.518-.241.702-.469l.078-.096a20.7 20.7 0 003.476-6.31l.039-.119a1.527 1.527 0 00-.415-1.604l-2.855-2.561a17.224 17.224 0 000-5.288l2.855-2.562a1.48 1.48 0 00.443-.74c.072-.288.06-.593-.037-.873l-.04-.119a20.54 20.54 0 00-3.474-6.31l-.079-.096a1.397 1.397 0 00-.702-.467 1.34 1.34 0 00-.83.032l-3.546 1.324a15.089 15.089 0 00-4.348-2.635l-.686-3.89a1.493 1.493 0 00-.388-.773 1.378 1.378 0 00-.738-.405l-.118-.023c-2.27-.43-4.663-.43-6.933 0l-.118.023c-.28.053-.537.194-.738.405-.201.21-.337.48-.389.773l-.69 3.908A15.254 15.254 0 000 27.872V10h38v61z"/><path fill="url(#pe)" fill-rule="evenodd" d="M1.832 40.045c0 4.45 3.436 8.056 7.675 8.056 4.24 0 7.676-3.606 7.676-8.056 0-4.449-3.437-8.055-7.676-8.055-4.24 0-7.675 3.606-7.675 8.055zm4.222-3.624c.925-.972 2.148-1.503 3.453-1.503a4.648 4.648 0 011.87.388 4.85 4.85 0 011.584 1.115 5.235 5.235 0 011.432 3.624c0 1.37-.511 2.654-1.432 3.625-.926.967-2.149 1.503-3.454 1.503-1.305 0-2.528-.536-3.453-1.503a5.234 5.234 0 01-1.432-3.625c0-1.37.51-2.653 1.432-3.624z" clip-rule="evenodd"/><path fill="url(#pf)" d="M53 66.996C67.702 66.754 79.546 54.76 79.546 40c0-14.76-11.844-26.754-26.546-26.996V33.47a6.546 6.546 0 010 13.06v20.466z"/></g><filter id="pb" width="87.545" height="89" x="-4" y="0" color-interpolation-filters="sRGB" filterUnits="userSpaceOnUse"><feFlood flood-opacity="0" result="BackgroundImageFix"/><feColorMatrix in="SourceAlpha" result="hardAlpha" values="0 0 0 0 0 0 0 0 0 0 0 0 0 0 0 0 0 0 127 0"/><feOffset dy="4"/><feGaussianBlur stdDeviation="2"/><feColorMatrix values="0 0 0 0 0 0 0 0 0 0 0 0 0 0 0 0 0 0 0.25 0"/><feBlend in2="BackgroundImageFix" result="effect1_dropShadow_2800:107"/><feBlend in="SourceGraphic" in2="effect1_dropShadow_2800:107" result="shape"/></filter><linearGradient id="pc" x1="39.773" x2="39.773" y1="0" y2="81" gradientUnits="userSpaceOnUse"><stop stop-color="#00FBEE"/><stop offset="1" stop-color="#00FBEE" stop-opacity=".2"/></linearGradient><linearGradient id="pd" x1="39.773" x2="39.773" y1="0" y2="81" gradientUnits="userSpaceOnUse"><stop stop-color="#00FBEE"/><stop offset="1" stop-color="#00FBEE" stop-opacity=".2"/></linearGradient><linearGradient id="pe" x1="39.773" x2="39.773" y1="0" y2="81" gradientUnits="userSpaceOnUse"><stop stop-color="#00FBEE"/><stop offset="1" stop-color="#00FBEE" stop-opacity=".2"/></linearGradient><linearGradient id="pf" x1="39.773" x2="39.773" y1="0" y2="81" gradientUnits="userSpaceOnUse"><stop stop-color="#00FBEE"/><stop offset="1" stop-color="#00FBEE" stop-opacity=".2"/></linearGradient><clipPath id="pa"><path fill="#fff" d="M0 0h81v81H0z"/></clipPath></g></svg><svg fill="none" viewBox="0 0 20 20" id="yes" xmlns="http://www.w3.org/2000/svg"><path fill="#00FBEE" d="M14.83 4.89l1.34.94-5.81 8.38H9.02L5.78 9.67l1.34-1.25 2.57 2.4 5.14-5.93z"/></svg></svg>