<?xml version="1.0" encoding="utf-8"?><svg viewBox="0 0 81 81" xmlns="http://www.w3.org/2000/svg" xmlns:xlink="http://www.w3.org/1999/xlink"><style>:root>svg{display:none}:root>svg:target{display:block}</style><svg fill="none" viewBox="0 0 17 17" id="arrow" xmlns="http://www.w3.org/2000/svg"><path fill="#00FBEE" d="M8.813 3.937l4.027 4.032H2.125V9.03H12.84l-4.027 4.032.75.75L14.875 8.5 9.562 3.187l-.749.75z"/></svg><svg fill="none" viewBox="0 0 53 42" id="arrow-slider" xmlns="http://www.w3.org/2000/svg"><path stroke="url(#ba)" stroke-linecap="round" stroke-width="2" d="M1 21h50m0 0L32.633 1M51 21L32.633 41"/><defs><linearGradient id="ba" x1="1" x2="51" y1="21" y2="21" gradientUnits="userSpaceOnUse"><stop stop-color="#69D4CE" stop-opacity="0"/><stop offset="1" stop-color="#69D4CE"/></linearGradient></defs></svg><svg fill="none" viewBox="0 0 43 43" id="bank" xmlns="http://www.w3.org/2000/svg"><path fill="#252F37" fill-rule="evenodd" d="M40.132 12.713H2.745a1.87 1.87 0 01-.767-3.575L20.673.727a1.874 1.874 0 011.534 0l18.55 8.347a1.87 1.87 0 01-.607 3.639h-.018zM5.083 33.088a1.87 1.87 0 100 3.74h32.714a1.87 1.87 0 000-3.74h-.467V16.262h.467a.933.933 0 100-1.868H5.083a.934.934 0 100 1.868h.468v16.825h-.468zm28.508-16.826v16.825h-5.608V16.262h5.608zm-9.348 0v16.825h-5.608V16.262h5.608zm-14.954 0h5.607v16.825H9.29V16.262zm30.844 21.686H2.745a1.87 1.87 0 100 3.74h37.387a1.87 1.87 0 100-3.74z" clip-rule="evenodd"/><path fill="url(#ca)" fill-rule="evenodd" d="M40.132 12.713H2.745a1.87 1.87 0 01-.767-3.575L20.673.727a1.874 1.874 0 011.534 0l18.55 8.347a1.87 1.87 0 01-.607 3.639h-.018zM5.083 33.088a1.87 1.87 0 100 3.74h32.714a1.87 1.87 0 000-3.74h-.467V16.262h.467a.933.933 0 100-1.868H5.083a.934.934 0 100 1.868h.468v16.825h-.468zm28.508-16.826v16.825h-5.608V16.262h5.608zm-9.348 0v16.825h-5.608V16.262h5.608zm-14.954 0h5.607v16.825H9.29V16.262zm30.844 21.686H2.745a1.87 1.87 0 100 3.74h37.387a1.87 1.87 0 100-3.74z" clip-rule="evenodd"/><path fill="url(#cb)" fill-rule="evenodd" d="M40.132 12.713H2.745a1.87 1.87 0 01-.767-3.575L20.673.727a1.874 1.874 0 011.534 0l18.55 8.347a1.87 1.87 0 01-.607 3.639h-.018zM5.083 33.088a1.87 1.87 0 100 3.74h32.714a1.87 1.87 0 000-3.74h-.467V16.262h.467a.933.933 0 100-1.868H5.083a.934.934 0 100 1.868h.468v16.825h-.468zm28.508-16.826v16.825h-5.608V16.262h5.608zm-9.348 0v16.825h-5.608V16.262h5.608zm-14.954 0h5.607v16.825H9.29V16.262zm30.844 21.686H2.745a1.87 1.87 0 100 3.74h37.387a1.87 1.87 0 100-3.74z" clip-rule="evenodd"/><defs><linearGradient id="ca" x1="6.587" x2="6.587" y1="-109.104" y2="86.24" gradientUnits="userSpaceOnUse"><stop stop-color="#fff"/><stop offset="1" stop-color="#252F37"/></linearGradient><linearGradient id="cb" x1="21.448" x2="21.448" y1=".563" y2="41.688" gradientUnits="userSpaceOnUse"><stop stop-color="#fff"/><stop offset="1" stop-color="#fff" stop-opacity=".4"/></linearGradient></defs></svg><svg fill="none" viewBox="0 0 81 81" id="equalizer" xmlns="http://www.w3.org/2000/svg"><path fill="url(#da)" d="M0 11.25h7.734v19.5H0v-19.5z"/><path fill="url(#db)" d="M58.266 50.25H66v19.5h-7.734v-19.5z"/><path fill="url(#dc)" d="M29.133 30.75h7.734v19.5h-7.734v-19.5z"/><path fill="url(#dd)" d="M5.8 46.35h19.466v-11.7H5.8c-3.198 0-5.8 2.624-5.8 5.85 0 3.226 2.602 5.85 5.8 5.85z"/><path fill="url(#de)" d="M60.2 34.65H40.733v11.7H60.2c3.199 0 5.801-2.624 5.801-5.85 0-3.226-2.602-5.85-5.8-5.85z"/><path fill="url(#df)" d="M60.2 15.15H11.601v11.7h48.597c3.2 0 5.802-2.624 5.802-5.85 0-3.226-2.602-5.85-5.8-5.85z"/><path fill="url(#dg)" d="M5.8 65.85h48.598v-11.7H5.801C2.602 54.15 0 56.774 0 60c0 3.226 2.602 5.85 5.8 5.85z"/><defs><linearGradient id="da" x1="33" x2="33" y1="11.25" y2="69.75" gradientUnits="userSpaceOnUse"><stop stop-color="#00FBEE"/><stop offset="1" stop-color="#00FBEE" stop-opacity=".2"/></linearGradient><linearGradient id="db" x1="33" x2="33" y1="11.25" y2="69.75" gradientUnits="userSpaceOnUse"><stop stop-color="#00FBEE"/><stop offset="1" stop-color="#00FBEE" stop-opacity=".2"/></linearGradient><linearGradient id="dc" x1="33" x2="33" y1="11.25" y2="69.75" gradientUnits="userSpaceOnUse"><stop stop-color="#00FBEE"/><stop offset="1" stop-color="#00FBEE" stop-opacity=".2"/></linearGradient><linearGradient id="dd" x1="33" x2="33" y1="11.25" y2="69.75" gradientUnits="userSpaceOnUse"><stop stop-color="#00FBEE"/><stop offset="1" stop-color="#00FBEE" stop-opacity=".2"/></linearGradient><linearGradient id="de" x1="33" x2="33" y1="11.25" y2="69.75" gradientUnits="userSpaceOnUse"><stop stop-color="#00FBEE"/><stop offset="1" stop-color="#00FBEE" stop-opacity=".2"/></linearGradient><linearGradient id="df" x1="33" x2="33" y1="11.25" y2="69.75" gradientUnits="userSpaceOnUse"><stop stop-color="#00FBEE"/><stop offset="1" stop-color="#00FBEE" stop-opacity=".2"/></linearGradient><linearGradient id="dg" x1="33" x2="33" y1="11.25" y2="69.75" gradientUnits="userSpaceOnUse"><stop stop-color="#00FBEE"/><stop offset="1" stop-color="#00FBEE" stop-opacity=".2"/></linearGradient></defs></svg><svg fill="none" viewBox="0 0 20 15" id="eye" xmlns="http://www.w3.org/2000/svg"><path fill="#00FBEE" d="M10 3C5.64 3 2.374 5.856 1.172 7.083a.592.592 0 000 .834C2.374 9.144 5.64 12 10 12c4.36 0 7.627-2.856 8.828-4.083a.592.592 0 000-.834C17.626 5.856 14.36 3 10 3zM5.979 5.138a4.712 4.712 0 00-.67 2.427c0 .806.202 1.575.567 2.249-1.472-.698-2.632-1.63-3.365-2.314.75-.7 1.946-1.66 3.468-2.362zm2.411 5.5c-1.127-.595-1.825-1.766-1.825-3.073 0-1.492.918-2.804 2.286-3.275a8.787 8.787 0 012.013-.033c1.408.433 2.39 1.79 2.39 3.308 0 1.33-.747 2.545-1.91 3.118a8.835 8.835 0 01-1.344.104 8.883 8.883 0 01-1.61-.149zm5.48-.708a4.7 4.7 0 00.639-2.365c0-.913-.256-1.785-.742-2.54 1.643.708 2.93 1.737 3.722 2.475-.774.723-2.025 1.723-3.619 2.43z"/><path fill="#00FBEE" d="M11 7.5A1.5 1.5 0 019.5 6 1.5 1.5 0 1011 7.5z"/></svg><svg fill="none" viewBox="0 0 42 42" id="gas" xmlns="http://www.w3.org/2000/svg"><path fill="#000" d="M35.68 23.509a2.51 2.51 0 000-5.018h-.867V5.018h.866a2.51 2.51 0 000-5.018H6.324a2.51 2.51 0 000 5.018l5.318-.004c.776 0 1.405.64 1.405 1.415 0 .776-.629 1.405-1.405 1.405H7.19v10.657h-.865a2.51 2.51 0 000 5.018l5.318-.003c.776 0 1.405.64 1.405 1.416 0 .776-.629 1.405-1.405 1.405H7.19v10.655h-.865a2.509 2.509 0 100 5.018H35.68a2.51 2.51 0 000-5.018h-.866V23.509h.866zM21 27.783a5.168 5.168 0 01-5.168-5.168c0-2.854 5.168-8.398 5.168-8.398s5.168 5.544 5.168 8.398A5.168 5.168 0 0121 27.783z"/><path fill="url(#fa)" d="M35.68 23.509a2.51 2.51 0 000-5.018h-.867V5.018h.866a2.51 2.51 0 000-5.018H6.324a2.51 2.51 0 000 5.018l5.318-.004c.776 0 1.405.64 1.405 1.415 0 .776-.629 1.405-1.405 1.405H7.19v10.657h-.865a2.51 2.51 0 000 5.018l5.318-.003c.776 0 1.405.64 1.405 1.416 0 .776-.629 1.405-1.405 1.405H7.19v10.655h-.865a2.509 2.509 0 100 5.018H35.68a2.51 2.51 0 000-5.018h-.866V23.509h.866zM21 27.783a5.168 5.168 0 01-5.168-5.168c0-2.854 5.168-8.398 5.168-8.398s5.168 5.544 5.168 8.398A5.168 5.168 0 0121 27.783z"/><path fill="url(#fb)" d="M35.68 23.509a2.51 2.51 0 000-5.018h-.867V5.018h.866a2.51 2.51 0 000-5.018H6.324a2.51 2.51 0 000 5.018l5.318-.004c.776 0 1.405.64 1.405 1.415 0 .776-.629 1.405-1.405 1.405H7.19v10.657h-.865a2.51 2.51 0 000 5.018l5.318-.003c.776 0 1.405.64 1.405 1.416 0 .776-.629 1.405-1.405 1.405H7.19v10.655h-.865a2.509 2.509 0 100 5.018H35.68a2.51 2.51 0 000-5.018h-.866V23.509h.866zM21 27.783a5.168 5.168 0 01-5.168-5.168c0-2.854 5.168-8.398 5.168-8.398s5.168 5.544 5.168 8.398A5.168 5.168 0 0121 27.783z"/><defs><linearGradient id="fa" x1="8.586" x2="8.586" y1="-112" y2="87.5" gradientUnits="userSpaceOnUse"><stop stop-color="#fff"/><stop offset="1" stop-color="#252F37"/></linearGradient><linearGradient id="fb" x1="21.001" x2="21.001" y1="0" y2="42" gradientUnits="userSpaceOnUse"><stop stop-color="#fff"/><stop offset="1" stop-color="#fff" stop-opacity=".4"/></linearGradient></defs></svg><svg fill="none" viewBox="0 0 42 42" id="iot" xmlns="http://www.w3.org/2000/svg"><path fill="url(#ga)" d="M33.75 12.6c0-1.909-1.303-3.507-3.07-4.015l-2.784-7.23a2.104 2.104 0 00-.78-.983A2.143 2.143 0 0025.912 0H13.964c-.43 0-.851.13-1.206.372a2.104 2.104 0 00-.779.982l-2.783 7.23a4.243 4.243 0 00-2.213 1.502 4.16 4.16 0 00-.858 2.514v16.8c0 1.909 1.303 3.507 3.07 4.015l2.784 7.23c.153.398.425.741.78.983.354.242.774.372 1.205.372H25.91c.882 0 1.672-.54 1.987-1.355l2.783-7.23a4.243 4.243 0 002.213-1.501 4.16 4.16 0 00.858-2.514v-4.2h2.125v-8.4H33.75v-4.2zm-4.246 16.8H10.375V12.6H29.5l.004 16.8z"/><defs><linearGradient id="ga" x1="21" x2="21" y1="0" y2="42" gradientUnits="userSpaceOnUse"><stop stop-color="#fff"/><stop offset="1" stop-color="#fff" stop-opacity="0"/></linearGradient></defs></svg><svg fill="none" viewBox="0 0 42 43" id="medicine" xmlns="http://www.w3.org/2000/svg"><path fill="#000" d="M23.407 19.473h3.98v2.463h-3.98c-.684 0-1.237.555-1.237 1.238v3.98h-2.464v-3.98c0-.683-.553-1.238-1.237-1.238h-3.98v-2.463h3.98c.684 0 1.237-.553 1.237-1.237v-3.981h2.464v3.98c0 .684.553 1.238 1.237 1.238z"/><path fill="url(#ha)" d="M23.407 19.473h3.98v2.463h-3.98c-.684 0-1.237.555-1.237 1.238v3.98h-2.464v-3.98c0-.683-.553-1.238-1.237-1.238h-3.98v-2.463h3.98c.684 0 1.237-.553 1.237-1.237v-3.981h2.464v3.98c0 .684.553 1.238 1.237 1.238z"/><path fill="url(#hb)" d="M23.407 19.473h3.98v2.463h-3.98c-.684 0-1.237.555-1.237 1.238v3.98h-2.464v-3.98c0-.683-.553-1.238-1.237-1.238h-3.98v-2.463h3.98c.684 0 1.237-.553 1.237-1.237v-3.981h2.464v3.98c0 .684.553 1.238 1.237 1.238z"/><path fill="#000" d="M38.833 11.454l-.001-.04c-.02-1.053-.039-2.047-.039-3.004 0-1.45-1.18-2.628-2.628-2.628-5.609 0-9.865-1.6-13.396-5.033a2.616 2.616 0 00-3.665 0c-3.53 3.433-7.786 5.033-13.394 5.033A2.631 2.631 0 003.082 8.41c0 .977-.019 1.981-.04 3.045-.094 4.965-.212 11.144 1.861 16.753 1.14 3.084 2.867 5.764 5.131 7.966 2.58 2.508 5.958 4.497 10.042 5.913a2.618 2.618 0 001.722 0c4.083-1.416 7.462-3.405 10.042-5.913 2.264-2.202 3.99-4.883 5.131-7.966 2.074-5.61 1.957-11.789 1.862-16.754zm-8.972 11.72c0 .682-.553 1.237-1.237 1.237h-3.98v3.98c0 .684-.554 1.238-1.237 1.238h-4.938a1.238 1.238 0 01-1.237-1.237V24.41h-3.981a1.237 1.237 0 01-1.237-1.237v-4.938c0-.683.553-1.237 1.237-1.237h3.981v-3.981c0-.683.554-1.237 1.237-1.237h4.938c.683 0 1.237.554 1.237 1.237v3.98h3.98c.684 0 1.237.555 1.237 1.238v4.938z"/><path fill="url(#hc)" d="M38.833 11.454l-.001-.04c-.02-1.053-.039-2.047-.039-3.004 0-1.45-1.18-2.628-2.628-2.628-5.609 0-9.865-1.6-13.396-5.033a2.616 2.616 0 00-3.665 0c-3.53 3.433-7.786 5.033-13.394 5.033A2.631 2.631 0 003.082 8.41c0 .977-.019 1.981-.04 3.045-.094 4.965-.212 11.144 1.861 16.753 1.14 3.084 2.867 5.764 5.131 7.966 2.58 2.508 5.958 4.497 10.042 5.913a2.618 2.618 0 001.722 0c4.083-1.416 7.462-3.405 10.042-5.913 2.264-2.202 3.99-4.883 5.131-7.966 2.074-5.61 1.957-11.789 1.862-16.754zm-8.972 11.72c0 .682-.553 1.237-1.237 1.237h-3.98v3.98c0 .684-.554 1.238-1.237 1.238h-4.938a1.238 1.238 0 01-1.237-1.237V24.41h-3.981a1.237 1.237 0 01-1.237-1.237v-4.938c0-.683.553-1.237 1.237-1.237h3.981v-3.981c0-.683.554-1.237 1.237-1.237h4.938c.683 0 1.237.554 1.237 1.237v3.98h3.98c.684 0 1.237.555 1.237 1.238v4.938z"/><path fill="url(#hd)" d="M38.833 11.454l-.001-.04c-.02-1.053-.039-2.047-.039-3.004 0-1.45-1.18-2.628-2.628-2.628-5.609 0-9.865-1.6-13.396-5.033a2.616 2.616 0 00-3.665 0c-3.53 3.433-7.786 5.033-13.394 5.033A2.631 2.631 0 003.082 8.41c0 .977-.019 1.981-.04 3.045-.094 4.965-.212 11.144 1.861 16.753 1.14 3.084 2.867 5.764 5.131 7.966 2.58 2.508 5.958 4.497 10.042 5.913a2.618 2.618 0 001.722 0c4.083-1.416 7.462-3.405 10.042-5.913 2.264-2.202 3.99-4.883 5.131-7.966 2.074-5.61 1.957-11.789 1.862-16.754zm-8.972 11.72c0 .682-.553 1.237-1.237 1.237h-3.98v3.98c0 .684-.554 1.238-1.237 1.238h-4.938a1.238 1.238 0 01-1.237-1.237V24.41h-3.981a1.237 1.237 0 01-1.237-1.237v-4.938c0-.683.553-1.237 1.237-1.237h3.981v-3.981c0-.683.554-1.237 1.237-1.237h4.938c.683 0 1.237.554 1.237 1.237v3.98h3.98c.684 0 1.237.555 1.237 1.238v4.938z"/><defs><linearGradient id="ha" x1="16.279" x2="16.279" y1="-20.144" y2="41.129" gradientUnits="userSpaceOnUse"><stop stop-color="#fff"/><stop offset="1" stop-color="#252F37"/></linearGradient><linearGradient id="hb" x1="20.938" x2="20.938" y1="14.255" y2="27.155" gradientUnits="userSpaceOnUse"><stop stop-color="#fff"/><stop offset="1" stop-color="#fff" stop-opacity=".4"/></linearGradient><linearGradient id="hc" x1="7.98" x2="7.98" y1="-112.618" y2="87.983" gradientUnits="userSpaceOnUse"><stop stop-color="#fff"/><stop offset="1" stop-color="#252F37"/></linearGradient><linearGradient id="hd" x1="20.938" x2="20.938" y1="0" y2="42.232" gradientUnits="userSpaceOnUse"><stop stop-color="#fff"/><stop offset="1" stop-color="#fff" stop-opacity=".4"/></linearGradient></defs></svg><svg fill="none" viewBox="0 0 81 81" id="shield" xmlns="http://www.w3.org/2000/svg"><g clip-path="url(#ia)"><path fill="url(#ib)" d="M14.488 26.28c.32 3.83 1.056 9.078 2.72 14.587 3.533 11.7 9.776 20.02 18.563 24.747 8.787-4.727 15.03-13.047 18.563-24.747 1.664-5.509 2.4-10.756 2.72-14.587L35.77 15.639 14.488 26.28z"/><path fill="url(#ic)" d="M71.501 18.93a2.373 2.373 0 00-1.308-1.999L36.832.251a2.373 2.373 0 00-2.123 0L1.348 16.93a2.373 2.373 0 00-1.308 2c-.026.485-.574 12.05 3.365 25.475 2.331 7.944 5.76 14.883 10.19 20.623 5.584 7.233 12.761 12.554 21.331 15.816a2.377 2.377 0 001.688 0c8.57-3.261 15.747-8.583 21.331-15.816 4.431-5.74 7.86-12.679 10.19-20.623 3.94-13.426 3.391-24.99 3.366-25.476zM36.822 70.412a2.372 2.372 0 01-2.103 0c-10.567-5.225-17.987-14.703-22.055-28.173-2.035-6.736-2.77-13.084-3.027-17.223a2.373 2.373 0 011.307-2.27L34.71 10.863a2.374 2.374 0 012.123 0l23.765 11.883a2.373 2.373 0 011.307 2.27c-.258 4.14-.992 10.487-3.027 17.224C54.81 55.707 47.39 65.186 36.822 70.412z"/></g><defs><linearGradient id="ib" x1="35.771" x2="35.771" y1="15.639" y2="65.614" gradientUnits="userSpaceOnUse"><stop stop-color="#00FBEE"/><stop offset="1" stop-color="#00FBEE" stop-opacity=".2"/></linearGradient><linearGradient id="ic" x1="35.77" x2="35.77" y1="0" y2="81" gradientUnits="userSpaceOnUse"><stop stop-color="#00FBEE"/><stop offset="1" stop-color="#00FBEE" stop-opacity=".2"/></linearGradient><clipPath id="ia"><path fill="#fff" d="M0 0h81v81H0z"/></clipPath></defs></svg><svg fill="none" viewBox="0 0 43 43" id="ship" xmlns="http://www.w3.org/2000/svg"><path fill="#252F37" fill-rule="evenodd" d="M14.938.875H3.562c-.724 0-1.312.588-1.312 1.313v7.437h14V2.187c0-.724-.588-1.312-1.313-1.312zM8.375 6.563a1.313 1.313 0 01-2.625 0V3.938a1.313 1.313 0 012.625 0v2.624zm4.375 0a1.313 1.313 0 01-2.625 0V3.938a1.313 1.313 0 012.625 0v2.624zM2.25 20.124v-8.75h14v8.75h-14zm4.813-1.75c.724 0 1.312-.588 1.312-1.313v-2.625a1.313 1.313 0 00-2.625 0v2.626c0 .724.588 1.312 1.313 1.312zm4.375 0c.724 0 1.312-.588 1.312-1.313v-2.625a1.313 1.313 0 00-2.625 0v2.626c0 .724.588 1.312 1.313 1.312zM39 22.313v4.812h-2.625v-4.813c0-.717.595-1.312 1.313-1.312.717 0 1.312.595 1.312 1.313zM35.937 42H5.312a1.31 1.31 0 01-1.092-.584l-3.5-5.25a1.312 1.312 0 011.092-2.041h22.75a3.941 3.941 0 003.938-3.938c0-.724.588-1.312 1.312-1.312h11.375c.455 0 .877.236 1.117.621.238.387.26.872.058 1.278l-5.25 10.5a1.314 1.314 0 01-1.175.726zM2.25 32.375v-10.5h14v10.5h-14zm4.813-1.75c.724 0 1.312-.588 1.312-1.313v-4.375a1.313 1.313 0 00-2.625 0v4.375c0 .725.588 1.313 1.313 1.313zm4.375 0c.724 0 1.312-.588 1.312-1.313v-4.375a1.313 1.313 0 00-2.625 0v4.375c0 .725.588 1.313 1.313 1.313zM18 21.875v10.5h6.563a2.184 2.184 0 002.152-1.855 1.293 1.293 0 01-.84-1.207v-4.375c0-.718.595-1.313 1.313-1.313.717 0 1.312.595 1.312 1.313v2.502c.402-.21.84-.315 1.313-.315H32v-5.25H18zm6.125 7.438c0 .717-.595 1.312-1.313 1.312a1.322 1.322 0 01-1.312-1.313v-4.375c0-.717.595-1.312 1.313-1.312.717 0 1.312.595 1.312 1.313v4.375zM18 11.375h12.688c.724 0 1.312.588 1.312 1.313v7.437H18v-8.75zm4.813 7c.724 0 1.312-.588 1.312-1.313v-2.625a1.313 1.313 0 00-2.625 0v2.626c0 .724.588 1.312 1.313 1.312zm4.375 0c.724 0 1.312-.588 1.312-1.313v-2.625a1.313 1.313 0 00-2.625 0v2.626c0 .724.588 1.312 1.313 1.312z" clip-rule="evenodd"/><path fill="url(#ja)" fill-rule="evenodd" d="M14.938.875H3.562c-.724 0-1.312.588-1.312 1.313v7.437h14V2.187c0-.724-.588-1.312-1.313-1.312zM8.375 6.563a1.313 1.313 0 01-2.625 0V3.938a1.313 1.313 0 012.625 0v2.624zm4.375 0a1.313 1.313 0 01-2.625 0V3.938a1.313 1.313 0 012.625 0v2.624zM2.25 20.124v-8.75h14v8.75h-14zm4.813-1.75c.724 0 1.312-.588 1.312-1.313v-2.625a1.313 1.313 0 00-2.625 0v2.626c0 .724.588 1.312 1.313 1.312zm4.375 0c.724 0 1.312-.588 1.312-1.313v-2.625a1.313 1.313 0 00-2.625 0v2.626c0 .724.588 1.312 1.313 1.312zM39 22.313v4.812h-2.625v-4.813c0-.717.595-1.312 1.313-1.312.717 0 1.312.595 1.312 1.313zM35.937 42H5.312a1.31 1.31 0 01-1.092-.584l-3.5-5.25a1.312 1.312 0 011.092-2.041h22.75a3.941 3.941 0 003.938-3.938c0-.724.588-1.312 1.312-1.312h11.375c.455 0 .877.236 1.117.621.238.387.26.872.058 1.278l-5.25 10.5a1.314 1.314 0 01-1.175.726zM2.25 32.375v-10.5h14v10.5h-14zm4.813-1.75c.724 0 1.312-.588 1.312-1.313v-4.375a1.313 1.313 0 00-2.625 0v4.375c0 .725.588 1.313 1.313 1.313zm4.375 0c.724 0 1.312-.588 1.312-1.313v-4.375a1.313 1.313 0 00-2.625 0v4.375c0 .725.588 1.313 1.313 1.313zM18 21.875v10.5h6.563a2.184 2.184 0 002.152-1.855 1.293 1.293 0 01-.84-1.207v-4.375c0-.718.595-1.313 1.313-1.313.717 0 1.312.595 1.312 1.313v2.502c.402-.21.84-.315 1.313-.315H32v-5.25H18zm6.125 7.438c0 .717-.595 1.312-1.313 1.312a1.322 1.322 0 01-1.312-1.313v-4.375c0-.717.595-1.312 1.313-1.312.717 0 1.312.595 1.312 1.313v4.375zM18 11.375h12.688c.724 0 1.312.588 1.312 1.313v7.437H18v-8.75zm4.813 7c.724 0 1.312-.588 1.312-1.313v-2.625a1.313 1.313 0 00-2.625 0v2.626c0 .724.588 1.312 1.313 1.312zm4.375 0c.724 0 1.312-.588 1.312-1.313v-2.625a1.313 1.313 0 00-2.625 0v2.626c0 .724.588 1.312 1.313 1.312z" clip-rule="evenodd"/><path fill="url(#jb)" fill-rule="evenodd" d="M14.938.875H3.562c-.724 0-1.312.588-1.312 1.313v7.437h14V2.187c0-.724-.588-1.312-1.313-1.312zM8.375 6.563a1.313 1.313 0 01-2.625 0V3.938a1.313 1.313 0 012.625 0v2.624zm4.375 0a1.313 1.313 0 01-2.625 0V3.938a1.313 1.313 0 012.625 0v2.624zM2.25 20.124v-8.75h14v8.75h-14zm4.813-1.75c.724 0 1.312-.588 1.312-1.313v-2.625a1.313 1.313 0 00-2.625 0v2.626c0 .724.588 1.312 1.313 1.312zm4.375 0c.724 0 1.312-.588 1.312-1.313v-2.625a1.313 1.313 0 00-2.625 0v2.626c0 .724.588 1.312 1.313 1.312zM39 22.313v4.812h-2.625v-4.813c0-.717.595-1.312 1.313-1.312.717 0 1.312.595 1.312 1.313zM35.937 42H5.312a1.31 1.31 0 01-1.092-.584l-3.5-5.25a1.312 1.312 0 011.092-2.041h22.75a3.941 3.941 0 003.938-3.938c0-.724.588-1.312 1.312-1.312h11.375c.455 0 .877.236 1.117.621.238.387.26.872.058 1.278l-5.25 10.5a1.314 1.314 0 01-1.175.726zM2.25 32.375v-10.5h14v10.5h-14zm4.813-1.75c.724 0 1.312-.588 1.312-1.313v-4.375a1.313 1.313 0 00-2.625 0v4.375c0 .725.588 1.313 1.313 1.313zm4.375 0c.724 0 1.312-.588 1.312-1.313v-4.375a1.313 1.313 0 00-2.625 0v4.375c0 .725.588 1.313 1.313 1.313zM18 21.875v10.5h6.563a2.184 2.184 0 002.152-1.855 1.293 1.293 0 01-.84-1.207v-4.375c0-.718.595-1.313 1.313-1.313.717 0 1.312.595 1.312 1.313v2.502c.402-.21.84-.315 1.313-.315H32v-5.25H18zm6.125 7.438c0 .717-.595 1.312-1.313 1.312a1.322 1.322 0 01-1.312-1.313v-4.375c0-.717.595-1.312 1.313-1.312.717 0 1.312.595 1.312 1.313v4.375zM18 11.375h12.688c.724 0 1.312.588 1.312 1.313v7.437H18v-8.75zm4.813 7c.724 0 1.312-.588 1.312-1.313v-2.625a1.313 1.313 0 00-2.625 0v2.626c0 .724.588 1.312 1.313 1.312zm4.375 0c.724 0 1.312-.588 1.312-1.313v-2.625a1.313 1.313 0 00-2.625 0v2.626c0 .724.588 1.312 1.313 1.312z" clip-rule="evenodd"/><defs><linearGradient id="ja" x1="6.331" x2="6.331" y1="-108.792" y2="86.552" gradientUnits="userSpaceOnUse"><stop stop-color="#fff"/><stop offset="1" stop-color="#252F37"/></linearGradient><linearGradient id="jb" x1="21.5" x2="21.5" y1=".875" y2="42" gradientUnits="userSpaceOnUse"><stop stop-color="#fff"/><stop offset="1" stop-color="#fff" stop-opacity=".4"/></linearGradient></defs></svg><svg fill="none" viewBox="0 0 42 42" id="smart" xmlns="http://www.w3.org/2000/svg"><path fill="#000" d="M19.526 0H5.336C2.926 0 .876 1.967.876 4.378v33.249C.875 40.038 2.881 42 5.293 42l14.213-.015c2.412 0 4.385-1.963 4.385-4.374l.02-33.235A4.38 4.38 0 0019.526 0zm-9.144 2.625h4.116a.657.657 0 010 1.312h-4.116a.656.656 0 110-1.312zm-2.474.209a.68.68 0 01.929 0 .665.665 0 01.193.466.664.664 0 01-.656.656.672.672 0 01-.466-.193.662.662 0 010-.93zm4.4 37.865a1.966 1.966 0 01-1.964-1.964c0-1.082.88-1.963 1.963-1.963 1.083 0 1.964.88 1.964 1.963a1.966 1.966 0 01-1.964 1.964zm9.567-5.262H3.172V6.235h18.703v29.202z"/><path fill="url(#ka)" d="M19.526 0H5.336C2.926 0 .876 1.967.876 4.378v33.249C.875 40.038 2.881 42 5.293 42l14.213-.015c2.412 0 4.385-1.963 4.385-4.374l.02-33.235A4.38 4.38 0 0019.526 0zm-9.144 2.625h4.116a.657.657 0 010 1.312h-4.116a.656.656 0 110-1.312zm-2.474.209a.68.68 0 01.929 0 .665.665 0 01.193.466.664.664 0 01-.656.656.672.672 0 01-.466-.193.662.662 0 010-.93zm4.4 37.865a1.966 1.966 0 01-1.964-1.964c0-1.082.88-1.963 1.963-1.963 1.083 0 1.964.88 1.964 1.963a1.966 1.966 0 01-1.964 1.964zm9.567-5.262H3.172V6.235h18.703v29.202z"/><path fill="url(#kb)" d="M19.526 0H5.336C2.926 0 .876 1.967.876 4.378v33.249C.875 40.038 2.881 42 5.293 42l14.213-.015c2.412 0 4.385-1.963 4.385-4.374l.02-33.235A4.38 4.38 0 0019.526 0zm-9.144 2.625h4.116a.657.657 0 010 1.312h-4.116a.656.656 0 110-1.312zm-2.474.209a.68.68 0 01.929 0 .665.665 0 01.193.466.664.664 0 01-.656.656.672.672 0 01-.466-.193.662.662 0 010-.93zm4.4 37.865a1.966 1.966 0 01-1.964-1.964c0-1.082.88-1.963 1.963-1.963 1.083 0 1.964.88 1.964 1.963a1.966 1.966 0 01-1.964 1.964zm9.567-5.262H3.172V6.235h18.703v29.202z"/><g clip-path="url(#kc)"><path fill="#000" d="M38.522 6.732l-11.53-5.121c-1.961-.871-4.337-.013-5.207 1.947L9.783 30.578c-.87 1.959.052 4.277 2.012 5.148l11.555 5.118c1.96.87 4.272-.012 5.143-1.972l12.013-27a3.894 3.894 0 00-1.984-5.14zm-8.379-1.167l3.345 1.486a.584.584 0 01-.473 1.066l-3.346-1.486a.583.583 0 11.474-1.066zm-2.085-.723a.604.604 0 01.754.335.591.591 0 01-.01.449.59.59 0 01-.77.296.597.597 0 01-.31-.326.589.589 0 01.335-.754zM17.965 37.2a1.748 1.748 0 01-.887-2.305 1.748 1.748 0 012.304-.887c.88.39 1.278 1.425.887 2.305a1.748 1.748 0 01-2.304.887zm9.674-.823l-15.199-6.75L22.981 5.896l15.199 6.75-10.541 23.732z"/><path fill="url(#kd)" d="M38.522 6.732l-11.53-5.121c-1.961-.871-4.337-.013-5.207 1.947L9.783 30.578c-.87 1.959.052 4.277 2.012 5.148l11.555 5.118c1.96.87 4.272-.012 5.143-1.972l12.013-27a3.894 3.894 0 00-1.984-5.14zm-8.379-1.167l3.345 1.486a.584.584 0 01-.473 1.066l-3.346-1.486a.583.583 0 11.474-1.066zm-2.085-.723a.604.604 0 01.754.335.591.591 0 01-.01.449.59.59 0 01-.77.296.597.597 0 01-.31-.326.589.589 0 01.335-.754zM17.965 37.2a1.748 1.748 0 01-.887-2.305 1.748 1.748 0 012.304-.887c.88.39 1.278 1.425.887 2.305a1.748 1.748 0 01-2.304.887zm9.674-.823l-15.199-6.75L22.981 5.896l15.199 6.75-10.541 23.732z"/><path fill="url(#ke)" d="M38.522 6.732l-11.53-5.121c-1.961-.871-4.337-.013-5.207 1.947L9.783 30.578c-.87 1.959.052 4.277 2.012 5.148l11.555 5.118c1.96.87 4.272-.012 5.143-1.972l12.013-27a3.894 3.894 0 00-1.984-5.14zm-8.379-1.167l3.345 1.486a.584.584 0 01-.473 1.066l-3.346-1.486a.583.583 0 11.474-1.066zm-2.085-.723a.604.604 0 01.754.335.591.591 0 01-.01.449.59.59 0 01-.77.296.597.597 0 01-.31-.326.589.589 0 01.335-.754zM17.965 37.2a1.748 1.748 0 01-.887-2.305 1.748 1.748 0 012.304-.887c.88.39 1.278 1.425.887 2.305a1.748 1.748 0 01-2.304.887zm9.674-.823l-15.199-6.75L22.981 5.896l15.199 6.75-10.541 23.732z"/></g><defs><linearGradient id="ka" x1="4.073" x2="4.073" y1="-112" y2="87.5" gradientUnits="userSpaceOnUse"><stop stop-color="#fff"/><stop offset="1" stop-color="#252F37"/></linearGradient><linearGradient id="kb" x1="12.393" x2="12.393" y1="0" y2="42" gradientUnits="userSpaceOnUse"><stop stop-color="#fff"/><stop offset="1" stop-color="#fff" stop-opacity=".4"/></linearGradient><linearGradient id="kd" x1="66.392" x2="-5.62" y1="-89.862" y2="72.261" gradientUnits="userSpaceOnUse"><stop stop-color="#fff"/><stop offset="1" stop-color="#252F37"/></linearGradient><linearGradient id="ke" x1="32.725" x2="17.565" y1="4.158" y2="38.289" gradientUnits="userSpaceOnUse"><stop stop-color="#fff"/><stop offset="1" stop-color="#fff" stop-opacity=".4"/></linearGradient><clipPath id="kc"><path fill="#fff" d="M0 0h20v42H0z" transform="translate(22)"/></clipPath></defs></svg><svg fill="none" viewBox="0 0 81 81" id="soft" xmlns="http://www.w3.org/2000/svg"><g clip-path="url(#la)"><g filter="url(#lb)"><path fill="url(#lc)" d="M0 0h48v81H0v-5h43V5H0V0z"/><path fill="url(#ld)" d="M38 71H0V53.12a14.91 14.91 0 004.106 2.446l.69 3.909c.052.293.187.562.389.773.2.21.458.351.738.404l.117.023a18.66 18.66 0 006.934 0l.118-.023c.279-.053.536-.194.738-.404.2-.21.336-.48.388-.773l.685-3.89a15.19 15.19 0 004.349-2.636l3.545 1.325c.268.099.557.11.831.033.274-.078.518-.241.702-.469l.078-.096a20.7 20.7 0 003.476-6.31l.039-.119a1.527 1.527 0 00-.415-1.604l-2.855-2.561a17.224 17.224 0 000-5.288l2.855-2.562a1.48 1.48 0 00.443-.74c.072-.288.06-.593-.037-.873l-.04-.119a20.54 20.54 0 00-3.474-6.31l-.079-.096a1.397 1.397 0 00-.702-.467 1.34 1.34 0 00-.83.032l-3.546 1.324a15.089 15.089 0 00-4.348-2.635l-.686-3.89a1.493 1.493 0 00-.388-.773 1.378 1.378 0 00-.738-.405l-.118-.023c-2.27-.43-4.663-.43-6.933 0l-.118.023c-.28.053-.537.194-.738.405-.201.21-.337.48-.389.773l-.69 3.908A15.254 15.254 0 000 27.872V10h38v61z"/><path fill="url(#le)" fill-rule="evenodd" d="M1.832 40.045c0 4.45 3.436 8.056 7.675 8.056 4.24 0 7.676-3.606 7.676-8.056 0-4.449-3.437-8.055-7.676-8.055-4.24 0-7.675 3.606-7.675 8.055zm4.222-3.624c.925-.972 2.148-1.503 3.453-1.503a4.648 4.648 0 011.87.388 4.85 4.85 0 011.584 1.115 5.235 5.235 0 011.432 3.624c0 1.37-.511 2.654-1.432 3.625-.926.967-2.149 1.503-3.454 1.503-1.305 0-2.528-.536-3.453-1.503a5.234 5.234 0 01-1.432-3.625c0-1.37.51-2.653 1.432-3.624z" clip-rule="evenodd"/><path fill="url(#lf)" d="M53 66.996C67.702 66.754 79.546 54.76 79.546 40c0-14.76-11.844-26.754-26.546-26.996V33.47a6.546 6.546 0 010 13.06v20.466z"/></g><filter id="lb" width="87.545" height="89" x="-4" y="0" color-interpolation-filters="sRGB" filterUnits="userSpaceOnUse"><feFlood flood-opacity="0" result="BackgroundImageFix"/><feColorMatrix in="SourceAlpha" result="hardAlpha" values="0 0 0 0 0 0 0 0 0 0 0 0 0 0 0 0 0 0 127 0"/><feOffset dy="4"/><feGaussianBlur stdDeviation="2"/><feColorMatrix values="0 0 0 0 0 0 0 0 0 0 0 0 0 0 0 0 0 0 0.25 0"/><feBlend in2="BackgroundImageFix" result="effect1_dropShadow_2800:107"/><feBlend in="SourceGraphic" in2="effect1_dropShadow_2800:107" result="shape"/></filter><linearGradient id="lc" x1="39.773" x2="39.773" y1="0" y2="81" gradientUnits="userSpaceOnUse"><stop stop-color="#00FBEE"/><stop offset="1" stop-color="#00FBEE" stop-opacity=".2"/></linearGradient><linearGradient id="ld" x1="39.773" x2="39.773" y1="0" y2="81" gradientUnits="userSpaceOnUse"><stop stop-color="#00FBEE"/><stop offset="1" stop-color="#00FBEE" stop-opacity=".2"/></linearGradient><linearGradient id="le" x1="39.773" x2="39.773" y1="0" y2="81" gradientUnits="userSpaceOnUse"><stop stop-color="#00FBEE"/><stop offset="1" stop-color="#00FBEE" stop-opacity=".2"/></linearGradient><linearGradient id="lf" x1="39.773" x2="39.773" y1="0" y2="81" gradientUnits="userSpaceOnUse"><stop stop-color="#00FBEE"/><stop offset="1" stop-color="#00FBEE" stop-opacity=".2"/></linearGradient><clipPath id="la"><path fill="#fff" d="M0 0h81v81H0z"/></clipPath></g></svg><svg fill="none" viewBox="0 0 20 20" id="yes" xmlns="http://www.w3.org/2000/svg"><path fill="#00FBEE" d="M14.83 4.89l1.34.94-5.81 8.38H9.02L5.78 9.67l1.34-1.25 2.57 2.4 5.14-5.93z"/></svg></svg>