<?xml version="1.0" encoding="utf-8"?><svg viewBox="0 0 81 81" xmlns="http://www.w3.org/2000/svg" xmlns:xlink="http://www.w3.org/1999/xlink"><style>:root>svg{display:none}:root>svg:target{display:block}</style><svg fill="none" viewBox="0 0 17 17" id="arrow" xmlns="http://www.w3.org/2000/svg"><path d="M8.813 3.937l4.027 4.032H2.125V9.03H12.84l-4.027 4.032.75.75L14.875 8.5 9.562 3.187l-.749.75z" fill="#00FBEE"/></svg><svg fill="none" viewBox="0 0 53 42" id="arrow-slider" xmlns="http://www.w3.org/2000/svg"><path d="M1 21h50m0 0L32.633 1M51 21L32.633 41" stroke="url(#bpaint0_linear_2778:133)" stroke-width="2" stroke-linecap="round"/><defs><linearGradient id="bpaint0_linear_2778:133" x1="1" y1="21" x2="51" y2="21" gradientUnits="userSpaceOnUse"><stop stop-color="#69D4CE" stop-opacity="0"/><stop offset="1" stop-color="#69D4CE"/></linearGradient></defs></svg><svg fill="none" viewBox="0 0 35 35" id="backdrop" xmlns="http://www.w3.org/2000/svg"><g filter="url(#cfilter0_b_2778:120)"><circle cx="17.5" cy="17.5" r="17.5" fill="#fff" fill-opacity=".25"/></g><defs><filter id="cfilter0_b_2778:120" x="-6" y="-6" width="47" height="47" filterUnits="userSpaceOnUse" color-interpolation-filters="sRGB"><feFlood flood-opacity="0" result="BackgroundImageFix"/><feGaussianBlur in="BackgroundImage" stdDeviation="3"/><feComposite in2="SourceAlpha" operator="in" result="effect1_backgroundBlur_2778:120"/><feBlend in="SourceGraphic" in2="effect1_backgroundBlur_2778:120" result="shape"/></filter></defs></svg><svg fill="none" viewBox="0 0 81 81" id="equalizer" xmlns="http://www.w3.org/2000/svg"><path d="M0 11.25h7.734v19.5H0v-19.5z" fill="url(#dpaint0_linear_2800:27)"/><path d="M58.266 50.25H66v19.5h-7.734v-19.5z" fill="url(#dpaint1_linear_2800:27)"/><path d="M29.133 30.75h7.734v19.5h-7.734v-19.5z" fill="url(#dpaint2_linear_2800:27)"/><path d="M5.8 46.35h19.466v-11.7H5.8C2.602 34.65 0 37.274 0 40.5c0 3.226 2.602 5.85 5.8 5.85z" fill="url(#dpaint3_linear_2800:27)"/><path d="M60.2 34.65H40.733v11.7H60.2c3.199 0 5.801-2.624 5.801-5.85 0-3.226-2.602-5.85-5.8-5.85z" fill="url(#dpaint4_linear_2800:27)"/><path d="M60.2 15.15H11.601v11.7h48.597C63.398 26.85 66 24.226 66 21c0-3.226-2.602-5.85-5.8-5.85z" fill="url(#dpaint5_linear_2800:27)"/><path d="M5.8 65.85h48.598v-11.7H5.801C2.602 54.15 0 56.774 0 60c0 3.226 2.602 5.85 5.8 5.85z" fill="url(#dpaint6_linear_2800:27)"/><defs><linearGradient id="dpaint0_linear_2800:27" x1="33" y1="11.25" x2="33" y2="69.75" gradientUnits="userSpaceOnUse"><stop stop-color="#00FBEE"/><stop offset="1" stop-color="#00FBEE" stop-opacity=".2"/></linearGradient><linearGradient id="dpaint1_linear_2800:27" x1="33" y1="11.25" x2="33" y2="69.75" gradientUnits="userSpaceOnUse"><stop stop-color="#00FBEE"/><stop offset="1" stop-color="#00FBEE" stop-opacity=".2"/></linearGradient><linearGradient id="dpaint2_linear_2800:27" x1="33" y1="11.25" x2="33" y2="69.75" gradientUnits="userSpaceOnUse"><stop stop-color="#00FBEE"/><stop offset="1" stop-color="#00FBEE" stop-opacity=".2"/></linearGradient><linearGradient id="dpaint3_linear_2800:27" x1="33" y1="11.25" x2="33" y2="69.75" gradientUnits="userSpaceOnUse"><stop stop-color="#00FBEE"/><stop offset="1" stop-color="#00FBEE" stop-opacity=".2"/></linearGradient><linearGradient id="dpaint4_linear_2800:27" x1="33" y1="11.25" x2="33" y2="69.75" gradientUnits="userSpaceOnUse"><stop stop-color="#00FBEE"/><stop offset="1" stop-color="#00FBEE" stop-opacity=".2"/></linearGradient><linearGradient id="dpaint5_linear_2800:27" x1="33" y1="11.25" x2="33" y2="69.75" gradientUnits="userSpaceOnUse"><stop stop-color="#00FBEE"/><stop offset="1" stop-color="#00FBEE" stop-opacity=".2"/></linearGradient><linearGradient id="dpaint6_linear_2800:27" x1="33" y1="11.25" x2="33" y2="69.75" gradientUnits="userSpaceOnUse"><stop stop-color="#00FBEE"/><stop offset="1" stop-color="#00FBEE" stop-opacity=".2"/></linearGradient></defs></svg><svg fill="none" viewBox="0 0 81 81" id="shield" xmlns="http://www.w3.org/2000/svg"><g clip-path="url(#eclip0_2800:42)"><path d="M14.488 26.28c.32 3.83 1.056 9.078 2.72 14.587 3.533 11.7 9.776 20.02 18.563 24.747 8.787-4.727 15.03-13.047 18.563-24.747 1.664-5.509 2.4-10.756 2.72-14.587L35.77 15.639 14.488 26.28z" fill="url(#epaint0_linear_2800:42)"/><path d="M71.501 18.93a2.373 2.373 0 00-1.308-1.999L36.832.251a2.373 2.373 0 00-2.123 0L1.348 16.93a2.373 2.373 0 00-1.308 2c-.026.485-.574 12.05 3.365 25.475 2.331 7.944 5.76 14.883 10.19 20.623 5.584 7.233 12.761 12.554 21.331 15.816a2.377 2.377 0 001.688 0c8.57-3.261 15.747-8.583 21.331-15.816 4.431-5.74 7.86-12.679 10.19-20.623 3.94-13.426 3.391-24.99 3.366-25.476zM36.822 70.412a2.372 2.372 0 01-2.103 0c-10.567-5.225-17.987-14.703-22.055-28.173-2.035-6.736-2.77-13.084-3.027-17.223a2.373 2.373 0 011.307-2.27L34.71 10.863a2.374 2.374 0 012.123 0l23.765 11.883a2.373 2.373 0 011.307 2.27c-.258 4.14-.992 10.487-3.027 17.224C54.81 55.707 47.39 65.186 36.822 70.412z" fill="url(#epaint1_linear_2800:42)"/></g><defs><linearGradient id="epaint0_linear_2800:42" x1="35.771" y1="15.639" x2="35.771" y2="65.614" gradientUnits="userSpaceOnUse"><stop stop-color="#00FBEE"/><stop offset="1" stop-color="#00FBEE" stop-opacity=".2"/></linearGradient><linearGradient id="epaint1_linear_2800:42" x1="35.77" y1="0" x2="35.77" y2="81" gradientUnits="userSpaceOnUse"><stop stop-color="#00FBEE"/><stop offset="1" stop-color="#00FBEE" stop-opacity=".2"/></linearGradient><clipPath id="eclip0_2800:42"><path fill="#fff" d="M0 0h81v81H0z"/></clipPath></defs></svg><svg fill="none" viewBox="0 0 81 81" id="soft" xmlns="http://www.w3.org/2000/svg"><g filter="url(#ffilter0_d_2800:107)" clip-path="url(#fclip0_2800:107)"><path d="M0 0h48v81H0v-5h43V5H0V0z" fill="url(#fpaint0_linear_2800:107)"/><path d="M38 71H0V53.12a14.91 14.91 0 004.106 2.446l.69 3.909c.052.293.187.562.389.773.2.21.458.351.738.404l.117.023a18.66 18.66 0 006.934 0l.118-.023c.279-.053.536-.194.738-.404.2-.21.336-.48.388-.773l.685-3.89a15.19 15.19 0 004.349-2.636l3.545 1.325c.268.099.557.11.831.033.274-.078.518-.241.702-.469l.078-.096a20.7 20.7 0 003.476-6.31l.039-.119a1.527 1.527 0 00-.415-1.604l-2.855-2.561a17.224 17.224 0 000-5.288l2.855-2.562a1.48 1.48 0 00.443-.74c.072-.288.06-.593-.037-.873l-.04-.119a20.54 20.54 0 00-3.474-6.31l-.079-.096a1.397 1.397 0 00-.702-.467 1.34 1.34 0 00-.83.032l-3.546 1.324a15.089 15.089 0 00-4.348-2.635l-.686-3.89a1.493 1.493 0 00-.388-.773 1.378 1.378 0 00-.738-.405l-.118-.023c-2.27-.43-4.663-.43-6.933 0l-.118.023c-.28.053-.537.194-.738.405-.201.21-.337.48-.389.773l-.69 3.908A15.254 15.254 0 000 27.872V10h38v61z" fill="url(#fpaint1_linear_2800:107)"/><path fill-rule="evenodd" clip-rule="evenodd" d="M1.832 40.045c0 4.45 3.436 8.056 7.675 8.056 4.24 0 7.676-3.606 7.676-8.056 0-4.449-3.437-8.055-7.676-8.055-4.24 0-7.675 3.606-7.675 8.055zm4.222-3.624c.925-.972 2.148-1.503 3.453-1.503a4.648 4.648 0 011.87.388c.593.258 1.131.637 1.584 1.115a5.235 5.235 0 011.432 3.624c0 1.37-.511 2.654-1.432 3.625-.926.967-2.149 1.503-3.454 1.503-1.305 0-2.528-.536-3.453-1.503a5.234 5.234 0 01-1.432-3.625c0-1.37.51-2.653 1.432-3.624z" fill="url(#fpaint2_linear_2800:107)"/><path d="M53 66.996C67.702 66.754 79.546 54.76 79.546 40c0-14.76-11.844-26.754-26.546-26.996V33.47a6.546 6.546 0 010 13.06v20.466z" fill="url(#fpaint3_linear_2800:107)"/></g><defs><linearGradient id="fpaint0_linear_2800:107" x1="39.773" y1="0" x2="39.773" y2="81" gradientUnits="userSpaceOnUse"><stop stop-color="#00FBEE"/><stop offset="1" stop-color="#00FBEE" stop-opacity=".2"/></linearGradient><linearGradient id="fpaint1_linear_2800:107" x1="39.773" y1="0" x2="39.773" y2="81" gradientUnits="userSpaceOnUse"><stop stop-color="#00FBEE"/><stop offset="1" stop-color="#00FBEE" stop-opacity=".2"/></linearGradient><linearGradient id="fpaint2_linear_2800:107" x1="39.773" y1="0" x2="39.773" y2="81" gradientUnits="userSpaceOnUse"><stop stop-color="#00FBEE"/><stop offset="1" stop-color="#00FBEE" stop-opacity=".2"/></linearGradient><linearGradient id="fpaint3_linear_2800:107" x1="39.773" y1="0" x2="39.773" y2="81" gradientUnits="userSpaceOnUse"><stop stop-color="#00FBEE"/><stop offset="1" stop-color="#00FBEE" stop-opacity=".2"/></linearGradient><clipPath id="fclip0_2800:107"><path fill="#fff" d="M0 0h81v81H0z"/></clipPath><filter id="ffilter0_d_2800:107" x="-4" y="0" width="87.545" height="89" filterUnits="userSpaceOnUse" color-interpolation-filters="sRGB"><feFlood flood-opacity="0" result="BackgroundImageFix"/><feColorMatrix in="SourceAlpha" values="0 0 0 0 0 0 0 0 0 0 0 0 0 0 0 0 0 0 127 0" result="hardAlpha"/><feOffset dy="4"/><feGaussianBlur stdDeviation="2"/><feColorMatrix values="0 0 0 0 0 0 0 0 0 0 0 0 0 0 0 0 0 0 0.25 0"/><feBlend in2="BackgroundImageFix" result="effect1_dropShadow_2800:107"/><feBlend in="SourceGraphic" in2="effect1_dropShadow_2800:107" result="shape"/></filter></defs></svg><svg fill="none" viewBox="0 0 20 20" id="yes" xmlns="http://www.w3.org/2000/svg"><path d="M14.83 4.89l1.34.94-5.81 8.38H9.02L5.78 9.67l1.34-1.25 2.57 2.4 5.14-5.93z" fill="#00FBEE"/></svg></svg>