<svg xmlns="http://www.w3.org/2000/svg" width="43" height="43" fill="none">
  <path fill="#252F37" fill-rule="evenodd" d="M40.132 12.713H2.745a1.87 1.87 0 0 1-.767-3.575L20.673.727a1.874 1.874 0 0 1 1.534 0l18.55 8.347a1.87 1.87 0 0 1-.607 3.639h-.018ZM5.083 33.088a1.87 1.87 0 1 0 0 3.74h32.714a1.87 1.87 0 0 0 0-3.74h-.467V16.262h.467a.933.933 0 1 0 0-1.868H5.083a.934.934 0 1 0 0 1.868h.468v16.825h-.468Zm28.508-16.826v16.825h-5.608V16.262h5.608Zm-9.348 0v16.825h-5.608V16.262h5.608Zm-14.954 0h5.607v16.825H9.29V16.262Zm30.844 21.686H2.745a1.87 1.87 0 1 0 0 3.74h37.387a1.87 1.87 0 1 0 0-3.74Z" clip-rule="evenodd"/>
  <path fill="url(#a)" fill-rule="evenodd" d="M40.132 12.713H2.745a1.87 1.87 0 0 1-.767-3.575L20.673.727a1.874 1.874 0 0 1 1.534 0l18.55 8.347a1.87 1.87 0 0 1-.607 3.639h-.018ZM5.083 33.088a1.87 1.87 0 1 0 0 3.74h32.714a1.87 1.87 0 0 0 0-3.74h-.467V16.262h.467a.933.933 0 1 0 0-1.868H5.083a.934.934 0 1 0 0 1.868h.468v16.825h-.468Zm28.508-16.826v16.825h-5.608V16.262h5.608Zm-9.348 0v16.825h-5.608V16.262h5.608Zm-14.954 0h5.607v16.825H9.29V16.262Zm30.844 21.686H2.745a1.87 1.87 0 1 0 0 3.74h37.387a1.87 1.87 0 1 0 0-3.74Z" clip-rule="evenodd"/>
  <path fill="url(#b)" fill-rule="evenodd" d="M40.132 12.713H2.745a1.87 1.87 0 0 1-.767-3.575L20.673.727a1.874 1.874 0 0 1 1.534 0l18.55 8.347a1.87 1.87 0 0 1-.607 3.639h-.018ZM5.083 33.088a1.87 1.87 0 1 0 0 3.74h32.714a1.87 1.87 0 0 0 0-3.74h-.467V16.262h.467a.933.933 0 1 0 0-1.868H5.083a.934.934 0 1 0 0 1.868h.468v16.825h-.468Zm28.508-16.826v16.825h-5.608V16.262h5.608Zm-9.348 0v16.825h-5.608V16.262h5.608Zm-14.954 0h5.607v16.825H9.29V16.262Zm30.844 21.686H2.745a1.87 1.87 0 1 0 0 3.74h37.387a1.87 1.87 0 1 0 0-3.74Z" clip-rule="evenodd"/>
  <defs>
    <linearGradient id="a" x1="6.587" x2="6.587" y1="-109.104" y2="86.24" gradientUnits="userSpaceOnUse">
      <stop stop-color="#fff"/>
      <stop offset="1" stop-color="#252F37"/>
    </linearGradient>
    <linearGradient id="b" x1="21.448" x2="21.448" y1=".563" y2="41.688" gradientUnits="userSpaceOnUse">
      <stop stop-color="#fff"/>
      <stop offset="1" stop-color="#fff" stop-opacity=".4"/>
    </linearGradient>
  </defs>
</svg>
