<svg xmlns="http://www.w3.org/2000/svg" fill="none" viewBox="0 0 42 42"><g clip-path="url(#a)"><path fill="url(#b)" d="M22.35 10.71v8.49h3.16a1.64 1.64 0 1 1 0 3.28h-3.16v8.73c0 1.83 1.49 3.33 3.33 3.33a1.64 1.64 0 1 1 0 3.28 6.62 6.62 0 0 1-6.61-6.61V10.7a6.62 6.62 0 0 1 6.6-6.6 1.64 1.64 0 1 1 0 3.27 3.33 3.33 0 0 0-3.32 3.33ZM42 20.84a5.91 5.91 0 1 1-11.83-.02 5.91 5.91 0 0 1 11.83.02Zm-3.28 0a2.63 2.63 0 1 0-5.26 0 2.63 2.63 0 0 0 5.26 0ZM30.19 5.9A5.91 5.91 0 1 1 42 5.92a5.91 5.91 0 0 1-11.82-.01Zm3.28 0a2.63 2.63 0 1 0 5.25-.01 2.63 2.63 0 0 0-5.25 0ZM15.59 20.97v6.92c0 .39-.13.74-.37 1.04-.1.13-2.59 3.42-2.59 9.5A3.65 3.65 0 0 1 8.9 42H6.69a3.65 3.65 0 0 1-3.73-3.56c0-6.18-2.56-9.48-2.59-9.51-.24-.3-.37-.66-.37-1.04v-6.92c0-4 3.26-7.27 7.27-7.27h1.04a7.28 7.28 0 0 1 7.28 7.27Zm-3.29 0a4 4 0 0 0-3.99-3.99H7.27a4 4 0 0 0-3.99 4v6.39c.87 1.3 2.96 5.06 2.96 11.07 0 .1.2.28.45.28h2.2c.25 0 .46-.17.46-.28 0-6.01 2.08-9.77 2.95-11.07v-6.4ZM2.13 5.57a5.58 5.58 0 1 1 11.17.02 5.58 5.58 0 0 1-11.17-.01Zm3.28 0a2.3 2.3 0 1 0 4.6 0 2.3 2.3 0 0 0-4.6 0ZM42 36.1a5.91 5.91 0 1 1-11.83-.01 5.91 5.91 0 0 1 11.83.01Zm-3.28 0a2.63 2.63 0 1 0-5.26.01 2.63 2.63 0 0 0 5.26 0Z"/></g><defs><linearGradient id="b" x1="21" x2="21" y1="0" y2="42" gradientUnits="userSpaceOnUse"><stop stop-color="#00E0FF"/><stop offset="1" stop-color="#00E0FF" stop-opacity=".4"/></linearGradient><clipPath id="a"><path fill="#fff" d="M0 0h42v42H0z"/></clipPath></defs></svg>
