<svg width="81" height="81" viewBox="0 0 81 81" fill="none" xmlns="http://www.w3.org/2000/svg">
<path d="M0 11.25H7.73438V30.75H0V11.25Z" fill="url(#paint0_linear_2800:27)"/>
<path d="M58.2656 50.25H66V69.75H58.2656V50.25Z" fill="url(#paint1_linear_2800:27)"/>
<path d="M29.1328 30.75H36.8672V50.25H29.1328V30.75Z" fill="url(#paint2_linear_2800:27)"/>
<path d="M5.80078 46.35H25.2656V34.65H5.80078C2.6021 34.65 0 37.2742 0 40.5C0 43.7258 2.6021 46.35 5.80078 46.35Z" fill="url(#paint3_linear_2800:27)"/>
<path d="M60.1992 34.65H40.7344V46.35H60.1992C63.3979 46.35 66 43.7258 66 40.5C66 37.2742 63.3979 34.65 60.1992 34.65Z" fill="url(#paint4_linear_2800:27)"/>
<path d="M60.1992 15.15H11.6016V26.85H60.1992C63.3979 26.85 66 24.2258 66 21C66 17.7742 63.3979 15.15 60.1992 15.15Z" fill="url(#paint5_linear_2800:27)"/>
<path d="M5.80078 65.85H54.3984V54.15H5.80078C2.6021 54.15 0 56.7742 0 60C0 63.2258 2.6021 65.85 5.80078 65.85Z" fill="url(#paint6_linear_2800:27)"/>
<defs>
<linearGradient id="paint0_linear_2800:27" x1="33" y1="11.25" x2="33" y2="69.75" gradientUnits="userSpaceOnUse">
<stop stop-color="#00FBEE"/>
<stop offset="1" stop-color="#00FBEE" stop-opacity="0.2"/>
</linearGradient>
<linearGradient id="paint1_linear_2800:27" x1="33" y1="11.25" x2="33" y2="69.75" gradientUnits="userSpaceOnUse">
<stop stop-color="#00FBEE"/>
<stop offset="1" stop-color="#00FBEE" stop-opacity="0.2"/>
</linearGradient>
<linearGradient id="paint2_linear_2800:27" x1="33" y1="11.25" x2="33" y2="69.75" gradientUnits="userSpaceOnUse">
<stop stop-color="#00FBEE"/>
<stop offset="1" stop-color="#00FBEE" stop-opacity="0.2"/>
</linearGradient>
<linearGradient id="paint3_linear_2800:27" x1="33" y1="11.25" x2="33" y2="69.75" gradientUnits="userSpaceOnUse">
<stop stop-color="#00FBEE"/>
<stop offset="1" stop-color="#00FBEE" stop-opacity="0.2"/>
</linearGradient>
<linearGradient id="paint4_linear_2800:27" x1="33" y1="11.25" x2="33" y2="69.75" gradientUnits="userSpaceOnUse">
<stop stop-color="#00FBEE"/>
<stop offset="1" stop-color="#00FBEE" stop-opacity="0.2"/>
</linearGradient>
<linearGradient id="paint5_linear_2800:27" x1="33" y1="11.25" x2="33" y2="69.75" gradientUnits="userSpaceOnUse">
<stop stop-color="#00FBEE"/>
<stop offset="1" stop-color="#00FBEE" stop-opacity="0.2"/>
</linearGradient>
<linearGradient id="paint6_linear_2800:27" x1="33" y1="11.25" x2="33" y2="69.75" gradientUnits="userSpaceOnUse">
<stop stop-color="#00FBEE"/>
<stop offset="1" stop-color="#00FBEE" stop-opacity="0.2"/>
</linearGradient>
</defs>
</svg>
