<svg xmlns="http://www.w3.org/2000/svg" width="20" height="15" fill="none">
  <path fill="currentColor" d="M10 3C5.64 3 2.374 5.856 1.172 7.083a.592.592 0 0 0 0 .834C2.374 9.144 5.64 12 10 12c4.36 0 7.627-2.856 8.828-4.083a.592.592 0 0 0 0-.834C17.626 5.856 14.36 3 10 3ZM5.979 5.138a4.712 4.712 0 0 0-.67 2.427c0 .806.202 1.575.567 2.249-1.472-.698-2.632-1.63-3.365-2.314.75-.7 1.946-1.66 3.468-2.362Zm2.411 5.5c-1.127-.595-1.825-1.766-1.825-3.073 0-1.492.918-2.804 2.286-3.275a8.787 8.787 0 0 1 2.013-.033c1.408.433 2.39 1.79 2.39 3.308 0 1.33-.747 2.545-1.91 3.118a8.835 8.835 0 0 1-1.344.104 8.883 8.883 0 0 1-1.61-.149Zm5.48-.708a4.7 4.7 0 0 0 .639-2.365c0-.913-.256-1.785-.742-2.54 1.643.708 2.93 1.737 3.722 2.475-.774.723-2.025 1.723-3.619 2.43Z"/>
  <path fill="currentColor" d="M11 7.5A1.5 1.5 0 0 1 9.5 6 1.5 1.5 0 1 0 11 7.5Z"/>
</svg>
