<svg xmlns="http://www.w3.org/2000/svg" width="42" height="42" fill="none">
  <path fill="#000" d="M26.572 16.946a1.572 1.572 0 0 1-1.553-1.343c-.313-2.12-.81-4.253-1.52-6.52a1.572 1.572 0 1 1 3-.94c.76 2.426 1.294 4.716 1.63 7.002a1.572 1.572 0 0 1-1.557 1.801Zm-4.089 2.044h-7.582c.214-3.976 1.187-7.501 1.941-9.907a1.572 1.572 0 0 0-3-.94c-.818 2.609-1.876 6.454-2.09 10.847h-3.89a1.572 1.572 0 1 0 0 3.145h3.89c.213 4.394 1.264 8.237 2.076 10.845a1.573 1.573 0 0 0 3.003-.936c-.75-2.405-1.717-5.93-1.93-9.91h7.582a1.572 1.572 0 1 0 0-3.144Zm15.945-1.865a1.572 1.572 0 0 1-1.934-1.096C34.469 8.7 27.738 3.582 20.125 3.582c-9.363 0-16.98 7.617-16.98 16.98 0 9.21 7.205 16.665 16.404 16.971a1.572 1.572 0 1 1-.105 3.143 20.016 20.016 0 0 1-13.772-6.11A20.02 20.02 0 0 1 0 20.563a19.993 19.993 0 0 1 5.894-14.23A19.993 19.993 0 0 1 20.125.438c4.492 0 8.742 1.447 12.29 4.187a20.257 20.257 0 0 1 7.11 10.566 1.572 1.572 0 0 1-1.097 1.934Zm-6.432 1a5.903 5.903 0 0 0-5.896 5.896 5.903 5.903 0 0 0 5.896 5.896 5.903 5.903 0 0 0 5.896-5.896 5.903 5.903 0 0 0-5.896-5.896Zm0 8.648a2.755 2.755 0 0 1-2.752-2.752 2.755 2.755 0 0 1 2.752-2.751 2.755 2.755 0 0 1 2.751 2.752 2.755 2.755 0 0 1-2.751 2.75Zm8.254 12.342c0-4.248-3.449-7.704-7.688-7.704h-1.133c-4.239 0-7.688 3.456-7.688 7.704a1.572 1.572 0 1 0 3.145 0c0-2.514 2.038-4.56 4.543-4.56h1.133c2.505 0 4.544 2.046 4.544 4.56a1.572 1.572 0 1 0 3.144 0Z"/>
  <path fill="url(#a)" d="M26.572 16.946a1.572 1.572 0 0 1-1.553-1.343c-.313-2.12-.81-4.253-1.52-6.52a1.572 1.572 0 1 1 3-.94c.76 2.426 1.294 4.716 1.63 7.002a1.572 1.572 0 0 1-1.557 1.801Zm-4.089 2.044h-7.582c.214-3.976 1.187-7.501 1.941-9.907a1.572 1.572 0 0 0-3-.94c-.818 2.609-1.876 6.454-2.09 10.847h-3.89a1.572 1.572 0 1 0 0 3.145h3.89c.213 4.394 1.264 8.237 2.076 10.845a1.573 1.573 0 0 0 3.003-.936c-.75-2.405-1.717-5.93-1.93-9.91h7.582a1.572 1.572 0 1 0 0-3.144Zm15.945-1.865a1.572 1.572 0 0 1-1.934-1.096C34.469 8.7 27.738 3.582 20.125 3.582c-9.363 0-16.98 7.617-16.98 16.98 0 9.21 7.205 16.665 16.404 16.971a1.572 1.572 0 1 1-.105 3.143 20.016 20.016 0 0 1-13.772-6.11A20.02 20.02 0 0 1 0 20.563a19.993 19.993 0 0 1 5.894-14.23A19.993 19.993 0 0 1 20.125.438c4.492 0 8.742 1.447 12.29 4.187a20.257 20.257 0 0 1 7.11 10.566 1.572 1.572 0 0 1-1.097 1.934Zm-6.432 1a5.903 5.903 0 0 0-5.896 5.896 5.903 5.903 0 0 0 5.896 5.896 5.903 5.903 0 0 0 5.896-5.896 5.903 5.903 0 0 0-5.896-5.896Zm0 8.648a2.755 2.755 0 0 1-2.752-2.752 2.755 2.755 0 0 1 2.752-2.751 2.755 2.755 0 0 1 2.751 2.752 2.755 2.755 0 0 1-2.751 2.75Zm8.254 12.342c0-4.248-3.449-7.704-7.688-7.704h-1.133c-4.239 0-7.688 3.456-7.688 7.704a1.572 1.572 0 1 0 3.145 0c0-2.514 2.038-4.56 4.543-4.56h1.133c2.505 0 4.544 2.046 4.544 4.56a1.572 1.572 0 1 0 3.144 0Z"/>
  <path fill="url(#b)" d="M26.572 16.946a1.572 1.572 0 0 1-1.553-1.343c-.313-2.12-.81-4.253-1.52-6.52a1.572 1.572 0 1 1 3-.94c.76 2.426 1.294 4.716 1.63 7.002a1.572 1.572 0 0 1-1.557 1.801Zm-4.089 2.044h-7.582c.214-3.976 1.187-7.501 1.941-9.907a1.572 1.572 0 0 0-3-.94c-.818 2.609-1.876 6.454-2.09 10.847h-3.89a1.572 1.572 0 1 0 0 3.145h3.89c.213 4.394 1.264 8.237 2.076 10.845a1.573 1.573 0 0 0 3.003-.936c-.75-2.405-1.717-5.93-1.93-9.91h7.582a1.572 1.572 0 1 0 0-3.144Zm15.945-1.865a1.572 1.572 0 0 1-1.934-1.096C34.469 8.7 27.738 3.582 20.125 3.582c-9.363 0-16.98 7.617-16.98 16.98 0 9.21 7.205 16.665 16.404 16.971a1.572 1.572 0 1 1-.105 3.143 20.016 20.016 0 0 1-13.772-6.11A20.02 20.02 0 0 1 0 20.563a19.993 19.993 0 0 1 5.894-14.23A19.993 19.993 0 0 1 20.125.438c4.492 0 8.742 1.447 12.29 4.187a20.257 20.257 0 0 1 7.11 10.566 1.572 1.572 0 0 1-1.097 1.934Zm-6.432 1a5.903 5.903 0 0 0-5.896 5.896 5.903 5.903 0 0 0 5.896 5.896 5.903 5.903 0 0 0 5.896-5.896 5.903 5.903 0 0 0-5.896-5.896Zm0 8.648a2.755 2.755 0 0 1-2.752-2.752 2.755 2.755 0 0 1 2.752-2.751 2.755 2.755 0 0 1 2.751 2.752 2.755 2.755 0 0 1-2.751 2.75Zm8.254 12.342c0-4.248-3.449-7.704-7.688-7.704h-1.133c-4.239 0-7.688 3.456-7.688 7.704a1.572 1.572 0 1 0 3.145 0c0-2.514 2.038-4.56 4.543-4.56h1.133c2.505 0 4.544 2.046 4.544 4.56a1.572 1.572 0 1 0 3.144 0Z"/>
  <defs>
    <linearGradient id="a" x1="5.588" x2="5.588" y1="-106.896" y2="84.291" gradientUnits="userSpaceOnUse">
      <stop stop-color="#6BCAE7"/>
      <stop offset="1" stop-color="#004356"/>
    </linearGradient>
    <linearGradient id="b" x1="20.125" x2="20.125" y1=".438" y2="40.688" gradientUnits="userSpaceOnUse">
      <stop stop-color="#05D3B4"/>
      <stop offset="1" stop-color="#05D3B4" stop-opacity=".4"/>
    </linearGradient>
  </defs>
</svg>
