<svg xmlns="http://www.w3.org/2000/svg" width="42" height="42" fill="none">
  <path fill="url(#a)" d="M33.75 12.6c0-1.909-1.303-3.507-3.07-4.015l-2.784-7.23a2.104 2.104 0 0 0-.78-.983A2.143 2.143 0 0 0 25.912 0H13.964c-.43 0-.851.13-1.206.372a2.104 2.104 0 0 0-.779.982l-2.783 7.23a4.243 4.243 0 0 0-2.213 1.502 4.16 4.16 0 0 0-.858 2.514v16.8c0 1.909 1.303 3.507 3.07 4.015l2.784 7.23c.153.398.425.741.78.983.354.242.774.372 1.205.372H25.91c.882 0 1.672-.54 1.987-1.355l2.783-7.23a4.243 4.243 0 0 0 2.213-1.501 4.16 4.16 0 0 0 .858-2.514v-4.2h2.125v-8.4H33.75v-4.2Zm-4.246 16.8H10.375V12.6H29.5l.004 16.8Z"/>
  <defs>
    <linearGradient id="a" x1="21" x2="21" y1="0" y2="42" gradientUnits="userSpaceOnUse">
      <stop stop-color="#fff"/>
      <stop offset="1" stop-color="#fff" stop-opacity="0"/>
    </linearGradient>
  </defs>
</svg>
