<svg xmlns="http://www.w3.org/2000/svg" fill="none" viewBox="0 0 42 42"><path fill="url(#a)" d="M19.37 11.03a26.1 26.1 0 0 0 9.04 1.45c3.39 0 6.6-.51 9.04-1.45C41.4 9.51 42 7.4 42 6.26c0-1.13-.6-3.25-4.55-4.77A26.1 26.1 0 0 0 28.4.04c-3.4 0-6.6.51-9.04 1.45-3.96 1.52-4.56 3.64-4.56 4.77 0 1.13.6 3.25 4.56 4.77Zm1.17-6.48a23.13 23.13 0 0 1 7.87-1.24c2.95 0 5.82.45 7.86 1.24 1.86.7 2.45 1.46 2.45 1.71s-.6 1-2.45 1.71a23.13 23.13 0 0 1-7.86 1.24c-2.96 0-5.82-.45-7.87-1.24-1.85-.7-2.45-1.46-2.45-1.7 0-.26.6-1.01 2.45-1.72Zm21.24 32.9c.37.82 0 1.8-.82 2.16-3.42 1.52-7.88 2.35-12.61 2.35h-.53a1.64 1.64 0 1 1 .04-3.28c4.4.06 8.7-.7 11.76-2.06.83-.37 1.8 0 2.16.83Zm0-7.3c.37.84 0 1.8-.82 2.17a29.03 29.03 0 0 1-9.12 2.2 1.64 1.64 0 0 1-.15-3.28c3.03-.28 5.77-.94 7.93-1.9.83-.38 1.8 0 2.16.82Zm0-7.36c.37.83 0 1.8-.82 2.16a28.62 28.62 0 0 1-8.62 2.14 1.64 1.64 0 0 1-.17-3.26c2.83-.31 5.4-.96 7.45-1.87.83-.37 1.8 0 2.16.83Zm-.82-5.29c-3 1.34-6.94 2.16-11.1 2.32h-.06a1.64 1.64 0 0 1-.06-3.27c3.75-.14 7.26-.87 9.88-2.04a1.64 1.64 0 1 1 1.34 3Zm-27.04-3.38A13.94 13.94 0 0 0 0 28.04c0 7.68 6.24 13.92 13.92 13.92s13.92-6.24 13.92-13.92c0-7.67-6.24-13.92-13.92-13.92Zm0 24.57a10.66 10.66 0 0 1 0-21.3 10.66 10.66 0 0 1 0 21.3Zm4.59-8.2a4.1 4.1 0 0 1-2.7 3.85v.25a1.64 1.64 0 1 1-3.28 0v-.21c-.67-.14-1.41-.34-2.16-.64a1.64 1.64 0 0 1 1.2-3.04 8.7 8.7 0 0 0 2.8.62c.47 0 .86-.38.86-.82 0-.44-.52-.82-1.15-.82-2.66 0-4.66-1.76-4.66-4.1a4.1 4.1 0 0 1 3.1-3.97v-.12a1.64 1.64 0 1 1 3.28 0v.3c.42.11.9.26 1.42.47a1.64 1.64 0 1 1-1.2 3.05 6.46 6.46 0 0 0-2.5-.54.82.82 0 0 0-.83.82c0 .46.6.82 1.4.82 1.15 0 2.23.4 3.06 1.13a3.98 3.98 0 0 1 1.36 2.96Z"/><path fill="url(#b)" d="M19.37 11.03a26.1 26.1 0 0 0 9.04 1.45c3.39 0 6.6-.51 9.04-1.45C41.4 9.51 42 7.4 42 6.26c0-1.13-.6-3.25-4.55-4.77A26.1 26.1 0 0 0 28.4.04c-3.4 0-6.6.51-9.04 1.45-3.96 1.52-4.56 3.64-4.56 4.77 0 1.13.6 3.25 4.56 4.77Zm1.17-6.48a23.13 23.13 0 0 1 7.87-1.24c2.95 0 5.82.45 7.86 1.24 1.86.7 2.45 1.46 2.45 1.71s-.6 1-2.45 1.71a23.13 23.13 0 0 1-7.86 1.24c-2.96 0-5.82-.45-7.87-1.24-1.85-.7-2.45-1.46-2.45-1.7 0-.26.6-1.01 2.45-1.72Zm21.24 32.9c.37.82 0 1.8-.82 2.16-3.42 1.52-7.88 2.35-12.61 2.35h-.53a1.64 1.64 0 1 1 .04-3.28c4.4.06 8.7-.7 11.76-2.06.83-.37 1.8 0 2.16.83Zm0-7.3c.37.84 0 1.8-.82 2.17a29.03 29.03 0 0 1-9.12 2.2 1.64 1.64 0 0 1-.15-3.28c3.03-.28 5.77-.94 7.93-1.9.83-.38 1.8 0 2.16.82Zm0-7.36c.37.83 0 1.8-.82 2.16a28.62 28.62 0 0 1-8.62 2.14 1.64 1.64 0 0 1-.17-3.26c2.83-.31 5.4-.96 7.45-1.87.83-.37 1.8 0 2.16.83Zm-.82-5.29c-3 1.34-6.94 2.16-11.1 2.32h-.06a1.64 1.64 0 0 1-.06-3.27c3.75-.14 7.26-.87 9.88-2.04a1.64 1.64 0 1 1 1.34 3Zm-27.04-3.38A13.94 13.94 0 0 0 0 28.04c0 7.68 6.24 13.92 13.92 13.92s13.92-6.24 13.92-13.92c0-7.67-6.24-13.92-13.92-13.92Zm0 24.57a10.66 10.66 0 0 1 0-21.3 10.66 10.66 0 0 1 0 21.3Zm4.59-8.2a4.1 4.1 0 0 1-2.7 3.85v.25a1.64 1.64 0 1 1-3.28 0v-.21c-.67-.14-1.41-.34-2.16-.64a1.64 1.64 0 0 1 1.2-3.04 8.7 8.7 0 0 0 2.8.62c.47 0 .86-.38.86-.82 0-.44-.52-.82-1.15-.82-2.66 0-4.66-1.76-4.66-4.1a4.1 4.1 0 0 1 3.1-3.97v-.12a1.64 1.64 0 1 1 3.28 0v.3c.42.11.9.26 1.42.47a1.64 1.64 0 1 1-1.2 3.05 6.46 6.46 0 0 0-2.5-.54.82.82 0 0 0-.83.82c0 .46.6.82 1.4.82 1.15 0 2.23.4 3.06 1.13a3.98 3.98 0 0 1 1.36 2.96Z"/><path fill="url(#c)" d="M19.37 11.03a26.1 26.1 0 0 0 9.04 1.45c3.39 0 6.6-.51 9.04-1.45C41.4 9.51 42 7.4 42 6.26c0-1.13-.6-3.25-4.55-4.77A26.1 26.1 0 0 0 28.4.04c-3.4 0-6.6.51-9.04 1.45-3.96 1.52-4.56 3.64-4.56 4.77 0 1.13.6 3.25 4.56 4.77Zm1.17-6.48a23.13 23.13 0 0 1 7.87-1.24c2.95 0 5.82.45 7.86 1.24 1.86.7 2.45 1.46 2.45 1.71s-.6 1-2.45 1.71a23.13 23.13 0 0 1-7.86 1.24c-2.96 0-5.82-.45-7.87-1.24-1.85-.7-2.45-1.46-2.45-1.7 0-.26.6-1.01 2.45-1.72Zm21.24 32.9c.37.82 0 1.8-.82 2.16-3.42 1.52-7.88 2.35-12.61 2.35h-.53a1.64 1.64 0 1 1 .04-3.28c4.4.06 8.7-.7 11.76-2.06.83-.37 1.8 0 2.16.83Zm0-7.3c.37.84 0 1.8-.82 2.17a29.03 29.03 0 0 1-9.12 2.2 1.64 1.64 0 0 1-.15-3.28c3.03-.28 5.77-.94 7.93-1.9.83-.38 1.8 0 2.16.82Zm0-7.36c.37.83 0 1.8-.82 2.16a28.62 28.62 0 0 1-8.62 2.14 1.64 1.64 0 0 1-.17-3.26c2.83-.31 5.4-.96 7.45-1.87.83-.37 1.8 0 2.16.83Zm-.82-5.29c-3 1.34-6.94 2.16-11.1 2.32h-.06a1.64 1.64 0 0 1-.06-3.27c3.75-.14 7.26-.87 9.88-2.04a1.64 1.64 0 1 1 1.34 3Zm-27.04-3.38A13.94 13.94 0 0 0 0 28.04c0 7.68 6.24 13.92 13.92 13.92s13.92-6.24 13.92-13.92c0-7.67-6.24-13.92-13.92-13.92Zm0 24.57a10.66 10.66 0 0 1 0-21.3 10.66 10.66 0 0 1 0 21.3Zm4.59-8.2a4.1 4.1 0 0 1-2.7 3.85v.25a1.64 1.64 0 1 1-3.28 0v-.21c-.67-.14-1.41-.34-2.16-.64a1.64 1.64 0 0 1 1.2-3.04 8.7 8.7 0 0 0 2.8.62c.47 0 .86-.38.86-.82 0-.44-.52-.82-1.15-.82-2.66 0-4.66-1.76-4.66-4.1a4.1 4.1 0 0 1 3.1-3.97v-.12a1.64 1.64 0 1 1 3.28 0v.3c.42.11.9.26 1.42.47a1.64 1.64 0 1 1-1.2 3.05 6.46 6.46 0 0 0-2.5-.54.82.82 0 0 0-.83.82c0 .46.6.82 1.4.82 1.15 0 2.23.4 3.06 1.13a3.98 3.98 0 0 1 1.36 2.96Z"/><defs><linearGradient id="a" x1="5.83" x2="5.83" y1="-111.76" y2="87.38" gradientUnits="userSpaceOnUse"><stop stop-color="#6BCAE7"/><stop offset="1" stop-color="#004356"/></linearGradient><linearGradient id="b" x1="21" x2="21" y1=".04" y2="41.96" gradientUnits="userSpaceOnUse"><stop stop-color="#69D4CE"/><stop offset="1" stop-color="#69D4CE" stop-opacity=".4"/></linearGradient><linearGradient id="c" x1="21" x2="21" y1=".04" y2="41.96" gradientUnits="userSpaceOnUse"><stop stop-color="#00E0FF"/><stop offset="1" stop-color="#00E0FF" stop-opacity=".4"/></linearGradient></defs></svg>
