<svg xmlns="http://www.w3.org/2000/svg" width="48" height="48" fill="none">
  <g clip-path="url(#a)">
    <path fill="url(#b)" d="M42.24 20.252h-8.734a5.764 5.764 0 0 1-5.758-5.758V5.76c0-1.847.852-3.533 2.338-4.629a5.727 5.727 0 0 1 5.14-.867A19.034 19.034 0 0 1 43.03 4.97a19.036 19.036 0 0 1 4.706 7.804 5.728 5.728 0 0 1-.867 5.14 5.696 5.696 0 0 1-4.629 2.338ZM33.507 3.753c-.425 0-.842.135-1.196.397-.517.38-.813.967-.813 1.61v8.734a2.01 2.01 0 0 0 2.008 2.008h8.734c.643 0 1.23-.296 1.61-.813a2.013 2.013 0 0 0 .304-1.807 15.268 15.268 0 0 0-3.776-6.26 15.27 15.27 0 0 0-6.26-3.776 2.064 2.064 0 0 0-.61-.093ZM22.125 48c-5.925 0-11.486-2.297-15.656-6.468C2.297 37.362 0 31.802 0 25.877a22.18 22.18 0 0 1 4.881-13.863 22.215 22.215 0 0 1 12.236-7.691 5.58 5.58 0 0 1 4.755 1.076 5.601 5.601 0 0 1 2.127 4.407v12.322c0 1.034.84 1.875 1.875 1.875h12.321c1.727 0 3.333.775 4.408 2.127a5.58 5.58 0 0 1 1.075 4.755 22.217 22.217 0 0 1-7.691 12.235A22.181 22.181 0 0 1 22.124 48ZM18.383 7.927c-.14 0-.28.016-.42.048C9.593 9.912 3.75 17.273 3.75 25.876c0 4.924 1.907 9.543 5.369 13.005 3.463 3.462 8.081 5.37 13.005 5.37 8.603 0 15.964-5.845 17.901-14.213a1.85 1.85 0 0 0-.358-1.576 1.871 1.871 0 0 0-1.472-.71H25.874a5.631 5.631 0 0 1-5.625-5.625V9.805c0-.576-.26-1.113-.71-1.472a1.853 1.853 0 0 0-1.156-.406Z"/>
    <path fill="url(#c)" d="M42.24 20.252h-8.734a5.764 5.764 0 0 1-5.758-5.758V5.76c0-1.847.852-3.533 2.338-4.629a5.727 5.727 0 0 1 5.14-.867A19.034 19.034 0 0 1 43.03 4.97a19.036 19.036 0 0 1 4.706 7.804 5.728 5.728 0 0 1-.867 5.14 5.696 5.696 0 0 1-4.629 2.338ZM33.507 3.753c-.425 0-.842.135-1.196.397-.517.38-.813.967-.813 1.61v8.734a2.01 2.01 0 0 0 2.008 2.008h8.734c.643 0 1.23-.296 1.61-.813a2.013 2.013 0 0 0 .304-1.807 15.268 15.268 0 0 0-3.776-6.26 15.27 15.27 0 0 0-6.26-3.776 2.064 2.064 0 0 0-.61-.093ZM22.125 48c-5.925 0-11.486-2.297-15.656-6.468C2.297 37.362 0 31.802 0 25.877a22.18 22.18 0 0 1 4.881-13.863 22.215 22.215 0 0 1 12.236-7.691 5.58 5.58 0 0 1 4.755 1.076 5.601 5.601 0 0 1 2.127 4.407v12.322c0 1.034.84 1.875 1.875 1.875h12.321c1.727 0 3.333.775 4.408 2.127a5.58 5.58 0 0 1 1.075 4.755 22.217 22.217 0 0 1-7.691 12.235A22.181 22.181 0 0 1 22.124 48ZM18.383 7.927c-.14 0-.28.016-.42.048C9.593 9.912 3.75 17.273 3.75 25.876c0 4.924 1.907 9.543 5.369 13.005 3.463 3.462 8.081 5.37 13.005 5.37 8.603 0 15.964-5.845 17.901-14.213a1.85 1.85 0 0 0-.358-1.576 1.871 1.871 0 0 0-1.472-.71H25.874a5.631 5.631 0 0 1-5.625-5.625V9.805c0-.576-.26-1.113-.71-1.472a1.853 1.853 0 0 0-1.156-.406Z"/>
  </g>
  <defs>
    <linearGradient id="b" x1="6.664" x2="6.664" y1="-128" y2="100" gradientUnits="userSpaceOnUse">
      <stop stop-color="#6BCAE7"/>
      <stop offset="1" stop-color="#004356"/>
    </linearGradient>
    <linearGradient id="c" x1="24" x2="24" y1="0" y2="48" gradientUnits="userSpaceOnUse">
      <stop stop-color="#00FAED"/>
      <stop offset="1" stop-color="#00FAED" stop-opacity=".4"/>
    </linearGradient>
    <clipPath id="a">
      <path fill="#fff" d="M0 0h48v48H0z"/>
    </clipPath>
  </defs>
</svg>
