<svg xmlns="http://www.w3.org/2000/svg" width="81" height="81" fill="none">
  <g clip-path="url(#a)">
    <path fill="url(#b)" d="M14.488 26.28c.32 3.83 1.056 9.078 2.72 14.587 3.533 11.7 9.776 20.02 18.563 24.747 8.787-4.727 15.03-13.047 18.563-24.747 1.664-5.509 2.4-10.756 2.72-14.587L35.77 15.639 14.488 26.28Z"/>
    <path fill="url(#c)" d="M71.501 18.93a2.373 2.373 0 0 0-1.308-1.999L36.832.251a2.373 2.373 0 0 0-2.123 0L1.348 16.93a2.373 2.373 0 0 0-1.308 2c-.026.485-.574 12.05 3.365 25.475 2.331 7.944 5.76 14.883 10.19 20.623 5.584 7.233 12.761 12.554 21.331 15.816a2.377 2.377 0 0 0 1.688 0c8.57-3.261 15.747-8.583 21.331-15.816 4.431-5.74 7.86-12.679 10.19-20.623 3.94-13.426 3.391-24.99 3.366-25.476ZM36.822 70.412a2.372 2.372 0 0 1-2.103 0c-10.567-5.225-17.987-14.703-22.055-28.173-2.035-6.736-2.77-13.084-3.027-17.223a2.373 2.373 0 0 1 1.307-2.27L34.71 10.863a2.374 2.374 0 0 1 2.123 0l23.765 11.883a2.373 2.373 0 0 1 1.307 2.27c-.258 4.14-.992 10.487-3.027 17.224C54.81 55.707 47.39 65.186 36.822 70.412Z"/>
  </g>
  <defs>
    <linearGradient id="b" x1="35.771" x2="35.771" y1="15.639" y2="65.614" gradientUnits="userSpaceOnUse">
      <stop stop-color="#00FBEE"/>
      <stop offset="1" stop-color="#00FBEE" stop-opacity=".2"/>
    </linearGradient>
    <linearGradient id="c" x1="35.77" x2="35.77" y1="0" y2="81" gradientUnits="userSpaceOnUse">
      <stop stop-color="#00FBEE"/>
      <stop offset="1" stop-color="#00FBEE" stop-opacity=".2"/>
    </linearGradient>
    <clipPath id="a">
      <path fill="#fff" d="M0 0h81v81H0z"/>
    </clipPath>
  </defs>
</svg>
