<svg xmlns="http://www.w3.org/2000/svg" width="81" height="81" fill="none">
  <g clip-path="url(#a)">
    <g filter="url(#b)">
      <path fill="url(#c)" d="M0 0h48v81H0v-5h43V5H0V0Z"/>
      <path fill="url(#d)" d="M38 71H0V53.12a14.91 14.91 0 0 0 4.106 2.446l.69 3.909c.052.293.187.562.389.773.2.21.458.351.738.404l.117.023a18.66 18.66 0 0 0 6.934 0l.118-.023c.279-.053.536-.194.738-.404.2-.21.336-.48.388-.773l.685-3.89a15.19 15.19 0 0 0 4.349-2.636l3.545 1.325c.268.099.557.11.831.033.274-.078.518-.241.702-.469l.078-.096a20.7 20.7 0 0 0 3.476-6.31l.039-.119a1.527 1.527 0 0 0-.415-1.604l-2.855-2.561a17.224 17.224 0 0 0 0-5.288l2.855-2.562a1.48 1.48 0 0 0 .443-.74c.072-.288.06-.593-.037-.873l-.04-.119a20.54 20.54 0 0 0-3.474-6.31l-.079-.096a1.397 1.397 0 0 0-.702-.467 1.34 1.34 0 0 0-.83.032l-3.546 1.324a15.089 15.089 0 0 0-4.348-2.635l-.686-3.89a1.493 1.493 0 0 0-.388-.773 1.378 1.378 0 0 0-.738-.405l-.118-.023c-2.27-.43-4.663-.43-6.933 0l-.118.023c-.28.053-.537.194-.738.405-.201.21-.337.48-.389.773l-.69 3.908A15.254 15.254 0 0 0 0 27.872V10h38v61Z"/>
      <path fill="url(#e)" fill-rule="evenodd" d="M1.832 40.045c0 4.45 3.436 8.056 7.675 8.056 4.24 0 7.676-3.606 7.676-8.056 0-4.449-3.437-8.055-7.676-8.055-4.24 0-7.675 3.606-7.675 8.055Zm4.222-3.624c.925-.972 2.148-1.503 3.453-1.503a4.648 4.648 0 0 1 1.87.388 4.85 4.85 0 0 1 1.584 1.115 5.235 5.235 0 0 1 1.432 3.624c0 1.37-.511 2.654-1.432 3.625-.926.967-2.149 1.503-3.454 1.503-1.305 0-2.528-.536-3.453-1.503a5.234 5.234 0 0 1-1.432-3.625c0-1.37.51-2.653 1.432-3.624Z" clip-rule="evenodd"/>
      <path fill="url(#f)" d="M53 66.996C67.702 66.754 79.546 54.76 79.546 40c0-14.76-11.844-26.754-26.546-26.996V33.47a6.546 6.546 0 0 1 0 13.06v20.466Z"/>
    </g>
    <filter id="b" width="87.545" height="89" x="-4" y="0" color-interpolation-filters="sRGB" filterUnits="userSpaceOnUse">
      <feFlood flood-opacity="0" result="BackgroundImageFix"/>
      <feColorMatrix in="SourceAlpha" result="hardAlpha" values="0 0 0 0 0 0 0 0 0 0 0 0 0 0 0 0 0 0 127 0"/>
      <feOffset dy="4"/>
      <feGaussianBlur stdDeviation="2"/>
      <feColorMatrix values="0 0 0 0 0 0 0 0 0 0 0 0 0 0 0 0 0 0 0.25 0"/>
      <feBlend in2="BackgroundImageFix" result="effect1_dropShadow_2800:107"/>
      <feBlend in="SourceGraphic" in2="effect1_dropShadow_2800:107" result="shape"/>
    </filter>
    <linearGradient id="c" x1="39.773" x2="39.773" y1="0" y2="81" gradientUnits="userSpaceOnUse">
      <stop stop-color="#00FBEE"/>
      <stop offset="1" stop-color="#00FBEE" stop-opacity=".2"/>
    </linearGradient>
    <linearGradient id="d" x1="39.773" x2="39.773" y1="0" y2="81" gradientUnits="userSpaceOnUse">
      <stop stop-color="#00FBEE"/>
      <stop offset="1" stop-color="#00FBEE" stop-opacity=".2"/>
    </linearGradient>
    <linearGradient id="e" x1="39.773" x2="39.773" y1="0" y2="81" gradientUnits="userSpaceOnUse">
      <stop stop-color="#00FBEE"/>
      <stop offset="1" stop-color="#00FBEE" stop-opacity=".2"/>
    </linearGradient>
    <linearGradient id="f" x1="39.773" x2="39.773" y1="0" y2="81" gradientUnits="userSpaceOnUse">
      <stop stop-color="#00FBEE"/>
      <stop offset="1" stop-color="#00FBEE" stop-opacity=".2"/>
    </linearGradient>
    <clipPath id="a">
      <path fill="#fff" d="M0 0h81v81H0z"/>
    </clipPath>
  </g>
</svg>
