<svg width="25" height="25" viewBox="0 0 25 25" fill="none" xmlns="http://www.w3.org/2000/svg">
<g clip-path="url(#clip0)">
<path d="M12.5 0.499756C5.8725 0.499756 0.5 5.87226 0.5 12.4998C0.5 19.1273 5.8725 24.4998 12.5 24.4998C19.1275 24.4998 24.5 19.1273 24.5 12.4998C24.5 5.87226 19.1275 0.499756 12.5 0.499756ZM15.3425 8.79226H13.5388C13.325 8.79226 13.0875 9.07351 13.0875 9.44726V10.7498H15.3438L15.0025 12.6073H13.0875V18.1835H10.9588V12.6073H9.0275V10.7498H10.9588V9.65726C10.9588 8.08976 12.0463 6.81601 13.5388 6.81601H15.3425V8.79226Z" fill="currentColor"/>
</g>
<defs>
<clipPath id="clip0">
<rect width="25" height="25" fill="white" transform="translate(0 -0.000244141)"/>
</clipPath>
</defs>
</svg>
