<svg width="25" height="25" viewBox="0 0 25 25" fill="none" xmlns="http://www.w3.org/2000/svg">
<g clip-path="url(#clip0)">
<path d="M16.25 12.4998C16.25 13.4943 15.8549 14.4481 15.1517 15.1514C14.4484 15.8547 13.4946 16.2498 12.5 16.2498C11.5054 16.2498 10.5516 15.8547 9.84835 15.1514C9.14509 14.4481 8.75 13.4943 8.75 12.4998C8.75 12.286 8.7725 12.0773 8.81125 11.8748H7.5V16.871C7.5 17.2185 7.78125 17.4998 8.12875 17.4998H16.8725C17.039 17.4994 17.1986 17.433 17.3163 17.3152C17.4339 17.1973 17.5 17.0375 17.5 16.871V11.8748H16.1888C16.2275 12.0773 16.25 12.286 16.25 12.4998ZM12.5 14.9998C12.8284 14.9997 13.1535 14.9349 13.4569 14.8092C13.7603 14.6834 14.0359 14.4992 14.268 14.2669C14.5002 14.0346 14.6843 13.7589 14.8099 13.4555C14.9355 13.1521 15.0001 12.8269 15 12.4985C14.9999 12.1701 14.9352 11.845 14.8094 11.5416C14.6837 11.2382 14.4994 10.9626 14.2671 10.7305C14.0349 10.4983 13.7592 10.3142 13.4557 10.1886C13.1523 10.063 12.8271 9.99842 12.4987 9.99851C11.8355 9.99867 11.1996 10.2623 10.7307 10.7314C10.2619 11.2004 9.99858 11.8365 9.99875 12.4998C9.99892 13.163 10.2625 13.7989 10.7316 14.2678C11.2007 14.7366 11.8368 14.9999 12.5 14.9998ZM15.5 9.87476H16.9988C17.0983 9.87476 17.1938 9.83529 17.2644 9.765C17.3349 9.69471 17.3747 9.59933 17.375 9.49976V8.00101C17.375 7.90122 17.3354 7.80552 17.2648 7.73496C17.1942 7.6644 17.0985 7.62476 16.9988 7.62476H15.5C15.4002 7.62476 15.3045 7.6644 15.234 7.73496C15.1634 7.80552 15.1238 7.90122 15.1238 8.00101V9.49976C15.125 9.70601 15.2937 9.87476 15.5 9.87476ZM12.5 0.499756C9.3174 0.499756 6.26515 1.76404 4.01472 4.01447C1.76428 6.26491 0.5 9.31716 0.5 12.4998C0.5 15.6824 1.76428 18.7346 4.01472 20.985C6.26515 23.2355 9.3174 24.4998 12.5 24.4998C14.0759 24.4998 15.6363 24.1894 17.0922 23.5863C18.5481 22.9833 19.871 22.0993 20.9853 20.985C22.0996 19.8707 22.9835 18.5479 23.5866 17.092C24.1896 15.6361 24.5 14.0756 24.5 12.4998C24.5 10.9239 24.1896 9.36346 23.5866 7.90755C22.9835 6.45165 22.0996 5.12878 20.9853 4.01447C19.871 2.90017 18.5481 2.01626 17.0922 1.4132C15.6363 0.810145 14.0759 0.499756 12.5 0.499756ZM18.75 17.361C18.75 18.1248 18.125 18.7498 17.3612 18.7498H7.63875C6.875 18.7498 6.25 18.1248 6.25 17.361V7.63851C6.25 6.87476 6.875 6.24976 7.63875 6.24976H17.3612C18.125 6.24976 18.75 6.87476 18.75 7.63851V17.361Z" fill="currentColor"/>
</g>
<defs>
<clipPath id="clip0">
<rect width="25" height="25" fill="white" transform="translate(0 -0.000244141)"/>
</clipPath>
</defs>
</svg>
