<svg width="20" height="20" viewBox="0 0 20 20" fill="none" xmlns="http://www.w3.org/2000/svg">
<path d="M15.5547 2.22217H6.6658C6.37111 2.22217 6.0885 2.33923 5.88012 2.5476C5.67175 2.75598 5.55469 3.03859 5.55469 3.33328H15.5547V16.6666H6.6658V11.2222H5.55469V16.6666C5.55469 16.9613 5.67175 17.2439 5.88012 17.4523C6.0885 17.6607 6.37111 17.7777 6.6658 17.7777H15.5547C15.8494 17.7777 16.132 17.6607 16.3404 17.4523C16.5487 17.2439 16.6658 16.9613 16.6658 16.6666V3.33328C16.6658 3.03859 16.5487 2.75598 16.3404 2.5476C16.132 2.33923 15.8494 2.22217 15.5547 2.22217Z" fill="black"/>
<path d="M8.4013 10.2553C8.34314 10.3051 8.29591 10.3664 8.26257 10.4353C8.22922 10.5042 8.21048 10.5793 8.20752 10.6558C8.20457 10.7323 8.21746 10.8086 8.24539 10.8799C8.27332 10.9512 8.31569 11.0159 8.36983 11.0701C8.42397 11.1242 8.48872 11.1666 8.56001 11.1945C8.6313 11.2224 8.7076 11.2353 8.78411 11.2324C8.86062 11.2294 8.93569 11.2107 9.00462 11.1773C9.07354 11.144 9.13483 11.0968 9.18464 11.0386L12.4013 7.82193L9.19019 4.60527C9.08391 4.51425 8.9472 4.46669 8.80738 4.47209C8.66756 4.47749 8.53493 4.53546 8.43599 4.6344C8.33705 4.73334 8.27908 4.86597 8.27368 5.00579C8.26828 5.14561 8.31584 5.28232 8.40686 5.3886L10.2791 7.22193H2.22352C2.07618 7.22193 1.93487 7.28046 1.83069 7.38465C1.7265 7.48884 1.66797 7.63015 1.66797 7.77749C1.66797 7.92483 1.7265 8.06614 1.83069 8.17033C1.93487 8.27451 2.07618 8.33304 2.22352 8.33304H10.2791L8.4013 10.2553Z" fill="black"/>
</svg>
