<svg width="20" height="20" viewBox="0 0 20 20" fill="none" xmlns="http://www.w3.org/2000/svg">
<path d="M10 4C9.04545 4 8.29972 4.31548 7.76278 4.94643C7.22585 5.57738 6.95739 6.38393 6.95739 7.36607C6.95076 8.58631 7.38826 9.55357 8.26989 10.2679C8.38258 10.3631 8.42235 10.4851 8.3892 10.6339L8.16051 11.0625C8.08759 11.2054 7.97988 11.317 7.83736 11.3973C7.69484 11.4777 7.39489 11.5923 6.9375 11.7411C6.91761 11.747 6.49834 11.869 5.67969 12.1071C4.86103 12.3452 4.42519 12.4762 4.37216 12.5C3.81534 12.7083 3.45076 12.9256 3.27841 13.1518C3.0928 13.5268 3 14.4762 3 16H17C17 14.4762 16.9072 13.5268 16.7216 13.1518C16.5492 12.9256 16.1847 12.7083 15.6278 12.5C15.5748 12.4762 15.139 12.3452 14.3203 12.1071C13.5017 11.869 13.0824 11.747 13.0625 11.7411C12.6051 11.5923 12.3052 11.4777 12.1626 11.3973C12.0201 11.317 11.9124 11.2054 11.8395 11.0625L11.6108 10.6339C11.5777 10.4851 11.6174 10.3631 11.7301 10.2679C12.6117 9.55357 13.0492 8.58631 13.0426 7.36607C13.0426 6.38393 12.7741 5.57738 12.2372 4.94643C11.7003 4.31548 10.9545 4 10 4Z" fill="white" fill-opacity="0.9"/>
</svg>
