<svg width="25" height="25" viewBox="0 0 25 25" fill="none" xmlns="http://www.w3.org/2000/svg">
<path d="M21.9459 20.7062L16.1027 14.863C17.0094 13.6907 17.4999 12.2575 17.4999 10.75C17.4999 8.94548 16.7957 7.25349 15.5222 5.97774C14.2487 4.702 12.5522 4 10.75 4C8.94773 4 7.25124 4.70425 5.97774 5.97774C4.702 7.25124 4 8.94548 4 10.75C4 12.5522 4.70425 14.2487 5.97774 15.5222C7.25124 16.7979 8.94548 17.4999 10.75 17.4999C12.2575 17.4999 13.6885 17.0094 14.8607 16.1049L20.7039 21.9459C20.7211 21.9631 20.7414 21.9767 20.7638 21.9859C20.7862 21.9952 20.8102 22 20.8344 22C20.8587 22 20.8827 21.9952 20.9051 21.9859C20.9274 21.9767 20.9478 21.9631 20.9649 21.9459L21.9459 20.9672C21.9631 20.95 21.9767 20.9297 21.9859 20.9073C21.9952 20.8849 22 20.8609 22 20.8367C22 20.8124 21.9952 20.7884 21.9859 20.766C21.9767 20.7437 21.9631 20.7233 21.9459 20.7062ZM14.314 14.314C13.36 15.2657 12.0955 15.7899 10.75 15.7899C9.40448 15.7899 8.13998 15.2657 7.18599 14.314C6.23424 13.36 5.70999 12.0955 5.70999 10.75C5.70999 9.40448 6.23424 8.13773 7.18599 7.18599C8.13998 6.23424 9.40448 5.70999 10.75 5.70999C12.0955 5.70999 13.3622 6.23199 14.314 7.18599C15.2657 8.13998 15.7899 9.40448 15.7899 10.75C15.7899 12.0955 15.2657 13.3622 14.314 14.314Z" fill="white"/>
</svg>
