<svg width="25" height="25" viewBox="0 0 25 25" fill="none" xmlns="http://www.w3.org/2000/svg">
<g clip-path="url(#clip0)">
<path d="M12.5 0.499756C5.8725 0.499756 0.5 5.87226 0.5 12.4998C0.5 19.1273 5.8725 24.4998 12.5 24.4998C19.1275 24.4998 24.5 19.1273 24.5 12.4998C24.5 5.87226 19.1275 0.499756 12.5 0.499756ZM17.115 14.0385C17.115 14.0385 18.1763 15.086 18.4375 15.5723C18.445 15.5823 18.4487 15.5923 18.4513 15.5973C18.5575 15.776 18.5825 15.9148 18.53 16.0185C18.4425 16.191 18.1425 16.276 18.04 16.2835H16.165C16.035 16.2835 15.7625 16.2498 15.4325 16.0223C15.1788 15.8448 14.9288 15.5535 14.685 15.2698C14.3213 14.8473 14.0063 14.4823 13.6888 14.4823C13.6484 14.4822 13.6083 14.4885 13.57 14.501C13.33 14.5785 13.0225 14.921 13.0225 15.8335C13.0225 16.1185 12.7975 16.2823 12.6388 16.2823H11.78C11.4875 16.2823 9.96375 16.1798 8.61375 14.756C6.96125 13.0123 5.47375 9.51476 5.46125 9.48226C5.3675 9.25601 5.56125 9.13476 5.7725 9.13476H7.66625C7.91875 9.13476 8.00125 9.28851 8.05875 9.42476C8.12625 9.58351 8.37375 10.2148 8.78 10.9248C9.43875 12.0823 9.8425 12.5523 10.1663 12.5523C10.227 12.5515 10.2866 12.5361 10.34 12.5073C10.7625 12.2723 10.6838 10.766 10.665 10.4535C10.665 10.3948 10.6637 9.77976 10.4475 9.48476C10.2925 9.27101 10.0287 9.18976 9.86875 9.15976C9.93351 9.07039 10.0188 8.99794 10.1175 8.94851C10.4075 8.80351 10.93 8.78226 11.4488 8.78226H11.7375C12.3 8.78976 12.445 8.82601 12.6488 8.87726C13.0613 8.97601 13.07 9.24226 13.0338 10.1535C13.0225 10.4123 13.0113 10.7048 13.0113 11.0498C13.0113 11.1248 13.0075 11.2048 13.0075 11.2898C12.995 11.7535 12.98 12.2798 13.3075 12.496C13.3502 12.5228 13.3996 12.5371 13.45 12.5373C13.5638 12.5373 13.9062 12.5373 14.8337 10.946C15.1198 10.4338 15.3684 9.9016 15.5775 9.35351C15.5963 9.32101 15.6513 9.22101 15.7163 9.18226C15.7642 9.1578 15.8174 9.14536 15.8713 9.14601H18.0975C18.34 9.14601 18.5063 9.18226 18.5375 9.27601C18.5925 9.42476 18.5275 9.87851 17.5112 11.2548L17.0575 11.8535C16.1363 13.061 16.1363 13.1223 17.115 14.0385Z" fill="currentColor"/>
</g>
<defs>
<clipPath id="clip0">
<rect width="25" height="25" fill="white" transform="translate(0 -0.000244141)"/>
</clipPath>
</defs>
</svg>
