<svg width="25" height="25" viewBox="0 0 25 25" fill="none" xmlns="http://www.w3.org/2000/svg">
<g clip-path="url(#clip0)">
<path d="M14.5037 12.291L11.6963 10.981C11.4513 10.8673 11.25 10.9948 11.25 11.266V13.7335C11.25 14.0048 11.4513 14.1323 11.6963 14.0185L14.5025 12.7085C14.7488 12.5935 14.7487 12.406 14.5037 12.291ZM12.5 0.499756C5.8725 0.499756 0.5 5.87226 0.5 12.4998C0.5 19.1273 5.8725 24.4998 12.5 24.4998C19.1275 24.4998 24.5 19.1273 24.5 12.4998C24.5 5.87226 19.1275 0.499756 12.5 0.499756ZM12.5 17.3748C6.3575 17.3748 6.25 16.821 6.25 12.4998C6.25 8.17851 6.3575 7.62476 12.5 7.62476C18.6425 7.62476 18.75 8.17851 18.75 12.4998C18.75 16.821 18.6425 17.3748 12.5 17.3748Z" fill="currentColor"/>
</g>
<defs>
<clipPath id="clip0">
<rect width="25" height="25" fill="white" transform="translate(0 -0.000244141)"/>
</clipPath>
</defs>
</svg>
