<svg width="142" height="142" viewBox="0 0 142 142" fill="none" xmlns="http://www.w3.org/2000/svg">
<g clip-path="url(#clip0)">
<path d="M16.2295 12.4238H125.769C128.569 12.4238 130.842 14.6969 130.842 17.4971V132.49C130.842 135.291 128.569 137.564 125.769 137.564H16.2295C13.4293 137.564 11.1562 135.291 11.1562 132.49V17.4971C11.1562 14.6969 13.4293 12.4238 16.2295 12.4238Z" fill="url(#paint0_linear)" stroke="black"/>
<path d="M125.768 138.065H16.2314C13.1535 138.065 10.6582 135.57 10.6582 132.491V72.1152H131.342V132.491C131.342 135.57 128.846 138.065 125.768 138.065Z" fill="url(#paint1_linear)"/>
<path d="M125.768 137.564H16.2314C13.4296 137.564 11.1582 135.293 11.1582 132.491V121.287H130.842V132.491C130.842 135.293 128.57 137.564 125.768 137.564Z" fill="url(#paint2_linear)" stroke="black"/>
<path d="M136.424 124.503H5.57548C1.99553 124.503 -0.655878 121.176 0.142872 117.686L10.6581 71.7432H131.341L141.857 117.686C142.655 121.176 140.004 124.503 136.424 124.503Z" fill="url(#paint3_linear)"/>
<path d="M0.630267 117.798L0.142872 117.686L0.630269 117.798L11.0566 72.2432H130.943L141.369 117.798C142.096 120.974 139.683 124.003 136.424 124.003H5.57548C2.31671 124.003 -0.0968202 120.974 0.630267 117.798Z" fill="url(#paint4_linear)" stroke="black"/>
<path d="M136.424 124.503C140.004 124.503 142.655 121.176 141.856 117.686L131.341 71.7432H10.6582L63.4176 124.503H136.424Z" fill="url(#paint5_linear)"/>
<path d="M42.1934 82.7969V59.2834C42.1934 53.0895 43.8358 48.5366 47.1223 45.6278C50.4074 42.7188 54.7986 41.2646 60.2928 41.2646C65.7873 41.2646 70.1912 42.719 73.5041 45.6278C76.8169 48.5369 78.4732 53.0892 78.4732 59.2834V82.7969C78.4732 88.9922 76.8169 93.5437 73.5041 96.4525C70.1909 99.3615 65.7875 100.816 60.2928 100.816C54.7983 100.816 50.4072 99.3612 47.1223 96.4525C43.8361 93.5434 42.1934 88.9919 42.1934 82.7969ZM50.7586 82.7969C50.7586 89.746 53.9364 93.2206 60.2934 93.2206C63.3638 93.2206 65.7337 92.3594 67.4039 90.6346C69.073 88.9115 69.9086 86.2992 69.9086 82.7969V59.2834C69.9086 55.7825 69.073 53.1699 67.4039 51.4457C65.7337 49.7225 63.3638 48.8597 60.2934 48.8597C53.9364 48.8597 50.7586 52.3343 50.7586 59.2834V82.7969Z" fill="white"/>
<path d="M83.7266 53.4658C83.7266 52.0655 84.2918 50.9611 85.4233 50.1526L93.8269 42.0725C94.4187 41.4804 95.1462 41.1836 96.0085 41.1836C96.9783 41.1836 97.8531 41.4401 98.6346 41.9513C99.4151 42.4635 99.8061 43.1505 99.8061 44.0117V97.5027C99.8061 98.3649 99.3743 99.0519 98.5134 99.5631C97.6512 100.075 96.6549 100.331 95.5237 100.331C94.338 100.331 93.3279 100.076 92.4937 99.5631C91.658 99.0516 91.2412 98.3649 91.2412 97.5027V52.5766L88.4131 56.1319C87.8742 56.6707 87.2818 56.9398 86.6353 56.9398C85.8274 56.9398 85.1405 56.5762 84.575 55.849C84.0092 55.1221 83.7266 54.328 83.7266 53.4658Z" fill="white"/>
<path d="M69.9069 71.7432V82.7967C69.9069 86.3004 69.0746 88.9124 67.4028 90.6364C65.7346 92.3606 63.3641 93.2223 60.295 93.2223C53.9378 93.2223 50.7575 89.7444 50.7575 82.797V71.7434H42.1934V82.797C42.1934 88.9945 43.8355 93.5457 47.1237 96.4512C50.408 99.3605 54.8 100.817 60.295 100.817C65.7867 100.817 70.1931 99.3605 73.5035 96.4512C76.8178 93.5457 78.4746 88.9942 78.4746 82.797V71.7434L69.9069 71.7432Z" fill="url(#paint6_linear)"/>
<path d="M91.2422 71.7432V97.5026C91.2422 98.3646 91.6585 99.0518 92.4941 99.5646C93.3264 100.077 94.3368 100.33 95.5222 100.33C96.6554 100.33 97.6513 100.077 98.513 99.5646C99.375 99.0518 99.806 98.3646 99.806 97.5026V71.7432H91.2422Z" fill="url(#paint7_linear)"/>
<path d="M11 72L131 72" stroke="black"/>
<path d="M50.936 22.7559C48.3394 22.7559 46.2344 20.6509 46.2344 18.0543V9.13713C46.2344 6.54054 48.3394 4.43555 50.936 4.43555C53.5325 4.43555 55.6375 6.54054 55.6375 9.13713V18.054C55.6375 20.6509 53.5325 22.7559 50.936 22.7559Z" fill="#53EAFF" stroke="black"/>
<path d="M88.7406 22.7559C86.1441 22.7559 84.0391 20.6509 84.0391 18.0543V9.13713C84.0391 6.54054 86.1441 4.43555 88.7406 4.43555C91.3372 4.43555 93.4422 6.54054 93.4422 9.13713V18.054C93.4422 20.6509 91.3369 22.7559 88.7406 22.7559Z" fill="#53EAFF" stroke="black"/>
</g>
<defs>
<linearGradient id="paint0_linear" x1="-42.1474" y1="-69.3015" x2="122.712" y2="-75.9494" gradientUnits="userSpaceOnUse">
<stop stop-color="#53EAFF"/>
<stop offset="1" stop-color="#B9F348"/>
</linearGradient>
<linearGradient id="paint1_linear" x1="29.7592" y1="58.8119" x2="112.622" y2="148.381" gradientUnits="userSpaceOnUse">
<stop stop-color="#C2CECE"/>
<stop offset="1" stop-color="#97AAAA"/>
</linearGradient>
<linearGradient id="paint2_linear" x1="-42.1445" y1="109.662" x2="109.809" y2="64.9255" gradientUnits="userSpaceOnUse">
<stop stop-color="#42CADD"/>
<stop offset="1" stop-color="#AEE24A"/>
</linearGradient>
<linearGradient id="paint3_linear" x1="19.167" y1="76.1905" x2="152.119" y2="136.072" gradientUnits="userSpaceOnUse">
<stop stop-color="#00A6F9"/>
<stop offset="1" stop-color="#0071E2"/>
</linearGradient>
<linearGradient id="paint4_linear" x1="-62.1292" y1="37.7698" x2="129.692" y2="16.01" gradientUnits="userSpaceOnUse">
<stop stop-color="#53EAFF"/>
<stop offset="1" stop-color="#B9F348"/>
</linearGradient>
<linearGradient id="paint5_linear" x1="96.2077" y1="96.946" x2="11.978" y2="12.7167" gradientUnits="userSpaceOnUse">
<stop offset="0.0001" stop-color="#00F227" stop-opacity="0"/>
<stop offset="1" stop-color="#04AD48"/>
</linearGradient>
<linearGradient id="paint6_linear" x1="60.3357" y1="81.2248" x2="60.3357" y2="38.8217" gradientUnits="userSpaceOnUse">
<stop stop-color="#C2CECE" stop-opacity="0"/>
<stop offset="0.179" stop-color="#AFBCBC" stop-opacity="0.179"/>
<stop offset="1" stop-color="#5B6A6A"/>
</linearGradient>
<linearGradient id="paint7_linear" x1="95.5273" y1="81.2248" x2="95.5273" y2="38.8217" gradientUnits="userSpaceOnUse">
<stop stop-color="#C2CECE" stop-opacity="0"/>
<stop offset="0.179" stop-color="#AFBCBC" stop-opacity="0.179"/>
<stop offset="1" stop-color="#5B6A6A"/>
</linearGradient>
<clipPath id="clip0">
<rect width="142" height="142" fill="white"/>
</clipPath>
</defs>
</svg>
