<svg width="24" height="24" viewBox="0 0 24 24" fill="none" xmlns="http://www.w3.org/2000/svg">
<path d="M18.9318 0H5.06509C3.59524 0 2.39844 1.122 2.39844 2.49998V21.5C2.39844 22.878 3.59524 24 5.06509 24H18.9317C20.4016 24 21.5984 22.878 21.5984 21.5V2.49998C21.5984 1.122 20.4016 0 18.9318 0ZM11.9984 22.5C11.4107 22.5 10.9318 22.051 10.9318 21.5C10.9318 20.949 11.4107 20.5 11.9984 20.5C12.5861 20.5 13.0651 20.949 13.0651 21.5C13.0651 22.051 12.5862 22.5 11.9984 22.5ZM19.4651 19.5C19.4651 19.776 19.2261 20 18.9317 20H5.06509C4.77069 20 4.53174 19.776 4.53174 19.5V2.49998C4.53174 2.22398 4.77069 1.99997 5.06509 1.99997H18.9317C19.2261 1.99997 19.4651 2.22398 19.4651 2.49998V19.5Z" fill="black"/>
</svg>
