<svg width="201" height="172" viewBox="0 0 201 172" fill="none" xmlns="http://www.w3.org/2000/svg">
<g clip-path="url(#clip0)">
<path d="M76.2377 55.9941C49.9781 67.5238 30.2688 85.8861 20.848 107.598C17.3999 115.649 15.4426 124.358 18.1771 132.557C20.9116 140.757 29.1858 148.314 40.2227 150.033C43.8377 150.524 47.5322 150.592 51.1749 150.234C80.7245 147.853 104.388 131.141 123.551 114.069C127.225 110.797 130.892 107.392 132.8 103.356C134.708 99.3195 134.56 94.4879 131.027 91.1572C127.197 87.5189 120.188 86.421 114.167 87.4446C108.147 88.4682 102.947 91.2951 98.2974 94.3394C87.0505 101.72 77.9861 110.785 71.6872 120.953C67.4477 127.821 64.4659 135.31 64.9605 142.873C65.4551 150.436 69.7582 158.078 77.9052 162.571C87.8964 168.118 101.929 168.012 113.532 164.692C125.134 161.372 134.878 155.22 144.381 149.205" stroke="black" stroke-width="2"/>
<path d="M125.809 2.24953C125.779 1.80399 125.923 1.36435 126.212 1.02382C126.5 0.683292 126.91 0.46863 127.353 0.42534C127.82 0.406312 128.276 0.560513 128.636 0.858319L126.411 3.47039C126.069 3.15023 125.855 2.71626 125.809 2.24953Z" fill="white"/>
<path d="M125.787 2.27793C125.765 2.05633 125.789 1.83251 125.859 1.62097C125.929 1.40943 126.042 1.2149 126.191 1.04998C126.327 0.873948 126.499 0.729499 126.696 0.626572C126.893 0.523645 127.11 0.464685 127.332 0.453747C127.799 0.43127 128.257 0.58588 128.615 0.886726L126.39 3.49879C126.049 3.17746 125.835 2.74411 125.787 2.27793Z" fill="white"/>
<g filter="url(#filter0_d)">
<path d="M87.3235 45.4753L187.296 5.09468C187.896 4.85616 188.387 4.40541 188.678 3.82791C188.968 3.2504 189.037 2.58628 188.871 1.96145C188.705 1.33662 188.316 0.794517 187.777 0.437911C187.239 0.0813064 186.588 -0.0650084 185.949 0.0267049L58.3976 17.6085C57.8894 17.6778 57.4125 17.8941 57.0252 18.2309C56.6379 18.5676 56.3571 19.0103 56.2172 19.5045C56.0773 19.9988 56.0843 20.5232 56.2375 21.0134C56.3907 21.5037 56.6833 21.9386 57.0796 22.2648L84.6308 45.0494C84.9982 45.3594 85.4433 45.563 85.9179 45.6381C86.3925 45.7131 86.8785 45.6568 87.3235 45.4753Z" fill="url(#paint0_linear)"/>
<path d="M197.167 4.05128L95.4868 55.7816C95.152 55.9525 94.8576 56.1933 94.6232 56.4876C94.3889 56.7819 94.2201 57.123 94.1282 57.488C94.0362 57.853 94.0233 58.2335 94.0902 58.6039C94.1571 58.9743 94.3023 59.3262 94.516 59.6358L121.918 99.3137C122.151 99.6503 122.458 99.9283 122.816 100.126C123.174 100.323 123.572 100.434 123.981 100.451C124.389 100.467 124.795 100.389 125.168 100.221C125.54 100.053 125.869 99.8008 126.128 99.484L200.398 8.06875C200.784 7.60106 200.996 7.01445 201 6.408C201.003 5.80156 200.798 5.21245 200.418 4.74019C200.038 4.26794 199.507 3.94148 198.915 3.81596C198.322 3.69044 197.705 3.77356 197.167 4.05128Z" fill="url(#paint1_linear)"/>
<path d="M82.4978 57.6909L86.1189 87.7865C86.1533 88.0748 86.2585 88.3501 86.4249 88.5878C86.5913 88.8256 86.8139 89.0184 87.0728 89.1491C87.3316 89.2798 87.6187 89.3443 87.9085 89.3369C88.1983 89.3295 88.4818 89.2505 88.7337 89.1067L101.212 81.9732C101.423 81.8502 101.607 81.6849 101.751 81.4876C101.895 81.2903 101.997 81.0653 102.05 80.8267C102.103 80.5881 102.107 80.3411 102.06 80.1011C102.014 79.8611 101.918 79.6334 101.779 79.4321L85.6795 56.4701C85.4543 56.1499 85.1289 55.9142 84.7549 55.8001C84.3808 55.6861 83.9795 55.7002 83.6144 55.8403C83.2492 55.9804 82.9412 56.2385 82.739 56.5736C82.5367 56.9088 82.4519 57.302 82.4978 57.6909Z" fill="url(#paint2_linear)"/>
<path d="M197.396 4.49562L197.394 4.49693L95.7142 56.2269C95.443 56.3654 95.2043 56.5605 95.0144 56.799C94.8245 57.0376 94.6876 57.3141 94.613 57.6101C94.5385 57.9061 94.528 58.2147 94.5822 58.5151C94.6365 58.8155 94.7542 59.1007 94.9275 59.3517L122.33 99.0295L122.33 99.0297C122.518 99.3026 122.767 99.5279 123.057 99.6878C123.347 99.8476 123.67 99.9378 124.001 99.9512C124.331 99.9646 124.661 99.9008 124.963 99.7649C125.264 99.6291 125.53 99.4251 125.74 99.1687L197.396 4.49562ZM197.396 4.49562C197.832 4.27076 198.332 4.20349 198.811 4.3051C199.291 4.4067 199.721 4.671 200.028 5.05356L200.418 4.74019L200.028 5.05357C200.336 5.43614 200.503 5.9135 200.5 6.40502C200.497 6.89655 200.325 7.37189 200.012 7.75075L200.01 7.75346L125.74 99.1678L197.396 4.49562ZM86.6153 87.7268L86.6153 87.7271C86.64 87.9337 86.7153 88.1309 86.8345 88.3011C86.9537 88.4713 87.1129 88.6093 87.2981 88.7028C87.4833 88.7962 87.6886 88.8424 87.8958 88.8371C88.1028 88.8318 88.3054 88.7753 88.4855 88.6726L86.6153 87.7268ZM86.6153 87.7268L82.9944 57.6323M86.6153 87.7268L82.9944 57.6323M82.9944 57.6323C82.9943 57.6321 82.9943 57.6318 82.9943 57.6316M82.9944 57.6323L82.9943 57.6316M82.9943 57.6316C82.9615 57.3532 83.0224 57.0718 83.1671 56.8319C83.3119 56.5919 83.5324 56.4073 83.7935 56.3071C84.0546 56.2069 84.3415 56.1968 84.609 56.2784C84.8762 56.3599 85.1089 56.5283 85.2701 56.7571L82.9943 57.6316ZM87.1363 45.0116L87.1346 45.0123C86.7741 45.1594 86.3804 45.205 85.996 45.1442C85.6116 45.0834 85.251 44.9185 84.9532 44.6672L84.9494 44.6641L57.3982 21.8795L57.3974 21.8787C57.0762 21.6144 56.839 21.2619 56.7148 20.8643C56.5905 20.4668 56.5848 20.0415 56.6983 19.6407C56.8117 19.2399 57.0394 18.8811 57.3533 18.6082C57.6671 18.3352 58.0536 18.16 58.4652 18.1039L58.4659 18.1038L186.018 0.522029L186.02 0.521633C186.538 0.447348 187.065 0.565839 187.501 0.854775L187.777 0.437911L187.501 0.854779C187.937 1.14374 188.253 1.58314 188.387 2.08982C188.522 2.59654 188.466 3.1351 188.231 3.60335C187.996 4.07157 187.597 4.43682 187.111 4.63005L187.108 4.63107L87.1363 45.0116ZM100.961 81.5413L88.4859 88.6724L85.2706 56.7578L101.368 79.7157C101.368 79.7162 101.368 79.7168 101.369 79.7173C101.468 79.8615 101.536 80.0245 101.569 80.1964C101.603 80.3688 101.6 80.5464 101.562 80.7178C101.524 80.8893 101.451 81.0509 101.347 81.1926C101.244 81.3338 101.113 81.4522 100.962 81.5403C100.962 81.5407 100.961 81.541 100.961 81.5413Z" stroke="black"/>
</g>
<g filter="url(#filter1_d)">
<path d="M153.154 91.7919L154.338 107.386L169.906 108.572L154.338 109.757L153.154 125.351L151.971 109.757L136.402 108.572L151.971 107.386L153.154 91.7919Z" fill="black"/>
</g>
<g filter="url(#filter2_d)">
<path d="M28.0756 21.7772L30.0597 47.9121L56.1511 49.8995L30.0597 51.8941L28.0756 78.0219L26.0914 51.8941L0 49.8995L26.0914 47.9121L28.0756 21.7772Z" fill="black"/>
</g>
</g>
<defs>
<filter id="filter0_d" x="36.1172" y="-16" width="184.883" height="140.453" filterUnits="userSpaceOnUse" color-interpolation-filters="sRGB">
<feFlood flood-opacity="0" result="BackgroundImageFix"/>
<feColorMatrix in="SourceAlpha" type="matrix" values="0 0 0 0 0 0 0 0 0 0 0 0 0 0 0 0 0 0 127 0" result="hardAlpha"/>
<feOffset dy="4"/>
<feGaussianBlur stdDeviation="10"/>
<feComposite in2="hardAlpha" operator="out"/>
<feColorMatrix type="matrix" values="0 0 0 0 0.7875 0 0 0 0 0.98188 0 0 0 0 1 0 0 0 1 0"/>
<feBlend mode="normal" in2="BackgroundImageFix" result="effect1_dropShadow"/>
<feBlend mode="normal" in="SourceGraphic" in2="effect1_dropShadow" result="shape"/>
</filter>
<filter id="filter1_d" x="116.402" y="75.7919" width="73.5036" height="73.5594" filterUnits="userSpaceOnUse" color-interpolation-filters="sRGB">
<feFlood flood-opacity="0" result="BackgroundImageFix"/>
<feColorMatrix in="SourceAlpha" type="matrix" values="0 0 0 0 0 0 0 0 0 0 0 0 0 0 0 0 0 0 127 0" result="hardAlpha"/>
<feOffset dy="4"/>
<feGaussianBlur stdDeviation="10"/>
<feComposite in2="hardAlpha" operator="out"/>
<feColorMatrix type="matrix" values="0 0 0 0 0.7875 0 0 0 0 0.98188 0 0 0 0 1 0 0 0 1 0"/>
<feBlend mode="normal" in2="BackgroundImageFix" result="effect1_dropShadow"/>
<feBlend mode="normal" in="SourceGraphic" in2="effect1_dropShadow" result="shape"/>
</filter>
<filter id="filter2_d" x="-20" y="5.77722" width="96.1511" height="96.2446" filterUnits="userSpaceOnUse" color-interpolation-filters="sRGB">
<feFlood flood-opacity="0" result="BackgroundImageFix"/>
<feColorMatrix in="SourceAlpha" type="matrix" values="0 0 0 0 0 0 0 0 0 0 0 0 0 0 0 0 0 0 127 0" result="hardAlpha"/>
<feOffset dy="4"/>
<feGaussianBlur stdDeviation="10"/>
<feComposite in2="hardAlpha" operator="out"/>
<feColorMatrix type="matrix" values="0 0 0 0 0.7875 0 0 0 0 0.98188 0 0 0 0 1 0 0 0 1 0"/>
<feBlend mode="normal" in2="BackgroundImageFix" result="effect1_dropShadow"/>
<feBlend mode="normal" in="SourceGraphic" in2="effect1_dropShadow" result="shape"/>
</filter>
<linearGradient id="paint0_linear" x1="73.4729" y1="-10.5467" x2="201.542" y2="-9.91762" gradientUnits="userSpaceOnUse">
<stop stop-color="#53EAFF"/>
<stop offset="1" stop-color="#B9F348"/>
</linearGradient>
<linearGradient id="paint1_linear" x1="73.4729" y1="-10.5467" x2="201.542" y2="-9.91762" gradientUnits="userSpaceOnUse">
<stop stop-color="#53EAFF"/>
<stop offset="1" stop-color="#B9F348"/>
</linearGradient>
<linearGradient id="paint2_linear" x1="73.4729" y1="-10.5467" x2="201.542" y2="-9.91762" gradientUnits="userSpaceOnUse">
<stop stop-color="#53EAFF"/>
<stop offset="1" stop-color="#B9F348"/>
</linearGradient>
<clipPath id="clip0">
<rect width="201" height="172" fill="white"/>
</clipPath>
</defs>
</svg>
