<svg width="40" height="58" viewBox="0 0 40 58" fill="none" xmlns="http://www.w3.org/2000/svg">
<path d="M38.9999 16.3282V57C28 57 26.9679 56.7822 20.1876 57C13.4073 57.2178 10 57 1 57L1 3.63812C1 2.93845 1.27645 2.26743 1.76852 1.77269C2.2606 1.27795 2.92799 1 3.62389 1H23.7736C24.119 0.999926 24.4611 1.06834 24.7801 1.20132C25.0992 1.3343 25.3891 1.52923 25.6331 1.77497L38.2452 14.4586C38.4871 14.705 38.6783 14.997 38.8078 15.3178C38.9374 15.6386 39.0026 15.982 38.9999 16.3282Z" fill="white" stroke="black" stroke-linecap="round" stroke-linejoin="round"/>
<path d="M30.2604 24H9.73961C8.77885 24 8 24.7687 8 25.7169V48.2831C8 49.2313 8.77885 50 9.73961 50H30.2604C31.2211 50 32 49.2313 32 48.2831V25.7169C32 24.7687 31.2211 24 30.2604 24Z" fill="#C4C4C4"/>
<path d="M30.2604 24H9.73961C8.77885 24 8 24.7687 8 25.7169V48.2831C8 49.2313 8.77885 50 9.73961 50H30.2604C31.2211 50 32 49.2313 32 48.2831V25.7169C32 24.7687 31.2211 24 30.2604 24Z" fill="url(#paint0_linear)"/>
<path d="M30.2604 24H9.73961C8.77885 24 8 24.7687 8 25.7169V48.2831C8 49.2313 8.77885 50 9.73961 50H30.2604C31.2211 50 32 49.2313 32 48.2831V25.7169C32 24.7687 31.2211 24 30.2604 24Z" stroke="black"/>
<path d="M14 24H20V34H15.2178C14.8948 34 14.5851 33.8724 14.3567 33.6453C14.1283 33.4181 14 33.1101 14 32.7889V24V24Z" stroke="black" stroke-linecap="round" stroke-linejoin="round"/>
<path d="M24.7822 34H20V24H26V32.7921C25.9991 33.1128 25.8704 33.42 25.6422 33.6464C25.4139 33.8728 25.1046 34 24.7822 34V34Z" stroke="black" stroke-linecap="round" stroke-linejoin="round"/>
<path d="M15.2178 40H20V50H14V41.2079C14.0009 40.8872 14.1296 40.58 14.3578 40.3536C14.5861 40.1271 14.8954 40 15.2178 40V40Z" stroke="black" stroke-linecap="round" stroke-linejoin="round"/>
<path d="M26 50H20V40H24.7822C25.1052 40 25.4149 40.1276 25.6433 40.3547C25.8717 40.5819 26 40.8899 26 41.2111V50V50Z" stroke="black" stroke-width="0.893614" stroke-linecap="round" stroke-linejoin="round"/>
<path d="M23 34H17V40H23V34Z" stroke="black" stroke-linecap="round" stroke-linejoin="round"/>
<defs>
<linearGradient id="paint0_linear" x1="-11.3774" y1="22.2047" x2="21.195" y2="12.388" gradientUnits="userSpaceOnUse">
<stop stop-color="#53EAFF"/>
<stop offset="1" stop-color="#B9F348"/>
</linearGradient>
</defs>
</svg>
