<svg width="24" height="24" viewBox="0 0 24 24" fill="none" xmlns="http://www.w3.org/2000/svg">
<path d="M17.3483 0H6.64837C5.75694 0 5.02734 0.728914 5.02734 1.62103V22.3783C5.02734 23.2704 5.75694 24 6.64837 24H17.3483C18.2397 24 18.9693 23.2718 18.9693 22.379V1.62103C18.9693 0.728914 18.2397 0 17.3483 0ZM10.2868 1.16846H13.7099C13.8182 1.16846 13.906 1.25623 13.906 1.36526C13.906 1.4736 13.8182 1.56137 13.7099 1.56137H10.2868C10.1784 1.56137 10.0907 1.4736 10.0907 1.36526C10.0907 1.25623 10.1784 1.16846 10.2868 1.16846ZM11.9983 23.1895C11.5505 23.1895 11.1878 22.8267 11.1878 22.3783C11.1878 21.9298 11.5505 21.5678 11.9983 21.5678C12.4461 21.5678 12.8088 21.9298 12.8088 22.3783C12.8088 22.8267 12.4461 23.1895 11.9983 23.1895ZM17.8413 21H6.15534V2.57074H17.8413V21Z" fill="black"/>
</svg>
