<svg width="24" height="24" viewBox="0 0 24 24" fill="none" xmlns="http://www.w3.org/2000/svg">
<g clip-path="url(#clip0)">
<path d="M15.6835 20.1059C15.5312 19.9994 15.334 19.9807 15.166 20.0579C12.8174 21.1336 10.139 21.1336 7.79034 20.0579C7.62029 19.9807 7.42411 19.9994 7.27176 20.1059C7.12049 20.2133 7.037 20.3917 7.05265 20.5775L7.30619 23.523C7.32913 23.7922 7.55558 23.9998 7.8258 23.9998H15.1295C15.3997 23.9998 15.6262 23.7922 15.6491 23.523L15.9026 20.5775C15.9183 20.3928 15.8348 20.2134 15.6835 20.1059Z" fill="black"/>
<path d="M7.27176 3.89392C7.42514 4.00138 7.62234 4.02016 7.79034 3.9419C10.139 2.86615 12.8174 2.86615 15.166 3.9419C15.2359 3.97321 15.31 3.98886 15.383 3.98886H15.3935C15.6971 3.97947 15.9266 3.75933 15.9256 3.46715C15.9256 3.40039 15.9131 3.33671 15.8901 3.27831L15.6491 0.476812C15.6262 0.207618 15.3998 0 15.1295 0H7.8258C7.55558 0 7.32913 0.207618 7.30619 0.476812L7.05265 3.4223C7.037 3.60698 7.12049 3.78647 7.27176 3.89392Z" fill="black"/>
<path d="M11.4778 4.17432C7.16228 4.17432 3.65234 7.68426 3.65234 11.9997C3.65234 16.3152 7.16228 19.8251 11.4778 19.8251C15.7932 19.8251 19.3032 16.3152 19.3032 11.9997C19.3032 7.68426 15.7932 4.17432 11.4778 4.17432Z" fill="black"/>
<path d="M11.4621 5.6626C7.96738 5.6626 5.125 8.50498 5.125 11.9997C5.125 15.4944 7.96738 18.3368 11.4621 18.3368C14.9568 18.3368 17.7992 15.4944 17.7992 11.9997C17.7992 8.50498 14.9568 5.6626 11.4621 5.6626Z" fill="#F7F7FC"/>
<path d="M19.8264 10.9565C19.5384 10.9565 19.3047 11.1903 19.3047 11.4783V12V12.5217C19.3047 12.8096 19.5384 13.0434 19.8264 13.0434C20.1144 13.0434 20.3481 12.8096 20.3481 12.5217V11.4783C20.3481 11.1903 20.1144 10.9565 19.8264 10.9565Z" fill="black"/>
</g>
<defs>
<clipPath id="clip0">
<rect width="24" height="24" fill="white"/>
</clipPath>
</defs>
</svg>
