<svg width="16" height="16" viewBox="0 0 16 16" fill="none" xmlns="http://www.w3.org/2000/svg">
<path d="M14.2222 2.55556V1.77778C14.2222 1.35 13.8722 1 13.4444 1H11.8889C11.4611 1 11.1111 1.35 11.1111 1.77778V2.55556H10.3333V5.66667C10.3333 6.09444 10.6833 6.44444 11.1111 6.44444H11.8889V11.8889C11.8889 12.7444 11.1889 13.4444 10.3333 13.4444C9.47778 13.4444 8.77778 12.7444 8.77778 11.8889V4.11111C8.77778 2.39222 7.38556 1 5.66667 1C3.94778 1 2.55556 2.39222 2.55556 4.11111V9.55556H1.77778C1.35 9.55556 1 9.90556 1 10.3333V13.4444H1.77778V14.2222C1.77778 14.65 2.12778 15 2.55556 15H4.11111C4.53889 15 4.88889 14.65 4.88889 14.2222V13.4444H5.66667V10.3333C5.66667 9.90556 5.31667 9.55556 4.88889 9.55556H4.11111V4.11111C4.11111 3.25556 4.81111 2.55556 5.66667 2.55556C6.52222 2.55556 7.22222 3.25556 7.22222 4.11111V11.8889C7.22222 13.6078 8.61444 15 10.3333 15C12.0522 15 13.4444 13.6078 13.4444 11.8889V6.44444H14.2222C14.65 6.44444 15 6.09444 15 5.66667V2.55556H14.2222Z" fill="currentColor"/>
</svg>
