<svg width="16" height="16" viewBox="0 0 16 16" fill="none" xmlns="http://www.w3.org/2000/svg">
<path d="M9 1H3.4C2.63 1 2 1.63 2 2.4V13.6C2 14.37 2.63 15 3.4 15H11.8C12.57 15 13.2 14.37 13.2 13.6V5.2L9 1ZM7.6 6.6C8.37 6.6 9 7.23 9 8C9 8.77 8.37 9.4 7.6 9.4C6.83 9.4 6.2 8.77 6.2 8C6.2 7.23 6.83 6.6 7.6 6.6ZM10.4 12.2H4.8V11.801C4.8 11.234 5.136 10.73 5.654 10.506C6.249 10.247 6.907 10.1 7.6 10.1C8.293 10.1 8.951 10.247 9.546 10.506C10.064 10.73 10.4 11.234 10.4 11.801V12.2Z" fill="currentColor"/>
</svg>
