<svg width="134" height="30" viewBox="0 0 134 30" fill="none" xmlns="http://www.w3.org/2000/svg">
<path fill-rule="evenodd" clip-rule="evenodd" d="M37.8149 21.0975C37.9426 21.0975 38.0326 21.1231 38.0852 21.1746C38.1376 21.2261 38.1639 21.307 38.1639 21.4174V23.081C38.1639 23.1362 38.1352 23.1638 38.0776 23.1638H37.7099C37.6547 23.1638 37.6272 23.1362 37.6272 23.081V21.6544C37.6272 21.6018 37.6009 21.5755 37.5484 21.5755H35.9945C35.9419 21.5755 35.9157 21.6018 35.9157 21.6544V23.081C35.9157 23.1362 35.8882 23.1638 35.8332 23.1638H35.4652C35.4077 23.1638 35.3789 23.1362 35.3789 23.081V21.4174C35.3789 21.3069 35.4052 21.2261 35.4579 21.1746C35.5103 21.1231 35.6004 21.0975 35.7281 21.0975H37.8149ZM40.9115 21.0975C41.024 21.0975 41.1048 21.1238 41.1536 21.1765C41.2024 21.2292 41.2268 21.3032 41.2268 21.3986V23.0735C41.2268 23.1337 41.2017 23.1638 41.1517 23.1638H40.7726C40.7201 23.1638 40.6937 23.135 40.6937 23.0773V21.6357C40.6937 21.5955 40.67 21.5755 40.6225 21.5755H39.808C39.768 21.5755 39.7429 21.5836 39.7329 21.5999C39.7229 21.6162 39.7154 21.6357 39.7104 21.6582C39.7028 21.7135 39.6923 21.7888 39.6785 21.8841C39.6647 21.9794 39.6479 22.0817 39.6278 22.1908C39.6078 22.3 39.584 22.4097 39.5565 22.5201C39.529 22.6305 39.499 22.7272 39.4664 22.81C39.4414 22.8677 39.4139 22.9185 39.3838 22.9624C39.3538 23.0064 39.317 23.0434 39.2731 23.0734C39.2293 23.1036 39.1787 23.1261 39.1211 23.1412C39.0636 23.1562 38.9948 23.1637 38.9147 23.1637H38.5582C38.5081 23.1637 38.483 23.1361 38.483 23.081V22.8062C38.483 22.7484 38.5081 22.7196 38.5582 22.7196H38.8247C38.8721 22.7196 38.9191 22.7064 38.9653 22.6801C39.0116 22.6537 39.0535 22.593 39.0911 22.4975C39.1336 22.3947 39.1706 22.2498 39.2018 22.0628C39.2331 21.8758 39.2688 21.6394 39.3089 21.3533C39.3188 21.2754 39.3444 21.2133 39.3857 21.1669C39.427 21.1205 39.5026 21.0974 39.6127 21.0974H40.9115V21.0975ZM43.3662 21.0975C43.5338 21.0975 43.6752 21.1119 43.7903 21.1407C43.9054 21.1697 43.9974 21.2148 44.0662 21.2763C44.1351 21.3377 44.1843 21.4168 44.2144 21.5134C44.2444 21.6099 44.2595 21.7261 44.2595 21.8615V22.8627C44.2595 22.923 44.2552 22.9726 44.2464 23.0114C44.2377 23.0503 44.2225 23.0811 44.2014 23.1036C44.1801 23.1262 44.1519 23.1419 44.1169 23.1506C44.0819 23.1595 44.0369 23.1638 43.9817 23.1638H42.1952C42.0851 23.1638 41.9931 23.1532 41.9193 23.1319C41.8455 23.1104 41.786 23.0785 41.741 23.0358C41.6959 22.9931 41.664 22.938 41.6453 22.8702C41.6265 22.8025 41.6171 22.7222 41.6171 22.6293V22.4487C41.6171 22.3708 41.6265 22.3012 41.6453 22.2398C41.664 22.1783 41.6959 22.1262 41.741 22.0836C41.786 22.0409 41.8454 22.0089 41.9193 21.9876C41.9931 21.9662 42.0851 21.9556 42.1952 21.9556H43.7228V21.8841C43.7228 21.8239 43.7166 21.7724 43.704 21.7298C43.6914 21.6871 43.6702 21.6526 43.6401 21.6262C43.6101 21.5999 43.5689 21.5804 43.5164 21.5679C43.4637 21.5554 43.3963 21.5492 43.3136 21.5492H41.7448C41.6997 21.5492 41.6772 21.5265 41.6772 21.4813V21.1651C41.6772 21.12 41.6997 21.0975 41.7448 21.0975H43.3662V21.0975ZM43.6139 22.7498C43.6539 22.7498 43.6821 22.7403 43.6984 22.7216C43.7147 22.7027 43.7228 22.6695 43.7228 22.6218V22.2906H42.349C42.2715 22.2906 42.2171 22.3063 42.1857 22.3376C42.1544 22.369 42.1388 22.4148 42.1388 22.475V22.554C42.1388 22.6217 42.1544 22.6713 42.1857 22.7027C42.2171 22.7341 42.2715 22.7498 42.349 22.7498H43.6139V22.7498ZM47.2922 21.0975C47.3373 21.0975 47.3598 21.1201 47.3598 21.1652V21.4814C47.3598 21.5265 47.3373 21.5492 47.2922 21.5492H46.185V23.0811C46.185 23.1362 46.1575 23.1638 46.1024 23.1638H45.7346C45.677 23.1638 45.6483 23.1362 45.6483 23.0811V21.5492H44.5411C44.496 21.5492 44.4735 21.5265 44.4735 21.4814V21.1652C44.4735 21.1201 44.496 21.0975 44.5411 21.0975H47.2922ZM49.4429 20.3409C49.498 20.3409 49.5255 20.3686 49.5255 20.4237V21.0975H50.0096C50.1773 21.0975 50.3187 21.1119 50.4338 21.1407C50.549 21.1697 50.6409 21.2148 50.7097 21.2763C50.7785 21.3377 50.8279 21.4168 50.8579 21.5134C50.888 21.6099 50.903 21.7261 50.903 21.8615V22.4035C50.903 22.5391 50.888 22.6551 50.8579 22.7517C50.8279 22.8483 50.7785 22.9273 50.7097 22.9889C50.6409 23.0503 50.549 23.0949 50.4338 23.1224C50.3187 23.15 50.1773 23.1638 50.0096 23.1638H49.5255V23.9128C49.5255 23.9682 49.498 23.9957 49.4429 23.9957H49.0714C49.0163 23.9957 48.9887 23.9682 48.9887 23.9128V23.1638H48.5045C48.3344 23.1638 48.1925 23.15 48.0786 23.1224C47.9647 23.0949 47.8733 23.0503 47.8046 22.9889C47.7357 22.9273 47.6864 22.8483 47.6563 22.7517C47.6263 22.6551 47.6112 22.5391 47.6112 22.4035V21.8615C47.6112 21.7261 47.6263 21.61 47.6563 21.5134C47.6864 21.4168 47.7357 21.3377 47.8046 21.2763C47.8733 21.2148 47.9647 21.1697 48.0786 21.1407C48.1925 21.1119 48.3344 21.0975 48.5045 21.0975H48.9887V20.4237C48.9887 20.3686 49.0163 20.3409 49.0714 20.3409H49.4429ZM49.5255 21.5416V22.7235H49.9572C50.0397 22.7235 50.1073 22.7165 50.1598 22.7027C50.2124 22.6889 50.2537 22.6663 50.2837 22.6351C50.3137 22.6036 50.335 22.5616 50.3475 22.5089C50.36 22.4563 50.3662 22.3897 50.3662 22.3094V21.9518C50.3662 21.8741 50.36 21.8088 50.3475 21.7562C50.335 21.7035 50.3137 21.6607 50.2837 21.6282C50.2536 21.5956 50.2124 21.573 50.1598 21.5604C50.1073 21.5479 50.0397 21.5416 49.9572 21.5416H49.5255V21.5416ZM48.148 22.3094C48.148 22.3897 48.1542 22.4563 48.1668 22.5089C48.1793 22.5616 48.2012 22.6036 48.2325 22.6351C48.2637 22.6663 48.3056 22.6889 48.3582 22.7027C48.4108 22.7165 48.4771 22.7235 48.5572 22.7235H48.9887V21.5416H48.5572C48.4771 21.5416 48.4108 21.5479 48.3582 21.5604C48.3056 21.573 48.2637 21.5955 48.2325 21.6282C48.2012 21.6607 48.1793 21.7034 48.1668 21.7561C48.1542 21.8088 48.148 21.8741 48.148 21.9518V22.3094ZM53.2638 21.0975C53.4315 21.0975 53.5728 21.1119 53.688 21.1407C53.8031 21.1697 53.895 21.2148 53.9639 21.2763C54.0327 21.3377 54.0821 21.4168 54.1121 21.5134C54.1422 21.6099 54.1571 21.7261 54.1571 21.8615V22.4035C54.1571 22.5391 54.1422 22.6551 54.1121 22.7517C54.0821 22.8483 54.0327 22.9273 53.9639 22.9889C53.895 23.0503 53.8031 23.0949 53.688 23.1224C53.5728 23.15 53.4315 23.1638 53.2638 23.1638H52.2016C52.0314 23.1638 51.8896 23.15 51.7757 23.1224C51.6618 23.0949 51.5704 23.0503 51.5017 22.9889C51.4328 22.9273 51.3834 22.8483 51.3534 22.7517C51.3234 22.6551 51.3083 22.5391 51.3083 22.4035V21.8615C51.3083 21.7261 51.3234 21.61 51.3534 21.5134C51.3834 21.4168 51.4328 21.3377 51.5017 21.2763C51.5704 21.2148 51.6618 21.1697 51.7757 21.1407C51.8896 21.1119 52.0314 21.0975 52.2016 21.0975H53.2638ZM51.8451 22.3094C51.8451 22.3897 51.8513 22.4563 51.864 22.5089C51.8764 22.5616 51.8983 22.6036 51.9296 22.6351C51.9608 22.6663 52.0027 22.6889 52.0553 22.7027C52.1079 22.7165 52.1742 22.7235 52.2543 22.7235H53.2114C53.2939 22.7235 53.3615 22.7165 53.414 22.7027C53.4666 22.6889 53.5085 22.6663 53.5398 22.6351C53.5711 22.6036 53.5929 22.5616 53.6055 22.5089C53.618 22.4563 53.6242 22.3897 53.6242 22.3094V21.9518C53.6242 21.8741 53.618 21.8088 53.6055 21.7562C53.5929 21.7035 53.5711 21.6607 53.5398 21.6282C53.5085 21.5956 53.4666 21.573 53.414 21.5604C53.3615 21.5479 53.2939 21.5416 53.2114 21.5416H52.2543C52.1742 21.5416 52.1079 21.5479 52.0553 21.5604C52.0027 21.573 51.9608 21.5956 51.9296 21.6282C51.8983 21.6607 51.8764 21.7035 51.864 21.7562C51.8513 21.8088 51.8451 21.8741 51.8451 21.9518V22.3094ZM56.5331 21.0975C56.7006 21.0975 56.842 21.1119 56.9572 21.1407C57.0722 21.1697 57.1642 21.2148 57.233 21.2763C57.3018 21.3377 57.3512 21.4168 57.3812 21.5134C57.4112 21.6099 57.4263 21.7261 57.4263 21.8615V22.4035C57.4263 22.5391 57.4112 22.6551 57.3812 22.7517C57.3512 22.8483 57.3018 22.9273 57.233 22.9889C57.1642 23.0503 57.0722 23.0949 56.9572 23.1224C56.842 23.15 56.7006 23.1638 56.5331 23.1638H55.1255V23.9128C55.1255 23.9682 55.098 23.9957 55.0429 23.9957H54.6751C54.6175 23.9957 54.5887 23.9682 54.5887 23.9128V21.8615C54.5887 21.7261 54.6038 21.61 54.6338 21.5134C54.6638 21.4168 54.7133 21.3377 54.7821 21.2763C54.8508 21.2148 54.9422 21.1697 55.0561 21.1407C55.17 21.1119 55.3119 21.0975 55.4821 21.0975H56.5331ZM55.1255 22.7122H56.4804C56.5631 22.7122 56.6306 22.7059 56.6832 22.6934C56.7357 22.6807 56.7776 22.6582 56.809 22.6256C56.8401 22.593 56.862 22.5503 56.8746 22.4976C56.8872 22.4449 56.8934 22.3785 56.8934 22.2981V21.9632C56.8934 21.8854 56.8872 21.8195 56.8746 21.7655C56.862 21.7117 56.8401 21.6689 56.809 21.6376C56.7776 21.6062 56.7357 21.5836 56.6832 21.5698C56.6306 21.556 56.5631 21.5491 56.4804 21.5491H55.5346C55.4545 21.5491 55.3882 21.556 55.3357 21.5698C55.283 21.5836 55.2411 21.6062 55.2099 21.6376C55.1786 21.6689 55.1567 21.7116 55.1442 21.7655C55.1318 21.8195 55.1255 21.8854 55.1255 21.9632V22.7122H55.1255ZM58.5711 21.0975C58.6262 21.0975 58.6724 21.1018 58.71 21.1106C58.7475 21.1194 58.7806 21.1345 58.8095 21.1558C58.8382 21.177 58.8644 21.206 58.8883 21.2424C58.912 21.2787 58.9389 21.3258 58.9689 21.3835L59.5921 22.6218C59.6046 22.6443 59.6221 22.6557 59.6446 22.6557H59.7046C59.7296 22.6557 59.7472 22.6443 59.7572 22.6218L60.3802 21.3835C60.4102 21.3258 60.4372 21.2787 60.461 21.2424C60.4848 21.206 60.511 21.177 60.5397 21.1558C60.5686 21.1345 60.6017 21.1194 60.6393 21.1106C60.6768 21.1018 60.7231 21.0975 60.7781 21.0975H61.1535C61.2185 21.0975 61.2723 21.1043 61.3148 21.1182C61.3574 21.132 61.3911 21.1545 61.4162 21.1859C61.4412 21.2172 61.4587 21.2581 61.4687 21.3083C61.4787 21.3585 61.4838 21.4198 61.4838 21.4927V23.0811C61.4838 23.1362 61.4562 23.1638 61.4011 23.1638H61.0296C60.9745 23.1638 60.947 23.1362 60.947 23.0811V21.5831C60.947 21.5579 60.937 21.5454 60.917 21.5454H60.8832C60.8682 21.5454 60.8575 21.5473 60.8513 21.5511C60.845 21.5547 60.8395 21.563 60.8344 21.5755L60.2189 22.7949C60.1838 22.8627 60.1519 22.9198 60.1231 22.9663C60.0944 23.0127 60.0631 23.0509 60.0293 23.0811C59.9955 23.1112 59.9567 23.1324 59.9129 23.1451C59.8692 23.1576 59.8172 23.1638 59.7572 23.1638H59.592C59.532 23.1638 59.4801 23.1576 59.4363 23.1451C59.3925 23.1324 59.3537 23.1112 59.3199 23.0811C59.2861 23.0509 59.2542 23.0127 59.2242 22.9663C59.1942 22.9198 59.1628 22.8627 59.1303 22.7949L58.5148 21.5755C58.5098 21.563 58.5041 21.5547 58.4979 21.5511C58.4916 21.5473 58.481 21.5454 58.466 21.5454H58.4322C58.4121 21.5454 58.4021 21.5579 58.4021 21.5831V23.0811C58.4021 23.1362 58.3747 23.1638 58.3196 23.1638H57.9517C57.8942 23.1638 57.8654 23.1362 57.8654 23.0811V21.4927C57.8654 21.4198 57.8705 21.3585 57.8805 21.3083C57.8905 21.2581 57.9079 21.2172 57.933 21.1859C57.958 21.1545 57.9918 21.1319 58.0344 21.1182C58.0769 21.1043 58.1319 21.0975 58.1995 21.0975H58.5711ZM63.6194 21.0975C63.787 21.0975 63.9284 21.1119 64.0434 21.1407C64.1586 21.1697 64.2506 21.2148 64.3193 21.2763C64.3882 21.3377 64.4376 21.4168 64.4676 21.5134C64.4977 21.6099 64.5127 21.7261 64.5127 21.8615V22.8627C64.5127 22.923 64.5083 22.9726 64.4995 23.0114C64.4908 23.0503 64.4757 23.0811 64.4546 23.1036C64.4332 23.1262 64.4051 23.1419 64.3701 23.1506C64.335 23.1595 64.29 23.1638 64.235 23.1638H62.4484C62.3383 23.1638 62.2463 23.1532 62.1725 23.1319C62.0987 23.1104 62.0392 23.0785 61.9942 23.0358C61.9492 22.9931 61.9172 22.938 61.8985 22.8702C61.8797 22.8025 61.8703 22.7222 61.8703 22.6293V22.4487C61.8703 22.3708 61.8797 22.3012 61.8985 22.2398C61.9172 22.1783 61.9492 22.1262 61.9942 22.0836C62.0392 22.0409 62.0986 22.0089 62.1725 21.9876C62.2463 21.9662 62.3383 21.9556 62.4484 21.9556H63.976V21.8841C63.976 21.8239 63.9697 21.7724 63.9572 21.7298C63.9447 21.6871 63.9234 21.6526 63.8934 21.6262C63.8633 21.5999 63.8221 21.5804 63.7696 21.5679C63.7169 21.5554 63.6495 21.5492 63.5668 21.5492H61.998C61.9529 21.5492 61.9304 21.5265 61.9304 21.4813V21.1651C61.9304 21.12 61.9529 21.0975 61.998 21.0975H63.6194V21.0975ZM63.867 22.7498C63.9071 22.7498 63.9353 22.7403 63.9516 22.7216C63.9679 22.7027 63.976 22.6695 63.976 22.6218V22.2906H62.6022C62.5247 22.2906 62.4703 22.3063 62.439 22.3376C62.4076 22.369 62.392 22.4148 62.392 22.475V22.554C62.392 22.6217 62.4076 22.6713 62.439 22.7027C62.4703 22.7341 62.5247 22.7498 62.6022 22.7498H63.867V22.7498ZM66.8736 21.0975C66.9285 21.0975 66.9748 21.1018 67.0124 21.1106C67.05 21.1194 67.0831 21.1345 67.1119 21.1558C67.1406 21.177 67.1669 21.206 67.1907 21.2424C67.2144 21.2787 67.2413 21.3258 67.2713 21.3835L67.8944 22.6218C67.9069 22.6443 67.9245 22.6557 67.947 22.6557H68.007C68.032 22.6557 68.0495 22.6443 68.0595 22.6218L68.6826 21.3835C68.7127 21.3258 68.7396 21.2787 68.7634 21.2424C68.7872 21.206 68.8134 21.177 68.8421 21.1558C68.871 21.1345 68.9041 21.1194 68.9416 21.1106C68.9792 21.1018 69.0255 21.0975 69.0805 21.0975H69.4559C69.5209 21.0975 69.5747 21.1043 69.6172 21.1182C69.6598 21.132 69.6935 21.1545 69.7186 21.1859C69.7435 21.2172 69.7611 21.2581 69.7711 21.3083C69.7811 21.3585 69.7862 21.4198 69.7862 21.4927V23.0811C69.7862 23.1362 69.7587 23.1638 69.7035 23.1638H69.332C69.2769 23.1638 69.2494 23.1362 69.2494 23.0811V21.5831C69.2494 21.5579 69.2395 21.5454 69.2194 21.5454H69.1857C69.1706 21.5454 69.16 21.5473 69.1538 21.5511C69.1475 21.5547 69.1418 21.563 69.1368 21.5755L68.5212 22.7949C68.4861 22.8627 68.4543 22.9198 68.4255 22.9663C68.3968 23.0127 68.3655 23.0509 68.3317 23.0811C68.2979 23.1112 68.2591 23.1324 68.2154 23.1451C68.1715 23.1576 68.1196 23.1638 68.0595 23.1638H67.8944C67.8344 23.1638 67.7825 23.1576 67.7386 23.1451C67.6949 23.1324 67.6561 23.1112 67.6223 23.0811C67.5885 23.0509 67.5566 23.0127 67.5266 22.9663C67.4965 22.9198 67.4652 22.8627 67.4327 22.7949L66.8172 21.5755C66.8122 21.563 66.8065 21.5547 66.8002 21.5511C66.794 21.5473 66.7834 21.5454 66.7683 21.5454H66.7345C66.7145 21.5454 66.7046 21.5579 66.7046 21.5831V23.0811C66.7046 23.1362 66.6771 23.1638 66.622 23.1638H66.2541C66.1966 23.1638 66.1678 23.1362 66.1678 23.0811V21.4927C66.1678 21.4198 66.1728 21.3585 66.1828 21.3083C66.1929 21.2581 66.2103 21.2172 66.2354 21.1859C66.2604 21.1545 66.2941 21.1319 66.3367 21.1182C66.3793 21.1043 66.4343 21.0975 66.5018 21.0975H66.8736ZM72.177 21.0975C72.3447 21.0975 72.486 21.1119 72.6012 21.1407C72.7162 21.1697 72.8082 21.2148 72.8771 21.2763C72.9458 21.3377 72.9953 21.4168 73.0253 21.5134C73.0553 21.6099 73.0703 21.7261 73.0703 21.8615V22.4035C73.0703 22.5391 73.0553 22.6551 73.0253 22.7517C72.9953 22.8483 72.9458 22.9273 72.8771 22.9889C72.8082 23.0503 72.7162 23.0949 72.6012 23.1224C72.486 23.15 72.3447 23.1638 72.177 23.1638H71.1147C70.9446 23.1638 70.8027 23.15 70.6889 23.1224C70.575 23.0949 70.4836 23.0503 70.4148 22.9889C70.3459 22.9273 70.2966 22.8483 70.2666 22.7517C70.2366 22.6551 70.2215 22.5391 70.2215 22.4035V21.8615C70.2215 21.7261 70.2366 21.61 70.2666 21.5134C70.2966 21.4168 70.3459 21.3377 70.4148 21.2763C70.4836 21.2148 70.575 21.1697 70.6889 21.1407C70.8027 21.1119 70.9446 21.0975 71.1147 21.0975H72.177ZM70.7582 22.3094C70.7582 22.3897 70.7645 22.4563 70.7771 22.5089C70.7896 22.5616 70.8114 22.6036 70.8428 22.6351C70.874 22.6663 70.9159 22.6889 70.9684 22.7027C71.0211 22.7165 71.0873 22.7235 71.1674 22.7235H72.1245C72.2071 22.7235 72.2746 22.7165 72.3272 22.7027C72.3797 22.6889 72.4216 22.6663 72.453 22.6351C72.4843 22.6036 72.5061 22.5616 72.5187 22.5089C72.5311 22.4563 72.5374 22.3897 72.5374 22.3094V21.9518C72.5374 21.8741 72.5311 21.8088 72.5187 21.7562C72.5061 21.7035 72.4843 21.6607 72.453 21.6282C72.4216 21.5956 72.3797 21.573 72.3272 21.5604C72.2746 21.5479 72.2071 21.5416 72.1245 21.5416H71.1674C71.0873 21.5416 71.0211 21.5479 70.9684 21.5604C70.9159 21.573 70.874 21.5956 70.8428 21.6282C70.8114 21.6607 70.7896 21.7035 70.7771 21.7562C70.7645 21.8088 70.7582 21.8741 70.7582 21.9518V22.3094ZM75.5964 20.3409C75.6613 20.3409 75.7057 20.3271 75.7295 20.2995C75.7533 20.2718 75.7652 20.2305 75.7652 20.1752V20.0548C75.7652 19.9972 75.7927 19.9683 75.8477 19.9683H76.2156C76.2732 19.9683 76.3019 19.9972 76.3019 20.0548V20.1828C76.3019 20.2907 76.2926 20.3835 76.2738 20.4613C76.255 20.5392 76.2219 20.6025 76.1743 20.6513C76.1268 20.7003 76.0636 20.7361 75.9848 20.7587C75.9059 20.7812 75.8065 20.7925 75.6864 20.7925H74.4478C74.3677 20.7925 74.3014 20.7988 74.2489 20.8113C74.1963 20.8239 74.1543 20.8439 74.1231 20.8715C74.0918 20.8992 74.0699 20.935 74.0574 20.9789C74.0449 21.0227 74.0387 21.0761 74.0387 21.1388V21.2555H75.4462C75.6138 21.2555 75.7552 21.27 75.8703 21.2988C75.9854 21.3276 76.0774 21.3728 76.1461 21.4342C76.215 21.4957 76.2644 21.5747 76.2944 21.6715C76.3244 21.7681 76.3395 21.8841 76.3395 22.0196V22.4035C76.3395 22.539 76.3244 22.6551 76.2944 22.7517C76.2644 22.8483 76.215 22.9273 76.1461 22.9888C76.0774 23.0502 75.9854 23.0949 75.8703 23.1224C75.7552 23.15 75.6138 23.1638 75.4462 23.1638H74.3953C74.2251 23.1638 74.0831 23.15 73.9692 23.1224C73.8554 23.0949 73.764 23.0502 73.6952 22.9888C73.6264 22.9273 73.577 22.8483 73.5469 22.7517C73.5169 22.6551 73.5019 22.539 73.5019 22.4035V21.1049C73.5019 20.9694 73.5169 20.8534 73.5469 20.7568C73.577 20.6602 73.6264 20.5811 73.6952 20.5196C73.764 20.4581 73.8554 20.413 73.9692 20.3841C74.0831 20.3553 74.2251 20.3409 74.3953 20.3409H75.5964V20.3409ZM74.0387 21.6469V22.2981C74.0387 22.3784 74.0449 22.4449 74.0574 22.4976C74.0699 22.5503 74.0918 22.5923 74.1231 22.6237C74.1543 22.6551 74.1963 22.6777 74.2489 22.6915C74.3014 22.7053 74.3677 22.7122 74.4478 22.7122H75.3936C75.4763 22.7122 75.5437 22.7053 75.5964 22.6915C75.6489 22.6777 75.6908 22.6551 75.7221 22.6237C75.7533 22.5923 75.7752 22.5503 75.7877 22.4976C75.8003 22.4449 75.8065 22.3785 75.8065 22.2981V22.0611C75.8065 21.9832 75.8003 21.9173 75.7877 21.8634C75.7752 21.8094 75.7533 21.7668 75.7221 21.7353C75.6908 21.7041 75.6489 21.6815 75.5964 21.6677C75.5437 21.6539 75.4763 21.6469 75.3936 21.6469H74.0387ZM77.2328 21.0975C77.2879 21.0975 77.3153 21.1263 77.3153 21.1841V22.6294C77.3153 22.6544 77.3253 22.6671 77.3454 22.6671H77.3792C77.4016 22.6671 77.418 22.6582 77.428 22.6406L78.554 21.3195C78.5865 21.2793 78.6172 21.2455 78.6459 21.218C78.6747 21.1903 78.7054 21.1677 78.7379 21.1501C78.7704 21.1325 78.8085 21.1194 78.8524 21.1106C78.8962 21.1018 78.9505 21.0975 79.0156 21.0975H79.2258C79.3409 21.0975 79.426 21.125 79.4811 21.1803C79.5361 21.2354 79.5636 21.3395 79.5636 21.4927V23.0811C79.5636 23.1362 79.5348 23.1638 79.4772 23.1638H79.1095C79.0544 23.1638 79.0268 23.1362 79.0268 23.0811V21.6319C79.0268 21.6068 79.0168 21.5943 78.9968 21.5943H78.963C78.9456 21.5943 78.9293 21.6031 78.9142 21.6206L77.7845 22.9417C77.7494 22.9819 77.7182 23.0165 77.6907 23.0453C77.6631 23.0741 77.6331 23.0974 77.6006 23.115C77.5681 23.1324 77.5305 23.1451 77.488 23.1525C77.4454 23.1601 77.3916 23.1638 77.3266 23.1638H77.124C77.0088 23.1638 76.9231 23.1369 76.8668 23.0829C76.8105 23.029 76.7823 22.9254 76.7823 22.7723V21.184C76.7823 21.1263 76.8111 21.0975 76.8687 21.0975H77.2328V21.0975ZM82.3111 21.0975C82.4237 21.0975 82.5045 21.1238 82.5532 21.1765C82.6021 21.2292 82.6265 21.3032 82.6265 21.3986V23.0735C82.6265 23.1337 82.6014 23.1638 82.5513 23.1638H82.1723C82.1198 23.1638 82.0933 23.135 82.0933 23.0773V21.6357C82.0933 21.5955 82.0697 21.5755 82.0221 21.5755H81.2076C81.1676 21.5755 81.1425 21.5836 81.1325 21.5999C81.1225 21.6162 81.115 21.6357 81.11 21.6582C81.1025 21.7135 81.0919 21.7888 81.0781 21.8841C81.0643 21.9794 81.0475 22.0817 81.0275 22.1908C81.0074 22.3 80.9836 22.4097 80.9561 22.5201C80.9286 22.6305 80.8986 22.7272 80.866 22.81C80.8411 22.8677 80.8135 22.9185 80.7835 22.9624C80.7534 23.0064 80.7166 23.0434 80.6728 23.0734C80.6289 23.1036 80.5783 23.1261 80.5208 23.1412C80.4632 23.1562 80.3944 23.1637 80.3143 23.1637H79.9578C79.9078 23.1637 79.8827 23.1361 79.8827 23.081V22.8062C79.8827 22.7484 79.9078 22.7196 79.9578 22.7196H80.2243C80.2718 22.7196 80.3187 22.7064 80.365 22.6801C80.4113 22.6537 80.4532 22.593 80.4907 22.4975C80.5333 22.3947 80.5703 22.2498 80.6014 22.0628C80.6328 21.8758 80.6684 21.6394 80.7085 21.3533C80.7185 21.2754 80.744 21.2133 80.7853 21.1669C80.8267 21.1205 80.9023 21.0974 81.0123 21.0974H82.3111V21.0975ZM83.5535 21.0975C83.6061 21.0975 83.6323 21.1276 83.6323 21.1878V21.726H85.0549C85.3176 21.726 85.5053 21.7768 85.6179 21.8784C85.7304 21.98 85.7868 22.1262 85.7868 22.3169V22.5691C85.7868 22.7648 85.7304 22.9128 85.6179 23.0132C85.5053 23.1136 85.3176 23.1638 85.0549 23.1638H83.2008C83.1307 23.1638 83.0956 23.1274 83.0956 23.0547V21.1878C83.0956 21.1275 83.1219 21.0975 83.1745 21.0975H83.5535V21.0975ZM83.6323 22.1251V22.6972C83.6323 22.7273 83.6449 22.7423 83.6698 22.7423H84.9497C85.0624 22.7423 85.1412 22.7228 85.1863 22.6839C85.2313 22.6451 85.2538 22.5855 85.2538 22.5052V22.3622C85.2538 22.2819 85.2313 22.2222 85.1863 22.1834C85.1412 22.1445 85.0624 22.1251 84.9497 22.1251H83.6323V22.1251ZM86.65 21.0975C86.7052 21.0975 86.7326 21.1263 86.7326 21.1841V21.8878H88.4442V21.1841C88.4442 21.1263 88.4717 21.0975 88.5268 21.0975H88.8946C88.9522 21.0975 88.9809 21.1263 88.9809 21.1841V23.0811C88.9809 23.1362 88.9522 23.1638 88.8946 23.1638H88.5268C88.4717 23.1638 88.4442 23.1362 88.4442 23.0811V22.332H86.7326V23.0811C86.7326 23.1362 86.7052 23.1638 86.65 23.1638H86.2822C86.2247 23.1638 86.1959 23.1362 86.1959 23.0811V21.1841C86.1959 21.1263 86.2247 21.0975 86.2822 21.0975H86.65ZM91.3718 21.0975C91.5395 21.0975 91.6809 21.1119 91.796 21.1407C91.9111 21.1697 92.003 21.2148 92.0719 21.2763C92.1407 21.3377 92.1902 21.4168 92.2202 21.5134C92.2502 21.6099 92.2651 21.7261 92.2651 21.8615V22.4035C92.2651 22.5391 92.2502 22.6551 92.2202 22.7517C92.1902 22.8483 92.1407 22.9273 92.0719 22.9889C92.003 23.0503 91.9111 23.0949 91.796 23.1224C91.6809 23.15 91.5396 23.1638 91.3718 23.1638H90.3096C90.1395 23.1638 89.9976 23.15 89.8837 23.1224C89.7699 23.0949 89.6785 23.0503 89.6097 22.9889C89.5408 22.9273 89.4915 22.8483 89.4614 22.7517C89.4314 22.6551 89.4163 22.5391 89.4163 22.4035V21.8615C89.4163 21.7261 89.4314 21.61 89.4614 21.5134C89.4915 21.4168 89.5408 21.3377 89.6097 21.2763C89.6785 21.2148 89.7699 21.1697 89.8837 21.1407C89.9976 21.1119 90.1394 21.0975 90.3096 21.0975H91.3718ZM89.9531 22.3094C89.9531 22.3897 89.9593 22.4563 89.9719 22.5089C89.9844 22.5616 90.0063 22.6036 90.0376 22.6351C90.0688 22.6663 90.1107 22.6889 90.1632 22.7027C90.2159 22.7165 90.2822 22.7235 90.3622 22.7235H91.3194C91.4019 22.7235 91.4695 22.7165 91.522 22.7027C91.5745 22.6889 91.6164 22.6663 91.6477 22.6351C91.6791 22.6036 91.7009 22.5616 91.7134 22.5089C91.7259 22.4563 91.7322 22.3897 91.7322 22.3094V21.9518C91.7322 21.8741 91.7259 21.8088 91.7134 21.7562C91.7009 21.7035 91.6791 21.6607 91.6477 21.6282C91.6164 21.5956 91.5745 21.573 91.522 21.5604C91.4695 21.5479 91.4019 21.5416 91.3194 21.5416H90.3622C90.2822 21.5416 90.2159 21.5479 90.1632 21.5604C90.1107 21.573 90.0688 21.5956 90.0376 21.6282C90.0063 21.6607 89.9844 21.7035 89.9719 21.7562C89.9593 21.8088 89.9531 21.8741 89.9531 21.9518V22.3094ZM93.1922 20.2468C93.1922 20.2243 93.1984 20.2041 93.2109 20.1865C93.2235 20.1689 93.241 20.1602 93.2636 20.1602C93.291 20.1602 93.3224 20.1741 93.3573 20.2016C93.3773 20.2192 93.4093 20.2443 93.453 20.2769C93.4968 20.3095 93.5501 20.3421 93.6126 20.3748C93.6751 20.4074 93.7465 20.4356 93.8266 20.4594C93.9067 20.4833 93.9954 20.4952 94.093 20.4952C94.1907 20.4952 94.2794 20.4833 94.3595 20.4594C94.4396 20.4356 94.5115 20.4074 94.5754 20.3748C94.6392 20.3421 94.6923 20.3095 94.7349 20.2769C94.7775 20.2443 94.81 20.2192 94.8324 20.2016C94.85 20.1865 94.8662 20.1759 94.8813 20.1696C94.8963 20.1633 94.91 20.1602 94.9225 20.1602C94.9451 20.1602 94.9625 20.1689 94.9752 20.1865C94.9877 20.2041 94.9939 20.2243 94.9939 20.2468V20.4424C94.9939 20.4701 94.9901 20.4959 94.9826 20.5196C94.9752 20.5435 94.9552 20.5692 94.9225 20.5968C94.8875 20.6244 94.8419 20.6539 94.7856 20.6852C94.7293 20.7166 94.6642 20.7454 94.5903 20.7718C94.5166 20.7982 94.4377 20.8195 94.3539 20.8358C94.27 20.8521 94.1831 20.8603 94.093 20.8603C94.003 20.8603 93.9153 20.8521 93.8303 20.8358C93.7452 20.8195 93.667 20.7982 93.5958 20.7718C93.5244 20.7454 93.46 20.7166 93.4024 20.6852C93.3449 20.6539 93.2998 20.6244 93.2672 20.5968C93.2323 20.5692 93.211 20.5435 93.2035 20.5196C93.196 20.4958 93.1922 20.4701 93.1922 20.4424V20.2468H93.1922ZM93.1584 21.0975C93.2136 21.0975 93.241 21.1263 93.241 21.1841V22.6294C93.241 22.6544 93.251 22.6671 93.271 22.6671H93.3048C93.3273 22.6671 93.3436 22.6582 93.3537 22.6406L94.4796 21.3195C94.5121 21.2793 94.5428 21.2455 94.5716 21.218C94.6003 21.1903 94.631 21.1677 94.6636 21.1501C94.6961 21.1325 94.7342 21.1194 94.778 21.1106C94.8218 21.1018 94.8762 21.0975 94.9413 21.0975H95.1516C95.2666 21.0975 95.3518 21.125 95.4067 21.1803C95.4618 21.2354 95.4893 21.3395 95.4893 21.4927V23.0811C95.4893 23.1362 95.4605 23.1638 95.403 23.1638H95.0352C94.9801 23.1638 94.9526 23.1362 94.9526 23.0811V21.6319C94.9526 21.6068 94.9426 21.5943 94.9225 21.5943H94.8887C94.8713 21.5943 94.855 21.6031 94.84 21.6206L93.7102 22.9417C93.6752 22.9819 93.644 23.0165 93.6164 23.0453C93.5889 23.0741 93.5588 23.0974 93.5264 23.115C93.4939 23.1324 93.4563 23.1451 93.4138 23.1525C93.3712 23.1601 93.3173 23.1638 93.2524 23.1638H93.0497C92.9346 23.1638 92.8488 23.1369 92.7926 23.0829C92.7363 23.029 92.7081 22.9254 92.7081 22.7723V21.184C92.7081 21.1263 92.7368 21.0975 92.7944 21.0975H93.1584V21.0975Z" fill="white"/>
<path fill-rule="evenodd" clip-rule="evenodd" d="M99.5615 21.0975C99.674 21.0975 99.7548 21.1238 99.8036 21.1765C99.8523 21.2292 99.8767 21.3032 99.8767 21.3986V22.7197H100.376C100.431 22.7197 100.459 22.7474 100.459 22.8025V23.7849C100.459 23.8401 100.431 23.8677 100.376 23.8677H100.076C100.018 23.8677 99.9894 23.8401 99.9894 23.7849V23.1638H97.5346V23.7849C97.5346 23.8401 97.5072 23.8677 97.452 23.8677H97.1517C97.0942 23.8677 97.0654 23.8401 97.0654 23.7849V22.8025C97.0654 22.7474 97.0942 22.7197 97.1517 22.7197H97.4745C97.5221 22.7197 97.569 22.7065 97.6153 22.6802C97.6616 22.6538 97.7035 22.593 97.7411 22.4976C97.7836 22.3947 97.8205 22.2499 97.8518 22.0629C97.8831 21.8759 97.9186 21.6395 97.9587 21.3533C97.9687 21.2755 97.9944 21.2134 98.0357 21.167C98.0769 21.1206 98.1526 21.0975 98.2627 21.0975H99.5615ZM99.3437 22.7197V21.6357C99.3437 21.5955 99.3199 21.5755 99.2725 21.5755H98.458C98.418 21.5755 98.3929 21.5836 98.3829 21.5999C98.3729 21.6161 98.3653 21.6356 98.3604 21.6582C98.3528 21.7084 98.3428 21.7755 98.3304 21.8596C98.3178 21.9436 98.3028 22.0353 98.2853 22.1343C98.2678 22.2335 98.2478 22.3345 98.2252 22.4374C98.2027 22.5402 98.1777 22.6343 98.1502 22.7197H99.3437ZM101.235 21.0975C101.291 21.0975 101.318 21.1263 101.318 21.1841V22.6294C101.318 22.6544 101.328 22.6671 101.348 22.6671H101.382C101.404 22.6671 101.421 22.6582 101.431 22.6406L102.557 21.3195C102.589 21.2793 102.62 21.2455 102.649 21.218C102.677 21.1903 102.708 21.1677 102.741 21.1501C102.773 21.1325 102.811 21.1194 102.855 21.1106C102.899 21.1018 102.953 21.0975 103.018 21.0975H103.229C103.344 21.0975 103.429 21.125 103.484 21.1803C103.539 21.2354 103.566 21.3395 103.566 21.4927V23.0811C103.566 23.1362 103.538 23.1638 103.48 23.1638H103.112C103.057 23.1638 103.03 23.1362 103.03 23.0811V21.6319C103.03 21.6068 103.02 21.5943 103 21.5943H102.966C102.948 21.5943 102.932 21.6031 102.917 21.6206L101.787 22.9417C101.752 22.9819 101.721 23.0165 101.693 23.0453C101.666 23.0741 101.636 23.0974 101.603 23.115C101.571 23.1324 101.533 23.1451 101.491 23.1525C101.448 23.1601 101.394 23.1638 101.329 23.1638H101.127C101.012 23.1638 100.926 23.1369 100.87 23.0829C100.813 23.029 100.785 22.9254 100.785 22.7723V21.184C100.785 21.1263 100.814 21.0975 100.871 21.0975H101.235V21.0975ZM106.348 21.0975C106.393 21.0975 106.415 21.1201 106.415 21.1652V21.4814C106.415 21.5265 106.393 21.5492 106.348 21.5492H104.891C104.809 21.5492 104.741 21.556 104.689 21.5698C104.636 21.5837 104.595 21.6062 104.565 21.6377C104.535 21.6689 104.513 21.7117 104.501 21.7655C104.488 21.8195 104.482 21.8854 104.482 21.9632V22.2982C104.482 22.3785 104.488 22.445 104.501 22.4976C104.513 22.5503 104.535 22.5923 104.565 22.6238C104.595 22.6552 104.636 22.6777 104.689 22.6916C104.741 22.7054 104.809 22.7123 104.891 22.7123H106.348C106.393 22.7123 106.415 22.7348 106.415 22.78V23.0961C106.415 23.1413 106.393 23.1639 106.348 23.1639H104.839C104.669 23.1639 104.526 23.1501 104.413 23.1224C104.299 23.0949 104.208 23.0503 104.139 22.9889C104.07 22.9273 104.021 22.8483 103.99 22.7518C103.96 22.6552 103.945 22.5391 103.945 22.4035V21.8615C103.945 21.7261 103.96 21.61 103.99 21.5134C104.021 21.4168 104.07 21.3377 104.139 21.2763C104.208 21.2148 104.299 21.1697 104.413 21.1408C104.526 21.1119 104.669 21.0975 104.839 21.0975H106.348V21.0975ZM109.478 21.0975C109.523 21.0975 109.546 21.1201 109.546 21.1652V21.4814C109.546 21.5265 109.523 21.5492 109.478 21.5492H108.371V23.0811C108.371 23.1362 108.343 23.1638 108.288 23.1638H107.92C107.863 23.1638 107.834 23.1362 107.834 23.0811V21.5492H106.727C106.682 21.5492 106.659 21.5265 106.659 21.4814V21.1652C106.659 21.1201 106.682 21.0975 106.727 21.0975H109.478ZM111.764 21.0975C111.931 21.0975 112.073 21.1119 112.188 21.1407C112.303 21.1697 112.395 21.2148 112.464 21.2763C112.533 21.3377 112.582 21.4168 112.612 21.5134C112.642 21.6099 112.657 21.7261 112.657 21.8615V22.4035C112.657 22.5391 112.642 22.6551 112.612 22.7517C112.582 22.8483 112.533 22.9273 112.464 22.9889C112.395 23.0503 112.303 23.0949 112.188 23.1224C112.073 23.15 111.931 23.1638 111.764 23.1638H110.356V23.9128C110.356 23.9682 110.329 23.9957 110.274 23.9957H109.906C109.848 23.9957 109.819 23.9682 109.819 23.9128V21.8615C109.819 21.7261 109.835 21.61 109.865 21.5134C109.895 21.4168 109.944 21.3377 110.013 21.2763C110.082 21.2148 110.173 21.1697 110.287 21.1407C110.401 21.1119 110.543 21.0975 110.713 21.0975H111.764ZM110.356 22.7122H111.711C111.794 22.7122 111.861 22.7059 111.914 22.6934C111.966 22.6807 112.008 22.6582 112.04 22.6256C112.071 22.593 112.093 22.5503 112.105 22.4976C112.118 22.4449 112.124 22.3785 112.124 22.2981V21.9632C112.124 21.8854 112.118 21.8195 112.105 21.7655C112.093 21.7117 112.071 21.6689 112.04 21.6376C112.008 21.6062 111.966 21.5836 111.914 21.5698C111.861 21.556 111.794 21.5491 111.711 21.5491H110.765C110.685 21.5491 110.619 21.556 110.566 21.5698C110.514 21.5836 110.472 21.6062 110.441 21.6376C110.409 21.6689 110.387 21.7116 110.375 21.7655C110.362 21.8195 110.356 21.8854 110.356 21.9632V22.7122ZM113.55 21.0975C113.605 21.0975 113.633 21.1263 113.633 21.1841V22.6294C113.633 22.6544 113.643 22.6671 113.663 22.6671H113.697C113.719 22.6671 113.736 22.6582 113.746 22.6406L114.871 21.3195C114.904 21.2793 114.935 21.2455 114.964 21.218C114.992 21.1903 115.023 21.1677 115.055 21.1501C115.088 21.1325 115.126 21.1194 115.17 21.1106C115.214 21.1018 115.268 21.0975 115.333 21.0975H115.543C115.658 21.0975 115.744 21.125 115.799 21.1803C115.854 21.2354 115.881 21.3395 115.881 21.4927V23.0811C115.881 23.1362 115.852 23.1638 115.795 23.1638H115.427C115.372 23.1638 115.344 23.1362 115.344 23.0811V21.6319C115.344 21.6068 115.334 21.5943 115.314 21.5943H115.281C115.263 21.5943 115.247 21.6031 115.232 21.6206L114.102 22.9417C114.067 22.9819 114.036 23.0165 114.008 23.0453C113.981 23.0741 113.951 23.0974 113.918 23.115C113.886 23.1324 113.848 23.1451 113.806 23.1525C113.763 23.1601 113.709 23.1638 113.644 23.1638H113.442C113.326 23.1638 113.241 23.1369 113.184 23.0829C113.128 23.029 113.1 22.9254 113.1 22.7723V21.184C113.1 21.1263 113.129 21.0975 113.186 21.0975H113.55V21.0975ZM118.434 20.3409C118.499 20.3409 118.543 20.3271 118.567 20.2995C118.59 20.2718 118.602 20.2305 118.602 20.1752V20.0548C118.602 19.9972 118.63 19.9683 118.685 19.9683H119.053C119.11 19.9683 119.139 19.9972 119.139 20.0548V20.1828C119.139 20.2907 119.13 20.3835 119.111 20.4613C119.092 20.5392 119.059 20.6025 119.011 20.6513C118.964 20.7003 118.901 20.7361 118.822 20.7587C118.743 20.7812 118.644 20.7925 118.524 20.7925H117.285C117.205 20.7925 117.139 20.7988 117.086 20.8113C117.033 20.8239 116.992 20.8439 116.96 20.8715C116.929 20.8992 116.907 20.935 116.895 20.9789C116.882 21.0227 116.876 21.0761 116.876 21.1388V21.2555H118.283C118.451 21.2555 118.592 21.27 118.708 21.2988C118.823 21.3276 118.915 21.3728 118.983 21.4342C119.052 21.4957 119.102 21.5747 119.132 21.6715C119.162 21.7681 119.177 21.8841 119.177 22.0196V22.4035C119.177 22.539 119.162 22.6551 119.132 22.7517C119.102 22.8483 119.052 22.9273 118.983 22.9888C118.915 23.0502 118.823 23.0949 118.708 23.1224C118.592 23.15 118.451 23.1638 118.283 23.1638H117.232C117.062 23.1638 116.92 23.15 116.806 23.1224C116.693 23.0949 116.601 23.0502 116.532 22.9888C116.464 22.9273 116.414 22.8483 116.384 22.7517C116.354 22.6551 116.339 22.539 116.339 22.4035V21.1049C116.339 20.9694 116.354 20.8534 116.384 20.7568C116.414 20.6602 116.464 20.5811 116.532 20.5196C116.601 20.4581 116.693 20.413 116.806 20.3841C116.92 20.3553 117.062 20.3409 117.232 20.3409H118.434V20.3409ZM116.876 21.6469V22.2981C116.876 22.3784 116.882 22.4449 116.895 22.4976C116.907 22.5503 116.929 22.5923 116.96 22.6237C116.991 22.6551 117.033 22.6777 117.086 22.6915C117.139 22.7053 117.205 22.7122 117.285 22.7122H118.231C118.313 22.7122 118.381 22.7053 118.433 22.6915C118.486 22.6777 118.528 22.6551 118.559 22.6237C118.59 22.5923 118.612 22.5503 118.625 22.4976C118.637 22.4449 118.644 22.3785 118.644 22.2981V22.0611C118.644 21.9832 118.637 21.9173 118.625 21.8634C118.612 21.8094 118.59 21.7668 118.559 21.7353C118.528 21.7041 118.486 21.6815 118.433 21.6677C118.381 21.6539 118.313 21.6469 118.231 21.6469H116.876ZM122.228 21.0975C122.256 21.0975 122.274 21.1068 122.283 21.1257C122.291 21.1445 122.289 21.1665 122.277 21.1916L120.836 23.7398C120.786 23.8276 120.715 23.8921 120.624 23.9335C120.532 23.975 120.405 23.9956 120.243 23.9956H119.98C119.935 23.9956 119.912 23.9731 119.912 23.928V23.6193C119.912 23.5741 119.935 23.5514 119.98 23.5514H120.201C120.296 23.5514 120.36 23.5227 120.393 23.465L120.595 23.1074C120.533 23.1023 120.485 23.0873 120.451 23.0622C120.417 23.0371 120.385 22.9983 120.355 22.9455L119.342 21.1916C119.329 21.1665 119.327 21.1445 119.336 21.1257C119.345 21.1068 119.363 21.0975 119.391 21.0975H119.822C119.865 21.0975 119.895 21.115 119.912 21.1501L120.746 22.5993C120.766 22.6343 120.781 22.6576 120.793 22.6688C120.804 22.6802 120.818 22.6858 120.836 22.6858L121.718 21.1501C121.735 21.115 121.765 21.0975 121.808 21.0975H122.228ZM122.998 21.0975C123.053 21.0975 123.08 21.1263 123.08 21.1841V22.6406C123.08 22.6934 123.106 22.7197 123.159 22.7197H124.792V21.1841C124.792 21.1263 124.819 21.0975 124.874 21.0975H125.242C125.3 21.0975 125.328 21.1263 125.328 21.1841V22.7197H125.824C125.879 22.7197 125.906 22.7474 125.906 22.8025V23.7849C125.906 23.8401 125.879 23.8677 125.824 23.8677H125.524C125.466 23.8677 125.437 23.8401 125.437 23.7849V23.1638H122.893C122.765 23.1638 122.675 23.1381 122.622 23.0868C122.57 23.0353 122.543 22.9543 122.543 22.844V21.1841C122.543 21.1264 122.572 21.0975 122.63 21.0975H122.998V21.0975ZM126.683 21.0975C126.739 21.0975 126.766 21.1263 126.766 21.1841V22.6294C126.766 22.6544 126.776 22.6671 126.796 22.6671H126.83C126.852 22.6671 126.869 22.6582 126.879 22.6406L128.005 21.3195C128.037 21.2793 128.068 21.2455 128.097 21.218C128.125 21.1903 128.156 21.1677 128.189 21.1501C128.221 21.1325 128.259 21.1194 128.303 21.1106C128.347 21.1018 128.401 21.0975 128.466 21.0975H128.677C128.792 21.0975 128.877 21.125 128.932 21.1803C128.987 21.2354 129.014 21.3395 129.014 21.4927V23.0811C129.014 23.1362 128.986 23.1638 128.928 23.1638H128.56C128.505 23.1638 128.478 23.1362 128.478 23.0811V21.6319C128.478 21.6068 128.467 21.5943 128.447 21.5943H128.414C128.396 21.5943 128.38 21.6031 128.365 21.6206L127.235 22.9417C127.2 22.9819 127.169 23.0165 127.141 23.0453C127.114 23.0741 127.084 23.0974 127.051 23.115C127.019 23.1324 126.981 23.1451 126.939 23.1525C126.896 23.1601 126.842 23.1638 126.777 23.1638H126.575C126.459 23.1638 126.374 23.1369 126.317 23.0829C126.261 23.029 126.233 22.9254 126.233 22.7723V21.184C126.233 21.1263 126.262 21.0975 126.319 21.0975H126.683V21.0975ZM129.934 21.0975C129.989 21.0975 130.016 21.1263 130.016 21.1841V22.6294C130.016 22.6544 130.026 22.6671 130.046 22.6671H130.08C130.103 22.6671 130.119 22.6582 130.129 22.6406L131.255 21.3195C131.288 21.2793 131.318 21.2455 131.347 21.218C131.376 21.1903 131.407 21.1677 131.439 21.1501C131.471 21.1325 131.51 21.1194 131.553 21.1106C131.597 21.1018 131.652 21.0975 131.717 21.0975H131.927C132.042 21.0975 132.127 21.125 132.182 21.1803C132.237 21.2354 132.265 21.3395 132.265 21.4927V23.0811C132.265 23.1362 132.236 23.1638 132.178 23.1638H131.811C131.756 23.1638 131.728 23.1362 131.728 23.0811V21.6319C131.728 21.6068 131.718 21.5943 131.698 21.5943H131.664C131.647 21.5943 131.631 21.6031 131.615 21.6206L130.486 22.9417C130.451 22.9819 130.419 23.0165 130.392 23.0453C130.364 23.0741 130.334 23.0974 130.302 23.115C130.269 23.1324 130.232 23.1451 130.189 23.1525C130.147 23.1601 130.093 23.1638 130.028 23.1638H129.825C129.71 23.1638 129.624 23.1369 129.568 23.0829C129.512 23.029 129.484 22.9254 129.484 22.7723V21.184C129.484 21.1263 129.512 21.0975 129.57 21.0975H129.934V21.0975Z" fill="white"/>
<path fill-rule="evenodd" clip-rule="evenodd" d="M11.0921 18.858C13.1839 21.4933 17.0101 21.9292 19.638 19.8315L20.1512 20.4778C23.1351 18.096 23.6287 13.7394 21.2535 10.747C18.8784 7.75458 14.5338 7.25969 11.5499 9.64151L12.0629 10.2879C9.43497 12.3856 9.00025 16.2225 11.0921 18.858ZM10.0684 19.6751C7.52645 16.4728 8.05466 11.8103 11.2481 9.26138C14.4414 6.71237 19.0908 7.24194 21.6326 10.4443C24.1745 13.6467 23.6464 18.309 20.453 20.8581C17.2596 23.407 12.6102 22.8774 10.0684 19.6751Z" fill="#2E9FBF"/>
<path fill-rule="evenodd" clip-rule="evenodd" d="M6.75127 14.7726C6.59323 19.8122 10.539 24.026 15.5646 24.1846L15.5258 25.4207C21.232 25.6006 26.0033 21.1077 26.1827 15.3854C26.3622 9.66319 21.8818 4.87849 16.1756 4.69858L16.1368 5.93465C11.1115 5.77608 6.90927 9.733 6.75127 14.7726ZM4.79366 14.7109C4.98567 8.58702 10.0918 3.77886 16.1985 3.97141C22.305 4.16401 27.0999 9.28451 26.9077 15.4083C26.7158 21.5321 21.6096 26.3403 15.503 26.1477C9.39633 25.9551 4.60154 20.8347 4.79366 14.7109Z" fill="white"/>
<path fill-rule="evenodd" clip-rule="evenodd" d="M6.13442 22.297C10.1202 27.6781 17.7014 28.8002 23.0675 24.8033L24.0451 26.1232C30.138 21.5848 31.4086 12.9525 26.8829 6.84236C22.3572 0.732266 13.7491 -0.541847 7.65606 3.99652L8.63367 5.31637C3.26758 9.31334 2.14861 16.9159 6.13442 22.297ZM4.04404 23.854C-0.79923 17.3152 0.560544 8.07704 7.08111 3.22017C13.6015 -1.63669 22.8139 -0.273154 27.6571 6.26565C32.5004 12.8045 31.1407 22.0426 24.6202 26.8995C18.0996 31.7564 8.8873 30.3928 4.04404 23.854Z" fill="#2E9FBF"/>
<path fill-rule="evenodd" clip-rule="evenodd" d="M4.28704 9.67716C4.75559 8.66222 5.36092 7.7014 6.09848 6.8244L5.11982 5.93994C4.30589 6.90157 3.63676 7.95537 3.11719 9.06889L4.28704 9.67716Z" fill="#69D4CE"/>
<path fill-rule="evenodd" clip-rule="evenodd" d="M20.4628 26.98C18.3366 27.8085 16.0589 28.0322 13.8695 27.6866L13.6113 28.9819C16.0401 29.3748 18.5695 29.1322 20.93 28.2145L20.4628 26.98Z" fill="#69D4CE"/>
<path fill-rule="evenodd" clip-rule="evenodd" d="M6.13465 22.2971C7.40508 24.0123 9.04116 25.294 10.854 26.1159L9.55281 28.3898C7.44009 27.3882 5.53505 25.8667 4.04429 23.854C2.14096 21.2844 1.19616 18.2978 1.14551 15.3242H3.74959C3.80021 17.7559 4.57829 20.1959 6.13465 22.2971Z" fill="white"/>
<path fill-rule="evenodd" clip-rule="evenodd" d="M118.031 6.32715C118.269 6.32715 118.388 6.44628 118.388 6.68445V8.27613C118.388 8.52505 118.269 8.64952 118.031 8.64952H110.824C110.403 8.64952 110.055 8.68495 109.78 8.75535C109.504 8.82572 109.286 8.94487 109.124 9.11242C108.962 9.28019 108.846 9.50503 108.776 9.78656C108.705 10.0683 108.67 10.4254 108.67 10.8585V13.1648C108.67 13.598 108.705 13.9579 108.776 14.2448C108.846 14.5318 108.962 14.7591 109.124 14.927C109.286 15.0948 109.504 15.214 109.78 15.2842C110.055 15.3547 110.403 15.3899 110.824 15.3899H118.031C118.269 15.3899 118.388 15.509 118.388 15.7472V17.3388C118.388 17.5771 118.269 17.6961 118.031 17.6961H110.727C109.907 17.6961 109.21 17.6205 108.638 17.4689C108.066 17.3171 107.599 17.0709 107.237 16.7298C106.875 16.3887 106.611 15.9448 106.443 15.3982C106.276 14.8511 106.192 14.1881 106.192 13.4085V10.6149C106.192 9.83526 106.276 9.17488 106.443 8.63366C106.611 8.0923 106.875 7.65087 107.237 7.30971C107.599 6.96868 108.066 6.71976 108.638 6.56273C109.21 6.40565 109.907 6.32724 110.727 6.32724H118.031V6.32715Z" fill="white"/>
<path fill-rule="evenodd" clip-rule="evenodd" d="M95.2279 13.5059H100.799L98.2241 8.74707C98.1809 8.67127 98.1217 8.63355 98.0461 8.63355H97.9488C97.8732 8.63355 97.8139 8.67127 97.7705 8.74707L95.2279 13.5059ZM98.3699 6.32715C98.7803 6.32715 99.1256 6.41122 99.4065 6.57882C99.6871 6.74671 99.9626 7.0743 100.233 7.56153L105.593 17.3227C105.647 17.4308 105.661 17.5204 105.634 17.5906C105.607 17.661 105.529 17.6961 105.399 17.6961H103.342C103.158 17.6961 103.034 17.6257 102.97 17.4849L101.82 15.3899H94.2077L93.0901 17.4849C93.0146 17.6257 92.8904 17.6961 92.7175 17.6961H90.6121C90.4718 17.6961 90.388 17.661 90.3612 17.5906C90.3341 17.5204 90.3476 17.4308 90.4017 17.3227L95.7139 7.56153C95.9837 7.0743 96.2484 6.74671 96.5073 6.57882C96.7666 6.41122 97.069 6.32715 97.4145 6.32715H98.3699Z" fill="white"/>
<path fill-rule="evenodd" clip-rule="evenodd" d="M78.6264 6.32715C78.8641 6.32715 78.9829 6.44628 78.9829 6.68445V10.9072H86.5627V6.68445C86.5627 6.44628 86.6813 6.32715 86.9189 6.32715H88.668C88.9163 6.32715 89.0405 6.44628 89.0405 6.68445V17.3387C89.0405 17.577 88.9163 17.696 88.668 17.696H86.9189C86.6814 17.696 86.5627 17.577 86.5627 17.3387V13.0185H78.9829V17.3387C78.9829 17.577 78.8641 17.696 78.6264 17.696H76.8774C76.6291 17.696 76.5049 17.577 76.5049 17.3387V6.68445C76.5049 6.44628 76.6291 6.32715 76.8774 6.32715H78.6264Z" fill="white"/>
<path fill-rule="evenodd" clip-rule="evenodd" d="M62.9008 13.2297C62.9008 13.652 62.9357 14.0065 63.0061 14.2935C63.0762 14.5805 63.1923 14.8078 63.3542 14.9756C63.5161 15.1434 63.7348 15.2627 64.0101 15.333C64.2856 15.4033 64.6337 15.4385 65.0547 15.4385H69.865C70.2861 15.4385 70.6343 15.4033 70.9096 15.333C71.1851 15.2627 71.4036 15.1434 71.5656 14.9756C71.7275 14.8078 71.8436 14.5805 71.9138 14.2935C71.984 14.0065 72.019 13.652 72.019 13.2297V10.7935C72.019 10.3712 71.984 10.0168 71.9138 9.72975C71.8436 9.44279 71.7275 9.21537 71.5656 9.04759C71.4036 8.87965 71.1851 8.76072 70.9096 8.69012C70.6343 8.61978 70.2861 8.5847 69.865 8.5847H65.0547C64.6337 8.5847 64.2857 8.61978 64.0101 8.69012C63.7348 8.76075 63.5161 8.87968 63.3542 9.04759C63.1923 9.21537 63.0762 9.44279 63.0061 9.72975C62.9357 10.0168 62.9008 10.3712 62.9008 10.7935V13.2297ZM69.9623 6.32715C70.7827 6.32715 71.4818 6.40556 72.0596 6.56265C72.6372 6.71965 73.1069 6.96859 73.4686 7.30963C73.8304 7.65078 74.0923 8.09221 74.2541 8.63358C74.416 9.1748 74.4969 9.83517 74.4969 10.6148V13.4084C74.4969 14.188 74.416 14.851 74.2541 15.3981C74.0923 15.9447 73.8304 16.3886 73.4686 16.7297C73.1069 17.0708 72.6372 17.317 72.0596 17.4689C71.4818 17.6204 70.7827 17.696 69.9623 17.696H64.9576C64.137 17.696 63.4407 17.6204 62.8683 17.4689C62.2962 17.317 61.8292 17.0708 61.4674 16.7297C61.1058 16.3886 60.8411 15.9447 60.6739 15.3981C60.5065 14.851 60.4229 14.188 60.4229 13.4084V10.6148C60.4229 9.83517 60.5065 9.1748 60.6739 8.63358C60.8411 8.09221 61.1058 7.65078 61.4674 7.30963C61.8292 6.96859 62.2962 6.71968 62.8683 6.56265C63.4407 6.40556 64.137 6.32715 64.9576 6.32715H69.9623Z" fill="white"/>
<path fill-rule="evenodd" clip-rule="evenodd" d="M56.9081 6.32715C57.4479 6.32715 57.8313 6.43815 58.058 6.66014C58.2848 6.88202 58.398 7.23119 58.398 7.7077V17.3387C58.398 17.577 58.2791 17.6961 58.0417 17.6961H56.2765C56.0388 17.6961 55.9201 17.577 55.9201 17.3387V8.97458C55.9201 8.75793 55.8068 8.64952 55.58 8.64952H51.7578C51.5634 8.64952 51.442 8.70124 51.3935 8.80408C51.3448 8.90683 51.3096 9.0234 51.288 9.15313C51.2341 9.69444 51.172 10.2603 51.1019 10.8505C51.0317 11.4405 50.9478 12.0252 50.8505 12.6044C50.7535 13.1838 50.6482 13.7359 50.535 14.2611C50.4217 14.7861 50.2948 15.2599 50.1545 15.6821C49.9383 16.3534 49.636 16.857 49.2474 17.1926C48.8586 17.5282 48.3027 17.696 47.5794 17.696H45.9274C45.6787 17.696 45.5547 17.577 45.5547 17.3387V15.7472C45.5547 15.5089 45.6787 15.3899 45.9274 15.3899H47.1582C47.3957 15.3899 47.6195 15.3059 47.8302 15.1382C48.0409 14.9702 48.2327 14.6264 48.4053 14.1067C48.5024 13.8035 48.5914 13.457 48.6725 13.0672C48.7535 12.6774 48.8317 12.2281 48.9073 11.7193C48.983 11.2105 49.0612 10.631 49.1422 9.98134C49.223 9.33162 49.3121 8.58467 49.4094 7.74014C49.4526 7.30687 49.5713 6.96328 49.7657 6.70893C49.9602 6.45429 50.3163 6.32715 50.8347 6.32715H56.9081Z" fill="white"/>
<path fill-rule="evenodd" clip-rule="evenodd" d="M131.833 8.63331C132.069 8.63331 132.187 8.51419 132.187 8.27845V6.69795C132.187 6.45162 132.068 6.32715 131.833 6.32715H124.526C123.706 6.32715 123.009 6.40271 122.437 6.55431C121.864 6.70597 121.398 6.95239 121.036 7.29342C120.674 7.63457 120.41 8.07845 120.242 8.62507C120.075 9.17212 119.991 9.83514 119.991 10.6148V13.4084C119.991 14.188 120.075 14.8484 120.242 15.3896C120.41 15.931 120.674 16.3724 121.036 16.7136C121.398 17.0546 121.864 17.3035 122.437 17.4605C123.009 17.6176 123.705 17.696 124.526 17.696H131.83C132.068 17.696 132.187 17.5769 132.187 17.3387V15.7471C132.187 15.4981 132.068 15.3737 131.83 15.3737H124.623C124.202 15.3737 123.854 15.3382 123.578 15.2678C123.303 15.1974 123.084 15.0783 122.923 14.9108C122.761 14.743 122.645 14.5182 122.574 14.2366C122.504 13.9549 122.469 13.5978 122.469 13.1646V10.8583C122.469 10.4252 122.504 10.0653 122.574 9.77837C122.645 9.49144 122.761 9.2641 122.923 9.09621C123.084 8.92844 123.304 8.8091 123.578 8.739C123.854 8.66872 124.202 8.63329 124.623 8.63329H131.833V8.63331Z" fill="white"/>
<path fill-rule="evenodd" clip-rule="evenodd" d="M40.1455 8.6505C39.7246 8.6505 39.3762 8.68593 39.1009 8.75632C38.8257 8.82669 38.6069 8.94585 38.445 9.11339C38.2831 9.28116 38.1671 9.506 38.0968 9.78753C38.0266 10.0693 37.9915 10.4264 37.9915 10.8595V17.3397C37.9915 17.578 37.873 17.697 37.6352 17.697H35.8862C35.6379 17.697 35.5137 17.578 35.5137 17.3397V10.6158C35.5137 9.83615 35.5974 9.17577 35.7646 8.63455C35.932 8.09319 36.1966 7.65176 36.5582 7.3106C36.92 6.96957 37.387 6.72054 37.9589 6.56362C38.5314 6.40654 39.2279 6.32812 40.0483 6.32812H46.705C46.9424 6.32812 47.0611 6.44844 47.0611 6.68542V8.27711C47.0611 8.52486 46.9411 8.6505 46.705 8.6505H40.1455Z" fill="white"/>
</svg>
