<svg width="16" height="16" viewBox="0 0 16 16" fill="none" xmlns="http://www.w3.org/2000/svg">
<path d="M8.00434 1C6.033 1 4.173 1.866 2.90234 3.37466L3.92234 4.234C4.939 3.026 6.427 2.33334 8.00434 2.33334C9.577 2.33334 11.0623 3.02334 12.0797 4.22534L13.0977 3.36469C11.8263 1.862 9.96966 1 8.00434 1Z" fill="currentColor"/>
<path d="M8.00469 5.00034C8.85203 5.00034 9.63003 5.38968 10.1393 6.06768L11.206 5.26834C10.4427 4.25034 9.276 3.66699 8.00469 3.66699C6.73403 3.66699 5.56803 4.25034 4.80469 5.26634L5.87134 6.06699C6.38069 5.38968 7.158 5.00034 8.00469 5.00034Z" fill="currentColor"/>
<path d="M9.33267 7H6.66602C5.56336 7 4.66602 7.89734 4.66602 9V13C4.66602 14.1027 5.56336 15 6.66602 15H9.33267C10.4353 15 11.3327 14.1027 11.3327 13V9C11.3327 7.89734 10.436 7 9.33267 7ZM7.99933 12.4987C7.53867 12.4987 7.16598 12.1253 7.16598 11.6653C7.16598 11.2053 7.53864 10.832 7.99933 10.832C8.45933 10.832 8.83267 11.2053 8.83267 11.6653C8.83267 12.1253 8.46001 12.4987 7.99933 12.4987Z" fill="currentColor"/>
</svg>
