<svg width="16" height="16" viewBox="0 0 16 16" fill="none" xmlns="http://www.w3.org/2000/svg">
<path d="M13.0152 8.68542C13.0444 8.46667 13.059 8.24062 13.059 8C13.059 7.76667 13.0444 7.53333 13.0079 7.31458L14.4881 6.1625C14.6194 6.06042 14.6558 5.86354 14.5756 5.71771L13.1756 3.29688C13.0881 3.13646 12.9058 3.08542 12.7454 3.13646L11.0027 3.83646C10.6381 3.55937 10.2517 3.32604 9.82146 3.15104L9.55896 1.29896C9.52979 1.12396 9.38396 1 9.20896 1H6.40896C6.23396 1 6.09542 1.12396 6.06625 1.29896L5.80375 3.15104C5.37354 3.32604 4.97979 3.56667 4.6225 3.83646L2.87979 3.13646C2.71937 3.07812 2.53708 3.13646 2.44958 3.29688L1.05688 5.71771C0.969375 5.87083 0.998542 6.06042 1.14438 6.1625L2.62458 7.31458C2.58812 7.53333 2.55896 7.77396 2.55896 8C2.55896 8.22604 2.57354 8.46667 2.61 8.68542L1.12979 9.8375C0.998542 9.93958 0.962084 10.1365 1.04229 10.2823L2.44229 12.7031C2.52979 12.8635 2.71208 12.9146 2.8725 12.8635L4.61521 12.1635C4.97979 12.4406 5.36625 12.674 5.79646 12.849L6.05896 14.701C6.09542 14.876 6.23396 15 6.40896 15H9.20896C9.38396 15 9.52979 14.876 9.55167 14.701L9.81417 12.849C10.2444 12.674 10.6381 12.4406 10.9954 12.1635L12.7381 12.8635C12.8985 12.9219 13.0808 12.8635 13.1683 12.7031L14.5683 10.2823C14.6558 10.1219 14.6194 9.93958 14.4808 9.8375L13.0152 8.68542ZM7.80896 10.625C6.36521 10.625 5.18396 9.44375 5.18396 8C5.18396 6.55625 6.36521 5.375 7.80896 5.375C9.25271 5.375 10.434 6.55625 10.434 8C10.434 9.44375 9.25271 10.625 7.80896 10.625Z" fill="currentColor"/>
</svg>
