<svg xmlns="http://www.w3.org/2000/svg" fill="none" viewBox="0 0 620 620"><circle cx="310" cy="310" r="310" fill="url(#a)" opacity=".3" transform="rotate(-180 310 310)"/><circle cx="310" cy="310" r="265" fill="url(#b)" transform="rotate(-180 310 310)"/><path stroke="url(#c)" stroke-width="4" d="M394.47 563.6c80.17-27.42 138.96-89.08 165.65-163.1m1.45-177.84A267.64 267.64 0 0 0 422.65 66.85m-358.1 356a268.19 268.19 0 0 0 149.74 138.36m-148.3-368.1a270.1 270.1 0 0 1 9.8-18.53A267.25 267.25 0 0 1 192.77 66.85"/><rect width="36" height="36.04" x="477.39" y="100.45" fill="#00E9E8" rx="18"/><path fill="#000" d="M500.51 106h-11.52c-1.1 0-1.99.87-1.99 1.94v22.76c0 1.07.89 1.94 2 1.94h11.51c1.1 0 2-.87 2-1.94v-22.76c0-1.07-.9-1.94-2-1.94Zm-8.6 1.18h5.69c.14 0 .26.2.26.46s-.12.47-.26.47h-5.7c-.14 0-.25-.2-.25-.47 0-.25.11-.46.26-.46Zm2.84 23.54c-.7 0-1.27-.56-1.27-1.24 0-.68.57-1.23 1.27-1.23.7 0 1.27.55 1.27 1.23 0 .69-.57 1.24-1.27 1.24Zm6.26-4.24h-12.52v-17.2h12.52v17.2Z"/><path fill="#252F37" d="M500.51 106h-11.52c-1.1 0-1.99.87-1.99 1.94v22.76c0 1.07.89 1.94 2 1.94h11.51c1.1 0 2-.87 2-1.94v-22.76c0-1.07-.9-1.94-2-1.94Zm-8.6 1.18h5.69c.14 0 .26.2.26.46s-.12.47-.26.47h-5.7c-.14 0-.25-.2-.25-.47 0-.25.11-.46.26-.46Zm2.84 23.54c-.7 0-1.27-.56-1.27-1.24 0-.68.57-1.23 1.27-1.23.7 0 1.27.55 1.27 1.23 0 .69-.57 1.24-1.27 1.24Zm6.26-4.24h-12.52v-17.2h12.52v17.2Z"/><g fill="#252F37" clip-path="url(#d)"><path d="M494.75 122.07c.6 0 1.09-.47 1.09-1.05 0-.58-.49-1.05-1.08-1.05-.6 0-1.08.47-1.08 1.05 0 .58.48 1.05 1.07 1.05Z"/><path d="M497.34 118.48a1 1 0 0 0-.05-.04l-.05-.05-.03-.02a3.6 3.6 0 0 0-4.87.11l-.15.16-.22.2a.65.65 0 0 0 0 .94c.27.26.7.26.96 0l.37-.36a2.22 2.22 0 0 1 3.08 0l.27.25a.7.7 0 0 0 .95 0 .64.64 0 0 0 0-.92l-.26-.27Z"/><path d="m499.18 117.18-.23-.22-.18-.17a6 6 0 0 0-8.05.1l-.03.03-.4.39a.59.59 0 0 0 0 .85c.24.23.63.24.87 0l.41-.4a4.74 4.74 0 0 1 6.42-.04l.31.31c.25.24.64.24.88 0a.59.59 0 0 0 0-.85Z"/></g><rect width="36" height="36.04" x="101.05" y="100.45" fill="#00E0FF" rx="18"/><path fill="#000" d="M123.4 107.66h-9.08c-.87 0-1.57.7-1.57 1.58v18.47c0 .87.7 1.57 1.57 1.57h9.09c.87 0 1.57-.7 1.57-1.57v-18.47c0-.87-.7-1.58-1.57-1.58Zm-6.78.96h4.49c.11 0 .2.17.2.38 0 .2-.09.38-.2.38h-4.49c-.11 0-.2-.17-.2-.38s.09-.38.2-.38Zm2.24 19.1a1 1 0 0 1 0-2 1 1 0 0 1 0 2Zm4.94-3.44h-9.87v-13.96h9.87v13.97Z"/><path fill="#252F37" d="M123.4 107.66h-9.08c-.87 0-1.57.7-1.57 1.58v18.47c0 .87.7 1.57 1.57 1.57h9.09c.87 0 1.57-.7 1.57-1.57v-18.47c0-.87-.7-1.58-1.57-1.58Zm-6.78.96h4.49c.11 0 .2.17.2.38 0 .2-.09.38-.2.38h-4.49c-.11 0-.2-.17-.2-.38s.09-.38.2-.38Zm2.24 19.1a1 1 0 0 1 0-2 1 1 0 0 1 0 2Zm4.94-3.44h-9.87v-13.96h9.87v13.97Z"/><path fill="#E3E3E3" d="m306.9 394.45 4.62 8.03h-9.26l4.63-8.03Zm-.03 140.9 10.27 17.81h-20.55l10.28-17.81Zm-41.42-98.31v-1.06h.63c.23 0 .4-.06.52-.17.12-.12.25-.3.38-.53l.36-.79-4.14-7.43h1.38l3.33 6.15 2.8-6.15h1.33l-4.1 8.82c-.2.42-.42.72-.66.9a1.5 1.5 0 0 1-.93.26h-.9Zm10.68.1a3.6 3.6 0 0 1-3.25-1.92 3.87 3.87 0 0 1-.47-1.89c0-.69.15-1.32.46-1.89a3.64 3.64 0 0 1 3.25-1.88c.72 0 1.34.17 1.87.5.55.31.95.74 1.2 1.28l-1.2.38a2.18 2.18 0 0 0-1.9-1.1 2.39 2.39 0 0 0-2.1 1.33c-.21.4-.32.86-.32 1.38a2.72 2.72 0 0 0 1.2 2.38 2.23 2.23 0 0 0 2.06.21c.27-.1.5-.24.7-.4.2-.18.35-.37.42-.58l1.2.37c-.21.53-.6.97-1.17 1.31a3.6 3.6 0 0 1-1.95.52Zm3.88-.08v-1.11c.31 0 .6-.13.84-.35.24-.22.43-.64.57-1.23.15-.6.24-1.45.28-2.56l.08-2.12h4.97V437h-1.23v-6.22h-2.64l-.03 1.14a12.85 12.85 0 0 1-.4 3.1 2.83 2.83 0 0 1-.95 1.57c-.4.3-.9.46-1.5.47Zm9.64 3c-.3 0-.63-.09-.98-.27l.42-.84c.16.09.32.14.48.14.46 0 .86-.43 1.2-1.28l.35-.88-3.2-7.24h1.3l2.46 6.06 2.23-6.06h1.22l-3.42 8.5a3.6 3.6 0 0 1-.9 1.4 1.7 1.7 0 0 1-1.16.48Zm6.7-3.06v-7.3h4.52v1.08h-3.28V437h-1.23Zm5.76 0v-7.3h1.24v5.65l4.08-5.66h1.13V437h-1.24v-5.53L303.3 437h-1.18Zm15.19.14a3.6 3.6 0 0 1-3.25-1.92 3.87 3.87 0 0 1-.48-1.89c0-.69.16-1.32.47-1.89a3.64 3.64 0 0 1 3.25-1.88c.71 0 1.34.17 1.87.5.54.31.94.74 1.2 1.28l-1.2.38a2.18 2.18 0 0 0-1.9-1.1c-.45.01-.86.13-1.24.36a2.82 2.82 0 0 0-1.19 2.35c0 .52.11.98.33 1.4.22.41.51.74.88.98a2.23 2.23 0 0 0 2.06.21c.27-.1.5-.24.7-.4.2-.18.34-.37.42-.58l1.2.37c-.21.53-.6.97-1.18 1.31-.56.35-1.2.52-1.94.52Zm4.5-.14v-7.3h3.78c.44 0 .8.08 1.1.26a1.76 1.76 0 0 1 .87 1.53c0 .39-.1.74-.29 1.06-.18.3-.45.54-.81.7.42.12.76.34 1.02.66.26.3.4.69.4 1.14 0 .62-.23 1.1-.66 1.45-.43.33-1 .5-1.7.5h-3.7Zm1.18-4.09h2.28a1 1 0 0 0 .8-.36c.21-.25.32-.54.32-.86 0-.3-.1-.57-.3-.8a.97.97 0 0 0-.78-.33h-2.32v2.35Zm0 3.22h2.5c.34 0 .62-.12.84-.36.24-.25.35-.52.35-.84 0-.33-.1-.6-.33-.84a1.04 1.04 0 0 0-.81-.37h-2.55v2.41Zm5.9.87 2.08-2.94a1.9 1.9 0 0 1-1.15-.67 2.27 2.27 0 0 1-.43-1.46 2.18 2.18 0 0 1 1.16-1.96c.37-.2.8-.3 1.3-.3h3V437h-1.24v-2.74h-1.42l-1.94 2.74h-1.35Zm3.04-3.65h1.68v-2.7h-1.54c-.44 0-.79.12-1.05.37s-.39.56-.39.94c0 .38.1.7.32.98.23.27.55.4.98.4Zm7.19 3.75c-.7 0-1.31-.13-1.8-.4a2.81 2.81 0 0 1-1.13-1.11l1.01-.45c.17.3.4.53.72.7.31.17.7.25 1.14.25.54 0 .96-.12 1.26-.35.31-.23.47-.55.47-.94 0-.35-.13-.64-.38-.85a1.52 1.52 0 0 0-1.04-.35h-.74v-.81h.78c.3 0 .55-.1.73-.31.2-.22.3-.48.3-.8a.97.97 0 0 0-.35-.78 1.6 1.6 0 0 0-1.05-.31c-.74 0-1.27.3-1.59.9l-.93-.51a2.4 2.4 0 0 1 1-1.02 3.2 3.2 0 0 1 1.57-.38c.72 0 1.3.17 1.77.52.45.33.68.81.68 1.43 0 .34-.08.66-.25.96-.16.3-.4.51-.71.66a1.83 1.83 0 0 1 1.35 1.82c0 .67-.26 1.2-.8 1.57a3.4 3.4 0 0 1-2.01.56Zm4.28-.1v-7.3h1.23v5.65l4.09-5.66h1.12V437h-1.23v-5.53l-4.03 5.53h-1.18Zm-83.26 17c0-.5.06-.96.17-1.37.12-.42.35-.82.67-1.2.34-.37.82-.73 1.44-1.08l1.13-.6c.38-.19.7-.4.95-.64.26-.24.39-.52.39-.85 0-.33-.14-.63-.44-.9-.27-.27-.69-.4-1.23-.4a2.77 2.77 0 0 0-1.72.64c-.2.17-.35.32-.48.46l-.76-.86a4.6 4.6 0 0 1 1.65-1.06 4.06 4.06 0 0 1 3 .03c.43.2.75.47.97.82a2 2 0 0 1 .34 1.13c0 .36-.08.68-.24.95-.15.27-.34.51-.59.72-.23.2-.48.38-.74.53l-.69.36c-.56.28-1 .53-1.35.74a2.2 2.2 0 0 0-1.18 1.46h4.94V454h-6.23Zm12.07.07a4.1 4.1 0 0 1-1.83-.42 5 5 0 0 1-2.45-2.77 5.2 5.2 0 0 1 0-3.78c.23-.6.56-1.15.96-1.61a4.54 4.54 0 0 1 5.7-.9c.63.4 1.1.93 1.42 1.57l-.97.67a2.9 2.9 0 0 0-1.19-1.29 3.37 3.37 0 0 0-3.04-.1c-.4.22-.76.51-1.06.89a4.12 4.12 0 0 0-.9 2.7c0 .7.15 1.36.45 1.96.3.59.72 1.06 1.25 1.41a3 3 0 0 0 1.76.54c.53 0 1.04-.13 1.53-.38.5-.26.96-.66 1.4-1.2V450h-2.15v-.96h3.21V454h-1.06v-1.34a3.97 3.97 0 0 1-3.03 1.41Zm13.29-10.01-6.72 9.94h-1.37l6.7-9.94h1.39Zm5 6.64c.6.1 1.07.37 1.42.82.35.45.53 1 .53 1.67a2.68 2.68 0 0 1-1.58 2.5c-.5.25-1.1.37-1.77.37-.7 0-1.33-.14-1.87-.4a2.96 2.96 0 0 1-1.25-1.13l.83-.82c.21.37.5.67.86.9.38.22.85.33 1.43.33.65 0 1.15-.15 1.51-.45.38-.29.56-.72.56-1.3 0-.59-.2-1.06-.6-1.4-.39-.36-.96-.53-1.72-.53h-.36v-1.04h.39c.67 0 1.18-.16 1.54-.49.36-.33.54-.73.54-1.22 0-.5-.17-.86-.51-1.1a2.2 2.2 0 0 0-1.3-.37c-.52 0-.97.11-1.36.34a2.3 2.3 0 0 0-.9.9l-.76-.78c.25-.46.65-.84 1.22-1.13a4.23 4.23 0 0 1 3.47-.13 2.3 2.3 0 0 1 1.44 2.18 2.5 2.5 0 0 1-.47 1.5c-.3.42-.74.68-1.29.78Zm7.73 3.37a4.1 4.1 0 0 1-1.83-.42 5 5 0 0 1-2.45-2.77 5.2 5.2 0 0 1 0-3.78c.23-.6.55-1.15.96-1.61a4.54 4.54 0 0 1 5.7-.9c.63.4 1.1.93 1.41 1.57l-.96.67a2.9 2.9 0 0 0-1.2-1.29 3.37 3.37 0 0 0-3.03-.1c-.41.22-.76.51-1.06.89a4.12 4.12 0 0 0-.9 2.7c0 .7.15 1.36.45 1.96.3.59.72 1.06 1.25 1.41a3 3 0 0 0 1.76.54c.53 0 1.04-.13 1.53-.38.49-.26.96-.66 1.4-1.2V450h-2.15v-.96h3.2V454h-1.06v-1.34a3.97 3.97 0 0 1-3.02 1.41Zm13.28-10.01-6.7 9.94h-1.38l6.7-9.94h1.4Zm4 11.72v-2.37H311v-1.09l4.89-6.31h.84v6.28h1.23v1.12h-1.23v2.37h-1.24Zm-3.23-3.49h3.35v-4.38l-3.35 4.38Zm11.38 1.78a4.1 4.1 0 0 1-1.83-.42 5 5 0 0 1-2.45-2.77 5.17 5.17 0 0 1 0-3.78c.23-.6.55-1.15.96-1.61a4.54 4.54 0 0 1 5.7-.9c.63.4 1.1.93 1.42 1.57l-.97.67a3 3 0 0 0-1.2-1.29 3.37 3.37 0 0 0-3.03-.1 3.93 3.93 0 0 0-1.74 2.13 4.73 4.73 0 0 0 .23 3.42c.3.59.72 1.06 1.25 1.41a3 3 0 0 0 1.76.54c.53 0 1.04-.13 1.52-.38.5-.26.97-.66 1.4-1.2V450h-2.14v-.96h3.2V454h-1.06v-1.34a3.97 3.97 0 0 1-3.02 1.41Zm13.29-10.01L330.2 454h-1.37l6.7-9.94h1.4Zm3.53 12.03a3.7 3.7 0 0 1-1.92-.5 3.3 3.3 0 0 1-1.28-1.35l.77-.67c.26.43.6.77 1.03 1.03.44.26.91.4 1.42.4.43 0 .8-.1 1.14-.29a2.1 2.1 0 0 0 1.1-1.91 2.06 2.06 0 0 0-1.07-1.85 2.18 2.18 0 0 0-1.08-.27 2.36 2.36 0 0 0-1.98 1.02h-1.1l1.11-5.7h4.83v1.14h-3.92l-.6 3.16c.2-.21.46-.38.77-.5a3.33 3.33 0 0 1 2.7.21 3.12 3.12 0 0 1 1.6 2.77c0 .66-.16 1.23-.48 1.72-.3.5-.73.9-1.26 1.17-.53.28-1.12.42-1.78.42Zm9.18-2.02a4.1 4.1 0 0 1-1.83-.42 5 5 0 0 1-2.45-2.77 5.17 5.17 0 0 1 0-3.78c.23-.6.56-1.15.97-1.61a4.54 4.54 0 0 1 5.7-.9c.62.4 1.1.93 1.4 1.57l-.96.67c-.29-.58-.68-1-1.19-1.29a3.37 3.37 0 0 0-3.04-.1c-.4.22-.76.51-1.06.89-.29.36-.51.78-.67 1.24a4.73 4.73 0 0 0 .22 3.42 3.8 3.8 0 0 0 1.25 1.41 3 3 0 0 0 1.76.54 3.3 3.3 0 0 0 1.53-.38c.5-.26.96-.66 1.4-1.2V450h-2.14v-.96h3.2V454h-1.06v-1.34a3.97 3.97 0 0 1-3.03 1.41Z"/><rect width="36" height="36.04" x="289.97" y="477.14" fill="#E3E3E3" rx="18"/><path fill="#000" fill-rule="evenodd" d="M313.1 485.07h3.24c.22 0 .4.18.4.4v18.65a.4.4 0 0 1-.4.4h-3.24a.4.4 0 0 1-.4-.4v-18.65c0-.22.18-.4.4-.4Zm-1.62 4.05h-3.24a.4.4 0 0 0-.4.4v14.6c0 .22.18.4.4.4h3.24a.4.4 0 0 0 .4-.4v-14.6a.4.4 0 0 0-.4-.4Zm-8.1 4.05h3.24c.22 0 .4.19.4.41v10.54a.4.4 0 0 1-.4.4h-3.24a.4.4 0 0 1-.4-.4v-10.54c0-.22.18-.4.4-.4Zm-4.86 4.06h3.24c.22 0 .4.18.4.4v6.49a.4.4 0 0 1-.4.4h-3.24a.4.4 0 0 1-.4-.4v-6.49c0-.22.18-.4.4-.4Z" clip-rule="evenodd"/><path fill="#252F37" fill-rule="evenodd" d="M313.1 485.07h3.24c.22 0 .4.18.4.4v18.65a.4.4 0 0 1-.4.4h-3.24a.4.4 0 0 1-.4-.4v-18.65c0-.22.18-.4.4-.4Zm-1.62 4.05h-3.24a.4.4 0 0 0-.4.4v14.6c0 .22.18.4.4.4h3.24a.4.4 0 0 0 .4-.4v-14.6a.4.4 0 0 0-.4-.4Zm-8.1 4.05h3.24c.22 0 .4.19.4.41v10.54a.4.4 0 0 1-.4.4h-3.24a.4.4 0 0 1-.4-.4v-10.54c0-.22.18-.4.4-.4Zm-4.86 4.06h3.24c.22 0 .4.18.4.4v6.49a.4.4 0 0 1-.4.4h-3.24a.4.4 0 0 1-.4-.4v-6.49c0-.22.18-.4.4-.4Z" clip-rule="evenodd"/><path fill="#E3E3E3" d="M244.9 575.78a7.9 7.9 0 0 1-3.58-1.52 6.86 6.86 0 0 1-2.53-6.68 6.9 6.9 0 0 1 4.58-5.46 7.75 7.75 0 0 1 3.89-.27 7.7 7.7 0 0 1 3.57 1.54 6.71 6.71 0 0 1 2.54 6.66 6.84 6.84 0 0 1-4.59 5.47c-1.2.4-2.5.5-3.88.26Zm.37-2.2c.9.15 1.75.09 2.54-.2.8-.28 1.45-.75 1.99-1.4a5 5 0 0 0 1.03-2.36c.16-.9.09-1.75-.2-2.54a4.38 4.38 0 0 0-1.41-2 4.9 4.9 0 0 0-2.34-1.03 4.88 4.88 0 0 0-2.54.21c-.79.28-1.45.75-1.99 1.41a4.91 4.91 0 0 0-1.03 2.34 5 5 0 0 0 .2 2.56c.3.8.77 1.46 1.42 2a5 5 0 0 0 2.33 1Zm24.24-8.43-1.68 13.63-2.49-.3 1.42-11.5-7.06-.87-1.42 11.5-2.5-.32 1.7-13.63 12.03 1.49Zm13.24 12.77-.18 2.13-10.25-.85 1.13-13.7 9.98.83-.18 2.14-7.44-.62-.3 3.56 6.61.55-.17 2.09-6.6-.55-.32 3.78 7.72.64Zm9.83-11.13c1.2.05 2.21.3 3.07.72a4.51 4.51 0 0 1 1.96 1.78c.44.75.64 1.63.6 2.64a4.8 4.8 0 0 1-.83 2.58c-.5.7-1.2 1.24-2.1 1.6-.9.34-1.94.5-3.13.44l-3.1-.14-.17 3.97-2.55-.12.61-13.72 5.64.25Zm-.45 7.6a3.9 3.9 0 0 0 2.56-.6c.6-.44.9-1.1.95-1.97a2.47 2.47 0 0 0-.77-2.06c-.56-.5-1.39-.77-2.5-.82l-2.98-.13-.24 5.45 2.98.13Zm18.34 3.29-6.86-.03-1.37 3.18-2.62-.01 6.22-13.72 2.51.01 6.15 13.76h-2.67l-1.36-3.2Zm-.84-2-2.56-6.02-2.6 6 5.16.01Zm17.28-6.86-4.54.16.4 11.57-2.53.1-.4-11.58-4.53.16-.07-2.16 11.6-.4.07 2.15Zm9.89 11.12c-1.4.1-2.68-.1-3.84-.62a6.85 6.85 0 0 1-4.06-5.87 6.92 6.92 0 0 1 3.14-6.4 7.76 7.76 0 0 1 3.7-1.2c1.4-.1 2.68.1 3.84.63a6.7 6.7 0 0 1 4.06 5.86 6.85 6.85 0 0 1-3.14 6.41 7.88 7.88 0 0 1-3.7 1.19Zm-.17-2.23a5.01 5.01 0 0 0 2.42-.8 4.56 4.56 0 0 0 1.59-1.85c.36-.77.5-1.62.44-2.53a4.9 4.9 0 0 0-.81-2.42 4.38 4.38 0 0 0-1.85-1.6 4.89 4.89 0 0 0-2.51-.43c-.91.07-1.72.34-2.42.8a4.38 4.38 0 0 0-1.59 1.86 4.9 4.9 0 0 0-.44 2.51c.07.92.34 1.73.81 2.44.47.7 1.09 1.23 1.85 1.6a5 5 0 0 0 2.5.42Zm15.07-13.24a7.53 7.53 0 0 1 3.14.22c.93.29 1.67.77 2.23 1.44.55.67.88 1.5 1 2.5a4.8 4.8 0 0 1-.4 2.68 4.5 4.5 0 0 1-1.82 1.92c-.82.5-1.83.8-3 .95l-3.08.36.46 3.94-2.53.3-1.6-13.65 5.6-.66Zm.77 7.58a3.94 3.94 0 0 0 2.43-1c.52-.54.73-1.24.62-2.11-.1-.87-.46-1.5-1.1-1.9-.62-.4-1.48-.54-2.59-.41l-2.95.35.63 5.42 2.96-.35Zm14.94-5.11c1.63-.27 2.93-.1 3.92.49 1 .57 1.6 1.58 1.85 3.01.24 1.5-.04 2.73-.87 3.69-.82.94-2.1 1.56-3.82 1.84l-5.83.97-2.24-13.56 2.48-.4.76 4.58 3.75-.62Zm.64 7.12c.98-.17 1.7-.52 2.15-1.06.45-.54.61-1.24.47-2.1-.27-1.64-1.43-2.3-3.47-1.96l-3.22.54.84 5.11 3.23-.53Zm5.6-12.87 2.48-.4 2.24 13.55-2.48.4-2.24-13.55Zm63.93-265.13h1.06l4.06 9.94h-1.34l-1.18-2.91h-4.17l-1.16 2.91h-1.35l4.08-9.94Zm2.32 6.05-1.79-4.6-1.85 4.6h3.64Zm3.92 3.89v-7.3h1.23v3h.81l2.3-3h1.4l-2.73 3.53 3.05 3.77h-1.43l-2.59-3.16h-.8V306h-1.24Zm9.05 0v-6.22h-2.52v-1.09h6.27v1.1h-2.52V306h-1.23Zm4.98 0v-7.3h1.23v5.65l4.09-5.66h1.12V306h-1.24v-5.53l-4.03 5.53h-1.17Zm8.4 0v-7.3h3.77c.44 0 .8.08 1.1.26a1.77 1.77 0 0 1 .87 1.53 1.85 1.85 0 0 1-1.1 1.76c.42.12.76.34 1.02.66.26.3.4.69.4 1.14 0 .62-.23 1.1-.67 1.45-.43.33-.99.5-1.69.5h-3.7Zm1.17-4.09h2.28a1 1 0 0 0 .8-.36c.21-.25.32-.54.32-.86 0-.3-.1-.57-.3-.8a.97.97 0 0 0-.78-.33h-2.32v2.35Zm0 3.22h2.5c.34 0 .62-.12.84-.36.24-.25.35-.52.35-.84 0-.33-.1-.6-.33-.84a1.04 1.04 0 0 0-.81-.37h-2.55v2.41Zm5.88-1.24c0-.47.13-.87.39-1.2a2.6 2.6 0 0 1 1.1-.8c.47-.2 1.01-.29 1.63-.29a6.82 6.82 0 0 1 2 .31v-.53c0-.56-.17-1-.5-1.32a2.01 2.01 0 0 0-1.43-.49c-.4 0-.8.08-1.16.23a6.3 6.3 0 0 0-1.17.61l-.44-.86c.47-.33.95-.57 1.42-.73.48-.17.98-.25 1.49-.25.93 0 1.67.26 2.21.78.54.51.81 1.23.81 2.16v3.09c0 .29.13.44.4.45v.95a5.56 5.56 0 0 1-.54.06.88.88 0 0 1-.66-.24.9.9 0 0 1-.23-.5l-.03-.47c-.32.41-.73.73-1.25.95a3.8 3.8 0 0 1-1.52.34c-.49 0-.92-.1-1.3-.3a2.13 2.13 0 0 1-1.22-1.96Zm4.76.51c.1-.13.2-.26.26-.39.07-.14.1-.25.1-.35v-.9a5.04 5.04 0 0 0-1.85-.36c-.62 0-1.13.13-1.52.38-.39.24-.58.58-.58 1 0 .24.06.47.18.7.14.2.32.39.56.53.26.14.56.2.93.2.38 0 .75-.07 1.09-.22.34-.16.62-.35.83-.59Zm9.32 3.32V306h-5.77v-7.3h1.23v6.22h3.39v-6.23h1.23v6.23h1v2.8h-1.08Zm2.44-1.72v-7.3h1.24v5.65l4.08-5.66h1.13V306h-1.24v-5.53L491 306h-1.18Zm7.87 0 2.07-2.94a1.9 1.9 0 0 1-1.15-.67 2.27 2.27 0 0 1-.43-1.46c0-.44.1-.82.3-1.16.21-.34.5-.6.86-.8.37-.2.8-.3 1.3-.3h3V306h-1.24v-2.74h-1.42l-1.94 2.74h-1.35Zm3.04-3.65h1.67v-2.7h-1.53c-.44 0-.8.12-1.06.37s-.39.56-.39.94c0 .38.11.7.32.98.23.27.56.4.99.4Zm-43.8 20.79a3.6 3.6 0 0 1-3.25-1.9 3.87 3.87 0 0 1-.48-1.9 3.82 3.82 0 0 1 1.8-3.26 3.68 3.68 0 0 1 1.94-.51 3.52 3.52 0 0 1 3.2 1.9 3.72 3.72 0 0 1 .42 2.3h-6.06a2.66 2.66 0 0 0 1.29 2.14 2.5 2.5 0 0 0 2.44-.03c.4-.22.67-.52.82-.88l1.07.3c-.24.53-.64.98-1.22 1.32-.58.35-1.24.52-1.98.52Zm-2.47-4.23h4.98c-.03-.47-.17-.9-.4-1.26a2.41 2.41 0 0 0-2.1-1.16c-.43 0-.83.1-1.2.3a2.53 2.53 0 0 0-1.28 2.12Zm13.47-3.76c-.24-.26-.6-.5-1.08-.72a3.96 3.96 0 0 0-1.63-.32c-.76 0-1.33.14-1.69.43-.36.3-.54.69-.54 1.2 0 .35.09.63.27.83.2.2.48.38.86.5.4.14.89.27 1.48.41.7.15 1.3.33 1.8.55.5.22.89.5 1.16.87.27.35.4.83.4 1.43a2.45 2.45 0 0 1-1.77 2.47 6.22 6.22 0 0 1-5.88-1.1l.6-1.07c.2.2.48.42.82.62a5.22 5.22 0 0 0 2.65.71c.7 0 1.26-.12 1.65-.37.4-.26.59-.64.59-1.14 0-.37-.11-.67-.34-.9a2.4 2.4 0 0 0-.96-.55c-.43-.15-.95-.3-1.57-.45-.67-.17-1.24-.35-1.7-.55-.45-.2-.8-.47-1.03-.8a2.2 2.2 0 0 1-.34-1.27c0-.63.16-1.17.46-1.61.31-.44.74-.77 1.28-1a4.76 4.76 0 0 1 1.83-.33 5.06 5.06 0 0 1 3.26 1.13l-.58 1.03Zm2.7 7.85v-9.94h1.25V323h-1.26Zm12.22 0v-7.59l-3.27 5.84h-.77l-3.3-5.84V323h-1.25v-9.94h1.33l3.6 6.45 3.6-6.45h1.32V323h-1.26Zm68.54-13.59-12.86 8.98v-17.96l12.86 8.98Zm-150.99.47-8.02 4.63v-9.26l8.02 4.63Zm158.67-59.85 3.52-2.35-1.49-8.27-4.12-.93-.57-3.17 17.87 4.45.55 3.02-15.18 10.46-.58-3.21Zm4.63-10.01 1.12 6.2 6.66-4.42-7.78-1.78Zm-4.2 17.28 16.66-2.18 1.7 12.97-2.56.33-1.29-9.92-4.1.53.65 4.93c.26 2 .04 3.57-.67 4.7-.69 1.16-1.82 1.84-3.39 2.05-1.65.22-3-.19-4.05-1.21-1.04-1.03-1.7-2.6-1.97-4.7l-.98-7.5Zm2.78 2.73.56 4.29c.31 2.42 1.37 3.52 3.16 3.29 1.72-.23 2.41-1.56 2.1-3.98l-.56-4.29-5.26.7Zm2.3 29.57a9.02 9.02 0 0 1-2.95-6.27c-.2-2.6.44-4.82 1.93-6.65a8.24 8.24 0 0 1 5.97-3.05c2.47-.2 4.59.5 6.35 2.08a8.96 8.96 0 0 1 2.97 6.26c.2 2.6-.44 4.82-1.93 6.65a8.2 8.2 0 0 1-5.97 3.05c-2.49.2-4.61-.5-6.38-2.07Zm1.1-10.83a5.77 5.77 0 0 0-1.33 4.35 5.8 5.8 0 0 0 1.99 4.08 5.76 5.76 0 0 0 4.36 1.34 5.73 5.73 0 0 0 5.42-6.35 5.73 5.73 0 0 0-6.34-5.43c-1.71.14-3.08.8-4.1 2.01Zm13.48 27.47.08 3.12-16.8.43-.08-3.12 7.2-.19-.22-8.68-7.2.18-.07-3.12 16.8-.42.07 3.12-6.93.17.21 8.69 6.94-.18Zm-13.67 10-.23 9.47-2.61-.06.3-12.6 16.8.41-.3 12.26-2.62-.06.22-9.14-4.36-.1-.2 8.1-2.56-.06.2-8.11-4.64-.11Zm12.29 26.47-.23 3.12-16.75-1.24.23-3.1 7.18.52.63-8.67-7.18-.52.23-3.12 16.75 1.24-.22 3.1-6.92-.5-.64 8.66 6.92.51Zm-2.68 20.69-2.62-.3.67-5.54-14.06-1.7.37-3.07 14.06 1.7.66-5.5 2.63.31-1.71 14.1Zm-6.55 12.52c-.34 1.98-1.05 3.43-2.14 4.33-1.07.91-2.48 1.22-4.23.91-1.82-.32-3.13-1.14-3.9-2.48-.76-1.33-.95-3.06-.58-5.17l1.24-7.12 16.54 2.9-.52 3.02-5.6-.98-.8 4.59Zm-12.43 6.64 16.55 2.9-.53 3.02-16.55-2.89.53-3.02Zm3.96-8.78a4.2 4.2 0 0 0 .35 2.91c.44.74 1.19 1.2 2.24 1.4 2 .34 3.22-.73 3.66-3.22l.68-3.95-6.24-1.09-.69 3.95ZM64.17 309.45l12.86-8.98v17.96l-12.86-8.98Zm38.88-3.48c-.72 0-1.36-.15-1.94-.45a3.47 3.47 0 0 1-1.35-1.27l.97-.59a2.47 2.47 0 0 0 2.29 1.25c.69 0 1.21-.17 1.59-.5.38-.34.57-.79.57-1.35 0-.53-.18-.97-.53-1.3-.35-.35-.84-.52-1.49-.52h-1.02v-1h1.04a1.58 1.58 0 0 0 1.65-1.63c0-.49-.16-.88-.49-1.2a1.9 1.9 0 0 0-1.36-.45 2.42 2.42 0 0 0-2.13 1.17l-.92-.63a3.5 3.5 0 0 1 3.1-1.7c.91 0 1.64.25 2.2.72.54.48.82 1.12.82 1.92 0 .49-.12.93-.37 1.34-.23.4-.58.7-1.05.91.58.16 1.03.47 1.35.91.31.45.47.97.47 1.57 0 .59-.14 1.1-.44 1.51-.3.42-.7.75-1.2.97-.51.22-1.1.32-1.76.32Zm4.4-2.22c0-.47.13-.87.4-1.2a2.6 2.6 0 0 1 1.1-.8c.47-.2 1.01-.29 1.63-.29a6.82 6.82 0 0 1 2 .31v-.53c0-.56-.17-1-.5-1.32a2.01 2.01 0 0 0-1.43-.49c-.4 0-.8.08-1.17.23-.36.14-.75.34-1.16.61l-.45-.86c.48-.33.96-.57 1.43-.73a4.4 4.4 0 0 1 1.49-.25c.93 0 1.67.26 2.2.78.55.51.82 1.23.82 2.16v3.09c0 .29.13.44.4.45v.95a5.45 5.45 0 0 1-.54.06.88.88 0 0 1-.66-.24.9.9 0 0 1-.24-.5l-.02-.47a3.1 3.1 0 0 1-1.25.95 3.8 3.8 0 0 1-1.53.34c-.48 0-.91-.1-1.3-.3-.38-.2-.68-.47-.9-.8a2.14 2.14 0 0 1-.32-1.15Zm4.76.51c.12-.13.2-.26.27-.39.07-.14.1-.25.1-.35v-.9a5.04 5.04 0 0 0-1.85-.36c-.63 0-1.13.13-1.53.38-.38.24-.57.58-.57 1 0 .24.06.47.18.7.13.2.32.39.56.53.25.14.56.2.93.2.38 0 .74-.07 1.09-.22.34-.16.62-.35.82-.59Zm3.56 1.6v-7.3h4.5v1.08H117v6.22h-1.23Zm9.7.14a2.9 2.9 0 0 1-1.6-.45c-.46-.3-.83-.68-1.1-1.13v4.42h-1.23v-10.29h1.09v1.37a3.3 3.3 0 0 1 2.66-1.5c.5 0 .96.1 1.38.31.42.2.79.49 1.1.84.3.36.54.76.71 1.22a4.31 4.31 0 0 1-.15 3.32 3.41 3.41 0 0 1-1.15 1.39c-.5.33-1.07.5-1.71.5Zm-.38-1.06c.49 0 .9-.13 1.26-.4a2.97 2.97 0 0 0 .8-3.7 2.52 2.52 0 0 0-2.17-1.35c-.29 0-.6.07-.92.22-.32.15-.6.35-.84.6s-.39.52-.45.82v2.08c.2.49.52.9.94 1.24.43.32.89.49 1.38.49Zm5.83 3.99c-.3 0-.63-.1-.98-.28l.42-.84c.16.09.32.14.48.14.46 0 .86-.43 1.2-1.28l.35-.88-3.2-7.24h1.3l2.46 6.06 2.23-6.06h1.22l-3.42 8.5c-.25.63-.55 1.1-.9 1.4a1.7 1.7 0 0 1-1.16.48Zm9-2.97c-.7 0-1.3-.13-1.8-.4a2.82 2.82 0 0 1-1.12-1.11l1-.45c.17.3.41.53.72.7.32.17.7.25 1.15.25.53 0 .95-.12 1.26-.35.3-.23.46-.55.46-.94 0-.35-.13-.64-.38-.85a1.52 1.52 0 0 0-1.03-.35h-.75v-.81h.79c.3 0 .54-.1.72-.31.2-.22.3-.48.3-.8a.97.97 0 0 0-.35-.78c-.23-.2-.58-.31-1.05-.31-.74 0-1.27.3-1.58.9l-.94-.51c.23-.44.57-.78 1-1.02.46-.25.98-.38 1.58-.38.71 0 1.3.17 1.76.52.46.33.69.81.69 1.43 0 .34-.09.66-.26.96-.16.3-.4.51-.71.66a1.83 1.83 0 0 1 1.36 1.82c0 .67-.27 1.2-.8 1.57-.52.37-1.2.56-2.02.56Zm4.28-.1v-7.3h1.24v3h.8l2.3-3h1.4l-2.73 3.53 3.06 3.77h-1.43l-2.6-3.16h-.8v3.16h-1.24Zm6.7-2.11c0-.47.13-.87.4-1.2a2.6 2.6 0 0 1 1.1-.8c.47-.2 1-.29 1.63-.29a6.82 6.82 0 0 1 2 .31v-.53c0-.56-.17-1-.5-1.32a2.02 2.02 0 0 0-1.44-.49c-.4 0-.78.08-1.16.23-.36.14-.75.34-1.16.61l-.45-.86c.48-.33.96-.57 1.43-.73a4.4 4.4 0 0 1 1.49-.25c.93 0 1.67.26 2.2.78.55.51.82 1.23.82 2.16v3.09c0 .29.13.44.4.45v.95a5.45 5.45 0 0 1-.54.06.88.88 0 0 1-.66-.24.9.9 0 0 1-.24-.5l-.03-.47a3.1 3.1 0 0 1-1.24.95 3.8 3.8 0 0 1-1.53.34c-.48 0-.92-.1-1.3-.3-.38-.2-.68-.47-.9-.8a2.14 2.14 0 0 1-.32-1.15Zm4.76.51c.12-.13.2-.26.27-.39.06-.14.1-.25.1-.35v-.9a5.04 5.04 0 0 0-1.85-.36 2.8 2.8 0 0 0-1.53.38c-.38.24-.57.58-.57 1 0 .24.06.47.18.7.13.2.32.39.56.53.25.14.56.2.93.2.38 0 .74-.07 1.09-.22.34-.16.62-.35.82-.59ZM166 306a3.6 3.6 0 0 1-3.24-1.9 3.87 3.87 0 0 1-.48-1.9 3.82 3.82 0 0 1 1.8-3.26 3.68 3.68 0 0 1 1.94-.51 3.52 3.52 0 0 1 3.2 1.9 3.72 3.72 0 0 1 .42 2.3h-6.06a2.66 2.66 0 0 0 1.29 2.14 2.5 2.5 0 0 0 2.44-.03c.4-.22.67-.52.82-.88l1.07.3c-.24.53-.64.98-1.22 1.32-.58.35-1.24.52-1.98.52Zm-2.46-4.23h4.98c-.03-.47-.17-.9-.4-1.26a2.41 2.41 0 0 0-2.1-1.16c-.43 0-.83.1-1.2.3a2.53 2.53 0 0 0-1.28 2.12Zm13.47-3.76c-.24-.26-.6-.5-1.08-.72a3.96 3.96 0 0 0-1.63-.32c-.76 0-1.33.14-1.69.43-.36.3-.55.69-.55 1.2 0 .35.1.63.28.83.2.2.48.38.86.5.4.14.89.27 1.48.41.7.15 1.3.34 1.8.55.5.22.89.5 1.16.87.27.35.4.83.4 1.43 0 .63-.16 1.15-.47 1.56-.32.42-.75.72-1.3.91a6.22 6.22 0 0 1-5.88-1.1l.6-1.07c.2.2.48.41.82.62a5.22 5.22 0 0 0 2.65.71c.7 0 1.26-.12 1.65-.37.4-.26.59-.64.59-1.14 0-.37-.11-.67-.34-.9a2.4 2.4 0 0 0-.96-.55c-.43-.15-.96-.3-1.57-.45-.67-.17-1.24-.35-1.7-.55-.45-.2-.8-.47-1.03-.8a2.2 2.2 0 0 1-.34-1.27 2.71 2.71 0 0 1 1.74-2.61 4.76 4.76 0 0 1 1.83-.33 5.06 5.06 0 0 1 3.26 1.13l-.58 1.03Zm2.7 7.85v-9.94h1.25v9.94h-1.26Zm12.22 0v-7.59l-3.27 5.84h-.77l-3.3-5.84v7.59h-1.25v-9.94h1.33l3.6 6.45 3.6-6.45h1.32v9.94h-1.26Zm-73.7 17v-7.3h6.07v7.3h-1.24v-6.22h-3.6v6.22h-1.23Zm12 .14a2.9 2.9 0 0 1-1.6-.45c-.47-.3-.84-.68-1.11-1.13v4.42h-1.23v-10.29h1.09v1.37a3.3 3.3 0 0 1 2.66-1.5c.5 0 .97.1 1.39.31a3.54 3.54 0 0 1 1.8 2.06 4.31 4.31 0 0 1-.15 3.32 3.41 3.41 0 0 1-1.15 1.39 3 3 0 0 1-1.7.5Zm-.39-1.06c.49 0 .9-.13 1.26-.4a2.97 2.97 0 0 0 .8-3.7 2.52 2.52 0 0 0-2.17-1.35c-.29 0-.6.07-.92.22-.32.15-.6.35-.84.6s-.39.52-.45.82v2.08c.2.49.52.9.94 1.24.43.32.89.49 1.38.49Zm8.36 1.06a3.6 3.6 0 0 1-1.93-.52 3.75 3.75 0 0 1-1.75-3.26 3.7 3.7 0 0 1 1.76-3.26 3.5 3.5 0 0 1 1.92-.53 3.57 3.57 0 0 1 3.22 1.92 3.84 3.84 0 0 1-1.29 5.14c-.55.34-1.2.51-1.93.51Zm-2.42-3.77a2.72 2.72 0 0 0 1.2 2.35c.37.24.77.36 1.22.36.45 0 .86-.13 1.22-.37a2.82 2.82 0 0 0 1.22-2.36 2.82 2.82 0 0 0-1.22-2.36 2.15 2.15 0 0 0-1.22-.36c-.45 0-.85.13-1.22.38a2.72 2.72 0 0 0-1.2 2.36Zm10.98 6.61v-2.98h-.28a3.6 3.6 0 0 1-1.91-.5 3.45 3.45 0 0 1-1.24-1.33 3.83 3.83 0 0 1-.43-1.81 3.55 3.55 0 0 1 1.68-3.15 3.5 3.5 0 0 1 1.9-.5h.28v-2.93H148v2.93h.29a3.46 3.46 0 0 1 3.14 1.83c.3.55.44 1.16.44 1.82a3.8 3.8 0 0 1-.43 1.8 3.4 3.4 0 0 1-3.15 1.84h-.3v2.98h-1.23Zm-.28-3.99h.34v-5.28h-.34c-.45 0-.86.13-1.23.37a2.5 2.5 0 0 0-.84.95c-.2.4-.3.85-.3 1.34 0 .5.1.95.29 1.35.2.39.48.7.84.94.35.22.77.33 1.24.33Zm1.46 0h.35a2.26 2.26 0 0 0 2.07-1.27c.2-.4.31-.85.31-1.35 0-.5-.1-.94-.3-1.34-.21-.4-.5-.72-.85-.95a2.12 2.12 0 0 0-1.23-.37h-.35v5.28Zm5.42 1.01v-7.3h1.23v5.65l4.09-5.66h1.12v7.31h-1.24v-5.53l-4.03 5.53h-1.17Zm7.76.06v-1.11c.32 0 .6-.13.84-.35.24-.22.44-.63.57-1.23.16-.6.25-1.45.28-2.56l.09-2.12h4.97v7.31h-1.23v-6.22h-2.65l-.03 1.14a12.85 12.85 0 0 1-.4 3.1 2.83 2.83 0 0 1-.94 1.57c-.4.3-.9.46-1.5.47Zm8.2-.06 2.06-2.94a1.9 1.9 0 0 1-1.14-.67 2.27 2.27 0 0 1-.44-1.46 2.14 2.14 0 0 1 1.16-1.96c.38-.2.81-.3 1.3-.3h3v7.33h-1.23v-2.74h-1.43l-1.93 2.74h-1.36Zm3.03-3.65h1.68v-2.7h-1.54c-.44 0-.79.12-1.05.37s-.4.56-.4.94c0 .38.12.7.33.98.22.27.55.4.98.4Zm44.32-9.41 8.02-4.63v9.27l-8.02-4.64ZM50.92 404.67l14.53-4.9.93 2.56-12.25 4.12 2.65 7.23 12.25-4.13.93 2.55-14.53 4.9-4.51-12.33Z"/><path fill="#E3E3E3" fill-rule="evenodd" d="M47.55 393.67a7.79 7.79 0 0 1-.33-3.38 4.76 4.76 0 0 1 3.77-4.12 5.08 5.08 0 0 1 5.48 1.56 8 8 0 0 1 1.6 3.03l.97 3.2 4.27-1.18.8 2.63-14.8 4.1-1.76-5.84Zm8.24-2.15a4.22 4.22 0 0 0-1.55-2.4 2.86 2.86 0 0 0-2.45-.3c-.94.27-1.58.77-1.9 1.5-.34.74-.33 1.68.02 2.83l.93 3.08 5.87-1.63-.92-3.08Zm2.41-14.24c.38-1.32.4-2.72.05-4.19a8.37 8.37 0 0 0-1.93-3.75 7.72 7.72 0 0 0-3.43-2.18 8.1 8.1 0 0 0-4.2-.15 7.9 7.9 0 0 0-3.74 1.88 7.16 7.16 0 0 0-2.09 3.38 8.02 8.02 0 0 0-.06 4.19c.34 1.47 1 2.72 1.94 3.75a7.5 7.5 0 0 0 3.43 2.18c1.33.41 2.73.46 4.19.14a7.98 7.98 0 0 0 3.73-1.87 7.32 7.32 0 0 0 2.1-3.38Zm-3.68-6.1a5.32 5.32 0 0 1 1.28 2.44 4.89 4.89 0 0 1-1.51 4.96 5.7 5.7 0 0 1-2.57 1.26c-1 .22-1.96.2-2.86-.07a5.2 5.2 0 0 1-3.62-3.84c-.23-.97-.2-1.88.07-2.75a4.7 4.7 0 0 1 1.46-2.22 5.57 5.57 0 0 1 2.55-1.25c1-.22 1.96-.2 2.88.07.9.26 1.68.73 2.32 1.4Z" clip-rule="evenodd"/><path fill="#E3E3E3" d="m40.4 364.26-.45-2.67 10.8-1.7-12.14-6.13-.43-2.52 15.2-2.4.45 2.67-10.77 1.7 12.12 6.13.43 2.52-15.2 2.4Zm4.8-28.92c-.6.56-1 1.3-1.19 2.2a3.86 3.86 0 0 0-1.5-1.47 3.46 3.46 0 0 0-2.05-.38c-.88.1-1.6.44-2.18 1.06-.6.61-1.02 1.4-1.26 2.36a8.3 8.3 0 0 0-.19 3.05 10.3 10.3 0 0 0 1.83 4.8l2.2-1.1c-.45-.58-.8-1.2-1.08-1.88a7.33 7.33 0 0 1-.53-2c-.11-.97 0-1.78.32-2.44.32-.67.84-1.04 1.55-1.12.6-.06 1.1.12 1.5.55.4.42.65 1.04.75 1.85l.36 3.21 2.23-.23-.39-3.42c-.1-.94-.01-1.7.28-2.26.29-.57.77-.89 1.44-.96a2.1 2.1 0 0 1 1.98.92 5.2 5.2 0 0 1 1 2.68 7.76 7.76 0 0 1-.9 4.62l2.18.66a9.8 9.8 0 0 0 1.06-5.87 8.77 8.77 0 0 0-.9-3.07 5.65 5.65 0 0 0-1.82-2.14c-.75-.5-1.58-.7-2.5-.61-.88.09-1.6.42-2.19 1Z"/><path fill="#E3E3E3" fill-rule="evenodd" d="M42.81 320.44c.2-.96.62-1.7 1.24-2.23.6-.52 1.37-.81 2.33-.86a3.78 3.78 0 0 1 3.22 1.26c.8.91 1.26 2.27 1.37 4.09l.41 7-15.38.83-.39-6.6a6.4 6.4 0 0 1 .8-3.93 3.41 3.41 0 0 1 2.85-1.55c.8-.04 1.5.11 2.12.46.6.33 1.08.84 1.43 1.53Zm-.4 7.04-.21-3.67a3.23 3.23 0 0 0-.67-2c-.4-.44-.95-.64-1.67-.6-.72.04-1.25.3-1.59.78-.35.49-.5 1.17-.45 2.06l.22 3.66 4.37-.23Zm6.37-4.58c-.12-1.94-.94-2.86-2.46-2.78-1.5.08-2.18 1.09-2.07 3.03l.25 4.21 4.53-.24-.25-4.22Zm1.05-12.13a8.22 8.22 0 0 0 1.01-4.07c0-1.5-.33-2.86-1-4.07a7.51 7.51 0 0 0-2.84-2.86 8.04 8.04 0 0 0-4.07-1.03c-1.5 0-2.87.34-4.07 1.03a7.35 7.35 0 0 0-2.82 2.84 8.08 8.08 0 0 0-1.04 4.07c0 1.5.34 2.87 1.03 4.08a7.31 7.31 0 0 0 2.83 2.85 7.9 7.9 0 0 0 4.05 1.04c1.5 0 2.86-.34 4.07-1.03a7.51 7.51 0 0 0 2.85-2.85Zm-2.17-6.73c.45.79.68 1.67.68 2.66a5 5 0 0 1-2.62 4.51 5.8 5.8 0 0 1-2.8.67 5.67 5.67 0 0 1-2.78-.67 5.1 5.1 0 0 1-2.64-4.52 5.1 5.1 0 0 1 2.66-4.52 5.68 5.68 0 0 1 2.77-.67 5.8 5.8 0 0 1 2.8.68 5.02 5.02 0 0 1 1.93 1.86Zm1.74-23.59 5.69.33-.17 2.53-3.27-.2-.72 11.32 3.27.2-.16 2.54-5.7-.36.05-.63c.01-.93-.65-1.62-2-2.06a27.3 27.3 0 0 0-5.92-1.05l-4.86-.45.7-10.81 12.95.76.14-2.12Zm-8.5 10.24c1.98.18 3.63.44 4.95.75 1.3.32 2.22.75 2.76 1.3l.48-7.47-10.54-.62-.37 5.77 2.71.27Z" clip-rule="evenodd"/><path fill="#E3E3E3" d="m37.29 273.16-.34 2.68 15.3 1.78.31-2.54-9.84-9.13 10.84 1.25.33-2.68-15.29-1.77-.32 2.53 9.86 9.14-10.85-1.26Zm6.55-25.73-.88 4.83 12.79 2.15-.5 2.68-12.78-2.15-.88 4.8-2.38-.4 2.25-12.3 2.38.4Zm16.13-11.93-2.34-.51-1.92 8.13-4.15-.9 1.65-6.96-2.3-.5-1.64 6.96-3.9-.85 1.85-7.84-2.34-.51-2.49 10.51 15.02 3.28 2.56-10.81Zm-10-20.46 14.8 4.07-.77 2.6-12.48-3.43-1.67 5.6 3.67 1.14c2.05.63 3.69 1.26 4.9 1.87a6.67 6.67 0 0 1 2.58 2.05 3 3 0 0 1 .3 2.63c-.11.35-.33.8-.65 1.38l-2.34-.84c.11-.16.2-.36.27-.59.25-.82-.09-1.54-1-2.16-.93-.63-2.48-1.3-4.65-1.98l-6.08-1.89 3.12-10.45Zm2.87-8.14-.93 2.54 14.53 4.9.88-2.4-7.55-10.96 10.3 3.47.93-2.55-14.53-4.9-.89 2.4 7.58 10.97-10.32-3.47Z"/><path fill="#00E0FF" d="M282.27 162.07c-.7 0-1.33-.14-1.9-.42a4.94 4.94 0 0 1-2.44-2.76 5.34 5.34 0 0 1 .02-3.75 5.25 5.25 0 0 1 2.49-2.73 4.16 4.16 0 0 1 1.86-.42c.7 0 1.33.14 1.9.43a4.7 4.7 0 0 1 1.48 1.17 5.48 5.48 0 0 1 1.28 3.45 5.15 5.15 0 0 1-1.34 3.51l1.25 1.45h-1.24l-.7-.81a4.79 4.79 0 0 1-2.66.88Zm.02-1.13a3.05 3.05 0 0 0 1.89-.63l-1.33-1.56h1.23l.75.88a4.45 4.45 0 0 0 .6-4.06 3.78 3.78 0 0 0-1.77-2.12 2.91 2.91 0 0 0-1.37-.33c-.54 0-1.01.12-1.43.34-.42.22-.78.52-1.08.9a4.26 4.26 0 0 0-.9 2.67 4.16 4.16 0 0 0 .94 2.72 3.2 3.2 0 0 0 2.47 1.19Zm6.4 1.06v-9.94h4.25c.44 0 .84.1 1.2.28a3.28 3.28 0 0 1 1.54 4.2 2.74 2.74 0 0 1-1.82 1.65l2.41 3.81h-1.42l-2.27-3.57h-2.63V162h-1.26Zm1.26-4.69h3c.35 0 .65-.1.9-.28a2.38 2.38 0 0 0 .83-1.79c0-.38-.09-.72-.25-1.02a2.08 2.08 0 0 0-.66-.76 1.54 1.54 0 0 0-.9-.28h-2.92v4.13Zm7.64 1.43v-1.12h4.13v1.12h-4.13Zm6 3.26v-7.3h1.24v3h.81l2.3-3h1.4l-2.73 3.53 3.05 3.77h-1.43l-2.59-3.16h-.81V162h-1.23Zm10.09.14a3.6 3.6 0 0 1-1.93-.52 3.75 3.75 0 0 1-1.75-3.26 3.7 3.7 0 0 1 1.76-3.26 3.5 3.5 0 0 1 1.92-.53 3.57 3.57 0 0 1 3.22 1.92 3.84 3.84 0 0 1-1.29 5.14c-.55.34-1.2.51-1.93.51Zm-2.42-3.77a2.72 2.72 0 0 0 1.2 2.35 2.19 2.19 0 0 0 2.44-.01c.37-.24.67-.57.88-.98.22-.42.34-.88.34-1.38a2.82 2.82 0 0 0-1.22-2.36 2.15 2.15 0 0 0-1.22-.36c-.45 0-.85.13-1.22.38a2.72 2.72 0 0 0-1.2 2.36Zm6.8 5.35v-2.81h.15c.27 0 .51-.11.73-.34.22-.23.4-.64.55-1.23.13-.6.22-1.44.25-2.53l.07-2.12h4.97v6.22h1v2.81h-1.1V162h-5.53v1.72h-1.1Zm1.87-2.81h3.62v-5.13h-2.65l-.04 1.14c-.04 1.2-.14 2.1-.3 2.71-.15.62-.36 1.05-.63 1.28Zm7.2 1.09v-7.3h1.23v2.48h1.48c.86 0 1.51.22 1.95.66.45.43.67 1 .67 1.7s-.21 1.28-.64 1.76c-.43.47-1.06.7-1.9.7h-2.8Zm6.59 0v-7.3h1.23v7.3h-1.23Zm-5.36-.97h1.4c.51 0 .88-.14 1.1-.43.24-.3.35-.64.35-1.04 0-.38-.1-.71-.32-.99-.21-.28-.6-.42-1.16-.42h-1.37v2.88Zm-70.6 19.7v-2.82h.15c.27 0 .51-.11.73-.34.22-.23.4-.64.55-1.23.13-.6.22-1.44.25-2.53l.07-2.12h4.97v6.22h1v2.81h-1.1V179h-5.53v1.72h-1.1Zm1.87-2.82h3.62v-5.13h-2.65l-.04 1.14c-.04 1.2-.14 2.1-.3 2.71-.15.62-.36 1.05-.63 1.28Zm6.57 1.15v-1.11c.31 0 .6-.13.84-.35.24-.22.43-.63.57-1.23.15-.6.24-1.45.28-2.56l.09-2.12h4.96V179h-1.23v-6.22h-2.64l-.03 1.14a12.9 12.9 0 0 1-.4 3.1 2.84 2.84 0 0 1-.94 1.57c-.4.3-.9.46-1.5.47Zm8.19-.06 2.07-2.94a1.9 1.9 0 0 1-1.15-.67 2.27 2.27 0 0 1-.43-1.46c0-.44.1-.82.3-1.16.21-.34.5-.6.86-.8.37-.2.8-.3 1.3-.3h3V179h-1.23v-2.74h-1.43l-1.93 2.74h-1.36Zm3.04-3.65h1.68v-2.7h-1.54c-.44 0-.8.12-1.05.37-.26.24-.4.56-.4.94 0 .38.11.7.33.98.22.27.55.4.98.4Zm7.87 1.54c0-.47.13-.87.39-1.2a2.6 2.6 0 0 1 1.1-.8c.47-.2 1.01-.29 1.63-.29a6.82 6.82 0 0 1 2 .31v-.53c0-.56-.17-1-.5-1.32a2 2 0 0 0-1.43-.49c-.4 0-.79.08-1.16.23-.37.14-.75.34-1.16.61l-.45-.86c.47-.33.95-.57 1.43-.73.47-.17.97-.25 1.48-.25.93 0 1.67.26 2.21.78.54.51.81 1.23.81 2.16v3.09c0 .29.14.44.4.45v.95a5.56 5.56 0 0 1-.54.06c-.28 0-.5-.08-.65-.24a.9.9 0 0 1-.24-.5l-.03-.47c-.32.41-.73.73-1.25.95a3.8 3.8 0 0 1-1.52.34c-.49 0-.92-.1-1.3-.3a2.13 2.13 0 0 1-1.22-1.96Zm4.76.51c.11-.13.2-.26.26-.39.07-.14.1-.25.1-.35v-.9a5.04 5.04 0 0 0-1.85-.36c-.62 0-1.13.13-1.52.38-.38.24-.58.58-.58 1 0 .24.06.47.19.7.13.2.31.39.56.53.25.14.56.2.92.2.38 0 .75-.07 1.1-.22.34-.16.61-.35.82-.59Zm3.55 1.6v-7.3h1.23v3h.81l2.3-3h1.4l-2.73 3.53 3.05 3.77h-1.43l-2.59-3.16h-.8V179h-1.24Zm9.05 0v-6.22h-2.52v-1.09h6.27v1.1h-2.52V179h-1.23Zm4.98 0v-7.3h1.23v5.65l4.09-5.66h1.12V179h-1.23v-5.53L308.8 179h-1.17Zm8.4 0v-7.3h3.77c.44 0 .8.08 1.1.26a1.77 1.77 0 0 1 .87 1.53 1.85 1.85 0 0 1-1.1 1.76c.42.12.76.34 1.02.66.26.3.4.69.4 1.14 0 .62-.23 1.1-.66 1.45-.43.33-1 .5-1.7.5h-3.7Zm1.17-4.09h2.28a1 1 0 0 0 .8-.36c.21-.25.32-.54.32-.86 0-.3-.1-.57-.3-.8a.97.97 0 0 0-.78-.33h-2.32v2.35Zm0 3.22h2.5c.34 0 .62-.12.84-.36.24-.25.35-.53.35-.84 0-.33-.1-.6-.33-.84a1.04 1.04 0 0 0-.81-.37h-2.55v2.41Zm5.88-1.24c0-.47.13-.87.39-1.2a2.6 2.6 0 0 1 1.1-.8c.47-.2 1.01-.29 1.63-.29a6.82 6.82 0 0 1 2 .31v-.53c0-.56-.17-1-.5-1.32a2 2 0 0 0-1.43-.49c-.4 0-.79.08-1.16.23a6.3 6.3 0 0 0-1.17.61l-.44-.86c.47-.33.95-.57 1.43-.73.47-.17.97-.25 1.48-.25.93 0 1.67.26 2.21.78.54.51.81 1.23.81 2.16v3.09c0 .29.13.44.4.45v.95a5.56 5.56 0 0 1-.54.06.88.88 0 0 1-.66-.24.9.9 0 0 1-.23-.5l-.03-.47c-.32.41-.73.73-1.25.95a3.8 3.8 0 0 1-1.52.34c-.49 0-.92-.1-1.3-.3a2.13 2.13 0 0 1-1.22-1.96Zm4.76.51c.1-.13.2-.26.26-.39.07-.14.1-.25.1-.35v-.9a5.04 5.04 0 0 0-1.85-.36c-.62 0-1.13.13-1.52.38-.39.24-.58.58-.58 1 0 .24.06.47.19.7.13.2.31.39.56.53.25.14.56.2.92.2.38 0 .75-.07 1.1-.22.34-.16.61-.35.82-.59Zm9.32 3.32V179h-5.77v-7.3h1.23v6.22h3.39v-6.23h1.23v6.23h1v2.8h-1.08Zm2.45-1.72v-7.3h1.23v5.65l4.09-5.66h1.12V179h-1.24v-5.53L340.8 179h-1.17Zm8.39 0v-7.3h1.23v5.65l4.09-5.66h1.12V179h-1.23v-5.53l-4.03 5.53H348Zm-53.59 17.14a3.6 3.6 0 0 1-3.24-1.9 3.87 3.87 0 0 1-.48-1.9 3.82 3.82 0 0 1 1.8-3.26 3.68 3.68 0 0 1 1.94-.51 3.52 3.52 0 0 1 3.2 1.9 3.72 3.72 0 0 1 .42 2.3H292a2.66 2.66 0 0 0 1.29 2.14 2.5 2.5 0 0 0 2.44-.03c.4-.22.67-.52.82-.88l1.07.3c-.24.53-.64.98-1.22 1.32-.58.35-1.24.52-1.98.52Zm-2.46-4.23h4.98c-.03-.47-.17-.9-.4-1.26a2.41 2.41 0 0 0-2.1-1.16c-.43 0-.83.1-1.2.3a2.53 2.53 0 0 0-1.28 2.12Zm13.47-3.76c-.24-.27-.6-.5-1.08-.72a3.96 3.96 0 0 0-1.63-.32c-.76 0-1.33.14-1.69.43-.36.3-.54.69-.54 1.2 0 .35.09.63.27.83.2.2.48.38.86.5.4.14.89.27 1.48.41.7.15 1.3.34 1.8.55.5.22.89.5 1.16.87.27.35.4.83.4 1.43a2.45 2.45 0 0 1-1.77 2.47 6.22 6.22 0 0 1-5.88-1.1l.6-1.07c.2.2.48.41.82.62a5.22 5.22 0 0 0 2.65.71c.7 0 1.26-.12 1.65-.37.4-.27.59-.64.59-1.14 0-.37-.11-.67-.34-.9a2.4 2.4 0 0 0-.96-.55c-.43-.15-.95-.3-1.57-.45-.67-.17-1.24-.35-1.7-.55-.45-.2-.8-.47-1.03-.8a2.2 2.2 0 0 1-.34-1.27c0-.64.16-1.17.46-1.61.31-.44.74-.77 1.28-1a4.76 4.76 0 0 1 1.83-.33 5.06 5.06 0 0 1 3.26 1.13l-.58 1.03Zm2.7 7.85v-9.94h1.25V196h-1.26Zm12.22 0v-7.59l-3.27 5.84h-.77l-3.3-5.84V196h-1.25v-9.94h1.33l3.6 6.45 3.6-6.45h1.32V196h-1.26Z"/><path stroke="#00E0FF" d="M307.15 114.25v27.85"/><path fill="#00E0FF" d="m306.87 70.9 10.98 15.76h-21.97l10.99-15.77Zm1.33 142.3 4.63 8.03h-9.26l4.63-8.03ZM223.64 57.64l1.6 5.03-2.33.74-.92-2.9-10.43 3.33.93 2.9-2.35.75-1.59-5.04.59-.19c.84-.31 1.24-1.13 1.18-2.46a24.4 24.4 0 0 0-1.03-5.47l-1.22-4.36 9.96-3.18 3.65 11.47 1.96-.62Zm-12.06-3.78c.5 1.78.82 3.3.97 4.55a5.23 5.23 0 0 1-.25 2.84l6.9-2.2-2.97-9.33-5.32 1.7.67 2.44Zm10.76-8.27 2.53-.66 2.55 9.8L232.28 43l2.39-.62 3.6 13.82-2.53.66-2.55-9.8-4.86 11.73-2.39.62-3.6-13.81ZM248 54.36c-1.4.3-2.75.25-4.02-.12a7.15 7.15 0 0 1-3.2-2.02 7.33 7.33 0 0 1-1.73-3.5 7.02 7.02 0 0 1 2.36-7.01 8.02 8.02 0 0 1 3.64-1.73 8.13 8.13 0 0 1 3.25-.06c1.03.2 1.95.62 2.76 1.24l-1.35 1.93a4.99 4.99 0 0 0-4.07-.86 5.3 5.3 0 0 0-2.44 1.17 4.57 4.57 0 0 0-1.42 2.1c-.27.84-.3 1.73-.11 2.68.2.94.58 1.74 1.16 2.4a4.7 4.7 0 0 0 2.14 1.4 5.4 5.4 0 0 0 2.7.08 4.96 4.96 0 0 0 3.4-2.44l2 1.25a6.5 6.5 0 0 1-2.06 2.24 8.14 8.14 0 0 1-3 1.25Zm15.82-15.16-4.67.76 1.92 11.88-2.6.42-1.91-11.88-4.65.75-.35-2.22 11.9-1.92.36 2.21Zm8.1-3.2a7.82 7.82 0 0 1 3.27.24c.96.3 1.73.8 2.3 1.5.58.7.93 1.56 1.05 2.6a4.97 4.97 0 0 1-.42 2.78 4.69 4.69 0 0 1-1.9 2c-.86.5-1.9.83-3.13.97l-3.2.37.48 4.1-2.63.3-1.65-14.18 5.83-.68Zm.8 7.88c1.14-.14 1.98-.48 2.52-1.04.53-.55.75-1.28.65-2.19-.1-.9-.49-1.56-1.14-1.98-.65-.42-1.55-.56-2.7-.43l-3.07.36.65 5.63 3.08-.35Zm8.24-8.8 2.6-.17.66 10.12 7-10.62 2.45-.16.93 14.25-2.6.17-.66-10.1-6.99 10.6-2.46.16-.93-14.25Zm16.81-.92 11.1-.16.03 2.19-8.5.12.05 3.5 4.22-.05c1.71-.03 3.02.31 3.91 1.02.9.7 1.37 1.72 1.39 3.06a3.95 3.95 0 0 1-1.42 3.3c-.97.78-2.36 1.18-4.17 1.21l-6.42.09-.2-14.28Zm6.44 12.15a3.85 3.85 0 0 0 2.32-.62 2 2 0 0 0 .77-1.73c-.02-1.47-1.07-2.19-3.15-2.16l-3.67.05.06 4.51 3.67-.05Zm15.17-7.16c1.72.06 3.01.5 3.9 1.3.9.8 1.32 1.94 1.27 3.45-.06 1.58-.6 2.77-1.63 3.58-1.04.8-2.47 1.16-4.28 1.1l-6.13-.21.48-14.27 2.6.09-.16 4.83 3.95.13Zm-.8 7.39a3.56 3.56 0 0 0 2.41-.64c.57-.45.88-1.14.9-2.05.06-1.72-.98-2.62-3.12-2.7l-3.4-.11-.19 5.38 3.4.12Zm21.57-10.92c1.39.12 2.61.56 3.66 1.3a6.8 6.8 0 0 1 2.4 2.84 7.4 7.4 0 0 1 .6 3.85 7.46 7.46 0 0 1-1.3 3.67 6.94 6.94 0 0 1-2.88 2.38 7.56 7.56 0 0 1-3.84.58 7.72 7.72 0 0 1-3.41-1.11 7.06 7.06 0 0 1-3.31-5.8l-2.24-.21-.56 6.03-2.6-.24L328 34.7l2.6.24-.54 5.83 2.27.21c.3-1.16.82-2.16 1.57-3a6.88 6.88 0 0 1 2.76-1.9 7.67 7.67 0 0 1 3.5-.45ZM339 47.92a4.43 4.43 0 0 0 4.3-2.02c.47-.71.76-1.56.85-2.54a5.49 5.49 0 0 0-.37-2.65 4.43 4.43 0 0 0-1.52-1.93 4.68 4.68 0 0 0-2.34-.85 4.8 4.8 0 0 0-2.45.4 4.7 4.7 0 0 0-1.85 1.62 5.43 5.43 0 0 0-.85 2.54c-.09.98.03 1.86.37 2.66a4.6 4.6 0 0 0 3.86 2.78Zm20.34-7.21-4.67-.7-1.77 11.91-2.6-.38 1.77-11.91-4.66-.7.33-2.21 11.93 1.77-.33 2.22Zm6.63 13.77a8.2 8.2 0 0 1-3.68-1.69 7.12 7.12 0 0 1-2.43-7.01 7.18 7.18 0 0 1 4.92-5.54 8.06 8.06 0 0 1 4.04-.17c1.43.28 2.65.85 3.68 1.7a6.98 6.98 0 0 1 2.43 7 7.12 7.12 0 0 1-4.92 5.55 8.2 8.2 0 0 1-4.04.16Zm.45-2.28a4.74 4.74 0 0 0 4.75-1.53 5.2 5.2 0 0 0 1.14-2.42c.19-.94.14-1.82-.14-2.65a4.56 4.56 0 0 0-1.4-2.11 5.08 5.08 0 0 0-2.4-1.14 5.08 5.08 0 0 0-2.64.14c-.83.27-1.54.74-2.11 1.41a5.1 5.1 0 0 0-1.14 2.4 5.2 5.2 0 0 0 .13 2.66 4.78 4.78 0 0 0 3.81 3.24Zm18.35-8.27c1.2.3 2.2.77 2.98 1.39a4.7 4.7 0 0 1 1.63 2.22c.28.85.3 1.79.04 2.8-.25 1-.7 1.83-1.37 2.46a4.69 4.69 0 0 1-2.48 1.18 7.9 7.9 0 0 1-3.27-.2l-3.13-.78-1 4-2.57-.65 3.48-13.85 5.7 1.43Zm-2.05 7.65c1.12.28 2.03.26 2.73-.07.7-.33 1.16-.93 1.38-1.82.23-.88.1-1.63-.35-2.25-.46-.63-1.25-1.08-2.37-1.36l-3-.76-1.39 5.5 3 .76Zm15.72 1.26c1.63.51 2.77 1.27 3.4 2.28.66 1 .76 2.23.31 3.67-.47 1.5-1.3 2.51-2.52 3.02-1.2.49-2.68.46-4.41-.08l-5.86-1.83 4.25-13.63 2.5.78-1.45 4.61 3.78 1.18Zm-2.73 6.9c.98.31 1.81.32 2.49.04.67-.3 1.14-.87 1.41-1.74.52-1.65-.25-2.8-2.3-3.44l-3.25-1.01-1.6 5.14 3.25 1.02Zm11.2-9.31 2.5.77-4.25 13.64-2.5-.78 4.26-13.63Z"/><path stroke="url(#e)" stroke-dasharray="2.2 2.2" d="M313.18 344.8c-.75.07-1.51.12-2.28.15l-.01-.5a35.28 35.28 0 0 1-2.26 0l-.02.5a34.9 34.9 0 0 1-2.28-.15l.05-.5c-.75-.07-1.5-.17-2.23-.29l-.08.5c-.76-.13-1.5-.28-2.25-.45l.12-.49c-.74-.17-1.46-.36-2.18-.58l-.14.48c-.73-.22-1.45-.47-2.17-.74l.18-.46c-.7-.27-1.4-.56-2.08-.87l-.2.46c-.7-.32-1.38-.66-2.05-1.01l.23-.45c-.66-.35-1.31-.73-1.95-1.13l-.26.43c-.65-.4-1.28-.83-1.9-1.27l.3-.41c-.62-.44-1.21-.9-1.8-1.37l-.3.38c-.6-.48-1.17-.98-1.73-1.5l.35-.37a33.7 33.7 0 0 1-1.6-1.6l-.36.35a34.67 34.67 0 0 1-1.5-1.72l.38-.32c-.48-.58-.93-1.18-1.37-1.79l-.4.3c-.45-.62-.87-1.26-1.28-1.9l.43-.27c-.4-.63-.77-1.28-1.13-1.95l-.44.24c-.36-.67-.7-1.36-1.01-2.05l.46-.2a38.3 38.3 0 0 1-.87-2.09l-.47.18a50.2 50.2 0 0 1-.73-2.17l.48-.14c-.22-.72-.41-1.44-.58-2.18l-.49.11c-.17-.73-.32-1.48-.44-2.24l.5-.08c-.13-.74-.22-1.48-.3-2.23l-.5.05c-.07-.76-.12-1.52-.14-2.28l.5-.02a35.28 35.28 0 0 1 0-2.26l-.5-.01c.02-.77.07-1.53.14-2.28l.5.05c.08-.76.17-1.5.3-2.24l-.5-.08c.12-.75.27-1.5.44-2.24l.49.11c.17-.73.36-1.46.58-2.17l-.48-.15c.22-.73.47-1.45.73-2.16l.47.17c.27-.7.56-1.4.87-2.08l-.46-.2c.31-.7.65-1.38 1.01-2.05l.44.24c.36-.67.73-1.32 1.13-1.96l-.43-.26c.4-.65.83-1.28 1.27-1.9l.41.3c.44-.62.9-1.22 1.37-1.8l-.39-.31c.49-.6.99-1.17 1.51-1.72l.37.34c.5-.55 1.04-1.08 1.59-1.6l-.35-.36c.56-.52 1.13-1.02 1.72-1.5l.32.38c.58-.48 1.17-.94 1.78-1.38l-.29-.4c.62-.44 1.25-.87 1.9-1.27l.26.42c.64-.4 1.29-.77 1.95-1.13l-.23-.44c.67-.36 1.35-.7 2.04-1.01l.21.45c.68-.3 1.38-.6 2.08-.86l-.18-.47c.72-.27 1.44-.51 2.17-.73l.14.47c.72-.21 1.44-.4 2.18-.58l-.12-.49c.74-.17 1.5-.31 2.25-.44l.08.5c.73-.13 1.48-.23 2.23-.3l-.05-.5c.76-.07 1.52-.12 2.28-.14l.02.5a32.52 32.52 0 0 1 2.25 0l.02-.5c.77.02 1.53.07 2.28.14l-.05.5c.75.07 1.5.17 2.24.3l.08-.5c.75.13 1.5.27 2.24.44l-.12.5c.74.16 1.46.36 2.18.57l.14-.47c.74.22 1.46.46 2.17.73l-.18.47c.7.26 1.4.55 2.08.86l.2-.45c.7.31 1.39.65 2.06 1.01l-.24.44c.66.36 1.31.73 1.95 1.13l.26-.42c.65.4 1.28.82 1.9 1.27l-.29.4c.61.44 1.2.9 1.78 1.38l.32-.39c.6.49 1.16 1 1.72 1.51l-.34.37c.54.51 1.08 1.04 1.59 1.59l.36-.34a35.1 35.1 0 0 1 1.5 1.72l-.38.31c.48.58.94 1.18 1.37 1.8l.41-.3c.44.62.87 1.25 1.27 1.9l-.42.26c.4.64.77 1.3 1.12 1.95l.44-.23c.36.67.7 1.35 1.01 2.05l-.45.2c.3.69.6 1.38.86 2.08l.47-.17c.26.71.5 1.43.73 2.16l-.48.15c.22.71.41 1.44.58 2.17l.49-.1c.17.73.32 1.48.44 2.23l-.5.08c.13.74.23 1.48.3 2.24l.5-.05c.07.75.12 1.51.14 2.28l-.5.01a35.28 35.28 0 0 1 0 2.26l.5.02c-.02.76-.07 1.52-.14 2.28l-.5-.05c-.07.75-.17 1.5-.3 2.23l.5.08c-.12.76-.27 1.5-.44 2.24l-.49-.1c-.17.73-.36 1.45-.58 2.17l.48.14a35.3 35.3 0 0 1-.73 2.17l-.47-.18c-.27.7-.55 1.4-.86 2.08l.45.2c-.31.7-.65 1.39-1 2.06l-.45-.24c-.35.67-.73 1.31-1.13 1.95l.43.27c-.4.64-.83 1.28-1.27 1.9l-.4-.3c-.44.62-.9 1.21-1.38 1.8l.39.3c-.48.6-.99 1.17-1.5 1.73l-.37-.35a33.7 33.7 0 0 1-1.6 1.6l.35.36c-.56.53-1.13 1.03-1.72 1.51l-.31-.38c-.58.47-1.18.93-1.79 1.37l.3.4c-.63.45-1.26.88-1.9 1.28l-.27-.43c-.64.4-1.29.78-1.95 1.13l.24.45c-.67.35-1.36.7-2.05 1l-.2-.45c-.69.31-1.38.6-2.09.87l.18.47c-.71.26-1.43.5-2.17.73l-.14-.48c-.72.22-1.44.41-2.18.58l.12.5c-.74.16-1.49.31-2.24.44l-.08-.5c-.74.12-1.49.22-2.24.3l.05.5Z" opacity=".3"/><path stroke="url(#f)" d="M309.75 353.74a43.69 43.69 0 0 1-43.66-43.7 43.69 43.69 0 0 1 43.67-43.72 43.69 43.69 0 0 1 43.66 43.71 43.69 43.69 0 0 1-43.67 43.71Z"/><path stroke="url(#g)" d="M309.76 361.64a51.58 51.58 0 0 1-51.55-51.6 51.58 51.58 0 0 1 51.55-51.61 51.58 51.58 0 0 1 51.55 51.6c0 28.5-23.08 51.6-51.55 51.6Z"/><path stroke="url(#h)" stroke-dasharray="2.2 2.2" d="M313.1 378.24c-.73.04-1.48.06-2.22.07l-.01-.5a68.64 68.64 0 0 1-2.23 0v.5c-.75 0-1.5-.03-2.23-.07l.02-.5a55.1 55.1 0 0 1-2.22-.14l-.04.5a67.9 67.9 0 0 1-2.22-.22l.06-.5c-.74-.08-1.47-.18-2.2-.28l-.07.5-2.2-.37.08-.5c-.73-.13-1.45-.27-2.17-.42l-.1.48c-.74-.15-1.46-.32-2.18-.5l.12-.49c-.72-.18-1.44-.37-2.15-.57l-.13.48c-.72-.2-1.43-.42-2.14-.65l.15-.47-2.1-.72-.16.47-2.1-.78.19-.47c-.69-.27-1.37-.56-2.05-.85l-.2.46c-.68-.3-1.36-.6-2.03-.93l.22-.45c-.67-.31-1.34-.64-2-.98l-.22.44c-.66-.34-1.32-.7-1.97-1.05l.24-.44a68.8 68.8 0 0 1-1.91-1.11l-.26.43a68.3 68.3 0 0 1-1.9-1.19l.27-.42c-.62-.4-1.23-.8-1.84-1.23l-.28.41c-.62-.43-1.22-.86-1.82-1.3l.3-.4c-.6-.45-1.18-.9-1.75-1.36l-.32.4a76.6 76.6 0 0 1-1.72-1.43l.32-.38a45.6 45.6 0 0 1-1.66-1.46l-.34.37c-.55-.5-1.1-1.01-1.63-1.53l.35-.36a68.14 68.14 0 0 1-1.57-1.57l-.36.35a69.21 69.21 0 0 1-1.52-1.63l.37-.34c-.5-.54-.98-1.1-1.46-1.66l-.38.32a69.1 69.1 0 0 1-1.42-1.73l.4-.3c-.47-.59-.92-1.17-1.36-1.77l-.4.3c-.44-.6-.88-1.2-1.3-1.82l.41-.28c-.42-.6-.83-1.22-1.23-1.84l-.42.27c-.4-.63-.8-1.26-1.18-1.9l.43-.26a60 60 0 0 1-1.11-1.92l-.44.25c-.36-.65-.71-1.31-1.05-1.97l.44-.23c-.34-.66-.66-1.32-.98-1.99l-.45.21c-.32-.67-.63-1.35-.92-2.03l.46-.2c-.3-.68-.58-1.36-.85-2.05l-.47.19-.78-2.1.47-.16c-.25-.7-.49-1.4-.71-2.1l-.48.15a67.5 67.5 0 0 1-.65-2.14l.48-.13c-.2-.71-.39-1.43-.57-2.15l-.48.12a68 68 0 0 1-.5-2.17l.48-.1c-.15-.73-.3-1.45-.43-2.18l-.49.09c-.13-.74-.25-1.47-.36-2.21l.5-.07c-.11-.73-.2-1.46-.3-2.2l-.49.06a73.6 73.6 0 0 1-.22-2.22l.5-.05c-.06-.73-.1-1.47-.14-2.21l-.5.02c-.03-.74-.06-1.48-.07-2.23h.5a68.64 68.64 0 0 1 0-2.23h-.5c.01-.75.03-1.5.07-2.24l.5.02c.04-.74.08-1.47.14-2.21l-.5-.04c.06-.75.14-1.49.22-2.22l.5.05c.08-.73.18-1.46.28-2.2l-.5-.07.37-2.2.5.09c.12-.73.27-1.46.42-2.18l-.49-.1.5-2.18.5.12c.17-.72.36-1.43.56-2.14l-.48-.14c.2-.71.42-1.43.65-2.13l.48.15c.22-.7.46-1.4.7-2.1l-.46-.17.78-2.1.47.2c.27-.7.55-1.38.85-2.06l-.46-.2c.3-.68.6-1.36.92-2.03l.45.21c.32-.67.64-1.33.98-1.99l-.44-.22c.34-.67.69-1.32 1.05-1.97l.44.24c.36-.65.73-1.29 1.1-1.92l-.42-.26c.38-.64.77-1.27 1.18-1.9l.42.28c.4-.62.8-1.24 1.23-1.85l-.41-.28c.42-.61.86-1.22 1.3-1.82l.4.3c.44-.6.9-1.18 1.35-1.76l-.39-.3c.46-.6.94-1.17 1.42-1.74l.38.33c.48-.57.96-1.12 1.46-1.67l-.37-.33c.5-.56 1-1.1 1.52-1.64l.36.35 1.57-1.57-.35-.36c.54-.52 1.08-1.03 1.63-1.53l.34.37c.54-.5 1.1-.98 1.66-1.46l-.32-.38a76.1 76.1 0 0 1 1.72-1.42l.31.4c.58-.47 1.17-.92 1.76-1.36l-.3-.4c.6-.45 1.2-.88 1.82-1.3l.28.4c.6-.42 1.22-.83 1.84-1.23l-.27-.42c.63-.4 1.26-.8 1.9-1.18l.25.42a62.7 62.7 0 0 1 1.92-1.1l-.24-.44c.65-.37 1.3-.72 1.97-1.06l.23.44 1.99-.98-.22-.45c.67-.32 1.35-.63 2.03-.92l.2.45 2.05-.85-.18-.46c.69-.27 1.38-.54 2.09-.79l.17.47c.69-.25 1.39-.49 2.1-.71l-.16-.48c.7-.23 1.42-.44 2.14-.65l.13.48c.72-.2 1.43-.39 2.15-.57l-.12-.48a52.6 52.6 0 0 1 2.17-.51l.1.49c.73-.16 1.45-.3 2.18-.43l-.09-.5c.73-.13 1.47-.25 2.2-.36l.08.5c.73-.11 1.46-.2 2.2-.29l-.06-.5a67.9 67.9 0 0 1 2.22-.21l.04.5 2.22-.15-.02-.5c.74-.03 1.48-.06 2.22-.07l.01.5a68.64 68.64 0 0 1 2.23 0v-.5c.75.01 1.5.04 2.24.07l-.03.5 2.22.15.04-.5 2.22.21-.06.5c.74.08 1.47.18 2.2.29l.07-.5c.74.11 1.48.23 2.21.37l-.09.49c.73.13 1.46.27 2.18.43l.1-.5 2.18.52-.13.48c.72.18 1.44.37 2.15.57l.13-.48c.72.2 1.43.42 2.14.65l-.15.48c.7.22 1.4.46 2.1.71l.17-.47c.7.25 1.4.52 2.09.79l-.19.46 2.05.85.2-.45c.68.3 1.36.6 2.03.92l-.21.45c.67.32 1.33.65 1.98.98l.24-.44c.66.34 1.31.7 1.96 1.06l-.24.43 1.92 1.11.26-.42c.63.38 1.26.78 1.89 1.18l-.27.42c.62.4 1.23.81 1.84 1.23l.29-.4c.6.42 1.21.85 1.8 1.3l-.29.4c.6.44 1.18.9 1.76 1.35l.3-.39c.6.46 1.17.94 1.73 1.42l-.32.38 1.67 1.46.33-.37c.55.5 1.1 1.01 1.63 1.53l-.35.36c.53.52 1.06 1.04 1.57 1.57l.36-.35a77.2 77.2 0 0 1 1.52 1.63l-.37.34c.5.55.99 1.1 1.46 1.67l.39-.33c.48.57.95 1.15 1.41 1.73l-.39.31c.46.58.91 1.17 1.35 1.76l.4-.3c.45.6.88 1.2 1.3 1.82l-.4.28 1.23 1.85.42-.27c.4.62.8 1.25 1.18 1.9l-.43.25c.38.63.75 1.27 1.1 1.92l.44-.24c.36.65.72 1.3 1.06 1.97l-.45.23c.34.65.67 1.31.98 1.98l.45-.21c.32.67.63 1.35.93 2.04l-.46.2c.29.67.57 1.35.84 2.04l.47-.18a68 68 0 0 1 .79 2.09l-.47.17c.24.7.48 1.4.7 2.1l.48-.16c.23.71.44 1.43.65 2.14l-.48.14c.2.7.4 1.42.57 2.14l.49-.12c.18.72.34 1.45.5 2.18l-.49.1c.16.72.3 1.45.43 2.18l.5-.1c.13.74.25 1.47.35 2.21l-.5.08c.12.73.21 1.46.3 2.2l.5-.06c.08.73.15 1.47.2 2.22l-.49.04c.06.74.1 1.47.14 2.21l.5-.02c.04.74.06 1.48.07 2.23h-.5a68.64 68.64 0 0 1 0 2.23l.5.01c0 .75-.03 1.5-.07 2.23l-.5-.02c-.03.74-.08 1.48-.14 2.21l.5.05a67.9 67.9 0 0 1-.22 2.22l-.5-.06a66.3 66.3 0 0 1-.28 2.2l.5.07-.37 2.2-.49-.08a52 52 0 0 1-.43 2.17l.49.1c-.16.74-.32 1.46-.5 2.18l-.49-.12a66.8 66.8 0 0 1-.57 2.14l.48.14c-.2.72-.42 1.43-.65 2.14l-.47-.15-.71 2.1.47.16c-.25.7-.52 1.4-.79 2.1l-.47-.19c-.27.69-.55 1.37-.84 2.05l.46.2c-.3.68-.6 1.36-.93 2.03l-.45-.21c-.31.67-.64 1.33-.98 1.99l.44.23c-.33.66-.69 1.32-1.05 1.97l-.44-.25c-.35.65-.72 1.29-1.1 1.92l.43.26a66.8 66.8 0 0 1-1.19 1.9l-.42-.27c-.4.62-.8 1.23-1.23 1.84l.41.28a68.8 68.8 0 0 1-1.3 1.82l-.4-.3c-.44.6-.89 1.18-1.35 1.76l.4.31c-.47.59-.94 1.16-1.42 1.73l-.39-.32a66.2 66.2 0 0 1-1.46 1.66l.37.34c-.5.55-1 1.1-1.52 1.63l-.36-.35a58.1 58.1 0 0 1-1.57 1.57l.35.36c-.53.52-1.08 1.03-1.63 1.53l-.33-.37c-.55.5-1.1.99-1.67 1.46l.32.38a67 67 0 0 1-1.72 1.42l-.31-.39-1.76 1.36.3.4c-.6.44-1.2.88-1.81 1.3l-.29-.41c-.6.42-1.22.83-1.84 1.23l.27.42-1.9 1.19-.25-.43c-.64.38-1.27.75-1.92 1.11l.24.44c-.65.36-1.3.71-1.97 1.05l-.23-.44c-.65.34-1.31.67-1.98.98l.21.45c-.67.32-1.35.63-2.03.93l-.2-.46c-.68.3-1.36.58-2.05.85l.19.47-2.1.78-.16-.47-2.1.72.15.47c-.7.23-1.42.45-2.13.65l-.14-.48c-.71.2-1.43.4-2.15.57l.13.49a66 66 0 0 1-2.18.5l-.1-.48c-.72.15-1.45.3-2.18.43l.1.49-2.22.36-.07-.5c-.73.11-1.46.2-2.2.3l.06.49c-.74.08-1.48.16-2.22.22l-.04-.5c-.74.06-1.48.1-2.22.14l.03.5Z" opacity=".3"/><path fill="#00E0FF" fill-rule="evenodd" d="M288.46 327.02a27.08 27.08 0 0 0 38.08 4.33l2.3 2.88a30.83 30.83 0 0 0 4.9-43.3 30.75 30.75 0 0 0-43.24-4.91l2.29 2.87a27.15 27.15 0 0 0-4.33 38.13Zm-4.56 3.64a33 33 0 0 1 5.25-46.33 32.9 32.9 0 0 1 46.28 5.26 33 33 0 0 1-5.25 46.33 32.91 32.91 0 0 1-46.28-5.26Z" clip-rule="evenodd"/><path fill="url(#i)" fill-rule="evenodd" d="M310.95 269.53a40.59 40.59 0 0 0-41.83 39.31l-5.5-.17a46.1 46.1 0 0 0 44.6 47.54 46.09 46.09 0 0 0 47.5-44.64l-5.5-.17a40.6 40.6 0 0 0-39.27-41.87Zm.27-8.74a49.33 49.33 0 0 1 47.73 50.88 49.32 49.32 0 0 1-50.83 47.78 49.33 49.33 0 0 1-47.72-50.88 49.32 49.32 0 0 1 50.82-47.78Z" clip-rule="evenodd"/><path fill="url(#j)" fill-rule="evenodd" d="M256.31 302.24a53.99 53.99 0 0 0 45.48 61.3l-1.06 7.23a61.25 61.25 0 0 0 69.53-51.7 61.3 61.3 0 0 0-51.65-69.6l-1.06 7.23a53.95 53.95 0 0 0-61.24 45.54Zm-11.48-1.7a65.55 65.55 0 0 1 74.4-55.33 65.6 65.6 0 0 1 55.28 74.5 65.55 65.55 0 0 1-74.41 55.32 65.6 65.6 0 0 1-55.27-74.49Z" clip-rule="evenodd"/><path fill="#F0F0F0" fill-rule="evenodd" d="M293.68 307.86c-.28 0-.5.03-.68.07a.89.89 0 0 0-.42.23c-.1.1-.18.24-.23.42-.04.18-.07.4-.07.68v1.48c0 .27.03.5.07.68.05.19.12.33.23.44.1.1.24.18.42.22.18.05.4.07.68.07h3.45c.18 0 .32-.05.4-.14.08-.1.13-.26.13-.49v-.83c0-.09-.05-.13-.13-.13h-3.07c-.15 0-.23-.08-.23-.24v-.77c0-.16.08-.24.23-.24h4.37c.2 0 .31.1.31.31v2.4c0 .57-.11.98-.33 1.21-.23.24-.55.36-.97.36h-4.23c-.53 0-.98-.05-1.35-.15a1.83 1.83 0 0 1-1.41-1.31 4.13 4.13 0 0 1-.17-1.26v-1.76c0-.5.06-.91.17-1.26.1-.34.27-.62.5-.83.24-.22.54-.38.91-.48.37-.1.82-.15 1.35-.15h3.52c.16 0 .23.08.23.23v1c0 .16-.07.24-.23.24h-3.45Zm32.79 3.53c-.14 0-.22-.08-.22-.22v-.93c0-.14.08-.2.22-.2h1.83c.35 0 .6-.08.75-.24.15-.15.22-.38.22-.68v-.4c0-.3-.07-.53-.22-.68-.15-.15-.4-.23-.75-.23h-3.88c-.09 0-.13.04-.13.13v5.42c0 .15-.08.23-.23.23h-1.13c-.16 0-.24-.08-.24-.23v-6.66c0-.2.1-.3.31-.3h5.62c.8 0 1.38.17 1.73.53.35.36.52.88.52 1.58v.76c0 .7-.17 1.23-.52 1.58-.35.36-.93.54-1.73.54h-2.15Zm-23.94-5c.16 0 .29.01.4.04a.74.74 0 0 1 .52.35c.07.1.13.23.2.4l2.18 4.93c.03.06.08.09.15.09h.12c.07 0 .12-.03.15-.1l2.18-4.93c.07-.16.14-.3.2-.39.07-.1.14-.18.23-.24.08-.05.18-.1.28-.11.11-.03.24-.04.4-.04h1.12c.36 0 .6.09.73.25s.19.43.19.82v5.9c0 .15-.08.23-.24.23h-1.07c-.15 0-.23-.08-.23-.23V308c0-.07-.03-.1-.08-.1h-.1c-.07 0-.11.02-.13.08l-2.12 4.6c-.08.18-.17.34-.25.47-.1.12-.19.23-.29.31a.9.9 0 0 1-.34.17c-.13.04-.28.06-.46.06h-.5c-.18 0-.33-.02-.46-.06a.9.9 0 0 1-.34-.17 1.5 1.5 0 0 1-.29-.31 2.96 2.96 0 0 1-.25-.47l-2.12-4.6c-.02-.06-.06-.09-.13-.09h-.1c-.05 0-.08.04-.08.1v5.37c0 .15-.08.23-.23.23h-1.07c-.16 0-.24-.08-.24-.23v-5.9c0-.39.06-.66.19-.82.13-.16.37-.25.74-.25h1.14Zm15.64 0c.57 0 1.06.06 1.46.17.4.12.74.3 1 .53.25.23.44.54.56.9.13.37.19.8.19 1.3v1.4c0 .5-.06.93-.19 1.3a2.1 2.1 0 0 1-1.56 1.43c-.4.1-.89.17-1.46.17h-4.9c-.2 0-.3-.1-.3-.31v-6.58c0-.2.1-.3.3-.3h4.9Zm-3.6 5.63c0 .1.04.14.13.14h3.43c.31 0 .57-.03.78-.08.2-.06.38-.15.5-.27.13-.13.23-.29.28-.5.06-.2.09-.45.09-.75v-1.13c0-.3-.03-.56-.09-.76a1.05 1.05 0 0 0-.27-.5c-.13-.12-.3-.21-.51-.27a3.1 3.1 0 0 0-.78-.08h-3.43c-.1 0-.14.05-.14.15v4.05Z" clip-rule="evenodd"/><path fill="#69D4CE" fill-rule="evenodd" d="M298.92 306.4c.15 0 .23.07.23.22v1c0 .16-.08.24-.23.24h-1.04c-.15 0-.23-.08-.23-.23v-1.01c0-.15.08-.23.23-.23h1.04Zm26.83 3.63c.14 0 .21.07.21.21v.93c0 .14-.07.22-.21.22h-.96c-.14 0-.2-.08-.2-.22v-.93c0-.14.06-.2.2-.2h.96Z" clip-rule="evenodd"/><defs><radialGradient id="a" cx="0" cy="0" r="1" gradientTransform="matrix(-291.49973 99.0019 -99.1971 -292.07449 310 310)" gradientUnits="userSpaceOnUse"><stop offset=".56" stop-color="#252F37"/><stop offset="1" stop-color="#00E0FF"/><stop offset="1" stop-color="#252F37"/></radialGradient><radialGradient id="b" cx="0" cy="0" r="1" gradientTransform="rotate(90 0 310) scale(265)" gradientUnits="userSpaceOnUse"><stop offset=".1" stop-color="#252F37"/><stop offset="1" stop-color="#252F37" stop-opacity="0"/></radialGradient><radialGradient id="c" cx="0" cy="0" r="1" gradientTransform="matrix(-117.64266 -244.2579 244.09303 -117.56325 307.74 309.5)" gradientUnits="userSpaceOnUse"><stop offset=".18" stop-color="#05D3B4"/><stop offset=".25" stop-color="#E3E3E3"/><stop offset=".63" stop-color="#E3E3E3"/><stop offset=".72" stop-color="#01EEDC"/><stop offset="1" stop-color="#00E0FF"/><stop offset="1" stop-color="#00E0FF"/></radialGradient><radialGradient id="e" cx="0" cy="0" r="1" gradientTransform="scale(34.8969 34.9345) rotate(-90 8.88 0)" gradientUnits="userSpaceOnUse"><stop stop-color="#2E9FBF"/><stop offset="1" stop-color="#2E9FBF" stop-opacity="0"/></radialGradient><radialGradient id="f" cx="0" cy="0" r="1" gradientTransform="matrix(44.1633 4.24346 -4.24795 44.21009 309.75 310.03)" gradientUnits="userSpaceOnUse"><stop stop-color="#2E9FBF"/><stop offset=".53" stop-color="#2E9FBF" stop-opacity="0"/><stop offset="1" stop-color="#2E9FBF" stop-opacity="0"/></radialGradient><radialGradient id="g" cx="0" cy="0" r="1" gradientTransform="rotate(-176.64 159.43 150.47) scale(52.1394 52.1952)" gradientUnits="userSpaceOnUse"><stop stop-color="#005F87"/><stop offset="1" stop-color="#005F87" stop-opacity="0"/></radialGradient><radialGradient id="h" cx="0" cy="0" r="1" gradientTransform="matrix(-68.2164 0 0 -68.2901 309.76 310.03)" gradientUnits="userSpaceOnUse"><stop stop-color="#68D3CD"/><stop offset="1" stop-color="#2E9FBF" stop-opacity="0"/></radialGradient><radialGradient id="i" cx="0" cy="0" r="1" gradientTransform="matrix(-49.39712 -3.35024 3.3538 -49.4498 309.66 310.13)" gradientUnits="userSpaceOnUse"><stop stop-color="#00FFD1"/><stop offset=".98" stop-color="#005F87" stop-opacity="0"/><stop offset="1" stop-color="#005F87" stop-opacity="0"/></radialGradient><radialGradient id="j" cx="0" cy="0" r="1" gradientTransform="matrix(-2.439 15.14253 -42.46489 -6.83979 302.49 360.16)" gradientUnits="userSpaceOnUse"><stop stop-color="#00FFF1"/><stop offset=".89" stop-color="#2E9FBF" stop-opacity="0"/><stop offset="1" stop-color="#2E9FBF" stop-opacity="0"/></radialGradient><clipPath id="d"><path fill="#fff" d="M0 0h9.25v9H0z" transform="translate(490.1 114.18)"/></clipPath></defs></svg>
