<svg xmlns="http://www.w3.org/2000/svg" width="81" height="81" fill="none">
  <path fill="url(#a)" d="M0 11.25h7.734v19.5H0v-19.5Z"/>
  <path fill="url(#b)" d="M58.266 50.25H66v19.5h-7.734v-19.5Z"/>
  <path fill="url(#c)" d="M29.133 30.75h7.734v19.5h-7.734v-19.5Z"/>
  <path fill="url(#d)" d="M5.8 46.35h19.466v-11.7H5.8c-3.198 0-5.8 2.624-5.8 5.85 0 3.226 2.602 5.85 5.8 5.85Z"/>
  <path fill="url(#e)" d="M60.2 34.65H40.733v11.7H60.2c3.199 0 5.801-2.624 5.801-5.85 0-3.226-2.602-5.85-5.8-5.85Z"/>
  <path fill="url(#f)" d="M60.2 15.15H11.601v11.7h48.597c3.2 0 5.802-2.624 5.802-5.85 0-3.226-2.602-5.85-5.8-5.85Z"/>
  <path fill="url(#g)" d="M5.8 65.85h48.598v-11.7H5.801C2.602 54.15 0 56.774 0 60c0 3.226 2.602 5.85 5.8 5.85Z"/>
  <defs>
    <linearGradient id="a" x1="33" x2="33" y1="11.25" y2="69.75" gradientUnits="userSpaceOnUse">
      <stop stop-color="#00FBEE"/>
      <stop offset="1" stop-color="#00FBEE" stop-opacity=".2"/>
    </linearGradient>
    <linearGradient id="b" x1="33" x2="33" y1="11.25" y2="69.75" gradientUnits="userSpaceOnUse">
      <stop stop-color="#00FBEE"/>
      <stop offset="1" stop-color="#00FBEE" stop-opacity=".2"/>
    </linearGradient>
    <linearGradient id="c" x1="33" x2="33" y1="11.25" y2="69.75" gradientUnits="userSpaceOnUse">
      <stop stop-color="#00FBEE"/>
      <stop offset="1" stop-color="#00FBEE" stop-opacity=".2"/>
    </linearGradient>
    <linearGradient id="d" x1="33" x2="33" y1="11.25" y2="69.75" gradientUnits="userSpaceOnUse">
      <stop stop-color="#00FBEE"/>
      <stop offset="1" stop-color="#00FBEE" stop-opacity=".2"/>
    </linearGradient>
    <linearGradient id="e" x1="33" x2="33" y1="11.25" y2="69.75" gradientUnits="userSpaceOnUse">
      <stop stop-color="#00FBEE"/>
      <stop offset="1" stop-color="#00FBEE" stop-opacity=".2"/>
    </linearGradient>
    <linearGradient id="f" x1="33" x2="33" y1="11.25" y2="69.75" gradientUnits="userSpaceOnUse">
      <stop stop-color="#00FBEE"/>
      <stop offset="1" stop-color="#00FBEE" stop-opacity=".2"/>
    </linearGradient>
    <linearGradient id="g" x1="33" x2="33" y1="11.25" y2="69.75" gradientUnits="userSpaceOnUse">
      <stop stop-color="#00FBEE"/>
      <stop offset="1" stop-color="#00FBEE" stop-opacity=".2"/>
    </linearGradient>
  </defs>
</svg>
