<svg xmlns="http://www.w3.org/2000/svg" width="42" height="42" fill="none">
  <path fill="#000" d="M35.68 23.509a2.51 2.51 0 0 0 0-5.018h-.867V5.018h.866a2.51 2.51 0 0 0 0-5.018H6.324a2.51 2.51 0 0 0 0 5.018l5.318-.004c.776 0 1.405.64 1.405 1.415 0 .776-.629 1.405-1.405 1.405H7.19v10.657h-.865a2.51 2.51 0 0 0 0 5.018l5.318-.003c.776 0 1.405.64 1.405 1.416 0 .776-.629 1.405-1.405 1.405H7.19v10.655h-.865a2.509 2.509 0 1 0 0 5.018H35.68a2.51 2.51 0 0 0 0-5.018h-.866V23.509h.866ZM21 27.783a5.168 5.168 0 0 1-5.168-5.168c0-2.854 5.168-8.398 5.168-8.398s5.168 5.544 5.168 8.398A5.168 5.168 0 0 1 21 27.783Z"/>
  <path fill="url(#a)" d="M35.68 23.509a2.51 2.51 0 0 0 0-5.018h-.867V5.018h.866a2.51 2.51 0 0 0 0-5.018H6.324a2.51 2.51 0 0 0 0 5.018l5.318-.004c.776 0 1.405.64 1.405 1.415 0 .776-.629 1.405-1.405 1.405H7.19v10.657h-.865a2.51 2.51 0 0 0 0 5.018l5.318-.003c.776 0 1.405.64 1.405 1.416 0 .776-.629 1.405-1.405 1.405H7.19v10.655h-.865a2.509 2.509 0 1 0 0 5.018H35.68a2.51 2.51 0 0 0 0-5.018h-.866V23.509h.866ZM21 27.783a5.168 5.168 0 0 1-5.168-5.168c0-2.854 5.168-8.398 5.168-8.398s5.168 5.544 5.168 8.398A5.168 5.168 0 0 1 21 27.783Z"/>
  <path fill="url(#b)" d="M35.68 23.509a2.51 2.51 0 0 0 0-5.018h-.867V5.018h.866a2.51 2.51 0 0 0 0-5.018H6.324a2.51 2.51 0 0 0 0 5.018l5.318-.004c.776 0 1.405.64 1.405 1.415 0 .776-.629 1.405-1.405 1.405H7.19v10.657h-.865a2.51 2.51 0 0 0 0 5.018l5.318-.003c.776 0 1.405.64 1.405 1.416 0 .776-.629 1.405-1.405 1.405H7.19v10.655h-.865a2.509 2.509 0 1 0 0 5.018H35.68a2.51 2.51 0 0 0 0-5.018h-.866V23.509h.866ZM21 27.783a5.168 5.168 0 0 1-5.168-5.168c0-2.854 5.168-8.398 5.168-8.398s5.168 5.544 5.168 8.398A5.168 5.168 0 0 1 21 27.783Z"/>
  <defs>
    <linearGradient id="a" x1="8.586" x2="8.586" y1="-112" y2="87.5" gradientUnits="userSpaceOnUse">
      <stop stop-color="#fff"/>
      <stop offset="1" stop-color="#252F37"/>
    </linearGradient>
    <linearGradient id="b" x1="21.001" x2="21.001" y1="0" y2="42" gradientUnits="userSpaceOnUse">
      <stop stop-color="#fff"/>
      <stop offset="1" stop-color="#fff" stop-opacity=".4"/>
    </linearGradient>
  </defs>
</svg>
