<svg xmlns="http://www.w3.org/2000/svg" width="42" height="43" fill="none">
  <path fill="#000" d="M23.407 19.473h3.98v2.463h-3.98c-.684 0-1.237.555-1.237 1.238v3.98h-2.464v-3.98c0-.683-.553-1.238-1.237-1.238h-3.98v-2.463h3.98c.684 0 1.237-.553 1.237-1.237v-3.981h2.464v3.98c0 .684.553 1.238 1.237 1.238Z"/>
  <path fill="url(#a)" d="M23.407 19.473h3.98v2.463h-3.98c-.684 0-1.237.555-1.237 1.238v3.98h-2.464v-3.98c0-.683-.553-1.238-1.237-1.238h-3.98v-2.463h3.98c.684 0 1.237-.553 1.237-1.237v-3.981h2.464v3.98c0 .684.553 1.238 1.237 1.238Z"/>
  <path fill="url(#b)" d="M23.407 19.473h3.98v2.463h-3.98c-.684 0-1.237.555-1.237 1.238v3.98h-2.464v-3.98c0-.683-.553-1.238-1.237-1.238h-3.98v-2.463h3.98c.684 0 1.237-.553 1.237-1.237v-3.981h2.464v3.98c0 .684.553 1.238 1.237 1.238Z"/>
  <path fill="#000" d="m38.833 11.454-.001-.04c-.02-1.053-.039-2.047-.039-3.004 0-1.45-1.18-2.628-2.628-2.628-5.609 0-9.865-1.6-13.396-5.033a2.616 2.616 0 0 0-3.665 0c-3.53 3.433-7.786 5.033-13.394 5.033A2.631 2.631 0 0 0 3.082 8.41c0 .977-.019 1.981-.04 3.045-.094 4.965-.212 11.144 1.861 16.753 1.14 3.084 2.867 5.764 5.131 7.966 2.58 2.508 5.958 4.497 10.042 5.913a2.618 2.618 0 0 0 1.722 0c4.083-1.416 7.462-3.405 10.042-5.913 2.264-2.202 3.99-4.883 5.131-7.966 2.074-5.61 1.957-11.789 1.862-16.754Zm-8.972 11.72c0 .682-.553 1.237-1.237 1.237h-3.98v3.98c0 .684-.554 1.238-1.237 1.238h-4.938a1.238 1.238 0 0 1-1.237-1.237V24.41h-3.981a1.237 1.237 0 0 1-1.237-1.237v-4.938c0-.683.553-1.237 1.237-1.237h3.981v-3.981c0-.683.554-1.237 1.237-1.237h4.938c.683 0 1.237.554 1.237 1.237v3.98h3.98c.684 0 1.237.555 1.237 1.238v4.938Z"/>
  <path fill="url(#c)" d="m38.833 11.454-.001-.04c-.02-1.053-.039-2.047-.039-3.004 0-1.45-1.18-2.628-2.628-2.628-5.609 0-9.865-1.6-13.396-5.033a2.616 2.616 0 0 0-3.665 0c-3.53 3.433-7.786 5.033-13.394 5.033A2.631 2.631 0 0 0 3.082 8.41c0 .977-.019 1.981-.04 3.045-.094 4.965-.212 11.144 1.861 16.753 1.14 3.084 2.867 5.764 5.131 7.966 2.58 2.508 5.958 4.497 10.042 5.913a2.618 2.618 0 0 0 1.722 0c4.083-1.416 7.462-3.405 10.042-5.913 2.264-2.202 3.99-4.883 5.131-7.966 2.074-5.61 1.957-11.789 1.862-16.754Zm-8.972 11.72c0 .682-.553 1.237-1.237 1.237h-3.98v3.98c0 .684-.554 1.238-1.237 1.238h-4.938a1.238 1.238 0 0 1-1.237-1.237V24.41h-3.981a1.237 1.237 0 0 1-1.237-1.237v-4.938c0-.683.553-1.237 1.237-1.237h3.981v-3.981c0-.683.554-1.237 1.237-1.237h4.938c.683 0 1.237.554 1.237 1.237v3.98h3.98c.684 0 1.237.555 1.237 1.238v4.938Z"/>
  <path fill="url(#d)" d="m38.833 11.454-.001-.04c-.02-1.053-.039-2.047-.039-3.004 0-1.45-1.18-2.628-2.628-2.628-5.609 0-9.865-1.6-13.396-5.033a2.616 2.616 0 0 0-3.665 0c-3.53 3.433-7.786 5.033-13.394 5.033A2.631 2.631 0 0 0 3.082 8.41c0 .977-.019 1.981-.04 3.045-.094 4.965-.212 11.144 1.861 16.753 1.14 3.084 2.867 5.764 5.131 7.966 2.58 2.508 5.958 4.497 10.042 5.913a2.618 2.618 0 0 0 1.722 0c4.083-1.416 7.462-3.405 10.042-5.913 2.264-2.202 3.99-4.883 5.131-7.966 2.074-5.61 1.957-11.789 1.862-16.754Zm-8.972 11.72c0 .682-.553 1.237-1.237 1.237h-3.98v3.98c0 .684-.554 1.238-1.237 1.238h-4.938a1.238 1.238 0 0 1-1.237-1.237V24.41h-3.981a1.237 1.237 0 0 1-1.237-1.237v-4.938c0-.683.553-1.237 1.237-1.237h3.981v-3.981c0-.683.554-1.237 1.237-1.237h4.938c.683 0 1.237.554 1.237 1.237v3.98h3.98c.684 0 1.237.555 1.237 1.238v4.938Z"/>
  <defs>
    <linearGradient id="a" x1="16.279" x2="16.279" y1="-20.144" y2="41.129" gradientUnits="userSpaceOnUse">
      <stop stop-color="#fff"/>
      <stop offset="1" stop-color="#252F37"/>
    </linearGradient>
    <linearGradient id="b" x1="20.938" x2="20.938" y1="14.255" y2="27.155" gradientUnits="userSpaceOnUse">
      <stop stop-color="#fff"/>
      <stop offset="1" stop-color="#fff" stop-opacity=".4"/>
    </linearGradient>
    <linearGradient id="c" x1="7.98" x2="7.98" y1="-112.618" y2="87.983" gradientUnits="userSpaceOnUse">
      <stop stop-color="#fff"/>
      <stop offset="1" stop-color="#252F37"/>
    </linearGradient>
    <linearGradient id="d" x1="20.938" x2="20.938" y1="0" y2="42.232" gradientUnits="userSpaceOnUse">
      <stop stop-color="#fff"/>
      <stop offset="1" stop-color="#fff" stop-opacity=".4"/>
    </linearGradient>
  </defs>
</svg>
