<svg xmlns="http://www.w3.org/2000/svg" width="48" height="48" fill="none">
  <g clip-path="url(#a)">
    <path fill="url(#b)" d="M26.735 33.064a1.854 1.854 0 0 1-2.393 1.095 13.042 13.042 0 0 0-4.643-.846h-2.788c-7.275 0-13.194 5.971-13.194 13.312A1.867 1.867 0 0 1 1.858 48.5 1.867 1.867 0 0 1 0 46.625c0-9.408 7.586-17.063 16.912-17.063h2.787c2.047 0 4.05.366 5.95 1.087a1.88 1.88 0 0 1 1.086 2.415Zm3.929-19.908c0 6.979-5.628 12.656-12.545 12.656-6.916 0-12.544-5.677-12.544-12.656C5.575 6.178 11.203.5 18.12.5s12.545 5.678 12.545 12.656Zm-3.717 0c0-4.91-3.96-8.906-8.828-8.906-4.867 0-8.827 3.995-8.827 8.906 0 4.911 3.96 8.906 8.827 8.906 4.868 0 8.828-3.995 8.828-8.906ZM42 40.47c0-2.93-2.582-5.313-5.756-5.313-1.349 0-2.328-.657-2.328-1.562 0-.862.688-1.563 1.533-1.563.852 0 1.963.094 3.735.79a1.853 1.853 0 0 0 2.406-1.068 1.88 1.88 0 0 0-1.059-2.428 16.195 16.195 0 0 0-2.434-.755v-1.445a1.867 1.867 0 0 0-1.858-1.875c-1.026 0-1.858.84-1.858 1.875v1.267c-2.385.501-4.182 2.643-4.182 5.202 0 3.028 2.599 5.312 6.045 5.312 1.105 0 2.04.716 2.04 1.563 0 .832-.768 1.562-1.642 1.562-.683 0-2.395-.252-4.084-.93a1.853 1.853 0 0 0-2.413 1.05 1.88 1.88 0 0 0 1.04 2.435c1.076.432 2.2.74 3.195.935v1.104c0 1.036.832 1.875 1.859 1.875 1.026 0 1.858-.84 1.858-1.875v-1.047a5.392 5.392 0 0 0 2.29-1.329A5.24 5.24 0 0 0 42 40.47Z"/>
    <path fill="url(#c)" d="M26.735 33.064a1.854 1.854 0 0 1-2.393 1.095 13.042 13.042 0 0 0-4.643-.846h-2.788c-7.275 0-13.194 5.971-13.194 13.312A1.867 1.867 0 0 1 1.858 48.5 1.867 1.867 0 0 1 0 46.625c0-9.408 7.586-17.063 16.912-17.063h2.787c2.047 0 4.05.366 5.95 1.087a1.88 1.88 0 0 1 1.086 2.415Zm3.929-19.908c0 6.979-5.628 12.656-12.545 12.656-6.916 0-12.544-5.677-12.544-12.656C5.575 6.178 11.203.5 18.12.5s12.545 5.678 12.545 12.656Zm-3.717 0c0-4.91-3.96-8.906-8.828-8.906-4.867 0-8.827 3.995-8.827 8.906 0 4.911 3.96 8.906 8.827 8.906 4.868 0 8.828-3.995 8.828-8.906ZM42 40.47c0-2.93-2.582-5.313-5.756-5.313-1.349 0-2.328-.657-2.328-1.562 0-.862.688-1.563 1.533-1.563.852 0 1.963.094 3.735.79a1.853 1.853 0 0 0 2.406-1.068 1.88 1.88 0 0 0-1.059-2.428 16.195 16.195 0 0 0-2.434-.755v-1.445a1.867 1.867 0 0 0-1.858-1.875c-1.026 0-1.858.84-1.858 1.875v1.267c-2.385.501-4.182 2.643-4.182 5.202 0 3.028 2.599 5.312 6.045 5.312 1.105 0 2.04.716 2.04 1.563 0 .832-.768 1.562-1.642 1.562-.683 0-2.395-.252-4.084-.93a1.853 1.853 0 0 0-2.413 1.05 1.88 1.88 0 0 0 1.04 2.435c1.076.432 2.2.74 3.195.935v1.104c0 1.036.832 1.875 1.859 1.875 1.026 0 1.858-.84 1.858-1.875v-1.047a5.392 5.392 0 0 0 2.29-1.329A5.24 5.24 0 0 0 42 40.47Z"/>
  </g>
  <defs>
    <linearGradient id="b" x1="5.831" x2="5.831" y1="-127.5" y2="100.5" gradientUnits="userSpaceOnUse">
      <stop stop-color="#6BCAE7"/>
      <stop offset="1" stop-color="#004356"/>
    </linearGradient>
    <linearGradient id="c" x1="21" x2="21" y1=".5" y2="48.5" gradientUnits="userSpaceOnUse">
      <stop stop-color="#05D3B4"/>
      <stop offset="1" stop-color="#05D3B4" stop-opacity=".4"/>
    </linearGradient>
    <clipPath id="a">
      <path fill="#fff" d="M0 0h48v48H0z"/>
    </clipPath>
  </defs>
</svg>
