<svg xmlns="http://www.w3.org/2000/svg" fill="none" viewBox="0 0 42 42"><g clip-path="url(#a)"><path fill="url(#b)" d="M36.96 17.72h-7.64a5.04 5.04 0 0 1-5.04-5.04V5.04a5.01 5.01 0 0 1 6.54-4.8 16.65 16.65 0 0 1 10.95 10.94 5.01 5.01 0 0 1-4.81 6.54ZM29.32 3.28a1.76 1.76 0 0 0-1.76 1.76v7.64c0 .97.79 1.76 1.76 1.76h7.64a1.76 1.76 0 0 0 1.67-2.3 13.36 13.36 0 0 0-8.78-8.77 1.8 1.8 0 0 0-.53-.09ZM19.36 42a19.24 19.24 0 0 1-13.7-5.66 19.4 19.4 0 0 1 9.32-32.56A4.9 4.9 0 0 1 21 8.58v10.78c0 .9.73 1.64 1.64 1.64h10.78a4.9 4.9 0 0 1 4.8 6.02A19.41 19.41 0 0 1 19.36 42ZM16.09 6.94c-.13 0-.25.01-.37.04A16 16 0 0 0 3.28 22.64c0 4.31 1.67 8.35 4.7 11.38a15.98 15.98 0 0 0 11.38 4.7 16 16 0 0 0 15.66-12.44 1.64 1.64 0 0 0-1.6-2H22.64a4.93 4.93 0 0 1-4.92-4.92V8.58a1.64 1.64 0 0 0-1.63-1.64Z"/></g><defs><linearGradient id="b" x1="21" x2="21" y1="0" y2="42" gradientUnits="userSpaceOnUse"><stop stop-color="#00E0FF"/><stop offset="1" stop-color="#00E0FF" stop-opacity=".4"/></linearGradient><clipPath id="a"><path fill="#fff" d="M0 0h42v42H0z"/></clipPath></defs></svg>
