<svg xmlns="http://www.w3.org/2000/svg" width="43" height="43" fill="none">
  <path fill="#252F37" fill-rule="evenodd" d="M14.938.875H3.562c-.724 0-1.312.588-1.312 1.313v7.437h14V2.187c0-.724-.588-1.312-1.313-1.312ZM8.375 6.563a1.313 1.313 0 0 1-2.625 0V3.938a1.313 1.313 0 0 1 2.625 0v2.624Zm4.375 0a1.313 1.313 0 0 1-2.625 0V3.938a1.313 1.313 0 0 1 2.625 0v2.624ZM2.25 20.124v-8.75h14v8.75h-14Zm4.813-1.75c.724 0 1.312-.588 1.312-1.313v-2.625a1.313 1.313 0 0 0-2.625 0v2.626c0 .724.588 1.312 1.313 1.312Zm4.375 0c.724 0 1.312-.588 1.312-1.313v-2.625a1.313 1.313 0 0 0-2.625 0v2.626c0 .724.588 1.312 1.313 1.312ZM39 22.313v4.812h-2.625v-4.813c0-.717.595-1.312 1.313-1.312.717 0 1.312.595 1.312 1.313ZM35.937 42H5.312a1.31 1.31 0 0 1-1.092-.584l-3.5-5.25a1.312 1.312 0 0 1 1.092-2.041h22.75a3.941 3.941 0 0 0 3.938-3.938c0-.724.588-1.312 1.312-1.312h11.375c.455 0 .877.236 1.117.621.238.387.26.872.058 1.278l-5.25 10.5a1.314 1.314 0 0 1-1.175.726ZM2.25 32.375v-10.5h14v10.5h-14Zm4.813-1.75c.724 0 1.312-.588 1.312-1.313v-4.375a1.313 1.313 0 0 0-2.625 0v4.375c0 .725.588 1.313 1.313 1.313Zm4.375 0c.724 0 1.312-.588 1.312-1.313v-4.375a1.313 1.313 0 0 0-2.625 0v4.375c0 .725.588 1.313 1.313 1.313ZM18 21.875v10.5h6.563a2.184 2.184 0 0 0 2.152-1.855 1.293 1.293 0 0 1-.84-1.207v-4.375c0-.718.595-1.313 1.313-1.313.717 0 1.312.595 1.312 1.313v2.502c.402-.21.84-.315 1.313-.315H32v-5.25H18Zm6.125 7.438c0 .717-.595 1.312-1.313 1.312a1.322 1.322 0 0 1-1.312-1.313v-4.375c0-.717.595-1.312 1.313-1.312.717 0 1.312.595 1.312 1.313v4.375ZM18 11.375h12.688c.724 0 1.312.588 1.312 1.313v7.437H18v-8.75Zm4.813 7c.724 0 1.312-.588 1.312-1.313v-2.625a1.313 1.313 0 0 0-2.625 0v2.626c0 .724.588 1.312 1.313 1.312Zm4.375 0c.724 0 1.312-.588 1.312-1.313v-2.625a1.313 1.313 0 0 0-2.625 0v2.626c0 .724.588 1.312 1.313 1.312Z" clip-rule="evenodd"/>
  <path fill="url(#a)" fill-rule="evenodd" d="M14.938.875H3.562c-.724 0-1.312.588-1.312 1.313v7.437h14V2.187c0-.724-.588-1.312-1.313-1.312ZM8.375 6.563a1.313 1.313 0 0 1-2.625 0V3.938a1.313 1.313 0 0 1 2.625 0v2.624Zm4.375 0a1.313 1.313 0 0 1-2.625 0V3.938a1.313 1.313 0 0 1 2.625 0v2.624ZM2.25 20.124v-8.75h14v8.75h-14Zm4.813-1.75c.724 0 1.312-.588 1.312-1.313v-2.625a1.313 1.313 0 0 0-2.625 0v2.626c0 .724.588 1.312 1.313 1.312Zm4.375 0c.724 0 1.312-.588 1.312-1.313v-2.625a1.313 1.313 0 0 0-2.625 0v2.626c0 .724.588 1.312 1.313 1.312ZM39 22.313v4.812h-2.625v-4.813c0-.717.595-1.312 1.313-1.312.717 0 1.312.595 1.312 1.313ZM35.937 42H5.312a1.31 1.31 0 0 1-1.092-.584l-3.5-5.25a1.312 1.312 0 0 1 1.092-2.041h22.75a3.941 3.941 0 0 0 3.938-3.938c0-.724.588-1.312 1.312-1.312h11.375c.455 0 .877.236 1.117.621.238.387.26.872.058 1.278l-5.25 10.5a1.314 1.314 0 0 1-1.175.726ZM2.25 32.375v-10.5h14v10.5h-14Zm4.813-1.75c.724 0 1.312-.588 1.312-1.313v-4.375a1.313 1.313 0 0 0-2.625 0v4.375c0 .725.588 1.313 1.313 1.313Zm4.375 0c.724 0 1.312-.588 1.312-1.313v-4.375a1.313 1.313 0 0 0-2.625 0v4.375c0 .725.588 1.313 1.313 1.313ZM18 21.875v10.5h6.563a2.184 2.184 0 0 0 2.152-1.855 1.293 1.293 0 0 1-.84-1.207v-4.375c0-.718.595-1.313 1.313-1.313.717 0 1.312.595 1.312 1.313v2.502c.402-.21.84-.315 1.313-.315H32v-5.25H18Zm6.125 7.438c0 .717-.595 1.312-1.313 1.312a1.322 1.322 0 0 1-1.312-1.313v-4.375c0-.717.595-1.312 1.313-1.312.717 0 1.312.595 1.312 1.313v4.375ZM18 11.375h12.688c.724 0 1.312.588 1.312 1.313v7.437H18v-8.75Zm4.813 7c.724 0 1.312-.588 1.312-1.313v-2.625a1.313 1.313 0 0 0-2.625 0v2.626c0 .724.588 1.312 1.313 1.312Zm4.375 0c.724 0 1.312-.588 1.312-1.313v-2.625a1.313 1.313 0 0 0-2.625 0v2.626c0 .724.588 1.312 1.313 1.312Z" clip-rule="evenodd"/>
  <path fill="url(#b)" fill-rule="evenodd" d="M14.938.875H3.562c-.724 0-1.312.588-1.312 1.313v7.437h14V2.187c0-.724-.588-1.312-1.313-1.312ZM8.375 6.563a1.313 1.313 0 0 1-2.625 0V3.938a1.313 1.313 0 0 1 2.625 0v2.624Zm4.375 0a1.313 1.313 0 0 1-2.625 0V3.938a1.313 1.313 0 0 1 2.625 0v2.624ZM2.25 20.124v-8.75h14v8.75h-14Zm4.813-1.75c.724 0 1.312-.588 1.312-1.313v-2.625a1.313 1.313 0 0 0-2.625 0v2.626c0 .724.588 1.312 1.313 1.312Zm4.375 0c.724 0 1.312-.588 1.312-1.313v-2.625a1.313 1.313 0 0 0-2.625 0v2.626c0 .724.588 1.312 1.313 1.312ZM39 22.313v4.812h-2.625v-4.813c0-.717.595-1.312 1.313-1.312.717 0 1.312.595 1.312 1.313ZM35.937 42H5.312a1.31 1.31 0 0 1-1.092-.584l-3.5-5.25a1.312 1.312 0 0 1 1.092-2.041h22.75a3.941 3.941 0 0 0 3.938-3.938c0-.724.588-1.312 1.312-1.312h11.375c.455 0 .877.236 1.117.621.238.387.26.872.058 1.278l-5.25 10.5a1.314 1.314 0 0 1-1.175.726ZM2.25 32.375v-10.5h14v10.5h-14Zm4.813-1.75c.724 0 1.312-.588 1.312-1.313v-4.375a1.313 1.313 0 0 0-2.625 0v4.375c0 .725.588 1.313 1.313 1.313Zm4.375 0c.724 0 1.312-.588 1.312-1.313v-4.375a1.313 1.313 0 0 0-2.625 0v4.375c0 .725.588 1.313 1.313 1.313ZM18 21.875v10.5h6.563a2.184 2.184 0 0 0 2.152-1.855 1.293 1.293 0 0 1-.84-1.207v-4.375c0-.718.595-1.313 1.313-1.313.717 0 1.312.595 1.312 1.313v2.502c.402-.21.84-.315 1.313-.315H32v-5.25H18Zm6.125 7.438c0 .717-.595 1.312-1.313 1.312a1.322 1.322 0 0 1-1.312-1.313v-4.375c0-.717.595-1.312 1.313-1.312.717 0 1.312.595 1.312 1.313v4.375ZM18 11.375h12.688c.724 0 1.312.588 1.312 1.313v7.437H18v-8.75Zm4.813 7c.724 0 1.312-.588 1.312-1.313v-2.625a1.313 1.313 0 0 0-2.625 0v2.626c0 .724.588 1.312 1.313 1.312Zm4.375 0c.724 0 1.312-.588 1.312-1.313v-2.625a1.313 1.313 0 0 0-2.625 0v2.626c0 .724.588 1.312 1.313 1.312Z" clip-rule="evenodd"/>
  <defs>
    <linearGradient id="a" x1="6.331" x2="6.331" y1="-108.792" y2="86.552" gradientUnits="userSpaceOnUse">
      <stop stop-color="#fff"/>
      <stop offset="1" stop-color="#252F37"/>
    </linearGradient>
    <linearGradient id="b" x1="21.5" x2="21.5" y1=".875" y2="42" gradientUnits="userSpaceOnUse">
      <stop stop-color="#fff"/>
      <stop offset="1" stop-color="#fff" stop-opacity=".4"/>
    </linearGradient>
  </defs>
</svg>
