<svg xmlns="http://www.w3.org/2000/svg" width="42" height="42" fill="none">
  <path fill="#000" d="M19.526 0H5.336C2.926 0 .876 1.967.876 4.378v33.249C.875 40.038 2.881 42 5.293 42l14.213-.015c2.412 0 4.385-1.963 4.385-4.374l.02-33.235A4.38 4.38 0 0 0 19.526 0Zm-9.144 2.625h4.116a.657.657 0 0 1 0 1.312h-4.116a.656.656 0 1 1 0-1.312Zm-2.474.209a.68.68 0 0 1 .929 0 .665.665 0 0 1 .193.466.664.664 0 0 1-.656.656.672.672 0 0 1-.466-.193.662.662 0 0 1 0-.93Zm4.4 37.865a1.966 1.966 0 0 1-1.964-1.964c0-1.082.88-1.963 1.963-1.963 1.083 0 1.964.88 1.964 1.963a1.966 1.966 0 0 1-1.964 1.964Zm9.567-5.262H3.172V6.235h18.703v29.202Z"/>
  <path fill="url(#a)" d="M19.526 0H5.336C2.926 0 .876 1.967.876 4.378v33.249C.875 40.038 2.881 42 5.293 42l14.213-.015c2.412 0 4.385-1.963 4.385-4.374l.02-33.235A4.38 4.38 0 0 0 19.526 0Zm-9.144 2.625h4.116a.657.657 0 0 1 0 1.312h-4.116a.656.656 0 1 1 0-1.312Zm-2.474.209a.68.68 0 0 1 .929 0 .665.665 0 0 1 .193.466.664.664 0 0 1-.656.656.672.672 0 0 1-.466-.193.662.662 0 0 1 0-.93Zm4.4 37.865a1.966 1.966 0 0 1-1.964-1.964c0-1.082.88-1.963 1.963-1.963 1.083 0 1.964.88 1.964 1.963a1.966 1.966 0 0 1-1.964 1.964Zm9.567-5.262H3.172V6.235h18.703v29.202Z"/>
  <path fill="url(#b)" d="M19.526 0H5.336C2.926 0 .876 1.967.876 4.378v33.249C.875 40.038 2.881 42 5.293 42l14.213-.015c2.412 0 4.385-1.963 4.385-4.374l.02-33.235A4.38 4.38 0 0 0 19.526 0Zm-9.144 2.625h4.116a.657.657 0 0 1 0 1.312h-4.116a.656.656 0 1 1 0-1.312Zm-2.474.209a.68.68 0 0 1 .929 0 .665.665 0 0 1 .193.466.664.664 0 0 1-.656.656.672.672 0 0 1-.466-.193.662.662 0 0 1 0-.93Zm4.4 37.865a1.966 1.966 0 0 1-1.964-1.964c0-1.082.88-1.963 1.963-1.963 1.083 0 1.964.88 1.964 1.963a1.966 1.966 0 0 1-1.964 1.964Zm9.567-5.262H3.172V6.235h18.703v29.202Z"/>
  <g clip-path="url(#c)">
    <path fill="#000" d="m38.522 6.732-11.53-5.121c-1.961-.871-4.337-.013-5.207 1.947L9.783 30.578c-.87 1.959.052 4.277 2.012 5.148l11.555 5.118c1.96.87 4.272-.012 5.143-1.972l12.013-27a3.894 3.894 0 0 0-1.984-5.14Zm-8.379-1.167 3.345 1.486a.584.584 0 0 1-.473 1.066l-3.346-1.486a.583.583 0 1 1 .474-1.066Zm-2.085-.723a.604.604 0 0 1 .754.335.591.591 0 0 1-.01.449.59.59 0 0 1-.77.296.597.597 0 0 1-.31-.326.589.589 0 0 1 .335-.754ZM17.965 37.2a1.748 1.748 0 0 1-.887-2.305 1.748 1.748 0 0 1 2.304-.887c.88.39 1.278 1.425.887 2.305a1.748 1.748 0 0 1-2.304.887Zm9.674-.823-15.199-6.75L22.981 5.896l15.199 6.75-10.541 23.732Z"/>
    <path fill="url(#d)" d="m38.522 6.732-11.53-5.121c-1.961-.871-4.337-.013-5.207 1.947L9.783 30.578c-.87 1.959.052 4.277 2.012 5.148l11.555 5.118c1.96.87 4.272-.012 5.143-1.972l12.013-27a3.894 3.894 0 0 0-1.984-5.14Zm-8.379-1.167 3.345 1.486a.584.584 0 0 1-.473 1.066l-3.346-1.486a.583.583 0 1 1 .474-1.066Zm-2.085-.723a.604.604 0 0 1 .754.335.591.591 0 0 1-.01.449.59.59 0 0 1-.77.296.597.597 0 0 1-.31-.326.589.589 0 0 1 .335-.754ZM17.965 37.2a1.748 1.748 0 0 1-.887-2.305 1.748 1.748 0 0 1 2.304-.887c.88.39 1.278 1.425.887 2.305a1.748 1.748 0 0 1-2.304.887Zm9.674-.823-15.199-6.75L22.981 5.896l15.199 6.75-10.541 23.732Z"/>
    <path fill="url(#e)" d="m38.522 6.732-11.53-5.121c-1.961-.871-4.337-.013-5.207 1.947L9.783 30.578c-.87 1.959.052 4.277 2.012 5.148l11.555 5.118c1.96.87 4.272-.012 5.143-1.972l12.013-27a3.894 3.894 0 0 0-1.984-5.14Zm-8.379-1.167 3.345 1.486a.584.584 0 0 1-.473 1.066l-3.346-1.486a.583.583 0 1 1 .474-1.066Zm-2.085-.723a.604.604 0 0 1 .754.335.591.591 0 0 1-.01.449.59.59 0 0 1-.77.296.597.597 0 0 1-.31-.326.589.589 0 0 1 .335-.754ZM17.965 37.2a1.748 1.748 0 0 1-.887-2.305 1.748 1.748 0 0 1 2.304-.887c.88.39 1.278 1.425.887 2.305a1.748 1.748 0 0 1-2.304.887Zm9.674-.823-15.199-6.75L22.981 5.896l15.199 6.75-10.541 23.732Z"/>
  </g>
  <defs>
    <linearGradient id="a" x1="4.073" x2="4.073" y1="-112" y2="87.5" gradientUnits="userSpaceOnUse">
      <stop stop-color="#fff"/>
      <stop offset="1" stop-color="#252F37"/>
    </linearGradient>
    <linearGradient id="b" x1="12.393" x2="12.393" y1="0" y2="42" gradientUnits="userSpaceOnUse">
      <stop stop-color="#fff"/>
      <stop offset="1" stop-color="#fff" stop-opacity=".4"/>
    </linearGradient>
    <linearGradient id="d" x1="66.392" x2="-5.62" y1="-89.862" y2="72.261" gradientUnits="userSpaceOnUse">
      <stop stop-color="#fff"/>
      <stop offset="1" stop-color="#252F37"/>
    </linearGradient>
    <linearGradient id="e" x1="32.725" x2="17.565" y1="4.158" y2="38.289" gradientUnits="userSpaceOnUse">
      <stop stop-color="#fff"/>
      <stop offset="1" stop-color="#fff" stop-opacity=".4"/>
    </linearGradient>
    <clipPath id="c">
      <path fill="#fff" d="M0 0h20v42H0z" transform="translate(22)"/>
    </clipPath>
  </defs>
</svg>
