<?xml version="1.0" encoding="utf-8"?><svg viewBox="0 0 134 30" xmlns="http://www.w3.org/2000/svg" xmlns:xlink="http://www.w3.org/1999/xlink"><style>:root>svg{display:none}:root>svg:target{display:block}</style><svg fill="none" viewBox="0 0 10 10" id="chevron" xmlns="http://www.w3.org/2000/svg"><path fill-rule="evenodd" clip-rule="evenodd" d="M5.56 7.185a1 1 0 01-1.267-.121L1.465 4.235a1 1 0 111.414-1.414L5 4.943 7.122 2.82a1 1 0 011.414 1.414L5.707 7.064a.959.959 0 01-.146.121z" fill="currentColor"/></svg><svg fill="none" viewBox="0 0 16 16" id="connect" xmlns="http://www.w3.org/2000/svg"><path d="M14.222 2.556v-.778A.78.78 0 0013.444 1H11.89a.78.78 0 00-.778.778v.778h-.778v3.11c0 .428.35.778.778.778h.778v5.445c0 .855-.7 1.555-1.556 1.555a1.56 1.56 0 01-1.555-1.555V4.11a3.11 3.11 0 10-6.222 0v5.445h-.778a.78.78 0 00-.778.777v3.111h.778v.778c0 .428.35.778.778.778H4.11a.78.78 0 00.778-.778v-.778h.778v-3.11a.78.78 0 00-.778-.778H4.11V4.11c0-.855.7-1.555 1.556-1.555.855 0 1.555.7 1.555 1.555v7.778a3.11 3.11 0 106.222 0V6.444h.778A.78.78 0 0015 5.667V2.556h-.778z" fill="currentColor"/></svg><svg fill="none" viewBox="0 0 16 16" id="esim" xmlns="http://www.w3.org/2000/svg"><path d="M9 1H3.4C2.63 1 2 1.63 2 2.4v11.2c0 .77.63 1.4 1.4 1.4h8.4c.77 0 1.4-.63 1.4-1.4V5.2L9 1zM7.6 6.6C8.37 6.6 9 7.23 9 8c0 .77-.63 1.4-1.4 1.4-.77 0-1.4-.63-1.4-1.4 0-.77.63-1.4 1.4-1.4zm2.8 5.6H4.8v-.399c0-.567.336-1.071.854-1.295a4.865 4.865 0 013.892 0c.518.224.854.728.854 1.295v.399z" fill="currentColor"/></svg><svg fill="none" viewBox="0 0 16 16" id="fold" xmlns="http://www.w3.org/2000/svg"><path d="M6.143 6.75h8.572a.143.143 0 00.142-.142v-1a.143.143 0 00-.142-.143H6.143A.143.143 0 006 5.608v1c0 .078.065.143.143.143zM6 10.394c0 .079.065.143.143.143h8.572a.143.143 0 00.142-.143v-1a.143.143 0 00-.142-.142H6.143A.143.143 0 006 9.393v1zm9-8.678H1a.143.143 0 00-.143.143v1C.857 2.936.922 3 1 3h14a.143.143 0 00.143-.143v-1A.143.143 0 0015 1.715zM15 13H1a.143.143 0 00-.143.142v1c0 .079.065.143.143.143h14a.143.143 0 00.143-.143v-1a.143.143 0 00-.143-.142zM.918 8.124l2.791 2.198a.159.159 0 00.257-.123V5.802a.158.158 0 00-.257-.123L.92 7.877a.156.156 0 000 .247z" fill="#F0F2F5"/></svg><svg fill="none" viewBox="0 0 134 30" id="glonass" xmlns="http://www.w3.org/2000/svg"><path fill-rule="evenodd" clip-rule="evenodd" d="M37.815 21.098c.128 0 .218.025.27.077.053.051.079.132.079.242v1.664c0 .055-.029.083-.086.083h-.368c-.055 0-.083-.028-.083-.083v-1.427c0-.052-.026-.078-.079-.078h-1.553c-.053 0-.08.026-.08.078v1.427c0 .055-.027.083-.082.083h-.368c-.057 0-.086-.028-.086-.083v-1.664c0-.11.026-.19.079-.242.052-.052.142-.078.27-.078h2.087zm3.096 0c.113 0 .194.026.243.079a.315.315 0 01.073.222v1.674c0 .06-.025.09-.075.09h-.38c-.052 0-.078-.028-.078-.086v-1.441c0-.04-.024-.06-.072-.06h-.814c-.04 0-.065.008-.075.024a.19.19 0 00-.023.058l-.032.226c-.013.095-.03.198-.05.307-.02.109-.044.219-.072.33-.027.11-.057.206-.09.289a.906.906 0 01-.082.152.419.419 0 01-.11.111.479.479 0 01-.153.068.826.826 0 01-.206.023h-.357c-.05 0-.075-.028-.075-.083v-.275c0-.058.025-.086.075-.086h.267a.282.282 0 00.14-.04c.047-.026.088-.087.126-.183.043-.102.08-.247.11-.434.032-.187.068-.424.108-.71a.337.337 0 01.077-.186c.041-.047.117-.07.227-.07h1.298zm2.455 0c.168 0 .31.014.424.043a.642.642 0 01.276.135c.07.062.118.14.148.237.03.097.046.213.046.348v1.002c0 .06-.005.11-.014.148a.194.194 0 01-.045.093.169.169 0 01-.084.047.564.564 0 01-.135.013h-1.787c-.11 0-.202-.01-.276-.032a.428.428 0 01-.178-.096.35.35 0 01-.096-.166.907.907 0 01-.028-.24v-.181c0-.078.01-.148.028-.21a.351.351 0 01.096-.155.425.425 0 01.178-.096c.074-.022.166-.032.276-.032h1.528v-.072a.55.55 0 00-.019-.154.215.215 0 00-.064-.104.285.285 0 00-.124-.058.902.902 0 00-.202-.019h-1.57c-.044 0-.067-.023-.067-.068v-.316c0-.045.023-.067.068-.067h1.621zm.248 1.652c.04 0 .068-.01.084-.028.017-.02.025-.053.025-.1v-.331h-1.374c-.077 0-.132.015-.163.047-.032.031-.047.077-.047.137v.079c0 .068.015.117.047.149.031.031.086.047.163.047h1.265zm3.678-1.652c.045 0 .068.022.068.067v.316c0 .045-.023.068-.068.068h-1.107v1.532c0 .055-.028.083-.083.083h-.367c-.058 0-.087-.028-.087-.083V21.55h-1.107c-.045 0-.067-.023-.067-.068v-.316c0-.045.022-.067.067-.067h2.751zm2.15-.757c.056 0 .084.028.084.083v.674h.484c.167 0 .309.014.424.043a.641.641 0 01.276.135c.069.062.118.14.148.237.03.097.045.213.045.348v.543c0 .135-.015.251-.045.348a.516.516 0 01-.148.237.624.624 0 01-.276.133 1.85 1.85 0 01-.424.042h-.484v.749c0 .055-.028.083-.083.083h-.372c-.055 0-.082-.028-.082-.083v-.75h-.484c-.17 0-.313-.013-.426-.04a.623.623 0 01-.274-.134.516.516 0 01-.149-.237 1.182 1.182 0 01-.045-.348v-.543c0-.135.015-.251.045-.348a.515.515 0 01.149-.237.64.64 0 01.274-.135 1.77 1.77 0 01.425-.043h.485v-.674c0-.055.027-.083.082-.083h.372zm.084 1.2v1.183h.431c.083 0 .15-.008.203-.021a.258.258 0 00.124-.068.269.269 0 00.063-.126.885.885 0 00.02-.2v-.357a.863.863 0 00-.02-.196.28.28 0 00-.063-.128.24.24 0 00-.124-.068.9.9 0 00-.203-.018h-.431zm-1.378.768c0 .08.006.147.019.2a.26.26 0 00.066.126.27.27 0 00.125.068.8.8 0 00.2.02h.43v-1.181h-.43a.88.88 0 00-.2.018.249.249 0 00-.125.068.27.27 0 00-.066.128.859.859 0 00-.019.196v.357zm5.116-1.212c.167 0 .309.015.424.044a.642.642 0 01.276.135c.069.062.118.14.148.237.03.097.045.213.045.348v.543c0 .135-.015.251-.045.348a.516.516 0 01-.148.237.625.625 0 01-.276.133 1.851 1.851 0 01-.424.042h-1.062c-.17 0-.312-.014-.426-.042a.623.623 0 01-.274-.133.516.516 0 01-.149-.237 1.182 1.182 0 01-.045-.348v-.543c0-.135.015-.251.045-.348a.514.514 0 01.149-.237.64.64 0 01.274-.135 1.77 1.77 0 01.426-.043h1.062zm-1.419 1.212c0 .08.006.147.019.2a.258.258 0 00.066.126.27.27 0 00.125.068.8.8 0 00.2.02h.956c.083 0 .15-.006.203-.02a.272.272 0 00.126-.068.26.26 0 00.066-.126.885.885 0 00.018-.2v-.357a.863.863 0 00-.019-.196.271.271 0 00-.065-.128.25.25 0 00-.126-.068.9.9 0 00-.203-.018h-.957a.88.88 0 00-.199.018.25.25 0 00-.125.068.27.27 0 00-.066.128.85.85 0 00-.019.196v.357zm4.688-1.212c.168 0 .309.015.424.044a.642.642 0 01.276.135c.069.062.118.14.148.237.03.097.045.213.045.348v.543c0 .135-.015.251-.045.348a.516.516 0 01-.148.237.625.625 0 01-.276.133 1.852 1.852 0 01-.424.042h-1.407v.749c0 .055-.028.083-.083.083h-.368c-.057 0-.086-.028-.086-.083V21.86c0-.135.015-.251.045-.348a.515.515 0 01.148-.237.64.64 0 01.274-.135c.114-.03.256-.043.426-.043h1.051zm-1.407 1.615h1.354a.9.9 0 00.203-.019.252.252 0 00.126-.067.273.273 0 00.066-.128.878.878 0 00.018-.2v-.335a.885.885 0 00-.018-.198.262.262 0 00-.066-.127.271.271 0 00-.126-.068.82.82 0 00-.203-.02h-.945a.8.8 0 00-.2.02.269.269 0 00-.125.068.259.259 0 00-.066.127.897.897 0 00-.018.198v.75zm3.445-1.614a.62.62 0 01.139.013.27.27 0 01.1.045c.028.021.054.05.078.086.024.037.05.084.08.142l.624 1.238c.013.022.03.034.053.034h.06a.053.053 0 00.052-.034l.623-1.238c.03-.058.057-.105.081-.142a.331.331 0 01.079-.086.269.269 0 01.1-.045.62.62 0 01.138-.014h.376c.064 0 .118.007.16.021a.208.208 0 01.102.068.281.281 0 01.053.122.96.96 0 01.015.185v1.588c0 .055-.028.083-.083.083h-.371c-.056 0-.083-.028-.083-.083v-1.498c0-.025-.01-.038-.03-.038h-.034a.065.065 0 00-.032.006c-.006.004-.011.012-.017.025l-.615 1.219a2.61 2.61 0 01-.096.171.517.517 0 01-.094.115.297.297 0 01-.116.064.571.571 0 01-.156.019h-.165a.571.571 0 01-.156-.019.297.297 0 01-.116-.064.561.561 0 01-.096-.115 1.576 1.576 0 01-.094-.171l-.615-1.22c-.005-.012-.01-.02-.017-.024a.065.065 0 00-.032-.006h-.034c-.02 0-.03.013-.03.038v1.498c0 .055-.027.083-.082.083h-.368c-.058 0-.087-.028-.087-.083v-1.588a.96.96 0 01.015-.185.28.28 0 01.053-.122.207.207 0 01.101-.068.543.543 0 01.166-.02h.371zm5.048 0c.168 0 .31.014.424.043a.64.64 0 01.276.135c.07.062.119.14.149.237.03.097.045.213.045.348v1.002c0 .06-.005.11-.014.148a.194.194 0 01-.044.093.17.17 0 01-.085.047.565.565 0 01-.135.013h-1.787c-.11 0-.202-.01-.276-.032a.428.428 0 01-.178-.096.351.351 0 01-.096-.166.907.907 0 01-.028-.24v-.181c0-.078.01-.148.029-.21a.352.352 0 01.095-.155.425.425 0 01.178-.096c.074-.022.166-.032.276-.032h1.528v-.072a.554.554 0 00-.019-.154.215.215 0 00-.064-.104.286.286 0 00-.123-.058.902.902 0 00-.203-.019h-1.569c-.045 0-.068-.023-.068-.068v-.316c0-.045.023-.067.068-.067h1.621zm.248 1.652c.04 0 .068-.01.085-.028.016-.02.024-.053.024-.1v-.331h-1.374c-.077 0-.132.015-.163.047-.031.031-.047.077-.047.137v.079c0 .068.016.117.047.149.031.031.086.047.163.047h1.265zm3.007-1.652a.62.62 0 01.138.013c.038.008.071.023.1.045.029.021.055.05.079.086.023.037.05.084.08.142l.623 1.238c.013.022.03.034.053.034h.06a.053.053 0 00.052-.034l.624-1.238a1.69 1.69 0 01.08-.142.331.331 0 01.08-.086.27.27 0 01.099-.045.621.621 0 01.139-.014h.375c.065 0 .119.007.161.021a.208.208 0 01.102.068.282.282 0 01.052.122.96.96 0 01.015.185v1.588c0 .055-.027.083-.082.083h-.372c-.055 0-.083-.028-.083-.083v-1.498c0-.025-.01-.038-.03-.038h-.033a.065.065 0 00-.032.006c-.007.004-.012.012-.017.025l-.616 1.219a2.613 2.613 0 01-.096.171.517.517 0 01-.093.115.297.297 0 01-.117.064.573.573 0 01-.156.019h-.165a.573.573 0 01-.155-.019.297.297 0 01-.117-.064.561.561 0 01-.095-.115 1.559 1.559 0 01-.094-.171l-.616-1.22c-.005-.012-.01-.02-.017-.024a.065.065 0 00-.032-.006h-.034c-.02 0-.03.013-.03.038v1.498c0 .055-.027.083-.082.083h-.368c-.057 0-.086-.028-.086-.083v-1.588c0-.073.005-.134.015-.185a.281.281 0 01.052-.122.206.206 0 01.102-.068.544.544 0 01.165-.02h.372zm5.303 0c.168 0 .309.014.424.043a.643.643 0 01.276.135c.069.062.118.14.148.237.03.097.045.213.045.348v.543c0 .135-.015.251-.045.348a.517.517 0 01-.148.237.626.626 0 01-.276.133 1.851 1.851 0 01-.424.042h-1.062c-.17 0-.312-.014-.426-.042a.624.624 0 01-.274-.133.515.515 0 01-.148-.237 1.182 1.182 0 01-.045-.348v-.543c0-.135.015-.251.045-.348a.514.514 0 01.148-.237.641.641 0 01.274-.135 1.77 1.77 0 01.426-.043h1.062zm-1.419 1.211c0 .08.007.147.02.2a.258.258 0 00.065.126.27.27 0 00.125.068.8.8 0 00.2.02h.956c.083 0 .15-.006.203-.02a.273.273 0 00.126-.068.26.26 0 00.066-.126.89.89 0 00.018-.2v-.357a.87.87 0 00-.018-.196.271.271 0 00-.066-.128.251.251 0 00-.126-.068.9.9 0 00-.203-.018h-.957a.881.881 0 00-.199.018.25.25 0 00-.125.068.27.27 0 00-.066.128.856.856 0 00-.019.196v.357zm4.838-1.968c.065 0 .11-.014.133-.042.024-.027.036-.069.036-.124v-.12c0-.058.028-.087.083-.087h.368c.057 0 .086.03.086.087v.128c0 .108-.01.2-.028.278a.4.4 0 01-.1.19.418.418 0 01-.19.108 1.109 1.109 0 01-.298.034h-1.238a.879.879 0 00-.2.018.288.288 0 00-.125.06.22.22 0 00-.066.108.59.59 0 00-.018.16v.117h1.407c.168 0 .31.014.424.043a.64.64 0 01.276.135c.069.062.118.14.148.238.03.096.046.212.046.348v.384c0 .135-.016.251-.046.348a.515.515 0 01-.148.237.624.624 0 01-.276.133 1.85 1.85 0 01-.424.042h-1.05c-.17 0-.313-.014-.427-.042a.624.624 0 01-.274-.133.516.516 0 01-.148-.237 1.183 1.183 0 01-.045-.348v-1.3c0-.135.015-.25.045-.347a.517.517 0 01.148-.237.64.64 0 01.274-.136c.114-.029.256-.043.426-.043h1.201zm-1.557 1.306v.651c0 .08.006.147.018.2a.258.258 0 00.066.126.27.27 0 00.126.068.8.8 0 00.199.02h.946a.82.82 0 00.202-.02.27.27 0 00.126-.068.26.26 0 00.066-.126.878.878 0 00.019-.2v-.237a.884.884 0 00-.02-.198.26.26 0 00-.065-.128.272.272 0 00-.126-.067.82.82 0 00-.202-.021h-1.355zm3.194-.55c.055 0 .082.03.082.087v1.445c0 .025.01.038.03.038h.034c.023 0 .039-.009.049-.026l1.126-1.321c.032-.04.063-.075.092-.102a.408.408 0 01.207-.107.847.847 0 01.163-.013h.21c.115 0 .2.027.255.082.055.055.083.16.083.313v1.588c0 .055-.03.083-.087.083h-.368c-.055 0-.082-.028-.082-.083v-1.45c0-.024-.01-.037-.03-.037h-.034c-.017 0-.034.01-.049.027l-1.13 1.32a3.21 3.21 0 01-.093.104.367.367 0 01-.09.07.373.373 0 01-.113.038.946.946 0 01-.161.01h-.203c-.115 0-.2-.026-.257-.08-.056-.054-.085-.158-.085-.31v-1.589c0-.058.03-.087.087-.087h.364zm5.078 0c.113 0 .193.027.242.08a.314.314 0 01.073.222v1.674c0 .06-.025.09-.075.09h-.379c-.052 0-.079-.028-.079-.086v-1.441c0-.04-.023-.06-.07-.06h-.815c-.04 0-.066.008-.076.024a.19.19 0 00-.022.058l-.032.226a5.425 5.425 0 01-.122.636c-.027.11-.057.207-.09.29a.906.906 0 01-.082.152.422.422 0 01-.111.111.48.48 0 01-.152.068.828.828 0 01-.207.023h-.356c-.05 0-.075-.028-.075-.083v-.275c0-.058.025-.086.075-.086h.266a.282.282 0 00.141-.04c.046-.026.088-.087.126-.183a2.07 2.07 0 00.11-.434c.032-.187.067-.424.108-.71a.337.337 0 01.076-.186c.042-.047.117-.07.227-.07h1.3zm1.242 0c.053 0 .08.03.08.09v.539h1.422c.263 0 .45.05.563.152.112.102.169.248.169.439v.252c0 .196-.057.344-.17.444-.112.1-.3.15-.562.15H83.2c-.07 0-.105-.036-.105-.108v-1.867c0-.06.026-.09.078-.09h.38zm.08 1.028v.572c0 .03.012.045.037.045h1.28c.112 0 .191-.02.236-.058.045-.039.068-.099.068-.179v-.143c0-.08-.023-.14-.068-.179-.045-.038-.124-.058-.236-.058h-1.318zm3.017-1.027c.055 0 .083.028.083.086v.704h1.711v-.704c0-.058.028-.087.083-.087h.368c.057 0 .086.03.086.087v1.897c0 .055-.029.083-.086.083h-.368c-.055 0-.083-.028-.083-.083v-.749h-1.711v.75c0 .054-.028.082-.083.082h-.368c-.057 0-.086-.028-.086-.083v-1.897c0-.058.029-.087.086-.087h.368zm4.722 0c.168 0 .309.014.424.043a.642.642 0 01.276.135c.069.062.118.14.148.237.03.097.045.213.045.348v.543c0 .135-.015.251-.045.348a.516.516 0 01-.148.237.625.625 0 01-.276.133 1.85 1.85 0 01-.424.042H90.31c-.17 0-.312-.014-.426-.042a.624.624 0 01-.274-.133.516.516 0 01-.149-.237 1.182 1.182 0 01-.045-.348v-.543c0-.135.015-.251.045-.348a.515.515 0 01.149-.237.641.641 0 01.274-.135 1.77 1.77 0 01.426-.043h1.062zm-1.419 1.211c0 .08.006.147.019.2a.26.26 0 00.066.126.27.27 0 00.125.068c.053.014.12.02.2.02h.956c.083 0 .15-.006.203-.02a.272.272 0 00.126-.068.258.258 0 00.065-.126.884.884 0 00.02-.2v-.357a.863.863 0 00-.02-.196.27.27 0 00-.065-.128.25.25 0 00-.126-.068.9.9 0 00-.203-.018h-.957a.882.882 0 00-.199.018.25.25 0 00-.125.068.27.27 0 00-.066.128.857.857 0 00-.019.196v.357zm3.24-2.062c0-.023.005-.043.018-.06a.061.061 0 01.053-.027c.027 0 .058.014.093.042a1.203 1.203 0 00.47.258.93.93 0 00.266.035.93.93 0 00.266-.036 1.272 1.272 0 00.376-.182l.097-.075a.19.19 0 01.05-.032.107.107 0 01.04-.01c.023 0 .04.009.053.026a.102.102 0 01.019.06v.196a.255.255 0 01-.011.078.18.18 0 01-.06.077 1.299 1.299 0 01-.332.175 1.615 1.615 0 01-.237.064 1.365 1.365 0 01-.524 0 1.47 1.47 0 01-.428-.15.819.819 0 01-.135-.09.177.177 0 01-.063-.076.255.255 0 01-.012-.078v-.195zm-.035.85c.056 0 .083.03.083.087v1.445c0 .025.01.038.03.038h.034c.022 0 .039-.009.049-.026l1.126-1.321c.032-.04.063-.075.092-.102a.408.408 0 01.206-.107.849.849 0 01.163-.013h.21c.116 0 .2.027.256.082.055.055.082.16.082.313v1.588c0 .055-.029.083-.086.083h-.368c-.055 0-.082-.028-.082-.083v-1.45c0-.024-.01-.037-.03-.037h-.034c-.018 0-.034.01-.049.027l-1.13 1.32a2.99 2.99 0 01-.094.104.366.366 0 01-.09.07.373.373 0 01-.112.038.947.947 0 01-.162.01h-.202c-.115 0-.201-.026-.257-.08-.057-.054-.085-.158-.085-.31v-1.589c0-.058.029-.087.086-.087h.364zM99.561 21.098c.113 0 .194.026.243.079a.315.315 0 01.073.222v1.32h.499c.055 0 .083.028.083.083v.983c0 .055-.028.083-.083.083h-.3c-.058 0-.087-.028-.087-.083v-.621h-2.454v.62c0 .056-.028.084-.083.084h-.3c-.058 0-.087-.028-.087-.083v-.983c0-.055.03-.082.087-.082h.323a.282.282 0 00.14-.04c.047-.026.089-.087.126-.182.043-.103.08-.248.11-.435.032-.187.068-.423.108-.71a.337.337 0 01.077-.186c.04-.046.117-.07.227-.07h1.298zm-.217 1.622v-1.084c0-.04-.024-.06-.072-.06h-.814c-.04 0-.065.008-.075.024a.185.185 0 00-.023.058l-.03.202a10.722 10.722 0 01-.105.577 3.055 3.055 0 01-.075.283h1.194zm1.891-1.622c.056 0 .083.028.083.086v1.445c0 .025.01.038.03.038h.034c.022 0 .039-.009.049-.026l1.126-1.321a.99.99 0 01.092-.102.395.395 0 01.206-.107.847.847 0 01.163-.014h.211c.115 0 .2.028.255.083.055.055.082.16.082.313v1.588c0 .055-.028.083-.086.083h-.368c-.055 0-.082-.028-.082-.083v-1.45c0-.024-.01-.037-.03-.037h-.034c-.018 0-.034.01-.049.027l-1.13 1.32c-.035.04-.066.076-.094.104a.347.347 0 01-.202.107.957.957 0 01-.162.012h-.202c-.115 0-.201-.027-.257-.081-.057-.054-.085-.158-.085-.31v-1.589c0-.058.029-.087.086-.087h.364zm5.113 0c.045 0 .067.022.067.067v.316c0 .045-.022.068-.067.068h-1.457a.814.814 0 00-.202.02.256.256 0 00-.124.069.264.264 0 00-.064.127.86.86 0 00-.019.198v.335c0 .08.006.147.019.2a.264.264 0 00.064.126c.03.031.071.054.124.068.052.013.12.02.202.02h1.457c.045 0 .067.023.067.068v.316c0 .045-.022.068-.067.068h-1.509c-.17 0-.313-.014-.426-.042a.624.624 0 01-.274-.133.524.524 0 01-.149-.237 1.183 1.183 0 01-.045-.348v-.543c0-.135.015-.251.045-.348a.523.523 0 01.149-.237.64.64 0 01.274-.135c.113-.03.256-.043.426-.043h1.509zm3.13 0c.045 0 .068.022.068.067v.316c0 .045-.023.068-.068.068h-1.107v1.532c0 .055-.028.083-.083.083h-.368c-.057 0-.086-.028-.086-.083V21.55h-1.107c-.045 0-.068-.023-.068-.068v-.316c0-.045.023-.067.068-.067h2.751zm2.286 0c.167 0 .309.014.424.043a.644.644 0 01.276.135c.069.062.118.14.148.237.03.097.045.213.045.348v.543c0 .135-.015.251-.045.348a.514.514 0 01-.148.237.627.627 0 01-.276.133 1.852 1.852 0 01-.424.042h-1.408v.749c0 .055-.027.083-.082.083h-.368c-.058 0-.087-.028-.087-.083V21.86c0-.135.016-.251.046-.348a.513.513 0 01.148-.237.641.641 0 01.274-.135c.114-.03.256-.043.426-.043h1.051zm-1.408 1.614h1.355c.083 0 .15-.006.203-.019a.257.257 0 00.126-.067.268.268 0 00.065-.128.855.855 0 00.019-.2v-.335a.86.86 0 00-.019-.198.257.257 0 00-.065-.127.277.277 0 00-.126-.068.822.822 0 00-.203-.02h-.946a.804.804 0 00-.199.02.269.269 0 00-.125.068.25.25 0 00-.066.127.86.86 0 00-.019.198v.75zm3.194-1.614c.055 0 .083.028.083.086v1.445c0 .025.01.038.03.038h.034c.022 0 .039-.009.049-.026l1.125-1.321c.033-.04.064-.075.093-.102a.412.412 0 01.091-.068.416.416 0 01.115-.04.847.847 0 01.163-.012h.21c.115 0 .201.027.256.082.055.055.082.16.082.313v1.588c0 .055-.029.083-.086.083h-.368c-.055 0-.083-.028-.083-.083v-1.45c0-.024-.01-.037-.03-.037h-.033c-.018 0-.034.01-.049.027l-1.13 1.32c-.035.04-.066.076-.094.104a.347.347 0 01-.202.107.957.957 0 01-.162.012h-.202c-.116 0-.201-.027-.258-.081-.056-.054-.084-.158-.084-.31v-1.589c0-.058.029-.087.086-.087h.364zm4.884-.757c.065 0 .109-.014.133-.042.023-.027.035-.069.035-.124v-.12c0-.058.028-.087.083-.087h.368c.057 0 .086.03.086.087v.128c0 .108-.009.2-.028.278a.399.399 0 01-.1.19.413.413 0 01-.189.108 1.106 1.106 0 01-.298.034h-1.239a.883.883 0 00-.199.018.29.29 0 00-.126.06.218.218 0 00-.065.108.57.57 0 00-.019.16v.117h1.407c.168 0 .309.014.425.043a.633.633 0 01.275.135c.069.062.119.14.149.238.03.096.045.212.045.348v.384c0 .135-.015.251-.045.348a.515.515 0 01-.149.237.617.617 0 01-.275.133 1.862 1.862 0 01-.425.042h-1.051c-.17 0-.312-.014-.426-.042a.63.63 0 01-.274-.133.522.522 0 01-.148-.237 1.183 1.183 0 01-.045-.348v-1.3c0-.135.015-.25.045-.347a.522.522 0 01.148-.237.646.646 0 01.274-.136c.114-.029.256-.043.426-.043h1.202zm-1.558 1.306v.651c0 .08.006.147.019.2a.256.256 0 00.065.126.267.267 0 00.126.068c.053.013.119.02.199.02h.946c.082 0 .15-.007.202-.02a.267.267 0 00.126-.068.266.266 0 00.066-.126.912.912 0 00.019-.2v-.237a.92.92 0 00-.019-.198.267.267 0 00-.066-.128.269.269 0 00-.126-.067.812.812 0 00-.202-.021h-1.355zm5.352-.55c.028 0 .046.01.055.029.008.018.006.04-.006.066l-1.441 2.548a.456.456 0 01-.212.194.947.947 0 01-.381.062h-.263c-.045 0-.068-.023-.068-.068v-.309c0-.045.023-.068.068-.068h.221c.095 0 .159-.028.192-.086l.202-.358a.279.279 0 01-.144-.045.369.369 0 01-.096-.117l-1.013-1.753c-.013-.026-.015-.047-.006-.066.009-.02.027-.029.055-.029h.431c.043 0 .073.018.09.053l.834 1.45c.02.034.035.058.047.069a.056.056 0 00.043.017l.882-1.536c.017-.035.047-.052.09-.052h.42zm.77 0c.055 0 .082.03.082.087v1.457c0 .052.026.079.079.079h1.633v-1.536c0-.058.027-.087.082-.087h.368c.058 0 .086.03.086.087v1.536h.496c.055 0 .082.027.082.082v.983c0 .055-.027.083-.082.083h-.3c-.058 0-.087-.028-.087-.083v-.621h-2.544c-.128 0-.218-.026-.271-.077-.052-.052-.079-.133-.079-.243v-1.66c0-.058.029-.087.087-.087h.368zm3.685 0c.056 0 .083.03.083.087v1.445c0 .025.01.038.03.038h.034c.022 0 .039-.009.049-.026l1.126-1.321a.99.99 0 01.092-.102.395.395 0 01.206-.107.847.847 0 01.163-.014h.211c.115 0 .2.028.255.083.055.055.082.16.082.313v1.588c0 .055-.028.083-.086.083h-.368c-.055 0-.082-.028-.082-.083v-1.45c0-.024-.011-.037-.031-.037h-.033c-.018 0-.034.01-.049.027l-1.13 1.32c-.035.04-.066.076-.094.104a.347.347 0 01-.202.107.957.957 0 01-.162.012h-.202c-.116 0-.201-.027-.258-.081-.056-.054-.084-.158-.084-.31v-1.589c0-.058.029-.087.086-.087h.364zm3.251 0c.055 0 .082.03.082.087v1.445c0 .025.01.038.03.038h.034c.023 0 .039-.009.049-.026l1.126-1.321a1.12 1.12 0 01.092-.102.409.409 0 01.206-.107.859.859 0 01.164-.013h.21c.115 0 .2.027.255.082.055.055.083.16.083.313v1.588c0 .055-.029.083-.087.083h-.367c-.055 0-.083-.028-.083-.083v-1.45c0-.024-.01-.037-.03-.037h-.034c-.017 0-.033.01-.049.027l-1.129 1.32c-.035.04-.067.076-.094.104a.384.384 0 01-.09.07.376.376 0 01-.113.038.936.936 0 01-.161.01h-.203c-.115 0-.201-.026-.257-.08-.056-.054-.084-.158-.084-.31v-1.589c0-.058.028-.087.086-.087h.364z" fill="#fff"/><path fill-rule="evenodd" clip-rule="evenodd" d="M11.092 18.858a6.07 6.07 0 008.546.973l.513.647a6.938 6.938 0 001.102-9.731 6.893 6.893 0 00-9.703-1.105l.513.646a6.11 6.11 0 00-.97 8.57zm-1.024.817c-2.542-3.202-2.013-7.865 1.18-10.414a7.376 7.376 0 0110.385 1.183c2.541 3.203 2.013 7.865-1.18 10.414a7.376 7.376 0 01-10.385-1.183z" fill="#2E9FBF"/><path fill-rule="evenodd" clip-rule="evenodd" d="M6.751 14.773c-.158 5.04 3.788 9.253 8.814 9.412l-.04 1.236c5.707.18 10.478-4.313 10.658-10.036.18-5.722-4.301-10.507-10.007-10.686l-.04 1.236c-5.024-.159-9.227 3.798-9.385 8.838zm-1.957-.062c.192-6.124 5.298-10.932 11.405-10.74 6.106.193 10.9 5.314 10.709 11.437-.192 6.124-5.298 10.932-11.405 10.74-6.107-.193-10.901-5.313-10.71-11.437z" fill="#fff"/><path fill-rule="evenodd" clip-rule="evenodd" d="M6.134 22.297c3.986 5.381 11.567 6.503 16.933 2.506l.978 1.32c6.093-4.538 7.364-13.17 2.838-19.28C22.357.732 13.749-.543 7.656 3.996l.978 1.32c-5.366 3.996-6.485 11.599-2.5 16.98zm-2.09 1.557C-.799 17.315.561 8.077 7.081 3.22c6.52-4.857 15.733-3.493 20.576 3.046s3.484 15.777-3.037 20.633c-6.52 4.857-15.733 3.494-20.576-3.045z" fill="#2E9FBF"/><path fill-rule="evenodd" clip-rule="evenodd" d="M4.287 9.677a12.7 12.7 0 011.811-2.853L5.12 5.94a14.01 14.01 0 00-2.003 3.129l1.17.608zM20.463 26.98a12.703 12.703 0 01-6.594.707l-.258 1.295c2.43.393 4.959.15 7.319-.767l-.467-1.235z" fill="#69D4CE"/><path fill-rule="evenodd" clip-rule="evenodd" d="M6.135 22.297a12.053 12.053 0 004.719 3.819L9.553 28.39a14.65 14.65 0 01-5.509-4.536 14.707 14.707 0 01-2.898-8.53H3.75c.05 2.432.828 4.872 2.385 6.973zM118.031 6.327c.238 0 .357.12.357.357v1.592c0 .25-.119.374-.357.374h-7.207c-.421 0-.769.035-1.044.105-.276.07-.494.19-.656.357a1.453 1.453 0 00-.348.675c-.071.281-.106.638-.106 1.071v2.307c0 .433.035.793.106 1.08.07.287.186.514.348.682.162.168.38.287.656.357a4.3 4.3 0 001.044.106h7.207c.238 0 .357.119.357.357v1.592c0 .238-.119.357-.357.357h-7.304c-.82 0-1.517-.076-2.089-.227-.572-.152-1.039-.398-1.401-.74-.362-.34-.626-.784-.794-1.33-.167-.548-.251-1.21-.251-1.99v-2.794c0-.78.084-1.44.251-1.981.168-.542.432-.983.794-1.324.362-.341.829-.59 1.401-.747.572-.157 1.269-.236 2.089-.236h7.304zM95.228 13.506h5.571l-2.575-4.759c-.043-.076-.102-.113-.178-.113h-.097c-.076 0-.135.037-.178.113l-2.543 4.759zm3.142-7.179c.41 0 .756.084 1.036.252.281.168.557.495.827.983l5.36 9.76c.054.109.068.198.041.269-.027.07-.105.105-.235.105h-2.057c-.184 0-.308-.07-.372-.211l-1.15-2.095h-7.612l-1.118 2.095c-.075.14-.2.211-.373.211h-2.105c-.14 0-.224-.035-.25-.105-.028-.07-.014-.16.04-.268l5.312-9.761c.27-.488.534-.815.793-.983.26-.168.562-.252.907-.252h.956zM78.626 6.327c.238 0 .357.12.357.357v4.223h7.58V6.684c0-.238.118-.357.356-.357h1.749c.248 0 .372.12.372.357V17.34c0 .238-.124.357-.372.357h-1.75c-.237 0-.355-.119-.355-.357v-4.32h-7.58v4.32c0 .238-.119.357-.357.357h-1.749c-.248 0-.372-.119-.372-.357V6.684c0-.238.124-.357.372-.357h1.75zM62.9 13.23c0 .422.036.777.106 1.063.07.288.186.515.348.683.162.167.38.287.656.357s.624.105 1.045.105h4.81c.421 0 .77-.035 1.045-.105.275-.07.494-.19.656-.357.162-.168.278-.396.348-.683.07-.286.105-.641.105-1.063v-2.437c0-.422-.035-.776-.105-1.063-.07-.287-.186-.515-.348-.682a1.354 1.354 0 00-.656-.358 4.316 4.316 0 00-1.045-.105h-4.81c-.421 0-.77.035-1.045.105-.275.07-.494.19-.656.358-.162.167-.278.395-.348.682-.07.287-.105.641-.105 1.063v2.437zm7.062-6.903c.82 0 1.52.079 2.098.236.577.157 1.047.406 1.409.747.361.34.623.782.785 1.324.162.54.243 1.201.243 1.98v2.794c0 .78-.081 1.443-.243 1.99-.162.547-.424.99-.785 1.332-.362.34-.832.587-1.41.739-.577.151-1.276.227-2.097.227h-5.004c-.821 0-1.517-.076-2.09-.227-.572-.152-1.039-.398-1.4-.74-.362-.34-.627-.784-.794-1.33-.167-.548-.251-1.211-.251-1.99v-2.794c0-.78.084-1.44.25-1.981.168-.542.433-.983.794-1.324.362-.341.83-.59 1.401-.747.573-.157 1.269-.236 2.09-.236h5.004zM56.908 6.327c.54 0 .923.111 1.15.333.227.222.34.571.34 1.048v9.63c0 .239-.119.358-.356.358h-1.766c-.237 0-.356-.119-.356-.357V8.975c0-.217-.113-.325-.34-.325h-3.822c-.195 0-.316.051-.364.154-.05.103-.084.22-.106.35a90.156 90.156 0 01-.186 1.697 36.906 36.906 0 01-.567 3.41c-.113.525-.24.999-.38 1.421-.217.671-.519 1.175-.908 1.51-.388.336-.944.504-1.668.504h-1.652c-.248 0-.372-.119-.372-.357v-1.592c0-.238.124-.357.372-.357h1.231c.238 0 .462-.084.672-.252.21-.168.403-.512.575-1.031.097-.303.186-.65.267-1.04.082-.39.16-.839.235-1.348.076-.508.154-1.088.235-1.738.081-.65.17-1.396.267-2.24.044-.434.162-.778.357-1.032.194-.255.55-.382 1.069-.382h6.073zM131.833 8.633c.236 0 .354-.119.354-.355v-1.58c0-.246-.119-.37-.354-.37h-7.307c-.82 0-1.517.075-2.089.226-.573.152-1.039.398-1.401.74-.362.34-.626.784-.794 1.331-.167.547-.251 1.21-.251 1.99v2.793c0 .78.084 1.44.251 1.982.168.541.432.982.794 1.324.362.34.828.59 1.401.747.572.157 1.268.235 2.089.235h7.304c.238 0 .357-.12.357-.357v-1.592c0-.249-.119-.373-.357-.373h-7.207c-.421 0-.769-.036-1.045-.106a1.35 1.35 0 01-.655-.357 1.463 1.463 0 01-.349-.674 4.55 4.55 0 01-.105-1.072v-2.307c0-.433.035-.793.105-1.08.071-.287.187-.514.349-.682a1.35 1.35 0 01.655-.357c.276-.07.624-.106 1.045-.106h7.21zM40.145 8.65c-.42 0-.769.036-1.044.106s-.494.19-.656.357a1.457 1.457 0 00-.348.675c-.07.281-.105.638-.105 1.072v6.48c0 .238-.119.357-.357.357h-1.749c-.248 0-.372-.119-.372-.357v-6.724c0-.78.083-1.44.25-1.981.168-.542.433-.983.794-1.324.362-.341.829-.59 1.4-.747.573-.157 1.27-.236 2.09-.236h6.657c.237 0 .356.12.356.357v1.592c0 .248-.12.373-.356.373h-6.56z" fill="#fff"/></svg><svg fill="none" viewBox="0 0 16 16" id="main" xmlns="http://www.w3.org/2000/svg"><path d="M7.222 15H2.556A1.56 1.56 0 011 13.444V2.556C1 1.7 1.7 1 2.556 1h4.666v14zm1.556 0h4.666C14.3 15 15 14.3 15 13.444V8H8.778v7zM15 6.444V2.556C15 1.7 14.3 1 13.444 1H8.778v5.444H15z" fill="currentColor"/></svg><svg fill="none" viewBox="0 0 16 16" id="profiles" xmlns="http://www.w3.org/2000/svg"><path d="M8.004 1a6.658 6.658 0 00-5.102 2.375l1.02.859a5.324 5.324 0 014.082-1.9 5.33 5.33 0 014.076 1.891l1.018-.86A6.661 6.661 0 008.004 1z" fill="currentColor"/><path d="M8.005 5c.847 0 1.625.39 2.134 1.068l1.067-.8a3.967 3.967 0 00-3.201-1.601 3.97 3.97 0 00-3.2 1.6l1.066.8A2.648 2.648 0 018.005 5zM9.333 7H6.666c-1.103 0-2 .897-2 2v4c0 1.103.897 2 2 2h2.667c1.102 0 2-.897 2-2V9c0-1.103-.897-2-2-2zm-1.334 5.499a.833.833 0 110-1.667.833.833 0 010 1.667z" fill="currentColor"/></svg><svg fill="none" viewBox="0 0 16 16" id="settings" xmlns="http://www.w3.org/2000/svg"><path d="M13.015 8.685c.03-.218.044-.444.044-.685 0-.233-.015-.467-.051-.685l1.48-1.153a.358.358 0 00.088-.444l-1.4-2.421c-.088-.16-.27-.212-.43-.16l-1.743.7A5.15 5.15 0 009.82 3.15L9.56 1.299A.353.353 0 009.209 1h-2.8a.345.345 0 00-.343.299l-.262 1.852c-.43.175-.824.416-1.182.685l-1.742-.7a.348.348 0 00-.43.16L1.057 5.719c-.088.153-.058.342.087.444l1.48 1.153A4.28 4.28 0 002.56 8c0 .226.015.467.051.685L1.13 9.837a.358.358 0 00-.088.445l1.4 2.421c.088.16.27.212.43.16l1.743-.7c.365.278.751.511 1.181.686l.263 1.852a.358.358 0 00.35.299h2.8a.34.34 0 00.343-.299l.262-1.852a5 5 0 001.181-.685l1.743.7c.16.058.343 0 .43-.16l1.4-2.422c.088-.16.051-.342-.087-.444l-1.466-1.153zm-5.206 1.94A2.633 2.633 0 015.184 8a2.633 2.633 0 012.625-2.625A2.633 2.633 0 0110.434 8a2.633 2.633 0 01-2.625 2.625z" fill="currentColor"/></svg></svg>