<?xml version="1.0" encoding="utf-8"?><svg viewBox="0 0 25 25" xmlns="http://www.w3.org/2000/svg" xmlns:xlink="http://www.w3.org/1999/xlink"><style>:root>svg{display:none}:root>svg:target{display:block}</style><svg fill="none" viewBox="0 0 24 24" id="chevron" xmlns="http://www.w3.org/2000/svg"><path d="M10.09 16.59L14.67 12l-4.58-4.59L11.5 6l6 6-6 6-1.41-1.41z" fill="#1F2326" opacity=".9"/></svg><svg fill="none" viewBox="0 0 20 20" id="login" xmlns="http://www.w3.org/2000/svg"><path d="M15.555 2.222h-8.89a1.111 1.111 0 00-1.11 1.111h10v13.334h-8.89v-5.445h-1.11v5.445a1.111 1.111 0 001.11 1.11h8.89a1.111 1.111 0 001.11-1.11V3.333a1.111 1.111 0 00-1.11-1.11z" fill="#000"/><path d="M8.401 10.255a.556.556 0 10.784.784L12.4 7.822l-3.21-3.217a.556.556 0 00-.784.784l1.872 1.833H2.224a.556.556 0 100 1.111h8.055l-1.878 1.922z" fill="#000"/></svg><svg fill="none" viewBox="0 0 25 25" id="search" xmlns="http://www.w3.org/2000/svg"><path d="M21.946 20.706l-5.843-5.843A6.69 6.69 0 0017.5 10.75a6.71 6.71 0 00-1.978-4.772A6.7 6.7 0 0010.75 4a6.71 6.71 0 00-4.772 1.978A6.696 6.696 0 004 10.75a6.71 6.71 0 001.978 4.772A6.696 6.696 0 0010.75 17.5c1.508 0 2.938-.49 4.11-1.395l5.844 5.84a.183.183 0 00.201.04.183.183 0 00.06-.04l.98-.978a.183.183 0 00.04-.201.183.183 0 00-.04-.06zm-7.632-6.392a5.013 5.013 0 01-3.564 1.476 5.013 5.013 0 01-3.564-1.476A5.013 5.013 0 015.71 10.75c0-1.346.524-2.612 1.476-3.564A5.013 5.013 0 0110.75 5.71a5 5 0 013.564 1.476 5.013 5.013 0 011.476 3.564 5.01 5.01 0 01-1.476 3.564z" fill="#fff"/></svg></svg>