<?xml version="1.0" encoding="utf-8"?><svg viewBox="0 0 25 25" xmlns="http://www.w3.org/2000/svg" xmlns:xlink="http://www.w3.org/1999/xlink"><style>:root>svg{display:none}:root>svg:target{display:block}</style><svg fill="none" viewBox="0 0 24 24" id="chevron" xmlns="http://www.w3.org/2000/svg"><path d="M10.09 16.59L14.67 12l-4.58-4.59L11.5 6l6 6-6 6-1.41-1.41z" fill="#1F2326" opacity=".9"/></svg><svg fill="none" viewBox="0 0 25 25" id="fb" xmlns="http://www.w3.org/2000/svg"><g clip-path="url(#bclip0)"><path d="M12.5.5C5.872.5.5 5.872.5 12.5c0 6.627 5.372 12 12 12s12-5.373 12-12c0-6.628-5.372-12-12-12zm2.842 8.292H13.54c-.214 0-.451.282-.451.655v1.303h2.256l-.341 1.857h-1.915v5.576h-2.13v-5.576h-1.93V10.75h1.93V9.657c0-1.567 1.088-2.841 2.58-2.841h1.804v1.976z" fill="currentColor"/></g><defs><clipPath id="bclip0"><path fill="#fff" d="M0 0h25v25H0z"/></clipPath></defs></svg><svg fill="none" viewBox="0 0 25 25" id="in" xmlns="http://www.w3.org/2000/svg"><g clip-path="url(#cclip0)"><path d="M16.25 12.5a3.75 3.75 0 01-7.5 0c0-.214.023-.423.061-.625H7.5v4.996c0 .348.281.629.629.629h8.743a.63.63 0 00.628-.629v-4.996h-1.311c.038.202.061.411.061.625zM12.5 15a2.502 2.502 0 00.956-4.811 2.5 2.5 0 10-.956 4.81zm3-5.125h1.499a.376.376 0 00.376-.375V8a.376.376 0 00-.376-.376H15.5a.376.376 0 00-.376.376V9.5c.001.206.17.375.376.375zM12.5.5a12 12 0 100 24 12 12 0 000-24zm6.25 16.861c0 .764-.625 1.389-1.389 1.389H7.64A1.393 1.393 0 016.25 17.36V7.639c0-.764.625-1.39 1.389-1.39h9.722c.764 0 1.389.626 1.389 1.39v9.722z" fill="currentColor"/></g><defs><clipPath id="cclip0"><path fill="#fff" d="M0 0h25v25H0z"/></clipPath></defs></svg><svg fill="none" viewBox="0 0 18 18" id="link-arrow" xmlns="http://www.w3.org/2000/svg"><path opacity=".9" fill-rule="evenodd" clip-rule="evenodd" d="M11.965 5.4H4.238V3.6h10.8v10.8h-1.8V6.673l-8.364 8.364-1.272-1.273L11.965 5.4z" fill="#1F2326"/></svg><svg fill="none" viewBox="0 0 20 20" id="login" xmlns="http://www.w3.org/2000/svg"><path d="M15.555 2.222h-8.89a1.111 1.111 0 00-1.11 1.111h10v13.334h-8.89v-5.445h-1.11v5.445a1.111 1.111 0 001.11 1.11h8.89a1.111 1.111 0 001.11-1.11V3.333a1.111 1.111 0 00-1.11-1.11z" fill="#000"/><path d="M8.401 10.255a.556.556 0 10.784.784L12.4 7.822l-3.21-3.217a.556.556 0 00-.784.784l1.872 1.833H2.224a.556.556 0 100 1.111h8.055l-1.878 1.922z" fill="#000"/></svg><svg fill="none" viewBox="0 0 20 20" id="login-icon" xmlns="http://www.w3.org/2000/svg"><path d="M10 4c-.955 0-1.7.315-2.237.946-.537.631-.806 1.438-.806 2.42-.006 1.22.431 2.188 1.313 2.902a.347.347 0 01.12.366l-.23.428a.789.789 0 01-.323.335c-.142.08-.442.195-.9.344l-1.257.366c-.819.238-1.255.37-1.308.393-.557.208-.921.426-1.094.652C3.093 13.527 3 14.476 3 16h14c0-1.524-.093-2.473-.278-2.848-.173-.226-.537-.444-1.094-.652-.053-.024-.489-.155-1.308-.393l-1.258-.366c-.457-.149-.757-.263-.9-.344a.789.789 0 01-.323-.335l-.228-.428a.347.347 0 01.12-.366c.88-.714 1.318-1.682 1.312-2.902 0-.982-.269-1.789-.806-2.42C11.7 4.316 10.954 4 10 4z" fill="#fff" fill-opacity=".9"/></svg><svg fill="none" viewBox="0 0 25 25" id="search" xmlns="http://www.w3.org/2000/svg"><path d="M21.946 20.706l-5.843-5.843A6.69 6.69 0 0017.5 10.75a6.71 6.71 0 00-1.978-4.772A6.7 6.7 0 0010.75 4a6.71 6.71 0 00-4.772 1.978A6.696 6.696 0 004 10.75a6.71 6.71 0 001.978 4.772A6.696 6.696 0 0010.75 17.5c1.508 0 2.938-.49 4.11-1.395l5.844 5.84a.183.183 0 00.201.04.183.183 0 00.06-.04l.98-.978a.183.183 0 00.04-.201.183.183 0 00-.04-.06zm-7.632-6.392a5.013 5.013 0 01-3.564 1.476 5.013 5.013 0 01-3.564-1.476A5.013 5.013 0 015.71 10.75c0-1.346.524-2.612 1.476-3.564A5.013 5.013 0 0110.75 5.71a5 5 0 013.564 1.476 5.013 5.013 0 011.476 3.564 5.01 5.01 0 01-1.476 3.564z" fill="currentColor"/></svg><svg fill="none" viewBox="0 0 25 25" id="vk" xmlns="http://www.w3.org/2000/svg"><g clip-path="url(#hclip0)"><path d="M12.5.5C5.872.5.5 5.872.5 12.5c0 6.627 5.372 12 12 12s12-5.373 12-12c0-6.628-5.372-12-12-12zm4.615 13.539s1.061 1.047 1.323 1.533c.007.01.01.02.013.025.107.179.131.318.079.421-.088.173-.388.258-.49.265h-1.875c-.13 0-.402-.033-.732-.26-.254-.178-.504-.47-.748-.753-.364-.423-.679-.788-.996-.788a.38.38 0 00-.119.019c-.24.078-.547.42-.547 1.333 0 .285-.226.448-.384.448h-.859c-.292 0-1.816-.102-3.166-1.526-1.653-1.744-3.14-5.241-3.153-5.274-.094-.226.1-.347.311-.347h1.894c.253 0 .335.154.393.29.067.159.315.79.721 1.5.659 1.157 1.063 1.627 1.386 1.627.061 0 .12-.016.174-.045.422-.235.344-1.741.325-2.053 0-.06-.001-.674-.217-.97-.155-.213-.42-.294-.58-.324a.687.687 0 01.25-.211c.29-.145.812-.167 1.33-.167h.29c.562.008.707.044.91.095.413.099.422.365.386 1.276-.011.26-.023.552-.023.897 0 .075-.003.155-.003.24-.013.464-.028.99.3 1.206a.27.27 0 00.142.041c.114 0 .456 0 1.384-1.591.286-.512.534-1.044.744-1.592.018-.033.073-.133.138-.172a.332.332 0 01.155-.036h2.226c.243 0 .41.036.44.13.056.149-.01.603-1.026 1.979l-.453.598c-.922 1.208-.922 1.27.057 2.186z" fill="currentColor"/></g><defs><clipPath id="hclip0"><path fill="#fff" d="M0 0h25v25H0z"/></clipPath></defs></svg><svg fill="none" viewBox="0 0 25 25" id="yt" xmlns="http://www.w3.org/2000/svg"><g clip-path="url(#iclip0)"><path d="M14.504 12.291l-2.808-1.31c-.245-.114-.446.014-.446.285v2.467c0 .272.201.4.446.285l2.806-1.31c.247-.114.247-.302.002-.417zM12.5.5C5.872.5.5 5.872.5 12.5c0 6.627 5.372 12 12 12s12-5.373 12-12c0-6.628-5.372-12-12-12zm0 16.875c-6.143 0-6.25-.554-6.25-4.875s.107-4.875 6.25-4.875c6.142 0 6.25.554 6.25 4.875s-.108 4.875-6.25 4.875z" fill="currentColor"/></g><defs><clipPath id="iclip0"><path fill="#fff" d="M0 0h25v25H0z"/></clipPath></defs></svg></svg>